<?xml version="1.0" encoding="UTF-8" standalone="no"?>
<svg
   xmlns:dc="http://purl.org/dc/elements/1.1/"
   xmlns:cc="http://creativecommons.org/ns#"
   xmlns:rdf="http://www.w3.org/1999/02/22-rdf-syntax-ns#"
   xmlns:svg="http://www.w3.org/2000/svg"
   xmlns="http://www.w3.org/2000/svg"
   xmlns:sodipodi="http://sodipodi.sourceforge.net/DTD/sodipodi-0.dtd"
   xmlns:inkscape="http://www.inkscape.org/namespaces/inkscape"
   width="128"
   height="128"
   viewBox="0 0 33.866666 33.866668"
   version="1.1"
   id="svg8"
   inkscape:version="1.0.1 (3bc2e813f5, 2020-09-07)"
   sodipodi:docname="hand_open_2.svg">
  <defs
     id="defs2" />
  <sodipodi:namedview
     id="base"
     pagecolor="#ffffff"
     bordercolor="#666666"
     borderopacity="1.0"
     inkscape:pageopacity="0.0"
     inkscape:pageshadow="2"
     inkscape:zoom="7.9195959"
     inkscape:cx="89.504048"
     inkscape:cy="53.957084"
     inkscape:document-units="px"
     inkscape:current-layer="layer1"
     inkscape:document-rotation="0"
     showgrid="false"
     units="px"
     inkscape:window-width="1620"
     inkscape:window-height="1018"
     inkscape:window-x="-6"
     inkscape:window-y="-6"
     inkscape:window-maximized="1"
     inkscape:snap-global="false" />
  <metadata
     id="metadata5">
    <rdf:RDF>
      <cc:Work
         rdf:about="">
        <dc:format>image/svg+xml</dc:format>
        <dc:type
           rdf:resource="http://purl.org/dc/dcmitype/StillImage" />
        <dc:title></dc:title>
      </cc:Work>
    </rdf:RDF>
  </metadata>
  <g
     inkscape:label="Layer 1"
     inkscape:groupmode="layer"
     id="layer1">
    <path
       style="opacity:0.999;fill:#f9f9f9;stroke:none;stroke-width:0.617519;stroke-linecap:round;stroke-miterlimit:4;stroke-dasharray:none;stroke-dashoffset:0"
       d="M 16.737223,31.013455 C 16.130731,29.745336 15.358832,27.484773 13.759897,26.657737 12.160964,25.830703 9.0182324,23.239328 8.6322825,22.963649 8.2463335,22.687971 5.5998218,18.442527 5.4895504,17.560355 5.3792793,16.678185 4.2214307,13.204639 4.2214307,12.708418 c 0,-0.49622 0.055136,-1.212984 0.4962206,-1.212984 0.4410854,0 2.2054263,1.323255 2.9773254,2.591375 0.7718992,1.26812 3.3632743,4.962209 3.6389523,5.127616 0.275678,0.165407 -0.441085,-2.92219 -0.827034,-4.245445 C 10.120945,13.645725 9.2387749,10.723534 8.5220118,9.4554148 7.8052478,8.1872943 5.8754999,4.7688842 5.9306359,4.1072561 5.9857713,3.4456283 6.7576704,1.5710163 7.0884845,1.6812877 7.4192982,1.7915589 9.569588,3.1148145 10.065809,4.1623919 c 0.496221,1.0475773 1.323256,3.1427319 2.04002,3.0324611 0.716763,-0.1102717 2.425968,-0.38595 3.087596,-0.2205428 0.661628,0.165407 1.488663,1.0475775 1.874612,1.1027125 0.385949,0.055131 0.88217,-0.4410849 1.819477,0 0.937306,0.4410857 1.323255,0.4410857 1.819476,0.7718989 0.496221,0.330815 0.220543,0.05514 0.992442,0 0.771899,-0.05514 1.984883,0.4410866 2.481104,0.7718998 0.496221,0.3308141 1.929748,4.2454456 2.205426,5.0173446 0.275678,0.771899 0.716763,2.701647 0.716763,3.473546 0,0.771899 0.385951,4.080038 0.385951,5.127616 0,1.047577 0.110266,4.631394 0.275678,5.348159 0.165407,0.71676 0.275678,2.150289 0.275678,2.150289 0,0 -4.355717,5.954652 -11.302809,0.275679 z"
       id="path1475" />
    <path
       style="opacity:0.999;fill:#f9f9f9;stroke:none;stroke-width:0.617519;stroke-linecap:round;stroke-miterlimit:4;stroke-dasharray:none;stroke-dashoffset:0"
       d="M 16.737223,31.013455 C 16.130731,29.745336 15.358832,27.484773 13.759897,26.657737 12.160964,25.830703 9.0182324,23.239328 8.6322825,22.963649 8.2463335,22.687971 5.5998218,18.442527 5.4895504,17.560355 5.3792793,16.678185 4.2214307,13.204639 4.2214307,12.708418 c 0,-0.49622 0.055136,-1.212984 0.4962206,-1.212984 0.4410854,0 2.2054263,1.323255 2.9773254,2.591375 0.7718992,1.26812 3.3632743,4.962209 3.6389523,5.127616 0.275678,0.165407 -0.441085,-2.92219 -0.827034,-4.245445 C 10.120945,13.645725 9.2387749,10.723534 8.5220118,9.4554148 7.8052478,8.1872943 5.8754999,4.7688842 5.9306359,4.1072561 5.9857713,3.4456283 6.7576704,1.5710163 7.0884845,1.6812877 7.4192982,1.7915589 9.569588,3.1148145 10.065809,4.1623919 c 0.496221,1.0475773 1.323256,3.1427319 2.04002,3.0324611 0.716763,-0.1102717 2.425968,-0.38595 3.087596,-0.2205428 0.661628,0.165407 1.488663,1.0475775 1.874612,1.1027125 0.385949,0.055131 0.88217,-0.4410849 1.819477,0 0.937306,0.4410857 1.323255,0.4410857 1.819476,0.7718989 0.496221,0.330815 0.220543,0.05514 0.992442,0 0.771899,-0.05514 1.984883,0.4410866 2.481104,0.7718998 0.496221,0.3308141 1.929748,4.2454456 2.205426,5.0173446 0.275678,0.771899 0.716763,2.701647 0.716763,3.473546 0,0.771899 0.385951,4.080038 0.385951,5.127616 0,1.047577 0.110266,4.631394 0.275678,5.348159 0.165407,0.71676 0.275678,2.150289 0.275678,2.150289 0,0 -4.355717,5.954652 -11.302809,0.275679 z"
       id="path1482" />
  </g>
  <g
     inkscape:groupmode="layer"
     id="layer3"
     inkscape:label="Layer 2"
     style="display:inline">
    <path
       style="opacity:0.999;fill:none;stroke:#000000;stroke-width:0.617519;stroke-linecap:round;stroke-miterlimit:4;stroke-dasharray:none;stroke-dashoffset:0"
       d="M 16.826223,31.212744 C 16.33493,29.79564 15.130187,27.787116 13.639157,26.815287 12.148131,25.843458 10.124922,24.536996 8.989212,23.154529 6.3733234,21.728431 4.6698917,14.82563 4.1535113,13.223716 3.9415553,12.566187 4.2398983,11.194206 5.4532114,11.562989 6.6665247,11.931771 11.04719,19.227574 11.613761,19.543848 12.180334,19.860119 9.4161544,11.701427 9.2692798,11.426281 9.1224053,11.151134 7.568593,7.8263597 7.3299213,7.3792455 7.0912497,6.9321319 5.7723453,4.5138702 6.0030677,3.6369005 6.3078146,2.4785654 6.9427715,1.3157089 8.0598803,2.0010073 9.1769897,2.686306 13.043006,8.3953918 13.504316,9.3423717 c 0.461307,0.9469813 1.52407,3.5174253 2.006063,4.5859453"
       id="path1467"
       sodipodi:nodetypes="cscssssssssc" />
    <path
       style="opacity:0.999;fill:none;stroke:#000000;stroke-width:0.617519;stroke-linecap:round;stroke-miterlimit:4;stroke-dasharray:none;stroke-dashoffset:0"
       d="m 12.342202,7.2324188 c 0.73679,-0.3431143 2.172995,-0.5279985 3.138483,-0.1712741 1.210135,0.4471148 2.118948,1.6276461 2.35762,2.0747594 0.238672,0.4471141 0.864184,1.7800829 1.465852,4.0104859"
       id="path1469"
       sodipodi:nodetypes="cssc" />
    <path
       style="opacity:0.999;fill:none;stroke:#000000;stroke-width:0.617519;stroke-linecap:round;stroke-miterlimit:4;stroke-dasharray:none;stroke-dashoffset:0"
       d="m 17.395656,8.2315564 c 1.236079,-0.08531 2.721621,-0.031902 3.751107,0.9886122 0.612619,0.6072793 1.055637,2.8566264 1.3879,4.3532854"
       id="path1471"
       sodipodi:nodetypes="csc" />
    <path
       style="opacity:0.999;fill:none;stroke:#000000;stroke-width:0.617519;stroke-linecap:round;stroke-miterlimit:4;stroke-dasharray:none;stroke-dashoffset:0"
       d="m 21.224018,8.8975362 c 1.16939,-0.3206216 2.606664,0.26468 3.361474,1.0642032 0.98298,1.0412066 2.324994,7.4283916 2.612009,8.3800236 0.287019,0.95163 -0.177445,6.595152 0.749967,11.938382"
       id="path1473"
       sodipodi:nodetypes="cssc" />
  </g>
</svg>
