<?xml version="1.0" encoding="UTF-8" standalone="no"?>
<svg
   xmlns:dc="http://purl.org/dc/elements/1.1/"
   xmlns:cc="http://creativecommons.org/ns#"
   xmlns:rdf="http://www.w3.org/1999/02/22-rdf-syntax-ns#"
   xmlns:svg="http://www.w3.org/2000/svg"
   xmlns="http://www.w3.org/2000/svg"
   xmlns:sodipodi="http://sodipodi.sourceforge.net/DTD/sodipodi-0.dtd"
   xmlns:inkscape="http://www.inkscape.org/namespaces/inkscape"
   width="350"
   height="840"
   viewBox="0 0 92.604166 222.25001"
   version="1.1"
   id="svg8"
   inkscape:version="1.0.1 (3bc2e813f5, 2020-09-07)"
   sodipodi:docname="signalgen.svg">
  <defs
     id="defs2" />
  <sodipodi:namedview
     id="base"
     pagecolor="#ffffff"
     bordercolor="#666666"
     borderopacity="1.0"
     inkscape:pageopacity="0.0"
     inkscape:pageshadow="2"
     inkscape:zoom="0.49497475"
     inkscape:cx="136.53587"
     inkscape:cy="422.5537"
     inkscape:document-units="px"
     inkscape:current-layer="layer1"
     inkscape:document-rotation="0"
     showgrid="false"
     units="px"
     inkscape:window-width="1620"
     inkscape:window-height="1018"
     inkscape:window-x="-6"
     inkscape:window-y="-6"
     inkscape:window-maximized="1"
     inkscape:snap-global="false" />
  <metadata
     id="metadata5">
    <rdf:RDF>
      <cc:Work
         rdf:about="">
        <dc:format>image/svg+xml</dc:format>
        <dc:type
           rdf:resource="http://purl.org/dc/dcmitype/StillImage" />
        <dc:title></dc:title>
      </cc:Work>
    </rdf:RDF>
  </metadata>
  <g
     inkscape:label="Layer 1"
     inkscape:groupmode="layer"
     id="layer1">
    <g
       aria-label="SIGNAL
GENERATOR"
       id="text6457"
       style="font-size:10.5833px;line-height:1.25;font-family:'Poiret One';-inkscape-font-specification:'Poiret One';stroke-width:0.264583">
      <path
         d="m 9.0925823,177.63673 q -0.2434159,-0.4445 -0.6667479,-0.6985 -0.4127487,-0.25399 -0.9313304,-0.25399 -0.5185817,0 -0.8889972,0.32808 -0.3598321,0.3175 -0.3598321,0.87841 v 0.0529 q 0,0.66675 0.7408309,1.21708 0.317499,0.23283 0.7090811,0.46566 0.4021654,0.22225 0.7937475,0.48683 0.4021654,0.254 0.7196644,0.55034 0.3280822,0.28575 0.5291649,0.70908 0.211666,0.42333 0.211666,0.93133 v 0.10583 q 0,1.00541 -0.6879144,1.59808 -0.6773312,0.59266 -1.6827447,0.59266 -1.3229124,0 -2.0531601,-1.09008 v -0.57149 q 0.2751658,0.60324 0.8043308,0.98424 0.5397482,0.37042 1.3334957,0.37042 0.7937475,0 1.375829,-0.508 0.5820814,-0.508 0.5820814,-1.35466 v -0.0635 q 0,-0.52917 -0.2751657,-0.96308 -0.2751658,-0.4445 -0.6879145,-0.71967 -0.4127487,-0.28575 -0.8995805,-0.59266 -0.4868318,-0.30692 -0.8995805,-0.5715 -0.4127486,-0.26458 -0.6879144,-0.66675 -0.2751658,-0.40216 -0.2751658,-0.87841 v -0.0741 q 0,-0.74083 0.4762485,-1.13241 0.4762484,-0.39158 1.1747462,-0.39158 0.9736636,0 1.5451618,0.71966 z"
         style="stroke-width:0.264583"
         id="path6461" />
      <path
         d="m 11.219817,176.5149 h 0.349249 v 7.93748 h -0.349249 z"
         style="stroke-width:0.264583"
         id="path6463" />
      <path
         d="m 16.193956,181.42555 v -0.30691 h 2.973907 v 2.86807 q -0.93133,0.58208 -2.095493,0.58208 h -0.116416 q -1.09008,0 -2.031994,-0.57149 -0.941914,-0.5715 -1.492245,-1.51342 -0.539748,-0.95249 -0.539748,-2.02141 0,-1.68274 1.217079,-2.88924 1.217079,-1.21708 2.910407,-1.21708 1.132413,0 2.14841,0.59267 v 0.39158 q -0.99483,-0.67733 -2.14841,-0.67733 -1.555745,0 -2.666991,1.12183 -1.111247,1.11125 -1.111247,2.67757 0,1.55575 1.111247,2.67758 1.111246,1.12183 2.666991,1.12183 0.867831,0 1.799161,-0.4445 v -2.39183 z"
         style="stroke-width:0.264583"
         id="path6465" />
      <path
         d="m 26.385661,176.5149 h 0.306916 v 8.05389 l -5.841982,-7.18606 v 7.06965 H 20.54368 v -8.05389 l 5.841981,7.17547 z"
         style="stroke-width:0.264583"
         id="path6467" />
      <path
         d="m 31.761968,176.3244 3.968737,8.12798 H 35.36029 l -1.502829,-3.02683 h -4.243903 l -1.481662,3.02683 h -0.328082 z m -0.03175,0.73025 -1.979077,4.06399 h 3.979321 z"
         style="stroke-width:0.264583"
         id="path6469" />
      <path
         d="m 37.19118,176.5149 v 7.63056 h 2.455325 v 0.30692 h -2.804574 v -7.93748 z"
         style="stroke-width:0.264583"
         id="path6471" />
      <path
         d="m 8.8809163,194.65468 v -0.30692 h 2.9739067 v 2.86808 q -0.93133,0.58208 -2.0954929,0.58208 H 9.6429138 q -1.0900798,0 -2.0319935,-0.5715 -0.9419137,-0.5715 -1.4922452,-1.51341 -0.5397483,-0.9525 -0.5397483,-2.02141 0,-1.68275 1.2170794,-2.88924 1.2170795,-1.21708 2.9104074,-1.21708 1.1324134,0 2.1484094,0.59266 v 0.39158 q -0.99483,-0.67733 -2.1484094,-0.67733 -1.555745,0 -2.6669915,1.12183 -1.1112464,1.11125 -1.1112464,2.67758 0,1.55574 1.1112464,2.67757 1.1112465,1.12183 2.6669915,1.12183 0.8678304,0 1.7991614,-0.4445 v -2.39182 z"
         style="stroke-width:0.264583"
         id="path6473" />
      <path
         d="m 13.23064,189.74403 h 2.846908 v 0.30691 h -2.497659 v 4.31799 h 2.08491 v 0.30691 h -2.08491 v 2.69875 h 2.497659 v 0.30691 H 13.23064 Z"
         style="stroke-width:0.264583"
         id="path6475" />
      <path
         d="m 22.977854,189.74403 h 0.306916 v 8.05389 l -5.841982,-7.18606 v 7.06964 h -0.306916 v -8.05389 l 5.841982,7.17548 z"
         style="stroke-width:0.264583"
         id="path6477" />
      <path
         d="m 24.872254,189.74403 h 2.846908 v 0.30691 h -2.497659 v 4.31799 h 2.08491 v 0.30691 h -2.08491 v 2.69875 h 2.497659 v 0.30691 h -2.846908 z"
         style="stroke-width:0.264583"
         id="path6479" />
      <path
         d="m 28.777487,189.74403 h 0.455082 q 1.02658,0 1.799161,0.76199 0.783164,0.75142 0.783164,1.778 0,1.016 -0.793747,1.76741 -0.793748,0.75141 -1.703911,0.75141 h -0.07408 l 2.730491,2.87866 h -0.455082 l -2.402409,-2.51882 v 2.51882 h -0.338666 z m 0.338666,4.7519 h 0.190499 q 0.857248,0 1.513412,-0.65617 0.656165,-0.65616 0.656165,-1.55574 0,-0.89958 -0.677331,-1.56633 -0.677332,-0.66675 -1.545162,-0.66675 h -0.137583 z"
         style="stroke-width:0.264583"
         id="path6481" />
      <path
         d="m 36.566791,189.55353 3.968737,8.12797 h -0.370415 l -1.502829,-3.02682 h -4.243903 l -1.481662,3.02682 h -0.328082 z m -0.03175,0.73025 -1.979077,4.06398 h 3.97932 z"
         style="stroke-width:0.264583"
         id="path6483" />
      <path
         d="m 44.207893,189.74403 v 0.30691 h -1.809744 v 7.63056 H 42.0489 v -7.63056 h -1.830911 v -0.30691 z"
         style="stroke-width:0.264583"
         id="path6485" />
      <path
         d="m 48.091943,197.81908 q -1.640411,0 -2.846908,-1.23824 -1.195912,-1.23825 -1.195912,-2.88924 0,-1.66158 1.217079,-2.86808 1.217079,-1.21708 2.920991,-1.21708 1.703911,0 2.910407,1.2065 1.206496,1.2065 1.206496,2.87866 0,1.66158 -1.195913,2.89982 -1.195912,1.22766 -2.85749,1.22766 z m 3.862904,-4.10632 q 0,-1.56632 -1.111246,-2.67757 -1.100663,-1.12183 -2.666992,-1.12183 -1.555745,0 -2.666991,1.12183 -1.111247,1.11125 -1.111247,2.67757 0,1.55575 1.111247,2.67758 1.111246,1.12183 2.666991,1.12183 1.555745,0 2.666992,-1.12183 1.111246,-1.12183 1.111246,-2.67758 z"
         style="stroke-width:0.264583"
         id="path6487" />
      <path
         d="m 53.57408,189.74403 h 0.455082 q 1.02658,0 1.799161,0.76199 0.783164,0.75142 0.783164,1.778 0,1.016 -0.793747,1.76741 -0.793748,0.75141 -1.703912,0.75141 h -0.07408 l 2.730492,2.87866 h -0.455082 l -2.402409,-2.51882 v 2.51882 H 53.57408 Z m 0.338666,4.7519 h 0.190499 q 0.857247,0 1.513412,-0.65617 0.656164,-0.65616 0.656164,-1.55574 0,-0.89958 -0.677331,-1.56633 -0.677331,-0.66675 -1.545161,-0.66675 h -0.137583 z"
         style="stroke-width:0.264583"
         id="path6489" />
    </g>
    <text
       xml:space="preserve"
       style="font-size:10.5833px;line-height:1.25;font-family:Cutive;-inkscape-font-specification:Cutive;stroke-width:0.264583"
       x="6.0135646"
       y="10.022607"
       id="text839"><tspan
         sodipodi:role="line"
         id="tspan837"
         x="6.0135646"
         y="10.022607"
         style="stroke-width:0.264583" /></text>
    <text
       xml:space="preserve"
       style="font-size:10.5833px;line-height:1.25;font-family:Cutive;-inkscape-font-specification:Cutive;stroke-width:0.264583"
       x="1.8040689"
       y="10.757601"
       id="text843"><tspan
         sodipodi:role="line"
         id="tspan841"
         x="1.8040689"
         y="10.757601"
         style="stroke-width:0.264583" /></text>
    <rect
       style="opacity:0.999;fill:#6f6f6f;fill-opacity:1;stroke-width:0.305452"
       id="rect900"
       width="91.545837"
       height="221.19167"
       x="0.5291667"
       y="0.5291667"
       ry="1.5787033" />
    <path
       id="rect6218"
       style="opacity:0.999;fill:#808080;stroke-width:0.885891"
       d="M 8.4414062,2 C 4.8724672,2 2,4.8724672 2,8.4414062 l 0,818.7830238 330.1828,0 c 4.07081,0 7.34765,-3.27881 7.34765,-7.34961 L 339.53045,2 Z"
       transform="scale(0.26458334)"
       sodipodi:nodetypes="sscsscs" />
    <path
       sodipodi:type="star"
       style="opacity:0.999;fill:#000000;fill-opacity:1;stroke-width:0.190556"
       id="path1877"
       sodipodi:sides="6"
       sodipodi:cx="164.92773"
       sodipodi:cy="22.523502"
       sodipodi:r1="7.7094626"
       sodipodi:r2="6.6765904"
       sodipodi:arg1="1.1818394"
       sodipodi:arg2="1.7054382"
       inkscape:flatsided="true"
       inkscape:rounded="1"
       inkscape:randomized="0"
       d="m 167.85134,29.657108 c -7.1336,2.923609 -1.54096,3.681196 -7.63968,-1.034883 -6.09873,-4.716079 -3.9585,0.506082 -2.92361,-7.133606 1.03488,-7.639687 -2.41753,-3.175113 4.71608,-6.098722 7.1336,-2.923609 1.54096,-3.681196 7.63968,1.034883 6.09873,4.716079 3.9585,-0.506083 2.92361,7.133605 -1.03488,7.639688 2.41753,3.175114 -4.71608,6.098723 z"
       transform="rotate(-7.1730766,182.30635,-288.89048)" />
    <circle
       style="opacity:0.999;fill:#f9f9f9;fill-opacity:1;stroke-width:0.217752"
       id="path1870"
       cx="203.81519"
       cy="22.276237"
       r="6.5481038" />
    <rect
       style="opacity:0.999;fill:#000000;fill-opacity:1;stroke-width:0.217752"
       id="rect1879"
       width="0.70870537"
       height="3.9215031"
       x="203.62997"
       y="15.46599" />
    <circle
       style="opacity:0.999;fill:#4d4d4d;stroke-width:0.12015"
       id="path5070"
       cx="2.7119792"
       cy="2.7119792"
       r="1.1244792" />
    <rect
       style="opacity:0.999;fill:#333333;stroke-width:0.183696"
       id="rect5074"
       width="0.1889881"
       height="1.3281524"
       x="2.6103981"
       y="2.0263865" />
    <rect
       style="opacity:0.999;fill:#333333;stroke-width:0.183696"
       id="rect5076"
       width="0.1889881"
       height="1.3281524"
       x="2.5959687"
       y="-3.3689682"
       transform="rotate(90)" />
    <circle
       style="opacity:0.999;fill:#4d4d4d;stroke-width:0.12015"
       id="circle5078"
       cx="2.7119792"
       cy="219.53802"
       r="1.1244792" />
    <rect
       style="opacity:0.999;fill:#333333;stroke-width:0.183696"
       id="rect5080"
       width="0.1889881"
       height="1.3281524"
       x="2.6103981"
       y="218.85243" />
    <rect
       style="opacity:0.999;fill:#333333;stroke-width:0.183696"
       id="rect5082"
       width="0.1889881"
       height="1.3281524"
       x="219.42201"
       y="-3.3689682"
       transform="rotate(90)" />
    <circle
       style="opacity:0.999;fill:#4d4d4d;stroke-width:0.12015"
       id="circle5084"
       cx="89.892189"
       cy="2.7119792"
       r="1.1244792" />
    <rect
       style="opacity:0.999;fill:#333333;stroke-width:0.183696"
       id="rect5086"
       width="0.1889881"
       height="1.3281524"
       x="89.790611"
       y="2.0263865" />
    <rect
       style="opacity:0.999;fill:#333333;stroke-width:0.183696"
       id="rect5088"
       width="0.1889881"
       height="1.3281524"
       x="2.5959687"
       y="-90.549187"
       transform="rotate(90)" />
    <circle
       style="opacity:0.999;fill:#4d4d4d;stroke-width:0.12015"
       id="circle5090"
       cx="89.892189"
       cy="219.53802"
       r="1.1244792" />
    <rect
       style="opacity:0.999;fill:#333333;stroke-width:0.183696"
       id="rect5092"
       width="0.1889881"
       height="1.3281524"
       x="89.790611"
       y="218.85243" />
    <rect
       style="opacity:0.999;fill:#333333;stroke-width:0.183696"
       id="rect5094"
       width="0.1889881"
       height="1.3281524"
       x="219.42201"
       y="-90.549187"
       transform="rotate(90)" />
    <g
       aria-label="OUT"
       id="text1104"
       style="font-size:5.64444px;line-height:1.25;font-family:'Poiret One';-inkscape-font-specification:'Poiret One';stroke-width:0.264583"
       transform="translate(-98.6043,-10.991431)">
      <path
         d="m 170.46192,46.251102 q 0,-0.53188 -0.36906,-0.895512 -0.36906,-0.363633 -0.92807,-0.363633 -0.53188,0 -0.89552,0.36906 -0.36363,0.369059 -0.36363,0.890085 0,0.521025 0.37449,0.895512 0.37991,0.374487 0.91179,0.374487 0.53188,0 0.90094,-0.36906 0.36906,-0.374487 0.36906,-0.900939 z m -1.21572,-2.355469 q 1.01491,0 1.6879,0.700128 0.67299,0.700128 0.67299,1.671623 0,0.976922 -0.72183,1.666195 -0.71641,0.689273 -1.7259,0.689273 -0.99863,0 -1.69876,-0.700128 -0.70013,-0.700127 -0.70013,-1.682477 0,-0.461324 0.1791,-0.884657 0.17911,-0.423333 0.49389,-0.748974 0.32022,-0.325641 0.7924,-0.515598 0.47218,-0.195385 1.02034,-0.195385 z"
         style="font-style:normal;font-variant:normal;font-weight:normal;font-stretch:normal;font-size:5.64444px;font-family:RubberNippleFactory;-inkscape-font-specification:RubberNippleFactory;stroke-width:0.264583"
         id="path1137" />
      <path
         d="m 174.91777,43.955334 h 1.16145 v 2.767947 q 0,0.835811 -0.53188,1.367691 -0.53188,0.53188 -1.36769,0.53188 -0.83581,0 -1.36769,-0.526453 -0.52645,-0.531879 -0.52645,-1.367691 v -2.773374 h 1.16145 v 2.82222 q 0,0.303932 0.21167,0.521026 0.21709,0.217093 0.52102,0.217093 0.30393,0 0.52103,-0.211666 0.21709,-0.217094 0.21709,-0.521025 z"
         style="font-style:normal;font-variant:normal;font-weight:normal;font-stretch:normal;font-size:5.64444px;font-family:RubberNippleFactory;-inkscape-font-specification:RubberNippleFactory;stroke-width:0.264583"
         id="path1139" />
      <path
         d="m 180.1443,43.955334 v 1.036623 h -1.16145 v 3.522348 h -1.2103 v -3.53863 h -1.1506 v -1.020341 h 1.1506 1.2103 z"
         style="font-style:normal;font-variant:normal;font-weight:normal;font-stretch:normal;font-size:5.64444px;font-family:RubberNippleFactory;-inkscape-font-specification:RubberNippleFactory;stroke-width:0.264583"
         id="path1141" />
    </g>
    <path
       style="opacity:0.999;fill:none;stroke:#000000;stroke-width:0.449792;stroke-miterlimit:4;stroke-dasharray:none"
       d="m 90.525302,5.6696429 h -2.74033 V 68.13021 h 3.1183"
       id="path2393"
       sodipodi:nodetypes="cccc" />
    <rect
       style="opacity:0.999;fill:#808080;fill-opacity:1;stroke:none;stroke-width:0.334416;stroke-miterlimit:4;stroke-dasharray:none"
       id="rect6305"
       width="18.520834"
       height="18.520834"
       x="27.78125"
       y="27.78125" />
    <g
       aria-label="SIGNAL 1"
       id="text6309"
       style="font-size:4.23333px;line-height:1.25;font-family:RubberNippleFactory;-inkscape-font-specification:RubberNippleFactory;stroke-width:0.264583">
      <path
         d="m 66.626314,38.567204 -0.362275,0.675705 q -0.199455,-0.187243 -0.423333,-0.187243 -0.122116,0 -0.203526,0.05699 -0.07734,0.05292 -0.07734,0.138397 0,0.15875 0.146539,0.276795 0.146538,0.118044 0.594294,0.358205 0.150609,0.08141 0.252372,0.158749 0.101762,0.07734 0.191314,0.191314 0.09362,0.109904 0.138397,0.264583 0.04478,0.15468 0.04478,0.354135 0,0.09769 -0.02849,0.215737 -0.02849,0.118045 -0.113974,0.272724 -0.08548,0.150609 -0.215737,0.272724 -0.130257,0.122115 -0.362276,0.207596 -0.232019,0.08548 -0.521025,0.08548 -0.614647,0 -1.172306,-0.415192 l 0.447756,-0.63907 q 0.32157,0.32157 0.696057,0.32157 0.166891,0 0.268653,-0.08548 0.101763,-0.08955 0.101763,-0.232019 0,-0.03663 -0.0081,-0.06513 -0.0041,-0.03256 -0.02035,-0.06106 -0.01628,-0.03256 -0.03256,-0.05292 -0.01221,-0.02442 -0.04885,-0.05292 -0.03663,-0.02849 -0.05699,-0.04478 -0.02035,-0.01628 -0.07327,-0.04478 -0.04885,-0.02849 -0.07734,-0.04478 -0.02442,-0.01628 -0.09362,-0.05292 -0.0692,-0.03663 -0.101763,-0.05292 -0.175032,-0.09769 -0.305288,-0.187243 -0.130257,-0.09362 -0.264583,-0.227949 -0.130257,-0.138397 -0.203526,-0.3175 -0.0692,-0.179102 -0.0692,-0.390768 0,-0.374487 0.289007,-0.635 0.289006,-0.264583 0.810031,-0.264583 0.256442,0 0.492532,0.06106 0.24016,0.05699 0.362275,0.142467 z"
         style="font-size:4.23333px;stroke-width:0.264583"
         id="path6514" />
      <path
         d="m 67.367146,41.827682 v -3.419227 h 0.911794 v 3.419227 z"
         style="font-size:4.23333px;stroke-width:0.264583"
         id="path6516" />
      <path
         d="m 71.08352,40.346017 h 0.830384 v 1.237435 q -0.582083,0.325641 -1.314774,0.325641 -0.350064,0 -0.667564,-0.113975 -0.3175,-0.118044 -0.578012,-0.337852 -0.256442,-0.223878 -0.411122,-0.582083 -0.154679,-0.358205 -0.154679,-0.805961 0,-0.488461 0.284936,-0.895512 0.284935,-0.411121 0.72455,-0.614647 0.423333,-0.195384 0.964711,-0.195384 0.71641,0 1.245576,0.443686 l -0.529166,0.691986 q -0.386699,-0.333782 -0.830384,-0.333782 -0.382628,0 -0.691987,0.276795 -0.305288,0.272724 -0.305288,0.700128 0,0.374486 0.272724,0.663493 0.272724,0.284935 0.704198,0.284935 0.227949,0 0.455897,-0.08548 z"
         style="font-size:4.23333px;stroke-width:0.264583"
         id="path6518" />
      <path
         d="m 72.524474,41.827682 v -3.464003 h 0.122115 l 2.206216,1.75846 v -1.652627 h 0.871089 v 3.488427 h -0.09362 l -2.210286,-1.933492 v 1.803235 z"
         style="font-size:4.23333px;stroke-width:0.264583"
         id="path6520" />
      <path
         d="M 79.098345,41.827682 78.82562,41.339221 h -1.571216 l -0.272724,0.488461 h -0.952499 l 1.982338,-3.464003 h 0.113974 l 1.986408,3.464003 z m -1.522371,-1.04612 h 0.944358 q -0.01628,-0.03256 -0.04885,-0.08548 -0.02849,-0.05699 -0.03663,-0.07327 -0.08548,-0.15875 -0.175032,-0.366346 -0.08548,-0.207596 -0.130257,-0.337852 l -0.04071,-0.130257 q -0.15875,0.350064 -0.272724,0.561731 -0.118045,0.211666 -0.24016,0.431474 z"
         style="font-size:4.23333px;stroke-width:0.264583"
         id="path6522" />
      <path
         d="m 80.417186,38.408455 h 0.858877 v 2.686536 h 1.257788 v 0.732691 h -2.116665 z"
         style="font-size:4.23333px;stroke-width:0.264583"
         id="path6524" />
      <path
         d="m 85.497172,41.827682 h -0.842596 v -2.674324 l -0.541378,0.199455 0.0081,-0.488461 1.290352,-0.500673 h 0.08548 z"
         style="font-size:4.23333px;stroke-width:0.264583"
         id="path6526" />
    </g>
    <g
       aria-label="OUT"
       id="g6317"
       style="font-size:5.64444px;line-height:1.25;font-family:'Poiret One';-inkscape-font-specification:'Poiret One';stroke-width:0.264583"
       transform="translate(-98.6043,63.092017)">
      <path
         d="m 170.46192,46.251102 q 0,-0.53188 -0.36906,-0.895512 -0.36906,-0.363633 -0.92807,-0.363633 -0.53188,0 -0.89552,0.36906 -0.36363,0.369059 -0.36363,0.890085 0,0.521025 0.37449,0.895512 0.37991,0.374487 0.91179,0.374487 0.53188,0 0.90094,-0.36906 0.36906,-0.374487 0.36906,-0.900939 z m -1.21572,-2.355469 q 1.01491,0 1.6879,0.700128 0.67299,0.700128 0.67299,1.671623 0,0.976922 -0.72183,1.666195 -0.71641,0.689273 -1.7259,0.689273 -0.99863,0 -1.69876,-0.700128 -0.70013,-0.700127 -0.70013,-1.682477 0,-0.461324 0.1791,-0.884657 0.17911,-0.423333 0.49389,-0.748974 0.32022,-0.325641 0.7924,-0.515598 0.47218,-0.195385 1.02034,-0.195385 z"
         style="font-style:normal;font-variant:normal;font-weight:normal;font-stretch:normal;font-size:5.64444px;font-family:RubberNippleFactory;-inkscape-font-specification:RubberNippleFactory;stroke-width:0.264583"
         id="path6311" />
      <path
         d="m 174.91777,43.955334 h 1.16145 v 2.767947 q 0,0.835811 -0.53188,1.367691 -0.53188,0.53188 -1.36769,0.53188 -0.83581,0 -1.36769,-0.526453 -0.52645,-0.531879 -0.52645,-1.367691 v -2.773374 h 1.16145 v 2.82222 q 0,0.303932 0.21167,0.521026 0.21709,0.217093 0.52102,0.217093 0.30393,0 0.52103,-0.211666 0.21709,-0.217094 0.21709,-0.521025 z"
         style="font-style:normal;font-variant:normal;font-weight:normal;font-stretch:normal;font-size:5.64444px;font-family:RubberNippleFactory;-inkscape-font-specification:RubberNippleFactory;stroke-width:0.264583"
         id="path6313" />
      <path
         d="m 180.1443,43.955334 v 1.036623 h -1.16145 v 3.522348 h -1.2103 v -3.53863 h -1.1506 v -1.020341 h 1.1506 1.2103 z"
         style="font-style:normal;font-variant:normal;font-weight:normal;font-stretch:normal;font-size:5.64444px;font-family:RubberNippleFactory;-inkscape-font-specification:RubberNippleFactory;stroke-width:0.264583"
         id="path6315" />
    </g>
    <path
       style="opacity:0.999;fill:none;stroke:#000000;stroke-width:0.449792;stroke-miterlimit:4;stroke-dasharray:none"
       d="m 90.525302,79.753091 h -2.74033 v 62.460569 h 3.1183"
       id="path6319"
       sodipodi:nodetypes="cccc" />
    <g
       aria-label="SIGNAL 2"
       id="text6323"
       style="font-size:4.23333px;line-height:1.25;font-family:RubberNippleFactory;-inkscape-font-specification:RubberNippleFactory;stroke-width:0.264583">
      <path
         d="m 66.626314,112.65065 -0.362275,0.67571 q -0.199455,-0.18724 -0.423333,-0.18724 -0.122116,0 -0.203526,0.057 -0.07734,0.0529 -0.07734,0.1384 0,0.15875 0.146539,0.2768 0.146538,0.11804 0.594294,0.3582 0.150609,0.0814 0.252372,0.15875 0.101762,0.0773 0.191314,0.19131 0.09362,0.10991 0.138397,0.26459 0.04478,0.15468 0.04478,0.35413 0,0.0977 -0.02849,0.21574 -0.02849,0.11804 -0.113974,0.27272 -0.08548,0.15061 -0.215737,0.27273 -0.130257,0.12211 -0.362276,0.20759 -0.232019,0.0855 -0.521025,0.0855 -0.614647,0 -1.172306,-0.41519 l 0.447756,-0.63907 q 0.32157,0.32157 0.696057,0.32157 0.166891,0 0.268653,-0.0855 0.101763,-0.0896 0.101763,-0.23202 0,-0.0366 -0.0081,-0.0651 -0.0041,-0.0326 -0.02035,-0.061 -0.01628,-0.0326 -0.03256,-0.0529 -0.01221,-0.0244 -0.04885,-0.0529 -0.03663,-0.0285 -0.05699,-0.0448 -0.02035,-0.0163 -0.07327,-0.0448 -0.04885,-0.0285 -0.07734,-0.0448 -0.02442,-0.0163 -0.09362,-0.0529 -0.0692,-0.0366 -0.101763,-0.0529 -0.175032,-0.0977 -0.305288,-0.18724 -0.130257,-0.0936 -0.264583,-0.22795 -0.130257,-0.1384 -0.203526,-0.3175 -0.0692,-0.1791 -0.0692,-0.39077 0,-0.37448 0.289007,-0.635 0.289006,-0.26458 0.810031,-0.26458 0.256442,0 0.492532,0.0611 0.24016,0.057 0.362275,0.14246 z"
         style="font-size:4.23333px;stroke-width:0.264583"
         id="path6499" />
      <path
         d="m 67.367146,115.91113 v -3.41923 h 0.911794 v 3.41923 z"
         style="font-size:4.23333px;stroke-width:0.264583"
         id="path6501" />
      <path
         d="m 71.08352,114.42947 h 0.830384 v 1.23743 q -0.582083,0.32564 -1.314774,0.32564 -0.350064,0 -0.667564,-0.11397 -0.3175,-0.11805 -0.578012,-0.33785 -0.256442,-0.22388 -0.411122,-0.58209 -0.154679,-0.3582 -0.154679,-0.80596 0,-0.48846 0.284936,-0.89551 0.284935,-0.41112 0.72455,-0.61465 0.423333,-0.19538 0.964711,-0.19538 0.71641,0 1.245576,0.44368 l -0.529166,0.69199 q -0.386699,-0.33378 -0.830384,-0.33378 -0.382628,0 -0.691987,0.27679 -0.305288,0.27273 -0.305288,0.70013 0,0.37449 0.272724,0.66349 0.272724,0.28494 0.704198,0.28494 0.227949,0 0.455897,-0.0855 z"
         style="font-size:4.23333px;stroke-width:0.264583"
         id="path6503" />
      <path
         d="m 72.524474,115.91113 v -3.464 h 0.122115 l 2.206216,1.75846 v -1.65263 h 0.871089 v 3.48843 h -0.09362 l -2.210286,-1.93349 v 1.80323 z"
         style="font-size:4.23333px;stroke-width:0.264583"
         id="path6505" />
      <path
         d="m 79.098345,115.91113 -0.272725,-0.48846 h -1.571216 l -0.272724,0.48846 h -0.952499 l 1.982338,-3.464 h 0.113974 l 1.986408,3.464 z m -1.522371,-1.04612 h 0.944358 q -0.01628,-0.0326 -0.04885,-0.0855 -0.02849,-0.057 -0.03663,-0.0733 -0.08548,-0.15875 -0.175032,-0.36634 -0.08548,-0.2076 -0.130257,-0.33786 l -0.04071,-0.13025 q -0.15875,0.35006 -0.272724,0.56173 -0.118045,0.21166 -0.24016,0.43147 z"
         style="font-size:4.23333px;stroke-width:0.264583"
         id="path6507" />
      <path
         d="m 80.417186,112.4919 h 0.858877 v 2.68654 h 1.257788 v 0.73269 h -2.116665 z"
         style="font-size:4.23333px;stroke-width:0.264583"
         id="path6509" />
      <path
         d="m 84.630153,113.44033 -0.472179,-0.54544 q 0.175032,-0.17097 0.297147,-0.25238 0.122116,-0.0855 0.32157,-0.13839 0.203526,-0.057 0.488462,-0.057 0.529166,0 0.858877,0.32971 0.329711,0.32564 0.329711,0.7042 0,0.33378 -0.223878,0.74083 -0.223878,0.40298 -0.630929,0.9525 l 1.343268,-0.0122 v 0.74897 h -2.829004 q 0.887372,-1.19266 1.282211,-1.8358 0.211666,-0.34599 0.211666,-0.54545 0,-0.13839 -0.122115,-0.27679 -0.118045,-0.1384 -0.32157,-0.1384 -0.191314,0 -0.309359,0.0814 -0.118045,0.0814 -0.223878,0.24423 z"
         style="font-size:4.23333px;stroke-width:0.264583"
         id="path6511" />
    </g>
    <g
       aria-label="OUT"
       id="g6331"
       style="font-size:5.64444px;line-height:1.25;font-family:'Poiret One';-inkscape-font-specification:'Poiret One';stroke-width:0.264583"
       transform="translate(-98.6043,137.17535)">
      <path
         d="m 170.46192,46.251102 q 0,-0.53188 -0.36906,-0.895512 -0.36906,-0.363633 -0.92807,-0.363633 -0.53188,0 -0.89552,0.36906 -0.36363,0.369059 -0.36363,0.890085 0,0.521025 0.37449,0.895512 0.37991,0.374487 0.91179,0.374487 0.53188,0 0.90094,-0.36906 0.36906,-0.374487 0.36906,-0.900939 z m -1.21572,-2.355469 q 1.01491,0 1.6879,0.700128 0.67299,0.700128 0.67299,1.671623 0,0.976922 -0.72183,1.666195 -0.71641,0.689273 -1.7259,0.689273 -0.99863,0 -1.69876,-0.700128 -0.70013,-0.700127 -0.70013,-1.682477 0,-0.461324 0.1791,-0.884657 0.17911,-0.423333 0.49389,-0.748974 0.32022,-0.325641 0.7924,-0.515598 0.47218,-0.195385 1.02034,-0.195385 z"
         style="font-style:normal;font-variant:normal;font-weight:normal;font-stretch:normal;font-size:5.64444px;font-family:RubberNippleFactory;-inkscape-font-specification:RubberNippleFactory;stroke-width:0.264583"
         id="path6325" />
      <path
         d="m 174.91777,43.955334 h 1.16145 v 2.767947 q 0,0.835811 -0.53188,1.367691 -0.53188,0.53188 -1.36769,0.53188 -0.83581,0 -1.36769,-0.526453 -0.52645,-0.531879 -0.52645,-1.367691 v -2.773374 h 1.16145 v 2.82222 q 0,0.303932 0.21167,0.521026 0.21709,0.217093 0.52102,0.217093 0.30393,0 0.52103,-0.211666 0.21709,-0.217094 0.21709,-0.521025 z"
         style="font-style:normal;font-variant:normal;font-weight:normal;font-stretch:normal;font-size:5.64444px;font-family:RubberNippleFactory;-inkscape-font-specification:RubberNippleFactory;stroke-width:0.264583"
         id="path6327" />
      <path
         d="m 180.1443,43.955334 v 1.036623 h -1.16145 v 3.522348 h -1.2103 v -3.53863 h -1.1506 v -1.020341 h 1.1506 1.2103 z"
         style="font-style:normal;font-variant:normal;font-weight:normal;font-stretch:normal;font-size:5.64444px;font-family:RubberNippleFactory;-inkscape-font-specification:RubberNippleFactory;stroke-width:0.264583"
         id="path6329" />
    </g>
    <path
       style="opacity:0.999;fill:none;stroke:#000000;stroke-width:0.449792;stroke-miterlimit:4;stroke-dasharray:none"
       d="m 90.525302,153.83643 h -2.74033 v 62.46056 h 3.1183"
       id="path6333"
       sodipodi:nodetypes="cccc" />
    <g
       aria-label="SUM"
       id="text6337"
       style="font-size:4.23333px;line-height:1.25;font-family:RubberNippleFactory;-inkscape-font-specification:RubberNippleFactory;stroke-width:0.264583">
      <path
         d="m 71.256525,186.73398 -0.362276,0.67571 q -0.199455,-0.18725 -0.423333,-0.18725 -0.122115,0 -0.203525,0.057 -0.07734,0.0529 -0.07734,0.1384 0,0.15875 0.146539,0.27679 0.146538,0.11805 0.594294,0.35821 0.150609,0.0814 0.252372,0.15875 0.101762,0.0773 0.191314,0.19131 0.09362,0.10991 0.138397,0.26458 0.04478,0.15468 0.04478,0.35414 0,0.0977 -0.02849,0.21574 -0.02849,0.11804 -0.113974,0.27272 -0.08548,0.15061 -0.215737,0.27272 -0.130257,0.12212 -0.362276,0.2076 -0.232019,0.0855 -0.521025,0.0855 -0.614647,0 -1.172307,-0.41519 l 0.447756,-0.63907 q 0.321571,0.32157 0.696058,0.32157 0.16689,0 0.268653,-0.0855 0.101763,-0.0896 0.101763,-0.23202 0,-0.0366 -0.0081,-0.0651 -0.0041,-0.0326 -0.02035,-0.0611 -0.01628,-0.0326 -0.03256,-0.0529 -0.01221,-0.0244 -0.04885,-0.0529 -0.03663,-0.0285 -0.05699,-0.0448 -0.02035,-0.0163 -0.07327,-0.0448 -0.04885,-0.0285 -0.07734,-0.0448 -0.02442,-0.0163 -0.09362,-0.0529 -0.0692,-0.0366 -0.101762,-0.0529 -0.175032,-0.0977 -0.305288,-0.18724 -0.130257,-0.0936 -0.264584,-0.22795 -0.130256,-0.1384 -0.203525,-0.3175 -0.0692,-0.1791 -0.0692,-0.39077 0,-0.37449 0.289006,-0.635 0.289007,-0.26458 0.810032,-0.26458 0.256442,0 0.492531,0.0611 0.24016,0.057 0.362276,0.14246 z"
         style="font-size:4.23333px;stroke-width:0.264583"
         id="path6492" />
      <path
         d="m 73.971554,186.57523 h 0.871089 v 2.07596 q 0,0.62686 -0.39891,1.02577 -0.39891,0.39891 -1.025769,0.39891 -0.626858,0 -1.025768,-0.39484 -0.394839,-0.39891 -0.394839,-1.02577 v -2.08003 h 0.871089 v 2.11667 q 0,0.22795 0.158749,0.39077 0.162821,0.16282 0.390769,0.16282 0.227949,0 0.390769,-0.15875 0.162821,-0.16282 0.162821,-0.39077 z"
         style="font-size:4.23333px;stroke-width:0.264583"
         id="path6494" />
      <path
         d="m 75.282254,189.99446 0.663493,-3.464 h 0.130256 l 1.428749,2.05968 1.424678,-2.05968 h 0.150609 l 0.626858,3.464 h -0.887371 l -0.236089,-1.55086 -1.107179,1.55086 -1.054262,-1.5875 -0.256442,1.5875 z"
         style="font-size:4.23333px;stroke-width:0.264583"
         id="path6496" />
    </g>
    <g
       aria-label="0"
       id="text6341"
       style="font-size:10.5833px;line-height:1.25;font-family:RubberNippleFactory;-inkscape-font-specification:RubberNippleFactory;stroke-width:0.264583">
      <path
         d="m 26.270551,36.996587 q 0,-0.455897 -0.154679,-0.712339 -0.150609,-0.260512 -0.390769,-0.260512 -0.24016,0 -0.40298,0.260512 -0.15875,0.256442 -0.15875,0.712339 0,0.427404 0.16282,0.700128 0.162821,0.268654 0.39891,0.268654 0.23609,0 0.390769,-0.268654 0.154679,-0.268654 0.154679,-0.700128 z m -0.533236,-1.786953 q 0.626858,0 1.029839,0.472179 0.40298,0.472179 0.40298,1.290351 v 0.01221 q 0,0.842595 -0.39891,1.310704 -0.39891,0.464038 -1.033909,0.464038 -0.63907,0 -1.058333,-0.468109 -0.419262,-0.468108 -0.419262,-1.306633 0,-0.818173 0.419262,-1.294422 0.423333,-0.48032 1.058333,-0.48032 z"
         style="font-size:4.23333px;stroke-width:0.264583"
         id="path6377" />
    </g>
    <g
       aria-label="1"
       id="text6345"
       style="font-size:10.5833px;line-height:1.25;font-family:RubberNippleFactory;-inkscape-font-specification:RubberNippleFactory;stroke-width:0.264583">
      <path
         d="m 29.837057,30.125082 h -0.842595 v -2.674325 l -0.541378,0.199455 0.0081,-0.488461 1.290352,-0.500672 h 0.08548 z"
         style="font-size:4.23333px;stroke-width:0.264583"
         id="path6374" />
    </g>
    <g
       aria-label="2"
       id="text6349"
       style="font-size:10.5833px;line-height:1.25;font-family:RubberNippleFactory;-inkscape-font-specification:RubberNippleFactory;stroke-width:0.264583">
      <path
         d="m 36.081344,24.761565 -0.472179,-0.545448 q 0.175032,-0.170961 0.297147,-0.252371 0.122115,-0.08548 0.32157,-0.138398 0.203526,-0.05699 0.488462,-0.05699 0.529166,0 0.858877,0.329711 0.329711,0.325641 0.329711,0.704199 0,0.333781 -0.223878,0.740832 -0.223878,0.402981 -0.630929,0.952499 l 1.343268,-0.01221 v 0.748974 h -2.829004 q 0.887371,-1.19266 1.282211,-1.8358 0.211666,-0.345993 0.211666,-0.545448 0,-0.138398 -0.122115,-0.276795 -0.118045,-0.138397 -0.32157,-0.138397 -0.191314,0 -0.309359,0.08141 -0.118045,0.08141 -0.223878,0.24423 z"
         style="font-size:4.23333px;stroke-width:0.264583"
         id="path6371" />
    </g>
    <g
       aria-label="3"
       id="text6353"
       style="font-size:10.5833px;line-height:1.25;font-family:RubberNippleFactory;-inkscape-font-specification:RubberNippleFactory;stroke-width:0.264583">
      <path
         d="m 45.384209,28.463551 q 0.313429,0.04478 0.48032,0.276794 0.166891,0.232019 0.166891,0.521026 0,0.525095 -0.411121,0.826313 -0.411122,0.297147 -0.976923,0.297147 -0.578012,0 -0.952499,-0.289006 l 0.24016,-0.753044 q 0.402981,0.301217 0.744903,0.301217 0.23609,0 0.378558,-0.130256 0.142468,-0.134327 0.142468,-0.309359 0,-0.170961 -0.130257,-0.284935 -0.126185,-0.118045 -0.40298,-0.118045 V 28.21932 q 0.187243,0 0.284936,-0.08955 0.101762,-0.09362 0.101762,-0.219808 0,-0.138397 -0.118044,-0.24423 -0.113975,-0.109904 -0.309359,-0.109904 -0.305288,0 -0.598365,0.215737 l -0.333782,-0.667563 q 0.268654,-0.150609 0.496602,-0.207596 0.232019,-0.05699 0.55359,-0.05699 0.455897,0 0.777467,0.264583 0.325641,0.260512 0.325641,0.626858 0,0.23609 -0.126186,0.431474 -0.126186,0.195385 -0.333782,0.301218 z"
         style="font-size:4.23333px;stroke-width:0.264583"
         id="path6392" />
    </g>
    <g
       aria-label="4"
       id="text6357"
       style="font-size:10.5833px;line-height:1.25;font-family:RubberNippleFactory;-inkscape-font-specification:RubberNippleFactory;stroke-width:0.264583">
      <path
         d="m 46.620191,37.893474 v -0.687916 l 1.347338,-2.100383 h 1.03391 v 2.063748 h 0.525096 v 0.724551 h -0.525096 v 0.630929 h -0.79782 v -0.630929 z m 1.583428,-2.080031 -0.862948,1.351409 h 0.862948 z"
         style="font-size:4.23333px;stroke-width:0.264583"
         id="path6389" />
    </g>
    <g
       aria-label="5"
       id="text6361"
       style="font-size:10.5833px;line-height:1.25;font-family:RubberNippleFactory;-inkscape-font-specification:RubberNippleFactory;stroke-width:0.264583">
      <path
         d="m 43.889456,43.609642 h 1.734037 v 0.700127 h -1.086826 v 0.289007 q 0.602436,0.01221 0.944358,0.260512 0.48032,0.337852 0.48032,0.993204 0,0.142468 -0.03256,0.293077 -0.02849,0.146538 -0.130256,0.325641 -0.09769,0.179102 -0.256442,0.3175 -0.154679,0.134326 -0.431474,0.227948 -0.276795,0.09362 -0.63907,0.09362 -0.573942,0 -0.87516,-0.150609 l 0.268654,-0.757115 q 0.09769,0.07327 0.276795,0.122116 0.179102,0.04478 0.366346,0.04478 0.260512,0 0.431474,-0.150609 0.170961,-0.154679 0.170961,-0.370416 0,-0.272724 -0.232019,-0.431474 -0.232019,-0.15875 -0.71641,-0.15875 -0.07734,0 -0.272724,0.01628 z"
         style="font-size:4.23333px;stroke-width:0.264583"
         id="path6386" />
    </g>
    <g
       aria-label="6"
       id="text6365"
       style="font-size:10.5833px;line-height:1.25;font-family:RubberNippleFactory;-inkscape-font-specification:RubberNippleFactory;stroke-width:0.264583">
      <path
         d="m 38.044198,46.730416 q -0.130256,0.134327 -0.435545,0.504744 -0.301217,0.366345 -0.472179,0.614646 0.105834,-0.02442 0.195385,-0.02442 0.443685,0 0.761185,0.358205 0.3175,0.358205 0.3175,0.830384 0,0.3175 -0.15468,0.602436 -0.150608,0.284935 -0.455897,0.472179 -0.301217,0.187243 -0.687916,0.187243 -0.602435,0 -0.989133,-0.370416 -0.382628,-0.370417 -0.382628,-0.944358 0,-0.883301 1.188588,-2.185864 z m -1.013557,1.738108 q -0.256442,0 -0.390769,0.179102 -0.134327,0.175032 -0.134327,0.366346 0,0.203526 0.15875,0.362275 0.15875,0.15875 0.370417,0.15875 0.248301,0 0.390769,-0.175032 0.142467,-0.175031 0.142467,-0.345993 -0.0041,-0.207596 -0.154679,-0.374487 -0.146538,-0.170961 -0.382628,-0.170961 z"
         style="font-size:4.23333px;stroke-width:0.264583"
         id="path6383" />
    </g>
    <g
       aria-label="7"
       id="text6369"
       style="font-size:10.5833px;line-height:1.25;font-family:RubberNippleFactory;-inkscape-font-specification:RubberNippleFactory;stroke-width:0.264583">
      <path
         d="m 27.120106,47.406845 1.331057,-2.625478 -1.404326,0.0041 v -0.79782 h 2.776087 l -1.705543,3.419228 z"
         style="font-size:4.23333px;stroke-width:0.264583"
         id="path6380" />
    </g>
    <rect
       style="opacity:0.999;fill:#808080;fill-opacity:1;stroke:none;stroke-width:0.334416;stroke-miterlimit:4;stroke-dasharray:none"
       id="rect6395"
       width="18.520834"
       height="18.520834"
       x="27.78125"
       y="101.86454" />
    <g
       aria-label="0"
       id="g6399"
       style="font-size:10.5833px;line-height:1.25;font-family:RubberNippleFactory;-inkscape-font-specification:RubberNippleFactory;stroke-width:0.264583"
       transform="translate(0,74.083292)">
      <path
         d="m 26.270551,36.996587 q 0,-0.455897 -0.154679,-0.712339 -0.150609,-0.260512 -0.390769,-0.260512 -0.24016,0 -0.40298,0.260512 -0.15875,0.256442 -0.15875,0.712339 0,0.427404 0.16282,0.700128 0.162821,0.268654 0.39891,0.268654 0.23609,0 0.390769,-0.268654 0.154679,-0.268654 0.154679,-0.700128 z m -0.533236,-1.786953 q 0.626858,0 1.029839,0.472179 0.40298,0.472179 0.40298,1.290351 v 0.01221 q 0,0.842595 -0.39891,1.310704 -0.39891,0.464038 -1.033909,0.464038 -0.63907,0 -1.058333,-0.468109 -0.419262,-0.468108 -0.419262,-1.306633 0,-0.818173 0.419262,-1.294422 0.423333,-0.48032 1.058333,-0.48032 z"
         style="font-size:4.23333px;stroke-width:0.264583"
         id="path6397" />
    </g>
    <g
       aria-label="1"
       id="g6403"
       style="font-size:10.5833px;line-height:1.25;font-family:RubberNippleFactory;-inkscape-font-specification:RubberNippleFactory;stroke-width:0.264583"
       transform="translate(0,74.083292)">
      <path
         d="m 29.837057,30.125082 h -0.842595 v -2.674325 l -0.541378,0.199455 0.0081,-0.488461 1.290352,-0.500672 h 0.08548 z"
         style="font-size:4.23333px;stroke-width:0.264583"
         id="path6401" />
    </g>
    <g
       aria-label="2"
       id="g6407"
       style="font-size:10.5833px;line-height:1.25;font-family:RubberNippleFactory;-inkscape-font-specification:RubberNippleFactory;stroke-width:0.264583"
       transform="translate(0,74.083292)">
      <path
         d="m 36.081344,24.761565 -0.472179,-0.545448 q 0.175032,-0.170961 0.297147,-0.252371 0.122115,-0.08548 0.32157,-0.138398 0.203526,-0.05699 0.488462,-0.05699 0.529166,0 0.858877,0.329711 0.329711,0.325641 0.329711,0.704199 0,0.333781 -0.223878,0.740832 -0.223878,0.402981 -0.630929,0.952499 l 1.343268,-0.01221 v 0.748974 h -2.829004 q 0.887371,-1.19266 1.282211,-1.8358 0.211666,-0.345993 0.211666,-0.545448 0,-0.138398 -0.122115,-0.276795 -0.118045,-0.138397 -0.32157,-0.138397 -0.191314,0 -0.309359,0.08141 -0.118045,0.08141 -0.223878,0.24423 z"
         style="font-size:4.23333px;stroke-width:0.264583"
         id="path6405" />
    </g>
    <g
       aria-label="3"
       id="g6411"
       style="font-size:10.5833px;line-height:1.25;font-family:RubberNippleFactory;-inkscape-font-specification:RubberNippleFactory;stroke-width:0.264583"
       transform="translate(0,74.083292)">
      <path
         d="m 45.384209,28.463551 q 0.313429,0.04478 0.48032,0.276794 0.166891,0.232019 0.166891,0.521026 0,0.525095 -0.411121,0.826313 -0.411122,0.297147 -0.976923,0.297147 -0.578012,0 -0.952499,-0.289006 l 0.24016,-0.753044 q 0.402981,0.301217 0.744903,0.301217 0.23609,0 0.378558,-0.130256 0.142468,-0.134327 0.142468,-0.309359 0,-0.170961 -0.130257,-0.284935 -0.126185,-0.118045 -0.40298,-0.118045 V 28.21932 q 0.187243,0 0.284936,-0.08955 0.101762,-0.09362 0.101762,-0.219808 0,-0.138397 -0.118044,-0.24423 -0.113975,-0.109904 -0.309359,-0.109904 -0.305288,0 -0.598365,0.215737 l -0.333782,-0.667563 q 0.268654,-0.150609 0.496602,-0.207596 0.232019,-0.05699 0.55359,-0.05699 0.455897,0 0.777467,0.264583 0.325641,0.260512 0.325641,0.626858 0,0.23609 -0.126186,0.431474 -0.126186,0.195385 -0.333782,0.301218 z"
         style="font-size:4.23333px;stroke-width:0.264583"
         id="path6409" />
    </g>
    <g
       aria-label="4"
       id="g6415"
       style="font-size:10.5833px;line-height:1.25;font-family:RubberNippleFactory;-inkscape-font-specification:RubberNippleFactory;stroke-width:0.264583"
       transform="translate(0,74.083292)">
      <path
         d="m 46.620191,37.893474 v -0.687916 l 1.347338,-2.100383 h 1.03391 v 2.063748 h 0.525096 v 0.724551 h -0.525096 v 0.630929 h -0.79782 v -0.630929 z m 1.583428,-2.080031 -0.862948,1.351409 h 0.862948 z"
         style="font-size:4.23333px;stroke-width:0.264583"
         id="path6413" />
    </g>
    <g
       aria-label="5"
       id="g6419"
       style="font-size:10.5833px;line-height:1.25;font-family:RubberNippleFactory;-inkscape-font-specification:RubberNippleFactory;stroke-width:0.264583"
       transform="translate(0,74.083292)">
      <path
         d="m 43.889456,43.609642 h 1.734037 v 0.700127 h -1.086826 v 0.289007 q 0.602436,0.01221 0.944358,0.260512 0.48032,0.337852 0.48032,0.993204 0,0.142468 -0.03256,0.293077 -0.02849,0.146538 -0.130256,0.325641 -0.09769,0.179102 -0.256442,0.3175 -0.154679,0.134326 -0.431474,0.227948 -0.276795,0.09362 -0.63907,0.09362 -0.573942,0 -0.87516,-0.150609 l 0.268654,-0.757115 q 0.09769,0.07327 0.276795,0.122116 0.179102,0.04478 0.366346,0.04478 0.260512,0 0.431474,-0.150609 0.170961,-0.154679 0.170961,-0.370416 0,-0.272724 -0.232019,-0.431474 -0.232019,-0.15875 -0.71641,-0.15875 -0.07734,0 -0.272724,0.01628 z"
         style="font-size:4.23333px;stroke-width:0.264583"
         id="path6417" />
    </g>
    <g
       aria-label="6"
       id="g6423"
       style="font-size:10.5833px;line-height:1.25;font-family:RubberNippleFactory;-inkscape-font-specification:RubberNippleFactory;stroke-width:0.264583"
       transform="translate(0,74.083292)">
      <path
         d="m 38.044198,46.730416 q -0.130256,0.134327 -0.435545,0.504744 -0.301217,0.366345 -0.472179,0.614646 0.105834,-0.02442 0.195385,-0.02442 0.443685,0 0.761185,0.358205 0.3175,0.358205 0.3175,0.830384 0,0.3175 -0.15468,0.602436 -0.150608,0.284935 -0.455897,0.472179 -0.301217,0.187243 -0.687916,0.187243 -0.602435,0 -0.989133,-0.370416 Q 35.74029,49.535 35.74029,48.961059 q 0,-0.883301 1.188588,-2.185864 z m -1.013557,1.738108 q -0.256442,0 -0.390769,0.179102 -0.134327,0.175032 -0.134327,0.366346 0,0.203526 0.15875,0.362275 0.15875,0.15875 0.370417,0.15875 0.248301,0 0.390769,-0.175032 0.142467,-0.175031 0.142467,-0.345993 -0.0041,-0.207596 -0.154679,-0.374487 -0.146538,-0.170961 -0.382628,-0.170961 z"
         style="font-size:4.23333px;stroke-width:0.264583"
         id="path6421" />
    </g>
    <g
       aria-label="7"
       id="g6427"
       style="font-size:10.5833px;line-height:1.25;font-family:RubberNippleFactory;-inkscape-font-specification:RubberNippleFactory;stroke-width:0.264583"
       transform="translate(0,74.083292)">
      <path
         d="m 27.120106,47.406845 1.331057,-2.625478 -1.404326,0.0041 v -0.79782 h 2.776087 l -1.705543,3.419228 z"
         style="font-size:4.23333px;stroke-width:0.264583"
         id="path6425" />
    </g>
    <g
       aria-label="MULTIPLY"
       id="text6433"
       style="font-size:4.23333px;line-height:1.25;font-family:RubberNippleFactory;-inkscape-font-specification:RubberNippleFactory;stroke-width:0.264583">
      <path
         d="M 3.9140886,75.689743 4.5775816,72.22574 H 4.7078379 L 6.1365867,74.285417 7.561265,72.22574 h 0.1506089 l 0.6268584,3.464003 H 7.4513613 L 7.2152717,74.138879 6.1080932,75.689743 5.0538312,74.102244 4.7973891,75.689743 Z"
         style="font-size:4.23333px;stroke-width:0.264583"
         id="path6544" />
      <path
         d="m 10.752537,72.270515 h 0.871089 v 2.07596 q 0,0.626858 -0.39891,1.025768 -0.39891,0.39891 -1.025768,0.39891 -0.6268584,0 -1.0257684,-0.394839 -0.3948394,-0.39891 -0.3948394,-1.025769 v -2.08003 h 0.871089 v 2.116665 q 0,0.227949 0.1587499,0.390769 0.1628204,0.16282 0.3907689,0.16282 0.227949,0 0.390769,-0.15875 0.16282,-0.16282 0.16282,-0.390768 z"
         style="font-size:4.23333px;stroke-width:0.264583"
         id="path6546" />
      <path
         d="m 12.234199,72.270515 h 0.858877 v 2.686536 h 1.257788 v 0.732692 h -2.116665 z"
         style="font-size:4.23333px;stroke-width:0.264583"
         id="path6548" />
      <path
         d="m 17.297909,72.270515 v 0.777467 H 16.42682 v 2.641761 h -0.907724 v -2.653972 h -0.862948 v -0.765256 h 0.862948 0.907724 z"
         style="font-size:4.23333px;stroke-width:0.264583"
         id="path6550" />
      <path
         d="m 17.70496,75.689743 v -3.419228 h 0.911794 v 3.419228 z"
         style="font-size:4.23333px;stroke-width:0.264583"
         id="path6552" />
      <path
         d="m 20.668291,72.270515 q 0.500673,0 0.834454,0.374487 0.337853,0.370416 0.341923,0.826313 0,0.305289 -0.113974,0.55359 -0.113974,0.24423 -0.301218,0.394839 -0.183173,0.150609 -0.407051,0.232019 -0.219807,0.07734 -0.447756,0.07734 h -0.459967 v 0.96064 h -0.887371 v -3.419228 h 0.8833 z m -0.223878,1.705544 q 0.199455,0 0.354134,-0.146539 0.15468,-0.150609 0.15468,-0.345993 0,-0.16282 -0.09362,-0.272724 -0.09362,-0.113974 -0.199455,-0.150609 -0.101763,-0.04071 -0.199455,-0.04071 h -0.350064 v 0.95657 z"
         style="font-size:4.23333px;stroke-width:0.264583"
         id="path6554" />
      <path
         d="m 22.353477,72.270515 h 0.858877 v 2.686536 h 1.257788 v 0.732692 h -2.116665 z"
         style="font-size:4.23333px;stroke-width:0.264583"
         id="path6556" />
      <path
         d="m 28.068468,72.270515 -1.229293,1.990479 v 1.428749 h -0.936218 v -1.428749 l -1.229293,-1.990479 h 1.062403 l 0.634999,1.139743 0.635,-1.139743 z"
         style="font-size:4.23333px;stroke-width:0.264583"
         id="path6558" />
    </g>
    <g
       aria-label="SIGNAL 1"
       id="text6437"
       style="font-size:5.64444px;line-height:1.25;font-family:RubberNippleFactory;-inkscape-font-specification:RubberNippleFactory;stroke-width:0.264583">
      <path
         d="m 25.804022,56.189244 -0.483034,0.90094 q -0.26594,-0.249658 -0.564444,-0.249658 -0.16282,0 -0.271367,0.07598 -0.10312,0.07055 -0.10312,0.184529 0,0.211667 0.195384,0.36906 0.195385,0.157393 0.792393,0.477606 0.200812,0.108547 0.336495,0.211667 0.135684,0.10312 0.255086,0.255085 0.124829,0.146539 0.18453,0.352778 0.0597,0.206239 0.0597,0.472179 0,0.130256 -0.03799,0.287649 -0.03799,0.157393 -0.151966,0.363632 -0.113974,0.200812 -0.287649,0.363633 -0.173675,0.16282 -0.483034,0.276794 -0.309359,0.113975 -0.6947,0.113975 -0.81953,0 -1.563076,-0.55359 l 0.597008,-0.852093 q 0.42876,0.42876 0.928076,0.42876 0.222522,0 0.358205,-0.113974 0.135684,-0.119402 0.135684,-0.309359 0,-0.04885 -0.01085,-0.08684 -0.0054,-0.04342 -0.02714,-0.08141 -0.02171,-0.04342 -0.04342,-0.07055 -0.01628,-0.03256 -0.06513,-0.07056 -0.04885,-0.03799 -0.07598,-0.0597 -0.02714,-0.02171 -0.09769,-0.0597 -0.06513,-0.03799 -0.103119,-0.0597 -0.03256,-0.02171 -0.124829,-0.07056 -0.09227,-0.04885 -0.135684,-0.07056 -0.233376,-0.130256 -0.407051,-0.249658 -0.173675,-0.124829 -0.352777,-0.303931 -0.173675,-0.18453 -0.271368,-0.423333 -0.09227,-0.238804 -0.09227,-0.521026 0,-0.499315 0.385342,-0.846666 0.385342,-0.352777 1.080042,-0.352777 0.341923,0 0.656709,0.08141 0.320213,0.07598 0.483034,0.189957 z"
         style="font-size:5.64444px;stroke-width:0.264583"
         id="path6529" />
      <path
         d="m 26.791798,60.536549 v -4.558971 h 1.215725 v 4.558971 z"
         style="font-size:5.64444px;stroke-width:0.264583"
         id="path6531" />
      <path
         d="m 31.746964,58.560995 h 1.107179 v 1.649913 q -0.776111,0.434188 -1.753033,0.434188 -0.466752,0 -0.890085,-0.151966 -0.423333,-0.157393 -0.770683,-0.45047 -0.341923,-0.298504 -0.548162,-0.77611 -0.206239,-0.477607 -0.206239,-1.074615 0,-0.651282 0.379914,-1.194016 0.379914,-0.548162 0.966068,-0.819529 0.564444,-0.260513 1.286281,-0.260513 0.955213,0 1.660768,0.591581 l -0.705555,0.922649 q -0.515598,-0.445043 -1.107179,-0.445043 -0.51017,0 -0.922649,0.36906 -0.407051,0.363632 -0.407051,0.933503 0,0.499316 0.363633,0.884658 0.363632,0.379914 0.938931,0.379914 0.303931,0 0.607862,-0.113974 z"
         style="font-size:5.64444px;stroke-width:0.264583"
         id="path6533" />
      <path
         d="m 33.668236,60.536549 v -4.618672 h 0.16282 l 2.941622,2.344614 v -2.203503 h 1.161452 v 4.651236 h -0.124829 l -2.947049,-2.57799 v 2.404315 z"
         style="font-size:5.64444px;stroke-width:0.264583"
         id="path6535" />
      <path
         d="M 42.433398,60.536549 42.069766,59.885267 H 39.97481 l -0.363632,0.651282 h -1.269999 l 2.643118,-4.618672 h 0.151965 l 2.648545,4.618672 z M 40.40357,59.141721 h 1.259145 q -0.02171,-0.04342 -0.06513,-0.113975 -0.03799,-0.07598 -0.04885,-0.09769 -0.113975,-0.211666 -0.233376,-0.488461 -0.113975,-0.276795 -0.173675,-0.45047 l -0.05427,-0.173675 q -0.211666,0.466752 -0.363632,0.748974 -0.157393,0.282222 -0.320214,0.575299 z"
         style="font-size:5.64444px;stroke-width:0.264583"
         id="path6537" />
      <path
         d="m 44.191852,55.977578 h 1.145171 v 3.582048 h 1.67705 v 0.976923 h -2.822221 z"
         style="font-size:5.64444px;stroke-width:0.264583"
         id="path6539" />
      <path
         d="m 50.965166,60.536549 h -1.123461 v -3.565767 l -0.721837,0.26594 0.01086,-0.651282 1.720469,-0.667563 h 0.113974 z"
         style="font-size:5.64444px;stroke-width:0.264583"
         id="path6541" />
    </g>
    <path
       style="opacity:0.999;fill:none;fill-opacity:1;stroke:#000000;stroke-width:0.449792;stroke-miterlimit:4;stroke-dasharray:none;stroke-opacity:1"
       d="m 37.150464,51.248932 0,3.674956"
       id="path6439"
       sodipodi:nodetypes="cc" />
    <path
       style="opacity:0.999;fill:none;fill-opacity:1;stroke:#000000;stroke-width:0.449792;stroke-miterlimit:4;stroke-dasharray:none;stroke-opacity:1"
       d="m 28.591571,74.033714 8.595194,-0.06682 V 61.354313"
       id="path6441"
       sodipodi:nodetypes="ccc" />
    <g
       aria-label="MULTIPLY"
       id="text6445"
       style="font-size:4.23333px;line-height:1.25;font-family:RubberNippleFactory;-inkscape-font-specification:RubberNippleFactory;stroke-width:0.264583">
      <path
         d="m 3.9140886,149.77315 0.663493,-3.46401 h 0.1302563 l 1.4287488,2.05968 1.4246783,-2.05968 h 0.1506089 l 0.6268584,3.46401 h -0.887371 l -0.2360896,-1.55087 -1.1071785,1.55087 -1.054262,-1.5875 -0.2564421,1.5875 z"
         style="font-size:4.23333px;stroke-width:0.264583"
         id="path6576" />
      <path
         d="m 10.752537,146.35392 h 0.871089 v 2.07596 q 0,0.62686 -0.39891,1.02577 -0.39891,0.39891 -1.025768,0.39891 -0.6268584,0 -1.0257684,-0.39484 -0.3948394,-0.39891 -0.3948394,-1.02577 v -2.08003 h 0.871089 v 2.11666 q 0,0.22795 0.1587499,0.39077 0.1628204,0.16282 0.3907689,0.16282 0.227949,0 0.390769,-0.15875 0.16282,-0.16282 0.16282,-0.39076 z"
         style="font-size:4.23333px;stroke-width:0.264583"
         id="path6578" />
      <path
         d="m 12.234199,146.35392 h 0.858877 v 2.68654 h 1.257788 v 0.73269 h -2.116665 z"
         style="font-size:4.23333px;stroke-width:0.264583"
         id="path6580" />
      <path
         d="m 17.297909,146.35392 v 0.77747 H 16.42682 v 2.64176 h -0.907724 v -2.65397 h -0.862948 v -0.76526 h 0.862948 0.907724 z"
         style="font-size:4.23333px;stroke-width:0.264583"
         id="path6582" />
      <path
         d="m 17.70496,149.77315 v -3.41923 h 0.911794 v 3.41923 z"
         style="font-size:4.23333px;stroke-width:0.264583"
         id="path6584" />
      <path
         d="m 20.668291,146.35392 q 0.500673,0 0.834454,0.37449 0.337853,0.37041 0.341923,0.82631 0,0.30529 -0.113974,0.55359 -0.113974,0.24423 -0.301218,0.39484 -0.183173,0.15061 -0.407051,0.23202 -0.219807,0.0773 -0.447756,0.0773 h -0.459967 v 0.96064 h -0.887371 v -3.41923 h 0.8833 z m -0.223878,1.70554 q 0.199455,0 0.354134,-0.14654 0.15468,-0.1506 0.15468,-0.34599 0,-0.16282 -0.09362,-0.27272 -0.09362,-0.11398 -0.199455,-0.15061 -0.101763,-0.0407 -0.199455,-0.0407 h -0.350064 v 0.95657 z"
         style="font-size:4.23333px;stroke-width:0.264583"
         id="path6586" />
      <path
         d="m 22.353477,146.35392 h 0.858877 v 2.68654 h 1.257788 v 0.73269 h -2.116665 z"
         style="font-size:4.23333px;stroke-width:0.264583"
         id="path6588" />
      <path
         d="m 28.068468,146.35392 -1.229293,1.99048 v 1.42875 h -0.936218 v -1.42875 l -1.229293,-1.99048 h 1.062403 l 0.634999,1.13974 0.635,-1.13974 z"
         style="font-size:4.23333px;stroke-width:0.264583"
         id="path6590" />
    </g>
    <g
       aria-label="SIGNAL 2"
       id="text6449"
       style="font-size:5.64444px;line-height:1.25;font-family:RubberNippleFactory;-inkscape-font-specification:RubberNippleFactory;stroke-width:0.264583">
      <path
         d="m 25.804022,130.27264 -0.483034,0.90094 q -0.26594,-0.24965 -0.564444,-0.24965 -0.16282,0 -0.271367,0.076 -0.10312,0.0705 -0.10312,0.18453 0,0.21167 0.195384,0.36906 0.195385,0.15739 0.792393,0.47761 0.200812,0.10854 0.336495,0.21166 0.135684,0.10312 0.255086,0.25509 0.124829,0.14654 0.18453,0.35277 0.0597,0.20624 0.0597,0.47218 0,0.13026 -0.03799,0.28765 -0.03799,0.1574 -0.151966,0.36364 -0.113974,0.20081 -0.287649,0.36363 -0.173675,0.16282 -0.483034,0.27679 -0.309359,0.11398 -0.6947,0.11398 -0.81953,0 -1.563076,-0.55359 l 0.597008,-0.8521 q 0.42876,0.42876 0.928076,0.42876 0.222522,0 0.358205,-0.11397 0.135684,-0.1194 0.135684,-0.30936 0,-0.0488 -0.01085,-0.0868 -0.0054,-0.0434 -0.02714,-0.0814 -0.02171,-0.0434 -0.04342,-0.0705 -0.01628,-0.0326 -0.06513,-0.0706 -0.04885,-0.038 -0.07598,-0.0597 -0.02714,-0.0217 -0.09769,-0.0597 -0.06513,-0.038 -0.103119,-0.0597 -0.03256,-0.0217 -0.124829,-0.0706 -0.09227,-0.0488 -0.135684,-0.0705 -0.233376,-0.13026 -0.407051,-0.24966 -0.173675,-0.12483 -0.352777,-0.30393 -0.173675,-0.18453 -0.271368,-0.42333 -0.09227,-0.23881 -0.09227,-0.52103 0,-0.49931 0.385342,-0.84666 0.385342,-0.35278 1.080042,-0.35278 0.341923,0 0.656709,0.0814 0.320213,0.076 0.483034,0.18995 z"
         style="font-size:5.64444px;stroke-width:0.264583"
         id="path6561" />
      <path
         d="m 26.791798,134.61995 v -4.55897 h 1.215725 v 4.55897 z"
         style="font-size:5.64444px;stroke-width:0.264583"
         id="path6563" />
      <path
         d="m 31.746964,132.6444 h 1.107179 v 1.64991 q -0.776111,0.43419 -1.753033,0.43419 -0.466752,0 -0.890085,-0.15197 -0.423333,-0.15739 -0.770683,-0.45047 -0.341923,-0.2985 -0.548162,-0.77611 -0.206239,-0.47761 -0.206239,-1.07461 0,-0.65129 0.379914,-1.19402 0.379914,-0.54816 0.966068,-0.81953 0.564444,-0.26051 1.286281,-0.26051 0.955213,0 1.660768,0.59158 l -0.705555,0.92265 q -0.515598,-0.44505 -1.107179,-0.44505 -0.51017,0 -0.922649,0.36906 -0.407051,0.36364 -0.407051,0.93351 0,0.49931 0.363633,0.88466 0.363632,0.37991 0.938931,0.37991 0.303931,0 0.607862,-0.11397 z"
         style="font-size:5.64444px;stroke-width:0.264583"
         id="path6565" />
      <path
         d="m 33.668236,134.61995 v -4.61867 h 0.16282 l 2.941622,2.34461 v -2.2035 h 1.161452 v 4.65123 h -0.124829 l -2.947049,-2.57799 v 2.40432 z"
         style="font-size:5.64444px;stroke-width:0.264583"
         id="path6567" />
      <path
         d="m 42.433398,134.61995 -0.363632,-0.65128 H 39.97481 l -0.363632,0.65128 h -1.269999 l 2.643118,-4.61867 h 0.151965 l 2.648545,4.61867 z m -2.029828,-1.39483 h 1.259145 q -0.02171,-0.0434 -0.06513,-0.11397 -0.03799,-0.076 -0.04885,-0.0977 -0.113975,-0.21166 -0.233376,-0.48846 -0.113975,-0.27679 -0.173675,-0.45047 l -0.05427,-0.17367 q -0.211666,0.46675 -0.363632,0.74897 -0.157393,0.28222 -0.320214,0.5753 z"
         style="font-size:5.64444px;stroke-width:0.264583"
         id="path6569" />
      <path
         d="m 44.191852,130.06098 h 1.145171 v 3.58205 h 1.67705 v 0.97692 h -2.822221 z"
         style="font-size:5.64444px;stroke-width:0.264583"
         id="path6571" />
      <path
         d="m 49.809141,131.32555 -0.629572,-0.72726 q 0.233376,-0.22795 0.396196,-0.3365 0.162821,-0.11397 0.428761,-0.18453 0.271367,-0.076 0.651281,-0.076 0.705555,0 1.14517,0.43961 0.439615,0.43419 0.439615,0.93893 0,0.44505 -0.298504,0.98778 -0.298504,0.53731 -0.841238,1.27 l 1.791024,-0.0163 v 0.99863 h -3.772006 q 1.183162,-1.59021 1.709614,-2.44773 0.282222,-0.46133 0.282222,-0.72727 0,-0.18453 -0.16282,-0.36906 -0.157393,-0.18453 -0.42876,-0.18453 -0.255086,0 -0.412479,0.10855 -0.157393,0.10855 -0.298504,0.32564 z"
         style="font-size:5.64444px;stroke-width:0.264583"
         id="path6573" />
    </g>
    <path
       style="opacity:0.999;fill:none;fill-opacity:1;stroke:#000000;stroke-width:0.449792;stroke-miterlimit:4;stroke-dasharray:none;stroke-opacity:1"
       d="m 37.150464,125.33233 v 3.67496"
       id="path6451"
       sodipodi:nodetypes="cc" />
    <path
       style="opacity:0.999;fill:none;fill-opacity:1;stroke:#000000;stroke-width:0.449792;stroke-miterlimit:4;stroke-dasharray:none;stroke-opacity:1"
       d="m 28.591571,148.11712 8.595194,-0.0668 v -12.61259"
       id="path6453"
       sodipodi:nodetypes="ccc" />
    <g
       aria-label="SIGNAL
GENERATOR"
       id="text6595"
       style="font-size:10.5833px;line-height:1.25;font-family:'Poiret One';-inkscape-font-specification:'Poiret One';stroke-width:0.264583">
      <path
         d="m 17.579669,175.19491 q -0.243416,-0.44449 -0.666748,-0.69849 -0.412749,-0.254 -0.931331,-0.254 -0.518581,0 -0.888997,0.32808 -0.359832,0.3175 -0.359832,0.87841 v 0.0529 q 0,0.66675 0.740831,1.21708 0.317499,0.23283 0.709081,0.46566 0.402166,0.22225 0.793748,0.48684 0.402165,0.254 0.719664,0.55033 0.328082,0.28575 0.529165,0.70908 0.211666,0.42333 0.211666,0.93133 v 0.10583 q 0,1.00542 -0.687914,1.59808 -0.677332,0.59267 -1.682745,0.59267 -1.322913,0 -2.05316,-1.09008 v -0.5715 q 0.275166,0.60325 0.804331,0.98424 0.539748,0.37042 1.333495,0.37042 0.793748,0 1.375829,-0.508 0.582082,-0.508 0.582082,-1.35466 v -0.0635 q 0,-0.52917 -0.275166,-0.96308 -0.275166,-0.4445 -0.687915,-0.71967 -0.412748,-0.28574 -0.89958,-0.59266 -0.486832,-0.30692 -0.89958,-0.5715 -0.412749,-0.26458 -0.687915,-0.66675 -0.275166,-0.40216 -0.275166,-0.87841 v -0.0741 q 0,-0.74083 0.476249,-1.13242 0.476248,-0.39158 1.174746,-0.39158 0.973664,0 1.545162,0.71967 z"
         style="font-size:10.5833px;text-align:center;text-anchor:middle;stroke-width:0.264583"
         id="path6599" />
      <path
         d="m 19.706903,174.07308 h 0.349249 v 7.93748 h -0.349249 z"
         style="font-size:10.5833px;text-align:center;text-anchor:middle;stroke-width:0.264583"
         id="path6601" />
      <path
         d="m 24.681043,178.98374 v -0.30692 h 2.973907 v 2.86807 q -0.931331,0.58209 -2.095494,0.58209 H 25.44304 q -1.09008,0 -2.031993,-0.5715 -0.941914,-0.5715 -1.492246,-1.51341 -0.539748,-0.9525 -0.539748,-2.02141 0,-1.68275 1.217079,-2.88925 1.21708,-1.21708 2.910408,-1.21708 1.132413,0 2.14841,0.59267 v 0.39158 q -0.99483,-0.67733 -2.14841,-0.67733 -1.555745,0 -2.666992,1.12183 -1.111246,1.11125 -1.111246,2.67758 0,1.55574 1.111246,2.67757 1.111247,1.12183 2.666992,1.12183 0.86783,0 1.799161,-0.4445 v -2.39182 z"
         style="font-size:10.5833px;text-align:center;text-anchor:middle;stroke-width:0.264583"
         id="path6603" />
      <path
         d="m 34.872748,174.07308 h 0.306915 v 8.0539 l -5.841981,-7.18607 v 7.06965 h -0.306916 v -8.05389 l 5.841982,7.17548 z"
         style="font-size:10.5833px;text-align:center;text-anchor:middle;stroke-width:0.264583"
         id="path6605" />
      <path
         d="m 40.249054,173.88258 3.968738,8.12798 h -0.370416 l -1.502828,-3.02682 h -4.243904 l -1.481661,3.02682 H 36.2909 Z m -0.03175,0.73025 -1.979077,4.06399 h 3.979321 z"
         style="font-size:10.5833px;text-align:center;text-anchor:middle;stroke-width:0.264583"
         id="path6607" />
      <path
         d="m 45.678266,174.07308 v 7.63056 h 2.455326 v 0.30692 h -2.804575 v -7.93748 z"
         style="font-size:10.5833px;text-align:center;text-anchor:middle;stroke-width:0.264583"
         id="path6609" />
      <path
         d="m 8.7532156,192.21286 v -0.30692 h 2.9739074 v 2.86808 q -0.931331,0.58208 -2.0954935,0.58208 H 9.5152132 q -1.0900798,0 -2.0319935,-0.5715 -0.9419137,-0.5715 -1.4922453,-1.51341 -0.5397482,-0.9525 -0.5397482,-2.02141 0,-1.68274 1.2170794,-2.88924 1.2170795,-1.21708 2.9104074,-1.21708 1.132413,0 2.14841,0.59266 v 0.39159 q -0.99483,-0.67733 -2.14841,-0.67733 -1.555745,0 -2.6669915,1.12182 -1.1112464,1.11125 -1.1112464,2.67758 0,1.55574 1.1112464,2.67757 1.1112465,1.12183 2.6669915,1.12183 0.867831,0 1.799161,-0.44449 v -2.39183 z"
         style="font-size:10.5833px;text-align:center;text-anchor:middle;stroke-width:0.264583"
         id="path6611" />
      <path
         d="m 13.10294,187.30221 h 2.846907 v 0.30691 h -2.497658 v 4.31799 h 2.08491 v 0.30692 h -2.08491 v 2.69874 h 2.497658 v 0.30691 H 13.10294 Z"
         style="font-size:10.5833px;text-align:center;text-anchor:middle;stroke-width:0.264583"
         id="path6613" />
      <path
         d="m 22.850153,187.30221 h 0.306916 v 8.05389 l -5.841982,-7.18606 v 7.06964 h -0.306915 v -8.05389 l 5.841981,7.17548 z"
         style="font-size:10.5833px;text-align:center;text-anchor:middle;stroke-width:0.264583"
         id="path6615" />
      <path
         d="m 24.744553,187.30221 h 2.846908 v 0.30691 h -2.497659 v 4.31799 h 2.08491 v 0.30692 h -2.08491 v 2.69874 h 2.497659 v 0.30691 h -2.846908 z"
         style="font-size:10.5833px;text-align:center;text-anchor:middle;stroke-width:0.264583"
         id="path6617" />
      <path
         d="m 28.649787,187.30221 h 0.455082 q 1.02658,0 1.799161,0.762 0.783164,0.75141 0.783164,1.77799 0,1.016 -0.793748,1.76741 -0.793747,0.75142 -1.703911,0.75142 h -0.07408 l 2.730491,2.87865 h -0.455082 l -2.402409,-2.51882 v 2.51882 h -0.338665 z m 0.338665,4.7519 h 0.1905 q 0.857247,0 1.513412,-0.65616 0.656164,-0.65617 0.656164,-1.55575 0,-0.89958 -0.677331,-1.56633 -0.677331,-0.66675 -1.545162,-0.66675 h -0.137583 z"
         style="font-size:10.5833px;text-align:center;text-anchor:middle;stroke-width:0.264583"
         id="path6619" />
      <path
         d="m 36.43909,187.11171 3.968737,8.12797 h -0.370415 l -1.502829,-3.02682 H 34.29068 l -1.481662,3.02682 h -0.328082 z m -0.03175,0.73025 -1.979077,4.06398 h 3.979321 z"
         style="font-size:10.5833px;text-align:center;text-anchor:middle;stroke-width:0.264583"
         id="path6621" />
      <path
         d="m 44.080192,187.30221 v 0.30691 h -1.809744 v 7.63056 h -0.349249 v -7.63056 h -1.830911 v -0.30691 z"
         style="font-size:10.5833px;text-align:center;text-anchor:middle;stroke-width:0.264583"
         id="path6623" />
      <path
         d="m 47.964242,195.37727 q -1.640411,0 -2.846907,-1.23825 -1.195913,-1.23825 -1.195913,-2.88924 0,-1.66158 1.217079,-2.86807 1.21708,-1.21708 2.920991,-1.21708 1.703911,0 2.910407,1.20649 1.206497,1.2065 1.206497,2.87866 0,1.66158 -1.195913,2.89982 -1.195913,1.22767 -2.857491,1.22767 z m 3.862905,-4.10632 q 0,-1.56633 -1.111247,-2.67758 -1.100663,-1.12183 -2.666991,-1.12183 -1.555745,0 -2.666992,1.12183 -1.111246,1.11125 -1.111246,2.67758 0,1.55574 1.111246,2.67757 1.111247,1.12183 2.666992,1.12183 1.555745,0 2.666991,-1.12183 1.111247,-1.12183 1.111247,-2.67757 z"
         style="font-size:10.5833px;text-align:center;text-anchor:middle;stroke-width:0.264583"
         id="path6625" />
      <path
         d="m 53.446379,187.30221 h 0.455082 q 1.02658,0 1.799161,0.762 0.783164,0.75141 0.783164,1.77799 0,1.016 -0.793747,1.76741 -0.793748,0.75142 -1.703911,0.75142 h -0.07408 l 2.730491,2.87865 h -0.455082 l -2.402409,-2.51882 v 2.51882 h -0.338666 z m 0.338666,4.7519 h 0.190499 q 0.857248,0 1.513412,-0.65616 0.656165,-0.65617 0.656165,-1.55575 0,-0.89958 -0.677331,-1.56633 -0.677332,-0.66675 -1.545162,-0.66675 h -0.137583 z"
         style="font-size:10.5833px;text-align:center;text-anchor:middle;stroke-width:0.264583"
         id="path6627" />
    </g>
  </g>
</svg>
