<?xml version="1.0" encoding="UTF-8" standalone="no"?>
<svg
   xmlns:dc="http://purl.org/dc/elements/1.1/"
   xmlns:cc="http://creativecommons.org/ns#"
   xmlns:rdf="http://www.w3.org/1999/02/22-rdf-syntax-ns#"
   xmlns:svg="http://www.w3.org/2000/svg"
   xmlns="http://www.w3.org/2000/svg"
   xmlns:sodipodi="http://sodipodi.sourceforge.net/DTD/sodipodi-0.dtd"
   xmlns:inkscape="http://www.inkscape.org/namespaces/inkscape"
   width="420"
   height="350"
   viewBox="0 0 111.125 92.60417"
   version="1.1"
   id="svg8"
   inkscape:version="1.0.1 (3bc2e813f5, 2020-09-07)"
   sodipodi:docname="antenna_input.svg">
  <defs
     id="defs2" />
  <sodipodi:namedview
     id="base"
     pagecolor="#ffffff"
     bordercolor="#666666"
     borderopacity="1.0"
     inkscape:pageopacity="0.0"
     inkscape:pageshadow="2"
     inkscape:zoom="2.0000001"
     inkscape:cx="223.69058"
     inkscape:cy="172.85598"
     inkscape:document-units="px"
     inkscape:current-layer="layer1"
     inkscape:document-rotation="0"
     showgrid="false"
     units="px"
     inkscape:window-width="1620"
     inkscape:window-height="1018"
     inkscape:window-x="-6"
     inkscape:window-y="-6"
     inkscape:window-maximized="1"
     inkscape:snap-global="false" />
  <metadata
     id="metadata5">
    <rdf:RDF>
      <cc:Work
         rdf:about="">
        <dc:format>image/svg+xml</dc:format>
        <dc:type
           rdf:resource="http://purl.org/dc/dcmitype/StillImage" />
        <dc:title></dc:title>
      </cc:Work>
    </rdf:RDF>
  </metadata>
  <g
     inkscape:label="Layer 1"
     inkscape:groupmode="layer"
     id="layer1">
    <rect
       style="opacity:0.999;fill:#000000;fill-opacity:1;stroke-width:0.0495843"
       id="rect5718"
       width="19.276785"
       height="0.5291667"
       x="-25.135416"
       y="46.037376" />
    <rect
       style="opacity:0.999;fill:#000000;fill-opacity:1;stroke-width:0.0495843"
       id="rect5720"
       width="19.276785"
       height="0.5291667"
       x="-25.135416"
       y="64.558212" />
    <rect
       style="opacity:0.999;fill:#000000;fill-opacity:1;stroke-width:0.0495843"
       id="rect5722"
       width="19.276785"
       height="0.5291667"
       x="-25.135416"
       y="83.079048" />
    <rect
       style="opacity:0.999;fill:#000000;fill-opacity:1;stroke-width:0.0495843"
       id="rect5716"
       width="19.276785"
       height="0.5291667"
       x="-25.135416"
       y="27.516544" />
    <text
       xml:space="preserve"
       style="font-size:10.5833px;line-height:1.25;font-family:Cutive;-inkscape-font-specification:Cutive;stroke-width:0.264583"
       x="6.0135646"
       y="10.022607"
       id="text839"><tspan
         sodipodi:role="line"
         id="tspan837"
         x="6.0135646"
         y="10.022607"
         style="stroke-width:0.264583" /></text>
    <text
       xml:space="preserve"
       style="font-size:10.5833px;line-height:1.25;font-family:Cutive;-inkscape-font-specification:Cutive;stroke-width:0.264583"
       x="1.8040689"
       y="10.757601"
       id="text843"><tspan
         sodipodi:role="line"
         id="tspan841"
         x="1.8040689"
         y="10.757601"
         style="stroke-width:0.264583" /></text>
    <rect
       style="opacity:0.999;fill:#9164d4;fill-opacity:1;stroke-width:0.215473"
       id="rect900"
       width="110.06667"
       height="91.545837"
       x="0.5291667"
       y="0.5291667"
       ry="1.9608293" />
    <path
       id="rect5705"
       style="opacity:0.999;fill:#aa87de;fill-opacity:1;stroke-width:0.244461"
       d="m 2.8176241,0.52916667 c -1.2678556,0 -2.28845742,1.28085163 -2.28845742,2.87200413 V 91.016667 H 106.88298 c 1.26126,0 2.27654,-1.274181 2.27654,-2.857056 V 0.52916667 Z"
       sodipodi:nodetypes="sscsscs" />
    <circle
       style="opacity:0.999;fill:#4d4d4d;stroke-width:0.12015"
       id="path5070"
       cx="2.7119792"
       cy="2.7119792"
       r="1.1244792" />
    <rect
       style="opacity:0.999;fill:#333333;stroke-width:0.183696"
       id="rect5074"
       width="0.1889881"
       height="1.3281524"
       x="2.6103981"
       y="2.0263865" />
    <rect
       style="opacity:0.999;fill:#333333;stroke-width:0.183696"
       id="rect5076"
       width="0.1889881"
       height="1.3281524"
       x="2.5959685"
       y="-3.3689682"
       transform="rotate(90)" />
    <circle
       style="opacity:0.999;fill:#4d4d4d;stroke-width:0.12015"
       id="circle5078"
       cx="2.7119792"
       cy="89.892067"
       r="1.1244792" />
    <rect
       style="opacity:0.999;fill:#333333;stroke-width:0.183696"
       id="rect5080"
       width="0.1889881"
       height="1.3281524"
       x="2.6103981"
       y="89.206474" />
    <rect
       style="opacity:0.999;fill:#333333;stroke-width:0.183696"
       id="rect5082"
       width="0.1889881"
       height="1.3281524"
       x="89.776062"
       y="-3.3689682"
       transform="rotate(90)" />
    <circle
       style="opacity:0.999;fill:#4d4d4d;stroke-width:0.12015"
       id="circle5693"
       cx="108.41302"
       cy="2.7119792"
       r="1.1244792" />
    <rect
       style="opacity:0.999;fill:#333333;stroke-width:0.183696"
       id="rect5695"
       width="0.1889881"
       height="1.3281524"
       x="108.31144"
       y="2.0263865" />
    <rect
       style="opacity:0.999;fill:#333333;stroke-width:0.183696"
       id="rect5697"
       width="0.1889881"
       height="1.3281524"
       x="2.5959685"
       y="-109.07001"
       transform="rotate(90)" />
    <circle
       style="opacity:0.999;fill:#4d4d4d;stroke-width:0.12015"
       id="circle5699"
       cx="108.41302"
       cy="89.892067"
       r="1.1244792" />
    <rect
       style="opacity:0.999;fill:#333333;stroke-width:0.183696"
       id="rect5701"
       width="0.1889881"
       height="1.3281524"
       x="108.31144"
       y="89.206474" />
    <rect
       style="opacity:0.999;fill:#333333;stroke-width:0.183696"
       id="rect5703"
       width="0.1889881"
       height="1.3281524"
       x="89.776062"
       y="-109.07001"
       transform="rotate(90)" />
    <rect
       style="opacity:0.999;fill:#000000;fill-opacity:1;stroke-width:0.019329"
       id="rect2324"
       width="2.9293149"
       height="0.5291667"
       x="-32.735271"
       y="46.037376" />
    <rect
       style="opacity:0.999;fill:#000000;fill-opacity:1;stroke-width:0.019329"
       id="rect2326"
       width="2.9293149"
       height="0.5291667"
       x="-32.735271"
       y="64.558212" />
    <rect
       style="opacity:0.999;fill:#000000;fill-opacity:1;stroke-width:0.019329"
       id="rect2328"
       width="2.9293149"
       height="0.5291667"
       x="-32.735271"
       y="83.079048" />
    <rect
       style="opacity:0.999;fill:#000000;fill-opacity:1;stroke-width:0.019329"
       id="rect2330"
       width="2.9293149"
       height="0.5291667"
       x="-32.735271"
       y="27.516544" />
    <g
       aria-label="DATA CHANNEL 1"
       id="text8929"
       style="font-size:5.64444px;line-height:1.25;font-family:'Poiret One';-inkscape-font-specification:'Poiret One';stroke-width:0.264583"
       transform="translate(43.391666)">
      <path
         d="m 5.6455334,29.565438 v -4.558971 h 1.5250844 q 0.564444,0 1.0149137,0.135684 0.4504698,0.130256 0.7381191,0.352778 0.2930767,0.217093 0.4884612,0.521025 0.1953845,0.303931 0.2767947,0.624145 0.086837,0.320213 0.086837,0.672991 0,0.971495 -0.6784183,1.611921 -0.6729909,0.635 -1.6879047,0.635 z m 1.1451701,-0.982349 v 0.0054 h 0.4179057 q 0.5698714,0 0.987777,-0.34735 0.423333,-0.352778 0.423333,-0.960641 0,-0.569871 -0.4070509,-0.933503 -0.4016237,-0.36906 -1.0040591,-0.36906 H 6.7907035 Z"
         style="font-style:normal;font-variant:normal;font-weight:normal;font-stretch:normal;font-size:5.64444px;font-family:RubberNippleFactory;-inkscape-font-specification:RubberNippleFactory;stroke-width:0.264583"
         id="path9097" />
      <path
         d="m 14.13933,29.560011 -0.363632,-0.651282 h -2.094956 l -0.363632,0.651282 h -1.269999 l 2.643118,-4.618672 h 0.151965 l 2.648545,4.618672 z m -2.029827,-1.394828 h 1.259144 q -0.02171,-0.04342 -0.06513,-0.113974 -0.03799,-0.07598 -0.04885,-0.09769 -0.113975,-0.211666 -0.233376,-0.488461 -0.113974,-0.276794 -0.173675,-0.45047 l -0.05427,-0.173675 q -0.211666,0.466752 -0.363632,0.748974 -0.157393,0.282222 -0.320213,0.575299 z"
         style="font-style:normal;font-variant:normal;font-weight:normal;font-stretch:normal;font-size:5.64444px;font-family:RubberNippleFactory;-inkscape-font-specification:RubberNippleFactory;stroke-width:0.264583"
         id="path9099" />
      <path
         d="m 18.540901,25.00104 v 1.036623 h -1.161452 v 3.522348 h -1.210298 v -3.53863 H 15.018553 V 25.00104 h 1.150598 1.210298 z"
         style="font-style:normal;font-variant:normal;font-weight:normal;font-stretch:normal;font-size:5.64444px;font-family:RubberNippleFactory;-inkscape-font-specification:RubberNippleFactory;stroke-width:0.264583"
         id="path9101" />
      <path
         d="m 22.768803,29.560011 -0.363632,-0.651282 h -2.094956 l -0.363632,0.651282 h -1.269999 l 2.643118,-4.618672 h 0.151966 l 2.648545,4.618672 z m -2.029827,-1.394828 h 1.259144 q -0.02171,-0.04342 -0.06513,-0.113974 -0.03799,-0.07598 -0.04885,-0.09769 -0.113974,-0.211666 -0.233376,-0.488461 -0.113974,-0.276794 -0.173675,-0.45047 l -0.05427,-0.173675 q -0.211666,0.466752 -0.363632,0.748974 -0.157393,0.282222 -0.320213,0.575299 z"
         style="font-style:normal;font-variant:normal;font-weight:normal;font-stretch:normal;font-size:5.64444px;font-family:RubberNippleFactory;-inkscape-font-specification:RubberNippleFactory;stroke-width:0.264583"
         id="path9103" />
      <path
         d="m 29.949168,29.402618 q -0.466752,0.26594 -1.438247,0.26594 -0.656709,0 -1.188588,-0.325641 -0.53188,-0.325641 -0.830384,-0.868375 -0.293077,-0.542735 -0.293077,-1.188589 0,-0.282222 0.07598,-0.580726 0.08141,-0.298504 0.271367,-0.618718 0.189957,-0.325641 0.472179,-0.575298 0.282222,-0.249658 0.732692,-0.412479 0.45047,-0.16282 1.004059,-0.16282 0.803247,0 1.204871,0.276795 v 1.221152 q -0.200812,-0.206239 -0.526453,-0.336495 -0.325641,-0.130256 -0.716409,-0.130256 -0.55359,0 -0.966068,0.396196 -0.407051,0.390769 -0.407051,0.933503 0,0.542735 0.390769,0.933504 0.396196,0.390769 0.944358,0.390769 0.754401,0 1.275427,-0.374487 z"
         style="font-style:normal;font-variant:normal;font-weight:normal;font-stretch:normal;font-size:5.64444px;font-family:RubberNippleFactory;-inkscape-font-specification:RubberNippleFactory;stroke-width:0.264583"
         id="path9105" />
      <path
         d="m 33.574628,25.00104 h 1.14517 v 4.558971 h -1.14517 V 27.606166 H 31.91386 v 1.953845 H 30.774117 V 25.00104 h 1.139743 v 1.622777 h 1.660768 z"
         style="font-style:normal;font-variant:normal;font-weight:normal;font-stretch:normal;font-size:5.64444px;font-family:RubberNippleFactory;-inkscape-font-specification:RubberNippleFactory;stroke-width:0.264583"
         id="path9107" />
      <path
         d="m 39.219057,29.560011 -0.363632,-0.651282 h -2.094956 l -0.363632,0.651282 h -1.269999 l 2.643117,-4.618672 h 0.151966 l 2.648545,4.618672 z m -2.029828,-1.394828 h 1.259145 q -0.02171,-0.04342 -0.06513,-0.113974 -0.03799,-0.07598 -0.04885,-0.09769 -0.113974,-0.211666 -0.233375,-0.488461 -0.113975,-0.276794 -0.173676,-0.45047 l -0.05427,-0.173675 q -0.211667,0.466752 -0.363632,0.748974 -0.157393,0.282222 -0.320214,0.575299 z"
         style="font-style:normal;font-variant:normal;font-weight:normal;font-stretch:normal;font-size:5.64444px;font-family:RubberNippleFactory;-inkscape-font-specification:RubberNippleFactory;stroke-width:0.264583"
         id="path9109" />
      <path
         d="m 40.977511,29.560011 v -4.618672 h 0.162821 l 2.941621,2.344614 V 25.08245 h 1.161453 v 4.651236 h -0.124829 l -2.94705,-2.57799 v 2.404315 z"
         style="font-style:normal;font-variant:normal;font-weight:normal;font-stretch:normal;font-size:5.64444px;font-family:RubberNippleFactory;-inkscape-font-specification:RubberNippleFactory;stroke-width:0.264583"
         id="path9111" />
      <path
         d="m 46.057505,29.560011 v -4.618672 h 0.162821 l 2.941622,2.344614 V 25.08245 H 50.3234 v 4.651236 h -0.124829 l -2.947049,-2.57799 v 2.404315 z"
         style="font-style:normal;font-variant:normal;font-weight:normal;font-stretch:normal;font-size:5.64444px;font-family:RubberNippleFactory;-inkscape-font-specification:RubberNippleFactory;stroke-width:0.264583"
         id="path9113" />
      <path
         d="m 52.288097,28.583089 h 1.508802 v 0.976922 H 51.1375 V 25.00104 h 2.659399 v 0.971495 h -1.508802 v 0.759828 h 1.508802 v 0.976923 h -1.508802 z"
         style="font-style:normal;font-variant:normal;font-weight:normal;font-stretch:normal;font-size:5.64444px;font-family:RubberNippleFactory;-inkscape-font-specification:RubberNippleFactory;stroke-width:0.264583"
         id="path9115" />
      <path
         d="m 54.610995,25.00104 h 1.14517 v 3.582049 h 1.67705 v 0.976922 h -2.82222 z"
         style="font-style:normal;font-variant:normal;font-weight:normal;font-stretch:normal;font-size:5.64444px;font-family:RubberNippleFactory;-inkscape-font-specification:RubberNippleFactory;stroke-width:0.264583"
         id="path9117" />
      <path
         d="m 61.384309,29.560011 h -1.123461 v -3.565767 l -0.721837,0.26594 0.01085,-0.651281 1.720468,-0.667564 h 0.113975 z"
         style="font-style:normal;font-variant:normal;font-weight:normal;font-stretch:normal;font-size:5.64444px;font-family:RubberNippleFactory;-inkscape-font-specification:RubberNippleFactory;stroke-width:0.264583"
         id="path9119" />
    </g>
    <g
       aria-label="DATA CHANNEL 2"
       id="text8933"
       style="font-size:5.64444px;line-height:1.25;font-family:'Poiret One';-inkscape-font-specification:'Poiret One';stroke-width:0.264583"
       transform="translate(43.391666)">
      <path
         d="m 5.6455334,48.08628 v -4.558971 h 1.5250844 q 0.564444,0 1.0149137,0.135684 0.4504698,0.130256 0.7381191,0.352777 0.2930767,0.217094 0.4884612,0.521025 0.1953845,0.303932 0.2767947,0.624145 0.086837,0.320214 0.086837,0.672991 0,0.971495 -0.6784183,1.611922 -0.6729909,0.635 -1.6879047,0.635 z m 1.1451701,-0.98235 v 0.0054 h 0.4179057 q 0.5698714,0 0.987777,-0.347351 0.423333,-0.352777 0.423333,-0.96064 0,-0.569871 -0.4070509,-0.933504 Q 7.8110446,44.498804 7.2086092,44.498804 H 6.7907035 Z"
         style="font-style:normal;font-variant:normal;font-weight:normal;font-stretch:normal;font-size:5.64444px;font-family:RubberNippleFactory;-inkscape-font-specification:RubberNippleFactory;stroke-width:0.264583"
         id="path9122" />
      <path
         d="m 14.13933,48.080853 -0.363632,-0.651282 h -2.094956 l -0.363632,0.651282 h -1.269999 l 2.643118,-4.618672 h 0.151965 l 2.648545,4.618672 z m -2.029827,-1.394828 h 1.259144 q -0.02171,-0.04342 -0.06513,-0.113975 -0.03799,-0.07598 -0.04885,-0.09769 -0.113975,-0.211667 -0.233376,-0.488461 -0.113974,-0.276795 -0.173675,-0.45047 l -0.05427,-0.173675 q -0.211666,0.466752 -0.363632,0.748974 -0.157393,0.282222 -0.320213,0.575299 z"
         style="font-style:normal;font-variant:normal;font-weight:normal;font-stretch:normal;font-size:5.64444px;font-family:RubberNippleFactory;-inkscape-font-specification:RubberNippleFactory;stroke-width:0.264583"
         id="path9124" />
      <path
         d="m 18.540901,43.521882 v 1.036623 h -1.161452 v 3.522348 h -1.210298 v -3.53863 h -1.150598 v -1.020341 h 1.150598 1.210298 z"
         style="font-style:normal;font-variant:normal;font-weight:normal;font-stretch:normal;font-size:5.64444px;font-family:RubberNippleFactory;-inkscape-font-specification:RubberNippleFactory;stroke-width:0.264583"
         id="path9126" />
      <path
         d="m 22.768803,48.080853 -0.363632,-0.651282 h -2.094956 l -0.363632,0.651282 h -1.269999 l 2.643118,-4.618672 h 0.151966 l 2.648545,4.618672 z M 20.738976,46.686025 H 21.99812 Q 21.97641,46.642605 21.93299,46.57205 21.895,46.49607 21.88414,46.47436 21.770166,46.262693 21.650764,45.985899 21.53679,45.709104 21.477089,45.535429 l -0.05427,-0.173675 q -0.211666,0.466752 -0.363632,0.748974 -0.157393,0.282222 -0.320213,0.575299 z"
         style="font-style:normal;font-variant:normal;font-weight:normal;font-stretch:normal;font-size:5.64444px;font-family:RubberNippleFactory;-inkscape-font-specification:RubberNippleFactory;stroke-width:0.264583"
         id="path9128" />
      <path
         d="m 29.949168,47.923459 q -0.466752,0.26594 -1.438247,0.26594 -0.656709,0 -1.188588,-0.32564 -0.53188,-0.325641 -0.830384,-0.868376 -0.293077,-0.542734 -0.293077,-1.188589 0,-0.282222 0.07598,-0.580726 0.08141,-0.298504 0.271367,-0.618717 0.189957,-0.325641 0.472179,-0.575299 0.282222,-0.249658 0.732692,-0.412478 0.45047,-0.162821 1.004059,-0.162821 0.803247,0 1.204871,0.276795 v 1.221153 q -0.200812,-0.206239 -0.526453,-0.336495 -0.325641,-0.130257 -0.716409,-0.130257 -0.55359,0 -0.966068,0.396197 -0.407051,0.390768 -0.407051,0.933503 0,0.542735 0.390769,0.933504 0.396196,0.390769 0.944358,0.390769 0.754401,0 1.275427,-0.374487 z"
         style="font-style:normal;font-variant:normal;font-weight:normal;font-stretch:normal;font-size:5.64444px;font-family:RubberNippleFactory;-inkscape-font-specification:RubberNippleFactory;stroke-width:0.264583"
         id="path9130" />
      <path
         d="m 33.574628,43.521882 h 1.14517 v 4.558971 h -1.14517 V 46.127008 H 31.91386 v 1.953845 h -1.139743 v -4.558971 h 1.139743 v 1.622776 h 1.660768 z"
         style="font-style:normal;font-variant:normal;font-weight:normal;font-stretch:normal;font-size:5.64444px;font-family:RubberNippleFactory;-inkscape-font-specification:RubberNippleFactory;stroke-width:0.264583"
         id="path9132" />
      <path
         d="m 39.219057,48.080853 -0.363632,-0.651282 h -2.094956 l -0.363632,0.651282 h -1.269999 l 2.643117,-4.618672 h 0.151966 l 2.648545,4.618672 z m -2.029828,-1.394828 h 1.259145 q -0.02171,-0.04342 -0.06513,-0.113975 -0.03799,-0.07598 -0.04885,-0.09769 -0.113974,-0.211667 -0.233375,-0.488461 -0.113975,-0.276795 -0.173676,-0.45047 l -0.05427,-0.173675 q -0.211667,0.466752 -0.363632,0.748974 -0.157393,0.282222 -0.320214,0.575299 z"
         style="font-style:normal;font-variant:normal;font-weight:normal;font-stretch:normal;font-size:5.64444px;font-family:RubberNippleFactory;-inkscape-font-specification:RubberNippleFactory;stroke-width:0.264583"
         id="path9134" />
      <path
         d="m 40.977511,48.080853 v -4.618672 h 0.162821 l 2.941621,2.344613 v -2.203502 h 1.161453 v 4.651236 h -0.124829 l -2.94705,-2.57799 v 2.404315 z"
         style="font-style:normal;font-variant:normal;font-weight:normal;font-stretch:normal;font-size:5.64444px;font-family:RubberNippleFactory;-inkscape-font-specification:RubberNippleFactory;stroke-width:0.264583"
         id="path9136" />
      <path
         d="m 46.057505,48.080853 v -4.618672 h 0.162821 l 2.941622,2.344613 V 43.603292 H 50.3234 v 4.651236 h -0.124829 l -2.947049,-2.57799 v 2.404315 z"
         style="font-style:normal;font-variant:normal;font-weight:normal;font-stretch:normal;font-size:5.64444px;font-family:RubberNippleFactory;-inkscape-font-specification:RubberNippleFactory;stroke-width:0.264583"
         id="path9138" />
      <path
         d="m 52.288097,47.10393 h 1.508802 v 0.976923 H 51.1375 v -4.558971 h 2.659399 v 0.971495 h -1.508802 v 0.759828 h 1.508802 v 0.976922 h -1.508802 z"
         style="font-style:normal;font-variant:normal;font-weight:normal;font-stretch:normal;font-size:5.64444px;font-family:RubberNippleFactory;-inkscape-font-specification:RubberNippleFactory;stroke-width:0.264583"
         id="path9140" />
      <path
         d="m 54.610995,43.521882 h 1.14517 v 3.582048 h 1.67705 v 0.976923 h -2.82222 z"
         style="font-style:normal;font-variant:normal;font-weight:normal;font-stretch:normal;font-size:5.64444px;font-family:RubberNippleFactory;-inkscape-font-specification:RubberNippleFactory;stroke-width:0.264583"
         id="path9142" />
      <path
         d="m 60.228284,44.786453 -0.629572,-0.727264 q 0.233376,-0.227949 0.396196,-0.336496 0.16282,-0.113974 0.42876,-0.184529 0.271368,-0.07598 0.651282,-0.07598 0.705555,0 1.14517,0.439615 0.439615,0.434188 0.439615,0.938931 0,0.445042 -0.298504,0.987777 -0.298504,0.537307 -0.841239,1.269999 l 1.791025,-0.01628 v 0.998632 h -3.772006 q 1.183161,-1.590213 1.709614,-2.447734 0.282222,-0.461324 0.282222,-0.727264 0,-0.18453 -0.16282,-0.36906 -0.157393,-0.184529 -0.428761,-0.184529 -0.255085,0 -0.412478,0.108547 -0.157393,0.108546 -0.298504,0.32564 z"
         style="font-style:normal;font-variant:normal;font-weight:normal;font-stretch:normal;font-size:5.64444px;font-family:RubberNippleFactory;-inkscape-font-specification:RubberNippleFactory;stroke-width:0.264583"
         id="path9144" />
    </g>
    <g
       aria-label="DATA CHANNEL 3"
       id="text8937"
       style="font-size:5.64444px;line-height:1.25;font-family:'Poiret One';-inkscape-font-specification:'Poiret One';stroke-width:0.264583"
       transform="translate(43.391666)">
      <path
         d="m 5.6455334,66.607112 v -4.558971 h 1.5250844 q 0.564444,0 1.0149137,0.135684 0.4504698,0.130256 0.7381191,0.352777 0.2930767,0.217094 0.4884612,0.521025 0.1953845,0.303932 0.2767947,0.624145 0.086837,0.320214 0.086837,0.672991 0,0.971495 -0.6784183,1.611922 -0.6729909,0.635 -1.6879047,0.635 z m 1.1451701,-0.98235 v 0.0054 h 0.4179057 q 0.5698714,0 0.987777,-0.347351 0.423333,-0.352777 0.423333,-0.96064 0,-0.569871 -0.4070509,-0.933503 -0.4016237,-0.36906 -1.0040591,-0.36906 H 6.7907035 Z"
         style="font-style:normal;font-variant:normal;font-weight:normal;font-stretch:normal;font-size:5.64444px;font-family:RubberNippleFactory;-inkscape-font-specification:RubberNippleFactory;stroke-width:0.264583"
         id="path9147" />
      <path
         d="m 14.13933,66.601685 -0.363632,-0.651282 h -2.094956 l -0.363632,0.651282 h -1.269999 l 2.643118,-4.618672 h 0.151965 l 2.648545,4.618672 z m -2.029827,-1.394828 h 1.259144 q -0.02171,-0.04342 -0.06513,-0.113975 -0.03799,-0.07598 -0.04885,-0.09769 -0.113975,-0.211666 -0.233376,-0.488461 -0.113974,-0.276795 -0.173675,-0.45047 l -0.05427,-0.173675 q -0.211666,0.466752 -0.363632,0.748974 -0.157393,0.282222 -0.320213,0.575299 z"
         style="font-style:normal;font-variant:normal;font-weight:normal;font-stretch:normal;font-size:5.64444px;font-family:RubberNippleFactory;-inkscape-font-specification:RubberNippleFactory;stroke-width:0.264583"
         id="path9149" />
      <path
         d="m 18.540901,62.042714 v 1.036623 h -1.161452 v 3.522348 h -1.210298 v -3.53863 h -1.150598 v -1.020341 h 1.150598 1.210298 z"
         style="font-style:normal;font-variant:normal;font-weight:normal;font-stretch:normal;font-size:5.64444px;font-family:RubberNippleFactory;-inkscape-font-specification:RubberNippleFactory;stroke-width:0.264583"
         id="path9151" />
      <path
         d="m 22.768803,66.601685 -0.363632,-0.651282 h -2.094956 l -0.363632,0.651282 h -1.269999 l 2.643118,-4.618672 h 0.151966 l 2.648545,4.618672 z m -2.029827,-1.394828 h 1.259144 q -0.02171,-0.04342 -0.06513,-0.113975 -0.03799,-0.07598 -0.04885,-0.09769 -0.113974,-0.211666 -0.233376,-0.488461 -0.113974,-0.276795 -0.173675,-0.45047 l -0.05427,-0.173675 q -0.211666,0.466752 -0.363632,0.748974 -0.157393,0.282222 -0.320213,0.575299 z"
         style="font-style:normal;font-variant:normal;font-weight:normal;font-stretch:normal;font-size:5.64444px;font-family:RubberNippleFactory;-inkscape-font-specification:RubberNippleFactory;stroke-width:0.264583"
         id="path9153" />
      <path
         d="m 29.949168,66.444292 q -0.466752,0.265939 -1.438247,0.265939 -0.656709,0 -1.188588,-0.32564 -0.53188,-0.325641 -0.830384,-0.868376 -0.293077,-0.542734 -0.293077,-1.188589 0,-0.282222 0.07598,-0.580726 0.08141,-0.298504 0.271367,-0.618717 0.189957,-0.325641 0.472179,-0.575299 0.282222,-0.249658 0.732692,-0.412478 0.45047,-0.16282 1.004059,-0.16282 0.803247,0 1.204871,0.276794 v 1.221153 q -0.200812,-0.206239 -0.526453,-0.336495 -0.325641,-0.130257 -0.716409,-0.130257 -0.55359,0 -0.966068,0.396197 -0.407051,0.390769 -0.407051,0.933503 0,0.542735 0.390769,0.933504 0.396196,0.390769 0.944358,0.390769 0.754401,0 1.275427,-0.374487 z"
         style="font-style:normal;font-variant:normal;font-weight:normal;font-stretch:normal;font-size:5.64444px;font-family:RubberNippleFactory;-inkscape-font-specification:RubberNippleFactory;stroke-width:0.264583"
         id="path9155" />
      <path
         d="m 33.574628,62.042714 h 1.14517 v 4.558971 h -1.14517 V 64.64784 H 31.91386 v 1.953845 h -1.139743 v -4.558971 h 1.139743 v 1.622776 h 1.660768 z"
         style="font-style:normal;font-variant:normal;font-weight:normal;font-stretch:normal;font-size:5.64444px;font-family:RubberNippleFactory;-inkscape-font-specification:RubberNippleFactory;stroke-width:0.264583"
         id="path9157" />
      <path
         d="m 39.219057,66.601685 -0.363632,-0.651282 h -2.094956 l -0.363632,0.651282 h -1.269999 l 2.643117,-4.618672 h 0.151966 l 2.648545,4.618672 z m -2.029828,-1.394828 h 1.259145 q -0.02171,-0.04342 -0.06513,-0.113975 -0.03799,-0.07598 -0.04885,-0.09769 -0.113974,-0.211666 -0.233375,-0.488461 -0.113975,-0.276795 -0.173676,-0.45047 l -0.05427,-0.173675 q -0.211667,0.466752 -0.363632,0.748974 -0.157393,0.282222 -0.320214,0.575299 z"
         style="font-style:normal;font-variant:normal;font-weight:normal;font-stretch:normal;font-size:5.64444px;font-family:RubberNippleFactory;-inkscape-font-specification:RubberNippleFactory;stroke-width:0.264583"
         id="path9159" />
      <path
         d="m 40.977511,66.601685 v -4.618672 h 0.162821 l 2.941621,2.344613 v -2.203502 h 1.161453 v 4.651236 h -0.124829 l -2.94705,-2.57799 v 2.404315 z"
         style="font-style:normal;font-variant:normal;font-weight:normal;font-stretch:normal;font-size:5.64444px;font-family:RubberNippleFactory;-inkscape-font-specification:RubberNippleFactory;stroke-width:0.264583"
         id="path9161" />
      <path
         d="m 46.057505,66.601685 v -4.618672 h 0.162821 l 2.941622,2.344613 V 62.124124 H 50.3234 v 4.651236 h -0.124829 l -2.947049,-2.57799 v 2.404315 z"
         style="font-style:normal;font-variant:normal;font-weight:normal;font-stretch:normal;font-size:5.64444px;font-family:RubberNippleFactory;-inkscape-font-specification:RubberNippleFactory;stroke-width:0.264583"
         id="path9163" />
      <path
         d="m 52.288097,65.624762 h 1.508802 v 0.976923 H 51.1375 v -4.558971 h 2.659399 v 0.971495 h -1.508802 v 0.759828 h 1.508802 v 0.976922 h -1.508802 z"
         style="font-style:normal;font-variant:normal;font-weight:normal;font-stretch:normal;font-size:5.64444px;font-family:RubberNippleFactory;-inkscape-font-specification:RubberNippleFactory;stroke-width:0.264583"
         id="path9165" />
      <path
         d="m 54.610995,62.042714 h 1.14517 v 3.582048 h 1.67705 v 0.976923 h -2.82222 z"
         style="font-style:normal;font-variant:normal;font-weight:normal;font-stretch:normal;font-size:5.64444px;font-family:RubberNippleFactory;-inkscape-font-specification:RubberNippleFactory;stroke-width:0.264583"
         id="path9167" />
      <path
         d="m 61.796787,64.148524 q 0.417906,0.0597 0.640427,0.36906 0.222521,0.309358 0.222521,0.6947 0,0.700128 -0.548162,1.101751 -0.548162,0.396196 -1.302563,0.396196 -0.770683,0 -1.269999,-0.385341 l 0.320213,-1.004059 q 0.537308,0.401623 0.993205,0.401623 0.314786,0 0.504743,-0.173675 0.189957,-0.179102 0.189957,-0.412478 0,-0.227948 -0.173675,-0.379914 -0.168248,-0.157393 -0.537307,-0.157393 v -0.776111 q 0.249658,0 0.379914,-0.119401 0.135684,-0.124829 0.135684,-0.293077 0,-0.18453 -0.157393,-0.325641 -0.151966,-0.146538 -0.412479,-0.146538 -0.407051,0 -0.79782,0.287649 L 59.539011,62.33579 q 0.358205,-0.200811 0.662136,-0.276794 0.309359,-0.07598 0.738119,-0.07598 0.607863,0 1.036623,0.352777 0.434188,0.347351 0.434188,0.835812 0,0.314786 -0.168248,0.575298 -0.168247,0.260513 -0.445042,0.401624 z"
         style="font-style:normal;font-variant:normal;font-weight:normal;font-stretch:normal;font-size:5.64444px;font-family:RubberNippleFactory;-inkscape-font-specification:RubberNippleFactory;stroke-width:0.264583"
         id="path9169" />
    </g>
    <g
       aria-label="DATA CHANNEL 4"
       id="text8941"
       style="font-size:5.64444px;line-height:1.25;font-family:'Poiret One';-inkscape-font-specification:'Poiret One';stroke-width:0.264583"
       transform="translate(43.391666)">
      <path
         d="m 5.6455334,85.127948 v -4.558971 h 1.5250844 q 0.564444,0 1.0149137,0.135684 0.4504698,0.130256 0.7381191,0.352777 0.2930767,0.217094 0.4884612,0.521025 0.1953845,0.303932 0.2767947,0.624145 0.086837,0.320214 0.086837,0.672991 0,0.971495 -0.6784183,1.611922 Q 8.4243348,85.12252 7.409421,85.12252 Z m 1.1451701,-0.98235 v 0.0054 h 0.4179057 q 0.5698714,0 0.987777,-0.34735 0.423333,-0.352777 0.423333,-0.96064 0,-0.569871 -0.4070509,-0.933504 Q 7.8110446,81.540472 7.2086092,81.540472 H 6.7907035 Z"
         style="font-style:normal;font-variant:normal;font-weight:normal;font-stretch:normal;font-size:5.64444px;font-family:RubberNippleFactory;-inkscape-font-specification:RubberNippleFactory;stroke-width:0.264583"
         id="path9172" />
      <path
         d="M 14.13933,85.12252 13.775698,84.471239 H 11.680742 L 11.31711,85.12252 h -1.269999 l 2.643118,-4.618671 h 0.151965 l 2.648545,4.618671 z m -2.029827,-1.394828 h 1.259144 q -0.02171,-0.04342 -0.06513,-0.113974 -0.03799,-0.07598 -0.04885,-0.09769 -0.113975,-0.211667 -0.233376,-0.488461 -0.113974,-0.276795 -0.173675,-0.45047 l -0.05427,-0.173675 q -0.211666,0.466752 -0.363632,0.748974 -0.157393,0.282222 -0.320213,0.575298 z"
         style="font-style:normal;font-variant:normal;font-weight:normal;font-stretch:normal;font-size:5.64444px;font-family:RubberNippleFactory;-inkscape-font-specification:RubberNippleFactory;stroke-width:0.264583"
         id="path9174" />
      <path
         d="m 18.540901,80.56355 v 1.036623 H 17.379449 V 85.12252 H 16.169151 V 81.583891 H 15.018553 V 80.56355 h 1.150598 1.210298 z"
         style="font-style:normal;font-variant:normal;font-weight:normal;font-stretch:normal;font-size:5.64444px;font-family:RubberNippleFactory;-inkscape-font-specification:RubberNippleFactory;stroke-width:0.264583"
         id="path9176" />
      <path
         d="m 22.768803,85.12252 -0.363632,-0.651281 h -2.094956 l -0.363632,0.651281 h -1.269999 l 2.643118,-4.618671 h 0.151966 l 2.648545,4.618671 z m -2.029827,-1.394828 h 1.259144 q -0.02171,-0.04342 -0.06513,-0.113974 -0.03799,-0.07598 -0.04885,-0.09769 -0.113974,-0.211667 -0.233376,-0.488461 -0.113974,-0.276795 -0.173675,-0.45047 l -0.05427,-0.173675 q -0.211666,0.466752 -0.363632,0.748974 -0.157393,0.282222 -0.320213,0.575298 z"
         style="font-style:normal;font-variant:normal;font-weight:normal;font-stretch:normal;font-size:5.64444px;font-family:RubberNippleFactory;-inkscape-font-specification:RubberNippleFactory;stroke-width:0.264583"
         id="path9178" />
      <path
         d="m 29.949168,84.965127 q -0.466752,0.26594 -1.438247,0.26594 -0.656709,0 -1.188588,-0.32564 -0.53188,-0.325641 -0.830384,-0.868376 -0.293077,-0.542734 -0.293077,-1.188589 0,-0.282222 0.07598,-0.580726 0.08141,-0.298504 0.271367,-0.618717 0.189957,-0.325641 0.472179,-0.575299 0.282222,-0.249658 0.732692,-0.412478 0.45047,-0.162821 1.004059,-0.162821 0.803247,0 1.204871,0.276795 v 1.221153 q -0.200812,-0.206239 -0.526453,-0.336496 -0.325641,-0.130256 -0.716409,-0.130256 -0.55359,0 -0.966068,0.396196 -0.407051,0.390769 -0.407051,0.933504 0,0.542735 0.390769,0.933504 0.396196,0.390769 0.944358,0.390769 0.754401,0 1.275427,-0.374487 z"
         style="font-style:normal;font-variant:normal;font-weight:normal;font-stretch:normal;font-size:5.64444px;font-family:RubberNippleFactory;-inkscape-font-specification:RubberNippleFactory;stroke-width:0.264583"
         id="path9180" />
      <path
         d="m 33.574628,80.56355 h 1.14517 v 4.55897 h -1.14517 V 83.168676 H 31.91386 v 1.953844 h -1.139743 v -4.55897 h 1.139743 v 1.622776 h 1.660768 z"
         style="font-style:normal;font-variant:normal;font-weight:normal;font-stretch:normal;font-size:5.64444px;font-family:RubberNippleFactory;-inkscape-font-specification:RubberNippleFactory;stroke-width:0.264583"
         id="path9182" />
      <path
         d="m 39.219057,85.12252 -0.363632,-0.651281 h -2.094956 l -0.363632,0.651281 h -1.269999 l 2.643117,-4.618671 h 0.151966 l 2.648545,4.618671 z m -2.029828,-1.394828 h 1.259145 q -0.02171,-0.04342 -0.06513,-0.113974 -0.03799,-0.07598 -0.04885,-0.09769 -0.113974,-0.211667 -0.233375,-0.488461 -0.113975,-0.276795 -0.173676,-0.45047 l -0.05427,-0.173675 q -0.211667,0.466752 -0.363632,0.748974 -0.157393,0.282222 -0.320214,0.575298 z"
         style="font-style:normal;font-variant:normal;font-weight:normal;font-stretch:normal;font-size:5.64444px;font-family:RubberNippleFactory;-inkscape-font-specification:RubberNippleFactory;stroke-width:0.264583"
         id="path9184" />
      <path
         d="m 40.977511,85.12252 v -4.618671 h 0.162821 l 2.941621,2.344613 V 80.64496 h 1.161453 v 4.651236 h -0.124829 l -2.94705,-2.57799 v 2.404314 z"
         style="font-style:normal;font-variant:normal;font-weight:normal;font-stretch:normal;font-size:5.64444px;font-family:RubberNippleFactory;-inkscape-font-specification:RubberNippleFactory;stroke-width:0.264583"
         id="path9186" />
      <path
         d="m 46.057505,85.12252 v -4.618671 h 0.162821 l 2.941622,2.344613 V 80.64496 H 50.3234 v 4.651236 h -0.124829 l -2.947049,-2.57799 v 2.404314 z"
         style="font-style:normal;font-variant:normal;font-weight:normal;font-stretch:normal;font-size:5.64444px;font-family:RubberNippleFactory;-inkscape-font-specification:RubberNippleFactory;stroke-width:0.264583"
         id="path9188" />
      <path
         d="m 52.288097,84.145598 h 1.508802 V 85.12252 H 51.1375 v -4.55897 h 2.659399 v 0.971495 h -1.508802 v 0.759828 h 1.508802 v 0.976922 h -1.508802 z"
         style="font-style:normal;font-variant:normal;font-weight:normal;font-stretch:normal;font-size:5.64444px;font-family:RubberNippleFactory;-inkscape-font-specification:RubberNippleFactory;stroke-width:0.264583"
         id="path9190" />
      <path
         d="m 54.610995,80.56355 h 1.14517 v 3.582048 h 1.67705 v 0.976922 h -2.82222 z"
         style="font-style:normal;font-variant:normal;font-weight:normal;font-stretch:normal;font-size:5.64444px;font-family:RubberNippleFactory;-inkscape-font-specification:RubberNippleFactory;stroke-width:0.264583"
         id="path9192" />
      <path
         d="M 59.539011,84.281282 V 83.36406 l 1.796452,-2.80051 h 1.378546 v 2.751664 h 0.700127 v 0.966068 h -0.700127 v 0.841238 h -1.06376 v -0.841238 z m 2.111238,-2.773374 -1.150598,1.801879 h 1.150598 z"
         style="font-style:normal;font-variant:normal;font-weight:normal;font-stretch:normal;font-size:5.64444px;font-family:RubberNippleFactory;-inkscape-font-specification:RubberNippleFactory;stroke-width:0.264583"
         id="path9194" />
    </g>
    <g
       aria-label="ANTENNA INPUT"
       id="text10145"
       style="font-size:10.5833px;line-height:1.25;font-family:'Poiret One';-inkscape-font-specification:'Poiret One';stroke-width:0.264583">
      <path
         d="m 20.944402,9.2022337 3.968737,8.1279743 h -0.370415 l -1.502829,-3.026824 h -4.243903 l -1.481662,3.026824 h -0.328082 z m -0.03175,0.7302477 -1.979077,4.0639866 h 3.979321 z"
         style="font-size:10.5833px;stroke-width:0.264583"
         id="path10147" />
      <path
         d="m 31.866347,9.3927331 h 0.306916 v 8.0538909 l -5.841981,-7.18606 v 7.069644 H 26.024366 V 9.2763168 l 5.841981,7.1754772 z"
         style="font-size:10.5833px;stroke-width:0.264583"
         id="path10149" />
      <path
         d="M 37.168571,9.3927331 V 9.6996488 H 35.358827 V 17.330208 H 35.009578 V 9.6996488 H 33.178667 V 9.3927331 Z"
         style="font-size:10.5833px;stroke-width:0.264583"
         id="path10151" />
      <path
         d="m 38.173981,9.3927331 h 2.846908 V 9.6996488 H 38.52323 v 4.3179862 h 2.08491 v 0.306916 h -2.08491 v 2.698741 h 2.497659 v 0.306916 h -2.846908 z"
         style="font-size:10.5833px;stroke-width:0.264583"
         id="path10153" />
      <path
         d="m 47.921196,9.3927331 h 0.306916 v 8.0538909 l -5.841982,-7.18606 v 7.069644 H 42.079215 V 9.2763168 l 5.841981,7.1754772 z"
         style="font-size:10.5833px;stroke-width:0.264583"
         id="path10155" />
      <path
         d="m 55.657578,9.3927331 h 0.306915 v 8.0538909 l -5.841981,-7.18606 v 7.069644 H 49.815596 V 9.2763168 l 5.841982,7.1754772 z"
         style="font-size:10.5833px;stroke-width:0.264583"
         id="path10157" />
      <path
         d="m 61.033883,9.2022337 3.968738,8.1279743 h -0.370416 l -1.502828,-3.026824 h -4.243904 l -1.481662,3.026824 h -0.328082 z m -0.03175,0.7302477 -1.979077,4.0639866 h 3.979321 z"
         style="font-size:10.5833px;stroke-width:0.264583"
         id="path10159" />
      <path
         d="M 69.870901,9.3927331 H 70.22015 V 17.330208 H 69.870901 Z"
         style="font-size:10.5833px;stroke-width:0.264583"
         id="path10161" />
      <path
         d="m 77.702534,9.3927331 h 0.306915 v 8.0538909 l -5.841981,-7.18606 v 7.069644 H 71.860552 V 9.2763168 l 5.841982,7.1754772 z"
         style="font-size:10.5833px;stroke-width:0.264583"
         id="path10163" />
      <path
         d="m 79.586351,9.3927331 h 0.349248 q 1.100664,0 1.873245,0.7619979 0.77258,0.751414 0.77258,1.777994 0,1.02658 -0.80433,1.767411 -0.793748,0.740831 -1.756828,0.740831 h -0.08467 v 2.889241 h -0.349248 z m 0.349248,4.7519019 h 0.08467 q 0.888997,0 1.545162,-0.656165 0.666747,-0.656165 0.666747,-1.555745 0,-0.89958 -0.677331,-1.566328 -0.666748,-0.6667482 -1.534578,-0.6667482 h -0.08467 z"
         style="font-size:10.5833px;stroke-width:0.264583"
         id="path10165" />
      <path
         d="m 86.147989,17.478374 h -0.105833 q -0.973664,0 -1.650995,-0.677331 -0.666748,-0.677331 -0.666748,-1.703911 V 9.3927331 h 0.349249 v 5.6938149 q 0,0.899581 0.582082,1.492246 0.582081,0.592664 1.439329,0.592664 0.857247,0 1.428745,-0.582081 0.582081,-0.592665 0.582081,-1.502829 V 9.3927331 h 0.349249 v 5.6832319 q 0,1.037163 -0.677331,1.725078 -0.666748,0.677331 -1.629828,0.677331 z"
         style="font-size:10.5833px;stroke-width:0.264583"
         id="path10167" />
      <path
         d="M 93.450443,9.3927331 V 9.6996488 H 91.640698 V 17.330208 H 91.29145 V 9.6996488 H 89.460539 V 9.3927331 Z"
         style="font-size:10.5833px;stroke-width:0.264583"
         id="path10169" />
    </g>
  </g>
</svg>
