<?xml version="1.0" encoding="UTF-8" standalone="no"?>
<svg
   xmlns:dc="http://purl.org/dc/elements/1.1/"
   xmlns:cc="http://creativecommons.org/ns#"
   xmlns:rdf="http://www.w3.org/1999/02/22-rdf-syntax-ns#"
   xmlns:svg="http://www.w3.org/2000/svg"
   xmlns="http://www.w3.org/2000/svg"
   xmlns:sodipodi="http://sodipodi.sourceforge.net/DTD/sodipodi-0.dtd"
   xmlns:inkscape="http://www.inkscape.org/namespaces/inkscape"
   width="420"
   height="490"
   viewBox="0 0 111.125 129.64583"
   version="1.1"
   id="svg8"
   inkscape:version="1.0.1 (3bc2e813f5, 2020-09-07)"
   sodipodi:docname="directional_sensor_input.svg">
  <defs
     id="defs2" />
  <sodipodi:namedview
     id="base"
     pagecolor="#ffffff"
     bordercolor="#666666"
     borderopacity="1.0"
     inkscape:pageopacity="0.0"
     inkscape:pageshadow="2"
     inkscape:zoom="2.8284272"
     inkscape:cx="146.71838"
     inkscape:cy="256.81442"
     inkscape:document-units="px"
     inkscape:current-layer="layer1"
     inkscape:document-rotation="0"
     showgrid="false"
     units="px"
     inkscape:window-width="1620"
     inkscape:window-height="1018"
     inkscape:window-x="-6"
     inkscape:window-y="-6"
     inkscape:window-maximized="1"
     inkscape:snap-global="false" />
  <metadata
     id="metadata5">
    <rdf:RDF>
      <cc:Work
         rdf:about="">
        <dc:format>image/svg+xml</dc:format>
        <dc:type
           rdf:resource="http://purl.org/dc/dcmitype/StillImage" />
        <dc:title></dc:title>
      </cc:Work>
    </rdf:RDF>
  </metadata>
  <g
     inkscape:label="Layer 1"
     inkscape:groupmode="layer"
     id="layer1">
    <rect
       style="opacity:0.999;fill:#000000;fill-opacity:1;stroke-width:0.0495843"
       id="rect5718"
       width="19.276785"
       height="0.5291667"
       x="-25.135416"
       y="46.037376" />
    <rect
       style="opacity:0.999;fill:#000000;fill-opacity:1;stroke-width:0.0495843"
       id="rect5720"
       width="19.276785"
       height="0.5291667"
       x="-25.135416"
       y="64.558212" />
    <rect
       style="opacity:0.999;fill:#000000;fill-opacity:1;stroke-width:0.0495843"
       id="rect5722"
       width="19.276785"
       height="0.5291667"
       x="-25.135416"
       y="83.079048" />
    <rect
       style="opacity:0.999;fill:#000000;fill-opacity:1;stroke-width:0.0495843"
       id="rect5716"
       width="19.276785"
       height="0.5291667"
       x="-25.135416"
       y="27.516544" />
    <text
       xml:space="preserve"
       style="font-size:10.5833px;line-height:1.25;font-family:Cutive;-inkscape-font-specification:Cutive;stroke-width:0.264583"
       x="6.0135646"
       y="10.022607"
       id="text839"><tspan
         sodipodi:role="line"
         id="tspan837"
         x="6.0135646"
         y="10.022607"
         style="stroke-width:0.264583" /></text>
    <text
       xml:space="preserve"
       style="font-size:10.5833px;line-height:1.25;font-family:Cutive;-inkscape-font-specification:Cutive;stroke-width:0.264583"
       x="1.8040689"
       y="10.757601"
       id="text843"><tspan
         sodipodi:role="line"
         id="tspan841"
         x="1.8040689"
         y="10.757601"
         style="stroke-width:0.264583" /></text>
    <rect
       style="opacity:0.999;fill:#9164d4;fill-opacity:1;stroke-width:0.255372"
       id="rect900"
       width="110.06667"
       height="128.58749"
       x="0.5291667"
       y="0.5291667"
       ry="2.3881853" />
    <path
       id="rect5705"
       style="opacity:0.999;fill:#aa87de;fill-opacity:1;stroke-width:0.244461"
       d="m 2.8176241,0.52916667 c -1.2678556,0 -2.28845742,1.28085163 -2.28845742,2.87200413 l 0,123.9106992 H 106.88298 c 1.26126,0 2.27654,-1.27418 2.27654,-2.85706 l 0,-123.92564333 z"
       sodipodi:nodetypes="sscsscs" />
    <circle
       style="opacity:0.999;fill:#4d4d4d;stroke-width:0.12015"
       id="path5070"
       cx="2.7119792"
       cy="2.7119792"
       r="1.1244792" />
    <rect
       style="opacity:0.999;fill:#333333;stroke-width:0.183696"
       id="rect5074"
       width="0.1889881"
       height="1.3281524"
       x="2.6103981"
       y="2.0263865" />
    <rect
       style="opacity:0.999;fill:#333333;stroke-width:0.183696"
       id="rect5076"
       width="0.1889881"
       height="1.3281524"
       x="2.5959685"
       y="-3.3689682"
       transform="rotate(90)" />
    <circle
       style="opacity:0.999;fill:#4d4d4d;stroke-width:0.12015"
       id="circle5078"
       cx="2.7119792"
       cy="126.93385"
       r="1.1244792" />
    <rect
       style="opacity:0.999;fill:#333333;stroke-width:0.183696"
       id="rect5080"
       width="0.1889881"
       height="1.3281524"
       x="2.6103981"
       y="126.24826" />
    <rect
       style="opacity:0.999;fill:#333333;stroke-width:0.183696"
       id="rect5082"
       width="0.1889881"
       height="1.3281524"
       x="126.81785"
       y="-3.3689682"
       transform="rotate(90)" />
    <circle
       style="opacity:0.999;fill:#4d4d4d;stroke-width:0.12015"
       id="circle5693"
       cx="108.41302"
       cy="2.7119792"
       r="1.1244792" />
    <rect
       style="opacity:0.999;fill:#333333;stroke-width:0.183696"
       id="rect5695"
       width="0.1889881"
       height="1.3281524"
       x="108.31144"
       y="2.0263865" />
    <rect
       style="opacity:0.999;fill:#333333;stroke-width:0.183696"
       id="rect5697"
       width="0.1889881"
       height="1.3281524"
       x="2.5959685"
       y="-109.07001"
       transform="rotate(90)" />
    <circle
       style="opacity:0.999;fill:#4d4d4d;stroke-width:0.12015"
       id="circle5699"
       cx="108.41302"
       cy="126.93385"
       r="1.1244792" />
    <rect
       style="opacity:0.999;fill:#333333;stroke-width:0.183696"
       id="rect5701"
       width="0.1889881"
       height="1.3281524"
       x="108.31144"
       y="126.24826" />
    <rect
       style="opacity:0.999;fill:#333333;stroke-width:0.183696"
       id="rect5703"
       width="0.1889881"
       height="1.3281524"
       x="126.81785"
       y="-109.07001"
       transform="rotate(90)" />
    <rect
       style="opacity:0.999;fill:#000000;fill-opacity:1;stroke-width:0.019329"
       id="rect2324"
       width="2.9293149"
       height="0.5291667"
       x="-32.735271"
       y="46.037376" />
    <rect
       style="opacity:0.999;fill:#000000;fill-opacity:1;stroke-width:0.019329"
       id="rect2326"
       width="2.9293149"
       height="0.5291667"
       x="-32.735271"
       y="64.558212" />
    <rect
       style="opacity:0.999;fill:#000000;fill-opacity:1;stroke-width:0.019329"
       id="rect2328"
       width="2.9293149"
       height="0.5291667"
       x="-32.735271"
       y="83.079048" />
    <rect
       style="opacity:0.999;fill:#000000;fill-opacity:1;stroke-width:0.019329"
       id="rect2330"
       width="2.9293149"
       height="0.5291667"
       x="-32.735271"
       y="27.516544" />
    <g
       aria-label="OUT"
       id="text1104"
       style="font-size:5.64444px;line-height:1.25;font-family:'Poiret One';-inkscape-font-specification:'Poiret One';stroke-width:0.264583"
       transform="translate(-75.147354,27.680181)">
      <path
         d="m 170.46192,46.251102 q 0,-0.53188 -0.36906,-0.895512 -0.36906,-0.363633 -0.92807,-0.363633 -0.53188,0 -0.89552,0.36906 -0.36363,0.369059 -0.36363,0.890085 0,0.521025 0.37449,0.895512 0.37991,0.374487 0.91179,0.374487 0.53188,0 0.90094,-0.36906 0.36906,-0.374487 0.36906,-0.900939 z m -1.21572,-2.355469 q 1.01491,0 1.6879,0.700128 0.67299,0.700128 0.67299,1.671623 0,0.976922 -0.72183,1.666195 -0.71641,0.689273 -1.7259,0.689273 -0.99863,0 -1.69876,-0.700128 -0.70013,-0.700127 -0.70013,-1.682477 0,-0.461324 0.1791,-0.884657 0.17911,-0.423333 0.49389,-0.748974 0.32022,-0.325641 0.7924,-0.515598 0.47218,-0.195385 1.02034,-0.195385 z"
         style="font-style:normal;font-variant:normal;font-weight:normal;font-stretch:normal;font-size:5.64444px;font-family:RubberNippleFactory;-inkscape-font-specification:RubberNippleFactory;stroke-width:0.264583"
         id="path1137" />
      <path
         d="m 174.91777,43.955334 h 1.16145 v 2.767947 q 0,0.835811 -0.53188,1.367691 -0.53188,0.53188 -1.36769,0.53188 -0.83581,0 -1.36769,-0.526453 -0.52645,-0.531879 -0.52645,-1.367691 v -2.773374 h 1.16145 v 2.82222 q 0,0.303932 0.21167,0.521026 0.21709,0.217093 0.52102,0.217093 0.30393,0 0.52103,-0.211666 0.21709,-0.217094 0.21709,-0.521025 z"
         style="font-style:normal;font-variant:normal;font-weight:normal;font-stretch:normal;font-size:5.64444px;font-family:RubberNippleFactory;-inkscape-font-specification:RubberNippleFactory;stroke-width:0.264583"
         id="path1139" />
      <path
         d="m 180.1443,43.955334 v 1.036623 h -1.16145 v 3.522348 h -1.2103 v -3.53863 h -1.1506 v -1.020341 h 1.1506 1.2103 z"
         style="font-style:normal;font-variant:normal;font-weight:normal;font-stretch:normal;font-size:5.64444px;font-family:RubberNippleFactory;-inkscape-font-specification:RubberNippleFactory;stroke-width:0.264583"
         id="path1141" />
    </g>
    <path
       style="opacity:0.999;fill:none;stroke:#000000;stroke-width:0.449792;stroke-miterlimit:4;stroke-dasharray:none"
       d="m 109.08745,23.836048 h -2.74033 l 7e-5,99.502122 h 3.1183"
       id="path2393"
       sodipodi:nodetypes="cccc" />
    <g
       aria-label="SENSE ROVERS"
       id="text6076"
       style="font-size:5.64444px;line-height:1.25;font-family:'Poiret One';-inkscape-font-specification:'Poiret One';stroke-width:0.264583"
       transform="translate(0,18.520939)">
      <path
         d="m 6.7889351,25.153737 -0.4830338,0.900939 q -0.26594,-0.249657 -0.5644441,-0.249657 -0.1628203,0 -0.2713673,0.07598 -0.1031196,0.07056 -0.1031196,0.18453 0,0.211667 0.1953845,0.36906 0.1953845,0.157393 0.7923926,0.477606 0.2008118,0.108547 0.3364954,0.211667 0.1356837,0.103119 0.2550853,0.255085 0.124829,0.146538 0.1845298,0.352778 0.059701,0.206239 0.059701,0.472179 0,0.130256 -0.037991,0.287649 -0.037991,0.157393 -0.1519657,0.363632 -0.1139743,0.200812 -0.2876494,0.363632 -0.173675,0.162821 -0.4830338,0.276795 -0.3093587,0.113974 -0.6947003,0.113974 -0.8195293,0 -1.5630758,-0.553589 L 4.569151,28.203904 q 0.4287604,0.42876 0.9280763,0.42876 0.2225212,0 0.3582048,-0.113974 0.1356837,-0.119402 0.1356837,-0.309359 0,-0.04885 -0.010855,-0.08684 -0.00543,-0.04342 -0.027137,-0.08141 -0.021709,-0.04342 -0.043419,-0.07055 -0.016282,-0.03256 -0.065128,-0.07056 -0.048846,-0.03799 -0.075983,-0.0597 -0.027137,-0.02171 -0.097692,-0.0597 -0.065128,-0.03799 -0.1031195,-0.0597 -0.032564,-0.02171 -0.124829,-0.07056 Q 5.3506883,27.60147 5.3072695,27.579761 5.0738936,27.449505 4.9002186,27.330103 4.7265435,27.205274 4.5474411,27.026171 4.373766,26.841642 4.2760737,26.602838 q -0.092265,-0.238803 -0.092265,-0.521025 0,-0.499316 0.3853416,-0.846666 0.3853416,-0.352777 1.080042,-0.352777 0.3419228,0 0.6567089,0.08141 0.3202134,0.07598 0.4830339,0.189957 z"
         style="font-style:normal;font-variant:normal;font-weight:normal;font-stretch:normal;font-family:RubberNippleFactory;-inkscape-font-specification:RubberNippleFactory;stroke-width:0.264583"
         id="path6134" />
      <path
         d="m 8.9273083,28.524119 h 1.5088027 v 0.976922 H 7.7767109 v -4.55897 h 2.6594001 v 0.971494 H 8.9273083 v 0.759829 h 1.5088027 v 0.976922 H 8.9273083 Z"
         style="font-style:normal;font-variant:normal;font-weight:normal;font-stretch:normal;font-family:RubberNippleFactory;-inkscape-font-specification:RubberNippleFactory;stroke-width:0.264583"
         id="path6136" />
      <path
         d="M 11.250204,29.501041 V 24.88237 h 0.162821 l 2.941622,2.344613 v -2.203502 h 1.161452 v 4.651235 H 15.39127 l -2.947049,-2.577989 v 2.404314 z"
         style="font-style:normal;font-variant:normal;font-weight:normal;font-stretch:normal;font-family:RubberNippleFactory;-inkscape-font-specification:RubberNippleFactory;stroke-width:0.264583"
         id="path6138" />
      <path
         d="m 18.875624,25.153737 -0.483034,0.900939 q -0.26594,-0.249657 -0.564444,-0.249657 -0.16282,0 -0.271367,0.07598 -0.10312,0.07056 -0.10312,0.18453 0,0.211667 0.195385,0.36906 0.195384,0.157393 0.792392,0.477606 0.200812,0.108547 0.336496,0.211667 0.135684,0.103119 0.255085,0.255085 0.124829,0.146538 0.18453,0.352778 0.0597,0.206239 0.0597,0.472179 0,0.130256 -0.03799,0.287649 -0.03799,0.157393 -0.151965,0.363632 -0.113975,0.200812 -0.28765,0.363632 -0.173675,0.162821 -0.483034,0.276795 -0.309358,0.113974 -0.6947,0.113974 -0.819529,0 -1.563076,-0.553589 l 0.597008,-0.852093 q 0.428761,0.42876 0.928077,0.42876 0.222521,0 0.358205,-0.113974 0.135683,-0.119402 0.135683,-0.309359 0,-0.04885 -0.01085,-0.08684 -0.0054,-0.04342 -0.02714,-0.08141 -0.02171,-0.04342 -0.04342,-0.07055 -0.01628,-0.03256 -0.06513,-0.07056 -0.04885,-0.03799 -0.07598,-0.0597 -0.02714,-0.02171 -0.09769,-0.0597 -0.06513,-0.03799 -0.10312,-0.0597 -0.03256,-0.02171 -0.124829,-0.07056 -0.09226,-0.04885 -0.135683,-0.07055 -0.233376,-0.130256 -0.407051,-0.249658 -0.173676,-0.124829 -0.352778,-0.303932 -0.173675,-0.184529 -0.271367,-0.423333 -0.09227,-0.238803 -0.09227,-0.521025 0,-0.499316 0.385341,-0.846666 0.385342,-0.352777 1.080042,-0.352777 0.341923,0 0.656709,0.08141 0.320214,0.07598 0.483034,0.189957 z"
         style="font-style:normal;font-variant:normal;font-weight:normal;font-stretch:normal;font-family:RubberNippleFactory;-inkscape-font-specification:RubberNippleFactory;stroke-width:0.264583"
         id="path6140" />
      <path
         d="M 21.013997,28.524119 H 22.5228 v 0.976922 h -2.6594 v -4.55897 h 2.6594 v 0.971494 h -1.508803 v 0.759829 H 22.5228 v 0.976922 h -1.508803 z"
         style="font-style:normal;font-variant:normal;font-weight:normal;font-stretch:normal;font-family:RubberNippleFactory;-inkscape-font-specification:RubberNippleFactory;stroke-width:0.264583"
         id="path6142" />
      <path
         d="m 27.868716,29.501041 -1.552221,-1.829015 v 1.829015 h -1.172307 v -4.55897 h 1.899572 q 0.602435,0 1.031195,0.42876 0.428761,0.423333 0.428761,1.025768 0,0.385342 -0.189957,0.71641 -0.189958,0.325641 -0.521026,0.526453 l -0.03256,0.02171 1.628204,1.83987 z m -1.552221,-2.632263 h 0.569871 q 0.195385,0 0.331069,-0.135683 0.135683,-0.141111 0.135683,-0.336496 0,-0.195384 -0.135683,-0.331068 -0.135684,-0.135683 -0.331069,-0.135683 h -0.569871 z"
         style="font-style:normal;font-variant:normal;font-weight:normal;font-stretch:normal;font-family:RubberNippleFactory;-inkscape-font-specification:RubberNippleFactory;stroke-width:0.264583"
         id="path6144" />
      <path
         d="m 33.361187,27.237838 q 0,-0.53188 -0.36906,-0.895512 -0.36906,-0.363632 -0.928076,-0.363632 -0.53188,0 -0.895512,0.369059 -0.363633,0.36906 -0.363633,0.890085 0,0.521025 0.374487,0.895512 0.379915,0.374487 0.911795,0.374487 0.531879,0 0.900939,-0.36906 0.36906,-0.374486 0.36906,-0.900939 z M 32.145461,24.88237 q 1.014914,0 1.687905,0.700127 0.672991,0.700128 0.672991,1.671623 0,0.976922 -0.721837,1.666195 -0.71641,0.689273 -1.725897,0.689273 -0.998631,0 -1.698759,-0.700127 -0.700128,-0.700128 -0.700128,-1.682478 0,-0.461324 0.179103,-0.884657 0.179102,-0.423333 0.493888,-0.748974 0.320214,-0.325641 0.792393,-0.515598 0.472179,-0.195384 1.020341,-0.195384 z"
         style="font-style:normal;font-variant:normal;font-weight:normal;font-stretch:normal;font-family:RubberNippleFactory;-inkscape-font-specification:RubberNippleFactory;stroke-width:0.264583"
         id="path6146" />
      <path
         d="m 37.122335,27.297539 q 0.260513,-0.672991 0.347351,-0.873803 0,0 0.705555,-1.481665 h 1.210298 L 37.2146,29.609588 h -0.189957 l -2.246921,-4.667517 h 1.286281 q 0.645854,1.351409 0.79782,1.682477 0.06513,0.146538 0.130256,0.314786 0.06513,0.168248 0.09769,0.260513 z"
         style="font-style:normal;font-variant:normal;font-weight:normal;font-stretch:normal;font-family:RubberNippleFactory;-inkscape-font-specification:RubberNippleFactory;stroke-width:0.264583"
         id="path6148" />
      <path
         d="m 40.943183,28.524119 h 1.508802 v 0.976922 h -2.659399 v -4.55897 h 2.659399 v 0.971494 h -1.508802 v 0.759829 h 1.508802 v 0.976922 h -1.508802 z"
         style="font-style:normal;font-variant:normal;font-weight:normal;font-stretch:normal;font-family:RubberNippleFactory;-inkscape-font-specification:RubberNippleFactory;stroke-width:0.264583"
         id="path6150" />
      <path
         d="m 45.990605,29.501041 -1.552221,-1.829015 v 1.829015 h -1.172307 v -4.55897 h 1.899572 q 0.602435,0 1.031195,0.42876 0.428761,0.423333 0.428761,1.025768 0,0.385342 -0.189957,0.71641 -0.189957,0.325641 -0.521026,0.526453 l -0.03256,0.02171 1.628204,1.83987 z m -1.552221,-2.632263 h 0.569872 q 0.195384,0 0.331068,-0.135683 0.135683,-0.141111 0.135683,-0.336496 0,-0.195384 -0.135683,-0.331068 -0.135684,-0.135683 -0.331068,-0.135683 h -0.569872 z"
         style="font-style:normal;font-variant:normal;font-weight:normal;font-stretch:normal;font-family:RubberNippleFactory;-inkscape-font-specification:RubberNippleFactory;stroke-width:0.264583"
         id="path6152" />
      <path
         d="m 50.462733,25.153737 -0.483034,0.900939 q -0.26594,-0.249657 -0.564444,-0.249657 -0.162821,0 -0.271367,0.07598 -0.10312,0.07056 -0.10312,0.18453 0,0.211667 0.195384,0.36906 0.195385,0.157393 0.792393,0.477606 0.200812,0.108547 0.336495,0.211667 0.135684,0.103119 0.255086,0.255085 0.124829,0.146538 0.18453,0.352778 0.0597,0.206239 0.0597,0.472179 0,0.130256 -0.03799,0.287649 -0.03799,0.157393 -0.151966,0.363632 -0.113974,0.200812 -0.287649,0.363632 -0.173675,0.162821 -0.483034,0.276795 -0.309359,0.113974 -0.6947,0.113974 -0.81953,0 -1.563076,-0.553589 l 0.597008,-0.852093 q 0.42876,0.42876 0.928076,0.42876 0.222521,0 0.358205,-0.113974 0.135684,-0.119402 0.135684,-0.309359 0,-0.04885 -0.01085,-0.08684 -0.0054,-0.04342 -0.02714,-0.08141 -0.02171,-0.04342 -0.04342,-0.07055 -0.01628,-0.03256 -0.06513,-0.07056 -0.04885,-0.03799 -0.07598,-0.0597 -0.02714,-0.02171 -0.09769,-0.0597 -0.06513,-0.03799 -0.103119,-0.0597 -0.03256,-0.02171 -0.124829,-0.07056 -0.09226,-0.04885 -0.135684,-0.07055 -0.233376,-0.130256 -0.407051,-0.249658 -0.173675,-0.124829 -0.352777,-0.303932 -0.173675,-0.184529 -0.271368,-0.423333 -0.09227,-0.238803 -0.09227,-0.521025 0,-0.499316 0.385342,-0.846666 0.385342,-0.352777 1.080042,-0.352777 0.341923,0 0.656709,0.08141 0.320213,0.07598 0.483034,0.189957 z"
         style="font-style:normal;font-variant:normal;font-weight:normal;font-stretch:normal;font-family:RubberNippleFactory;-inkscape-font-specification:RubberNippleFactory;stroke-width:0.264583"
         id="path6154" />
    </g>
    <g
       aria-label="SENSE ROCKS"
       id="text6080"
       style="font-size:5.64444px;line-height:1.25;font-family:'Poiret One';-inkscape-font-specification:'Poiret One';stroke-width:0.264583"
       transform="translate(0,18.520939)">
      <path
         d="m 6.7889351,43.674546 -0.4830338,0.90094 q -0.26594,-0.249658 -0.5644441,-0.249658 -0.1628203,0 -0.2713673,0.07598 -0.1031196,0.07055 -0.1031196,0.184529 0,0.211667 0.1953845,0.36906 0.1953845,0.157393 0.7923926,0.477606 0.2008118,0.108547 0.3364954,0.211667 0.1356837,0.103119 0.2550853,0.255085 0.124829,0.146539 0.1845298,0.352778 0.059701,0.206239 0.059701,0.472179 0,0.130256 -0.037991,0.287649 -0.037991,0.157393 -0.1519657,0.363632 -0.1139743,0.200812 -0.2876494,0.363633 -0.173675,0.16282 -0.4830338,0.276794 -0.3093587,0.113975 -0.6947003,0.113975 -0.8195293,0 -1.5630758,-0.55359 L 4.569151,46.724712 q 0.4287604,0.42876 0.9280763,0.42876 0.2225212,0 0.3582048,-0.113974 0.1356837,-0.119402 0.1356837,-0.309359 0,-0.04885 -0.010855,-0.08684 -0.00543,-0.04342 -0.027137,-0.08141 -0.021709,-0.04342 -0.043419,-0.07055 -0.016282,-0.03256 -0.065128,-0.07056 -0.048846,-0.03799 -0.075983,-0.0597 -0.027137,-0.02171 -0.097692,-0.0597 -0.065128,-0.03799 -0.1031195,-0.0597 -0.032564,-0.02171 -0.124829,-0.07056 Q 5.3506883,46.122279 5.3072695,46.10057 5.0738936,45.970314 4.9002186,45.850912 4.7265435,45.726083 4.5474411,45.546981 4.373766,45.362451 4.2760737,45.123648 q -0.092265,-0.238804 -0.092265,-0.521026 0,-0.499315 0.3853416,-0.846666 0.3853416,-0.352777 1.080042,-0.352777 0.3419228,0 0.6567089,0.08141 0.3202134,0.07598 0.4830339,0.189957 z"
         style="font-style:normal;font-variant:normal;font-weight:normal;font-stretch:normal;font-family:RubberNippleFactory;-inkscape-font-specification:RubberNippleFactory;stroke-width:0.264583"
         id="path6157" />
      <path
         d="m 8.9273083,47.044928 h 1.5088027 v 0.976923 H 7.7767109 V 43.46288 h 2.6594001 v 0.971495 H 8.9273083 v 0.759828 h 1.5088027 v 0.976922 H 8.9273083 Z"
         style="font-style:normal;font-variant:normal;font-weight:normal;font-stretch:normal;font-family:RubberNippleFactory;-inkscape-font-specification:RubberNippleFactory;stroke-width:0.264583"
         id="path6159" />
      <path
         d="m 11.250204,48.021851 v -4.618672 h 0.162821 l 2.941622,2.344613 V 43.54429 h 1.161452 v 4.651236 H 15.39127 l -2.947049,-2.57799 v 2.404315 z"
         style="font-style:normal;font-variant:normal;font-weight:normal;font-stretch:normal;font-family:RubberNippleFactory;-inkscape-font-specification:RubberNippleFactory;stroke-width:0.264583"
         id="path6161" />
      <path
         d="m 18.875624,43.674546 -0.483034,0.90094 q -0.26594,-0.249658 -0.564444,-0.249658 -0.16282,0 -0.271367,0.07598 -0.10312,0.07055 -0.10312,0.184529 0,0.211667 0.195385,0.36906 0.195384,0.157393 0.792392,0.477606 0.200812,0.108547 0.336496,0.211667 0.135684,0.103119 0.255085,0.255085 0.124829,0.146539 0.18453,0.352778 0.0597,0.206239 0.0597,0.472179 0,0.130256 -0.03799,0.287649 -0.03799,0.157393 -0.151965,0.363632 -0.113975,0.200812 -0.28765,0.363633 -0.173675,0.16282 -0.483034,0.276794 -0.309358,0.113975 -0.6947,0.113975 -0.819529,0 -1.563076,-0.55359 l 0.597008,-0.852093 q 0.428761,0.42876 0.928077,0.42876 0.222521,0 0.358205,-0.113974 0.135683,-0.119402 0.135683,-0.309359 0,-0.04885 -0.01085,-0.08684 -0.0054,-0.04342 -0.02714,-0.08141 -0.02171,-0.04342 -0.04342,-0.07055 -0.01628,-0.03256 -0.06513,-0.07056 -0.04885,-0.03799 -0.07598,-0.0597 -0.02714,-0.02171 -0.09769,-0.0597 -0.06513,-0.03799 -0.10312,-0.0597 -0.03256,-0.02171 -0.124829,-0.07056 -0.09226,-0.04885 -0.135683,-0.07056 -0.233376,-0.130256 -0.407051,-0.249658 -0.173676,-0.124829 -0.352778,-0.303931 -0.173675,-0.18453 -0.271367,-0.423333 -0.09227,-0.238804 -0.09227,-0.521026 0,-0.499315 0.385341,-0.846666 0.385342,-0.352777 1.080042,-0.352777 0.341923,0 0.656709,0.08141 0.320214,0.07598 0.483034,0.189957 z"
         style="font-style:normal;font-variant:normal;font-weight:normal;font-stretch:normal;font-family:RubberNippleFactory;-inkscape-font-specification:RubberNippleFactory;stroke-width:0.264583"
         id="path6163" />
      <path
         d="M 21.013997,47.044928 H 22.5228 v 0.976923 H 19.8634 V 43.46288 h 2.6594 v 0.971495 h -1.508803 v 0.759828 H 22.5228 v 0.976922 h -1.508803 z"
         style="font-style:normal;font-variant:normal;font-weight:normal;font-stretch:normal;font-family:RubberNippleFactory;-inkscape-font-specification:RubberNippleFactory;stroke-width:0.264583"
         id="path6165" />
      <path
         d="m 27.868716,48.021851 -1.552221,-1.829016 v 1.829016 H 25.144188 V 43.46288 h 1.899572 q 0.602435,0 1.031195,0.42876 0.428761,0.423333 0.428761,1.025768 0,0.385342 -0.189957,0.71641 -0.189958,0.325641 -0.521026,0.526453 l -0.03256,0.02171 1.628204,1.839871 z m -1.552221,-2.632263 h 0.569871 q 0.195385,0 0.331069,-0.135684 0.135683,-0.141111 0.135683,-0.336496 0,-0.195384 -0.135683,-0.331068 -0.135684,-0.135683 -0.331069,-0.135683 h -0.569871 z"
         style="font-style:normal;font-variant:normal;font-weight:normal;font-stretch:normal;font-family:RubberNippleFactory;-inkscape-font-specification:RubberNippleFactory;stroke-width:0.264583"
         id="path6167" />
      <path
         d="m 33.361187,45.758647 q 0,-0.53188 -0.36906,-0.895512 -0.36906,-0.363632 -0.928076,-0.363632 -0.53188,0 -0.895512,0.369059 -0.363633,0.36906 -0.363633,0.890085 0,0.521025 0.374487,0.895512 0.379915,0.374487 0.911795,0.374487 0.531879,0 0.900939,-0.369059 0.36906,-0.374487 0.36906,-0.90094 z m -1.215726,-2.355468 q 1.014914,0 1.687905,0.700128 0.672991,0.700127 0.672991,1.671622 0,0.976923 -0.721837,1.666196 -0.71641,0.689273 -1.725897,0.689273 -0.998631,0 -1.698759,-0.700128 -0.700128,-0.700128 -0.700128,-1.682478 0,-0.461324 0.179103,-0.884657 0.179102,-0.423333 0.493888,-0.748974 0.320214,-0.325641 0.792393,-0.515598 0.472179,-0.195384 1.020341,-0.195384 z"
         style="font-style:normal;font-variant:normal;font-weight:normal;font-stretch:normal;font-family:RubberNippleFactory;-inkscape-font-specification:RubberNippleFactory;stroke-width:0.264583"
         id="path6169" />
      <path
         d="m 38.799386,47.864458 q -0.466752,0.26594 -1.438247,0.26594 -0.656709,0 -1.188589,-0.325641 -0.53188,-0.325641 -0.830384,-0.868376 -0.293077,-0.542734 -0.293077,-1.188589 0,-0.282222 0.07598,-0.580726 0.08141,-0.298504 0.271367,-0.618717 0.189957,-0.325641 0.472179,-0.575299 0.282223,-0.249658 0.732692,-0.412478 0.45047,-0.16282 1.004059,-0.16282 0.803248,0 1.204871,0.276794 v 1.221153 q -0.200812,-0.206239 -0.526452,-0.336495 -0.325641,-0.130257 -0.71641,-0.130257 -0.553589,0 -0.966068,0.396197 -0.407051,0.390769 -0.407051,0.933503 0,0.542735 0.390769,0.933504 0.396196,0.390769 0.944358,0.390769 0.754402,0 1.275427,-0.374487 z"
         style="font-style:normal;font-variant:normal;font-weight:normal;font-stretch:normal;font-family:RubberNippleFactory;-inkscape-font-specification:RubberNippleFactory;stroke-width:0.264583"
         id="path6171" />
      <path
         d="m 44.063904,48.021851 h -1.617349 l -1.617349,-1.888717 v 1.888717 H 39.624335 V 43.46288 h 1.204871 v 1.405682 l 1.487092,-1.405682 h 1.682478 l -2.192648,2.073246 z"
         style="font-style:normal;font-variant:normal;font-weight:normal;font-stretch:normal;font-family:RubberNippleFactory;-inkscape-font-specification:RubberNippleFactory;stroke-width:0.264583"
         id="path6173" />
      <path
         d="m 47.016371,43.674546 -0.483034,0.90094 q -0.26594,-0.249658 -0.564444,-0.249658 -0.16282,0 -0.271367,0.07598 -0.10312,0.07055 -0.10312,0.184529 0,0.211667 0.195385,0.36906 0.195384,0.157393 0.792392,0.477606 0.200812,0.108547 0.336496,0.211667 0.135684,0.103119 0.255085,0.255085 0.124829,0.146539 0.18453,0.352778 0.0597,0.206239 0.0597,0.472179 0,0.130256 -0.03799,0.287649 -0.03799,0.157393 -0.151965,0.363632 -0.113975,0.200812 -0.28765,0.363633 -0.173675,0.16282 -0.483034,0.276794 -0.309358,0.113975 -0.6947,0.113975 -0.819529,0 -1.563076,-0.55359 l 0.597009,-0.852093 q 0.42876,0.42876 0.928076,0.42876 0.222521,0 0.358205,-0.113974 0.135683,-0.119402 0.135683,-0.309359 0,-0.04885 -0.01085,-0.08684 -0.0054,-0.04342 -0.02714,-0.08141 -0.02171,-0.04342 -0.04342,-0.07055 -0.01628,-0.03256 -0.06513,-0.07056 -0.04885,-0.03799 -0.07598,-0.0597 -0.02714,-0.02171 -0.09769,-0.0597 -0.06513,-0.03799 -0.10312,-0.0597 -0.03256,-0.02171 -0.124829,-0.07056 -0.09226,-0.04885 -0.135683,-0.07056 -0.233376,-0.130256 -0.407051,-0.249658 -0.173675,-0.124829 -0.352778,-0.303931 -0.173675,-0.18453 -0.271367,-0.423333 -0.09226,-0.238804 -0.09226,-0.521026 0,-0.499315 0.385342,-0.846666 0.385341,-0.352777 1.080041,-0.352777 0.341923,0 0.656709,0.08141 0.320214,0.07598 0.483034,0.189957 z"
         style="font-style:normal;font-variant:normal;font-weight:normal;font-stretch:normal;font-family:RubberNippleFactory;-inkscape-font-specification:RubberNippleFactory;stroke-width:0.264583"
         id="path6175" />
    </g>
    <g
       aria-label="DIRECTIONAL SENSOR
INPUT"
       id="text7925"
       style="font-size:10.5833px;line-height:1.25;font-family:'Poiret One';-inkscape-font-specification:'Poiret One';stroke-width:0.264583">
      <path
         d="m 5.5297971,6.2177329 h 0.3386656 q 1.7779943,0 2.8680742,1.1747463 1.0900799,1.1641629 1.0900799,2.8045748 0,1.629828 -1.0900799,2.793991 -1.0794966,1.164163 -2.8680742,1.164163 H 5.5297971 Z m 0.423332,0.317499 h -0.084666 v 7.2918931 h 0.084666 q 1.5451617,0 2.5294086,-1.068913 0.9948302,-1.068913 0.9948302,-2.561158 0,-1.502829 -0.9948302,-2.5823255 Q 7.4982908,6.5352319 5.9531291,6.5352319 Z"
         style="text-align:center;text-anchor:middle;stroke-width:0.264583"
         id="path8091" />
      <path
         d="m 11.149519,6.2177329 h 0.349249 v 7.9374751 h -0.349249 z"
         style="text-align:center;text-anchor:middle;stroke-width:0.264583"
         id="path8093" />
      <path
         d="m 13.139168,6.2177329 h 0.455082 q 1.02658,0 1.799161,0.7619976 0.783164,0.7514143 0.783164,1.7779943 0,1.0159968 -0.793747,1.7674112 -0.793748,0.751414 -1.703911,0.751414 h -0.07408 l 2.730492,2.878658 h -0.455082 l -2.402409,-2.518826 v 2.518826 h -0.338666 z m 0.338666,4.7519011 h 0.190499 q 0.857248,0 1.513412,-0.656164 0.656165,-0.6561647 0.656165,-1.5557452 0,-0.8995804 -0.677331,-1.5663283 -0.677332,-0.6667479 -1.545162,-0.6667479 h -0.137583 z"
         style="text-align:center;text-anchor:middle;stroke-width:0.264583"
         id="path8095" />
      <path
         d="m 17.446567,6.2177329 h 2.846908 v 0.3069157 h -2.497659 v 4.3179864 h 2.08491 v 0.306916 h -2.08491 v 2.698741 h 2.497659 v 0.306916 h -2.846908 z"
         style="text-align:center;text-anchor:middle;stroke-width:0.264583"
         id="path8097" />
      <path
         d="m 25.214704,14.271624 h -0.116416 q -1.09008,0 -2.031994,-0.571498 -0.941914,-0.571498 -1.492245,-1.513412 -0.539748,-0.952497 -0.539748,-2.02141 0,-1.682745 1.217079,-2.8892411 1.217079,-1.2170795 2.910407,-1.2170795 1.132413,0 2.14841,0.5926648 v 0.3915821 q -0.99483,-0.6773312 -2.14841,-0.6773312 -1.555745,0 -2.666991,1.1218298 -1.111247,1.1112464 -1.111247,2.6775751 0,1.555745 1.111247,2.677574 1.111246,1.12183 2.666991,1.12183 1.15358,0 2.14841,-0.677331 v 0.391582 q -0.96308,0.592665 -2.095493,0.592665 z"
         style="text-align:center;text-anchor:middle;stroke-width:0.264583"
         id="path8099" />
      <path
         d="M 32.146764,6.2177329 V 6.5246486 H 30.33702 V 14.155208 H 29.987771 V 6.5246486 H 28.15686 V 6.2177329 Z"
         style="text-align:center;text-anchor:middle;stroke-width:0.264583"
         id="path8101" />
      <path
         d="m 33.205093,6.2177329 h 0.349249 v 7.9374751 h -0.349249 z"
         style="text-align:center;text-anchor:middle;stroke-width:0.264583"
         id="path8103" />
      <path
         d="m 38.920062,14.292791 q -1.640411,0 -2.846907,-1.238247 -1.195913,-1.238246 -1.195913,-2.88924 0,-1.6615784 1.217079,-2.8680745 1.21708,-1.2170795 2.920991,-1.2170795 1.703911,0 2.910407,1.2064962 1.206497,1.2064961 1.206497,2.8786578 0,1.661578 -1.195913,2.899824 -1.195913,1.227663 -2.857491,1.227663 z m 3.862905,-4.106321 q 0,-1.5663281 -1.111247,-2.6775745 -1.100663,-1.1218298 -2.666991,-1.1218298 -1.555745,0 -2.666992,1.1218298 -1.111246,1.1112464 -1.111246,2.6775745 0,1.555745 1.111246,2.677575 1.111247,1.12183 2.666992,1.12183 1.555745,0 2.666991,-1.12183 1.111247,-1.12183 1.111247,-2.677575 z"
         style="text-align:center;text-anchor:middle;stroke-width:0.264583"
         id="path8105" />
      <path
         d="m 50.244181,6.2177329 h 0.306915 V 14.271624 L 44.709115,7.0855635 V 14.155208 H 44.402199 V 6.1013166 l 5.841982,7.1754774 z"
         style="text-align:center;text-anchor:middle;stroke-width:0.264583"
         id="path8107" />
      <path
         d="m 55.620486,6.0272335 3.968738,8.1279745 H 59.218808 L 57.71598,11.128384 h -4.243903 l -1.481662,3.026824 h -0.328083 z m -0.03175,0.7302477 -1.979078,4.0639868 h 3.979321 z"
         style="text-align:center;text-anchor:middle;stroke-width:0.264583"
         id="path8109" />
      <path
         d="m 61.0497,6.2177329 v 7.6305591 h 2.455326 v 0.306916 H 60.700451 V 6.2177329 Z"
         style="text-align:center;text-anchor:middle;stroke-width:0.264583"
         id="path8111" />
      <path
         d="M 71.410722,7.3395627 Q 71.167306,6.8950641 70.743974,6.6410649 70.331226,6.3870657 69.812644,6.3870657 q -0.518582,0 -0.888997,0.3280823 -0.359832,0.317499 -0.359832,0.8784139 v 0.052917 q 0,0.6667478 0.740831,1.2170794 0.317499,0.2328326 0.709081,0.4656652 0.402165,0.2222493 0.793747,0.4868318 0.402166,0.2539992 0.719665,0.5503312 0.328082,0.285749 0.529165,0.709081 0.211666,0.423332 0.211666,0.931331 v 0.105833 q 0,1.005413 -0.687915,1.598078 -0.677331,0.592665 -1.682745,0.592665 -1.322912,0 -2.05316,-1.09008 v -0.571498 q 0.275166,0.603248 0.804331,0.984247 0.539748,0.370415 1.333496,0.370415 0.793747,0 1.375829,-0.507998 0.582081,-0.507999 0.582081,-1.354663 v -0.0635 q 0,-0.529165 -0.275166,-0.963081 Q 71.389556,10.662719 70.976807,10.387553 70.564058,10.101804 70.077227,9.7948882 69.590395,9.4879725 69.177646,9.22339 68.764897,8.9588075 68.489732,8.5566421 68.214566,8.1544767 68.214566,7.6782283 v -0.074083 q 0,-0.740831 0.476248,-1.1324131 0.476249,-0.3915821 1.174747,-0.3915821 0.973663,0 1.545161,0.7196644 z"
         style="text-align:center;text-anchor:middle;stroke-width:0.264583"
         id="path8113" />
      <path
         d="m 73.485035,6.2177329 h 2.846908 v 0.3069157 h -2.497659 v 4.3179864 h 2.08491 v 0.306916 h -2.08491 v 2.698741 h 2.497659 v 0.306916 h -2.846908 z"
         style="text-align:center;text-anchor:middle;stroke-width:0.264583"
         id="path8115" />
      <path
         d="m 83.232252,6.2177329 h 0.306916 V 14.271624 L 77.697186,7.0855635 V 14.155208 H 77.390271 V 6.1013166 l 5.841981,7.1754774 z"
         style="text-align:center;text-anchor:middle;stroke-width:0.264583"
         id="path8117" />
      <path
         d="M 88.322809,7.3395627 Q 88.079393,6.8950641 87.656061,6.6410649 87.243312,6.3870657 86.724731,6.3870657 q -0.518582,0 -0.888998,0.3280823 -0.359832,0.317499 -0.359832,0.8784139 v 0.052917 q 0,0.6667478 0.740831,1.2170794 0.317499,0.2328326 0.709081,0.4656652 0.402166,0.2222493 0.793748,0.4868318 0.402165,0.2539992 0.719664,0.5503312 0.328082,0.285749 0.529165,0.709081 0.211666,0.423332 0.211666,0.931331 v 0.105833 q 0,1.005413 -0.687914,1.598078 -0.677332,0.592665 -1.682745,0.592665 -1.322913,0 -2.05316,-1.09008 v -0.571498 q 0.275166,0.603248 0.804331,0.984247 0.539748,0.370415 1.333495,0.370415 0.793748,0 1.375829,-0.507998 0.582082,-0.507999 0.582082,-1.354663 v -0.0635 q 0,-0.529165 -0.275166,-0.963081 Q 88.301642,10.662719 87.888893,10.387553 87.476145,10.101804 86.989313,9.7948882 86.502481,9.4879725 86.089733,9.22339 85.676984,8.9588075 85.401818,8.5566421 85.126652,8.1544767 85.126652,7.6782283 v -0.074083 q 0,-0.740831 0.476249,-1.1324131 0.476248,-0.3915821 1.174746,-0.3915821 0.973664,0 1.545162,0.7196644 z"
         style="text-align:center;text-anchor:middle;stroke-width:0.264583"
         id="path8119" />
      <path
         d="m 94.122451,14.292791 q -1.640411,0 -2.846908,-1.238247 -1.195912,-1.238246 -1.195912,-2.88924 0,-1.6615784 1.217079,-2.8680745 1.217079,-1.2170795 2.920991,-1.2170795 1.703911,0 2.910407,1.2064962 1.206496,1.2064961 1.206496,2.8786578 0,1.661578 -1.195913,2.899824 -1.195912,1.227663 -2.85749,1.227663 z m 3.862904,-4.106321 q 0,-1.5663281 -1.111246,-2.6775745 -1.100663,-1.1218298 -2.666992,-1.1218298 -1.555745,0 -2.666991,1.1218298 -1.111247,1.1112464 -1.111247,2.6775745 0,1.555745 1.111247,2.677575 1.111246,1.12183 2.666991,1.12183 1.555745,0 2.666992,-1.12183 1.111246,-1.12183 1.111246,-2.677575 z"
         style="text-align:center;text-anchor:middle;stroke-width:0.264583"
         id="path8121" />
      <path
         d="m 99.604588,6.2177329 h 0.455082 q 1.02658,0 1.79916,0.7619976 0.78317,0.7514143 0.78317,1.7779943 0,1.0159968 -0.79375,1.7674112 -0.79375,0.751414 -1.70391,0.751414 h -0.0741 l 2.73049,2.878658 h -0.45508 l -2.402406,-2.518826 v 2.518826 h -0.338666 z m 0.338666,4.7519011 h 0.190496 q 0.85725,0 1.51341,-0.656164 0.65617,-0.6561647 0.65617,-1.5557452 0,-0.8995804 -0.67733,-1.5663283 -0.67733,-0.6667479 -1.54516,-0.6667479 h -0.137586 z"
         style="text-align:center;text-anchor:middle;stroke-width:0.264583"
         id="path8123" />
      <path
         d="m 42.454871,19.446857 h 0.349249 v 7.937475 h -0.349249 z"
         style="text-align:center;text-anchor:middle;stroke-width:0.264583"
         id="path8125" />
      <path
         d="m 50.286501,19.446857 h 0.306916 v 8.053891 l -5.841982,-7.18606 v 7.069644 H 44.44452 v -8.053891 l 5.841981,7.175477 z"
         style="text-align:center;text-anchor:middle;stroke-width:0.264583"
         id="path8127" />
      <path
         d="m 52.170318,19.446857 h 0.349249 q 1.100663,0 1.873244,0.761998 0.772581,0.751414 0.772581,1.777994 0,1.02658 -0.804331,1.767411 -0.793747,0.740831 -1.756827,0.740831 h -0.08467 v 2.889241 h -0.349249 z m 0.349249,4.751902 h 0.08467 q 0.888997,0 1.545161,-0.656165 0.666748,-0.656164 0.666748,-1.555745 0,-0.89958 -0.677331,-1.566328 -0.666748,-0.666748 -1.534578,-0.666748 h -0.08467 z"
         style="text-align:center;text-anchor:middle;stroke-width:0.264583"
         id="path8129" />
      <path
         d="m 58.731958,27.532498 h -0.105833 q -0.973664,0 -1.650995,-0.677331 -0.666748,-0.677331 -0.666748,-1.703911 v -5.704399 h 0.349249 v 5.693816 q 0,0.89958 0.582081,1.492245 0.582082,0.592665 1.439329,0.592665 0.857247,0 1.428746,-0.582082 0.582081,-0.592665 0.582081,-1.502828 v -5.693816 h 0.349249 v 5.683232 q 0,1.037164 -0.677331,1.725078 -0.666748,0.677331 -1.629828,0.677331 z"
         style="text-align:center;text-anchor:middle;stroke-width:0.264583"
         id="path8131" />
      <path
         d="m 66.034415,19.446857 v 0.306916 h -1.809744 v 7.630559 h -0.349249 v -7.630559 h -1.830911 v -0.306916 z"
         style="text-align:center;text-anchor:middle;stroke-width:0.264583"
         id="path8133" />
    </g>
    <rect
       style="opacity:0.999;fill:#000000;fill-opacity:1;stroke-width:0.0207452"
       id="rect8003"
       width="3.3742483"
       height="0.5291667"
       x="51.85157"
       y="45.476109" />
    <rect
       style="opacity:0.999;fill:#000000;fill-opacity:1;stroke-width:0.0291195"
       id="rect8005"
       width="6.6483002"
       height="0.5291667"
       x="48.577518"
       y="64.138206" />
    <g
       aria-label="Front"
       id="text8011"
       style="font-style:normal;font-variant:normal;font-weight:normal;font-stretch:normal;font-size:4.23333px;line-height:1.25;font-family:RubberNippleFactory;-inkscape-font-specification:RubberNippleFactory;stroke-width:0.264583">
      <path
         d="m 51.607074,97.926405 h -1.135673 v 0.704198 h 1.135673 v 0.728622 h -1.135673 v 1.257785 h -0.858877 v -3.419226 h 1.99455 z"
         style="font-style:normal;font-variant:normal;font-weight:normal;font-stretch:normal;font-size:4.23333px;font-family:RubberNippleFactory;-inkscape-font-specification:RubberNippleFactory;stroke-width:0.264583"
         id="path8060" />
      <path
         d="m 53.430655,98.948103 q -0.16282,0 -0.32564,0.109904 -0.162821,0.105833 -0.162821,0.280865 v 1.278138 h -0.761185 v -2.181791 h 0.769326 v 0.447756 q 0.219808,-0.492532 0.614647,-0.492532 0.0692,0 0.118045,0.01628 v 0.606506 q -0.138397,-0.06513 -0.252372,-0.06513 z"
         style="font-style:normal;font-variant:normal;font-weight:normal;font-stretch:normal;font-size:4.23333px;font-family:RubberNippleFactory;-inkscape-font-specification:RubberNippleFactory;stroke-width:0.264583"
         id="path8062" />
      <path
         d="m 55.531034,99.937237 q 0.16282,-0.16282 0.16282,-0.394839 0,-0.232019 -0.16282,-0.386699 -0.15875,-0.154679 -0.390769,-0.154679 -0.232019,0 -0.394839,0.154679 -0.162821,0.15468 -0.162821,0.386699 0,0.232019 0.162821,0.394839 0.16282,0.162823 0.394839,0.162823 0.232019,0 0.390769,-0.162823 z m -0.390769,-1.542723 q 0.553589,0 0.903653,0.329711 0.350064,0.329711 0.350064,0.818173 0,0.492532 -0.350064,0.826312 -0.345993,0.33378 -0.903653,0.33378 -0.590224,0 -0.924006,-0.32971 -0.333781,-0.32971 -0.333781,-0.830382 0,-0.484391 0.354134,-0.814102 0.358205,-0.333782 0.903653,-0.333782 z"
         style="font-style:normal;font-variant:normal;font-weight:normal;font-stretch:normal;font-size:4.23333px;font-family:RubberNippleFactory;-inkscape-font-specification:RubberNippleFactory;stroke-width:0.264583"
         id="path8064" />
      <path
         d="m 57.554077,98.805635 q 0.183173,-0.187243 0.378557,-0.297147 0.199455,-0.113974 0.472179,-0.113974 0.32157,0 0.545448,0.179102 0.227949,0.175032 0.227949,0.488461 v 1.554933 h -0.761185 v -1.249644 q 0,-0.48032 -0.402981,-0.48032 -0.199455,0 -0.329711,0.179102 -0.130256,0.179102 -0.130256,0.386698 v 1.164164 h -0.757115 v -2.181791 h 0.757115 z"
         style="font-style:normal;font-variant:normal;font-weight:normal;font-stretch:normal;font-size:4.23333px;font-family:RubberNippleFactory;-inkscape-font-specification:RubberNippleFactory;stroke-width:0.264583"
         id="path8066" />
      <path
         d="m 61.123911,98.435219 v 0.468109 h -0.553589 v 1.713682 h -0.769326 v -1.713682 h -0.354135 v -0.468109 h 0.354135 v -0.761185 h 0.769326 v 0.761185 z"
         style="font-style:normal;font-variant:normal;font-weight:normal;font-stretch:normal;font-size:4.23333px;font-family:RubberNippleFactory;-inkscape-font-specification:RubberNippleFactory;stroke-width:0.264583"
         id="path8068" />
    </g>
    <g
       aria-label="Left"
       id="text8015"
       style="font-style:normal;font-variant:normal;font-weight:normal;font-stretch:normal;font-size:4.23333px;line-height:1.25;font-family:RubberNippleFactory;-inkscape-font-specification:RubberNippleFactory;stroke-width:0.264583">
      <path
         d="m 37.005949,109.0928 h 0.858877 v 2.68654 h 1.257788 v 0.73269 h -2.116665 z"
         style="font-style:normal;font-variant:normal;font-weight:normal;font-stretch:normal;font-size:4.23333px;font-family:RubberNippleFactory;-inkscape-font-specification:RubberNippleFactory;stroke-width:0.264583"
         id="path8071" />
      <path
         d="m 41.817288,111.4537 q 0,0.0896 -0.0041,0.1384 h -1.648556 q 0.02849,0.14246 0.09362,0.23609 0.0692,0.0936 0.154679,0.13432 0.08955,0.0366 0.150609,0.0489 0.06106,0.0122 0.122115,0.0122 0.297147,0 0.671634,-0.27272 l 0.358205,0.51695 q -0.394839,0.32564 -1.111249,0.32564 -0.280865,0 -0.537307,-0.11804 -0.256442,-0.11805 -0.431474,-0.37449 -0.175032,-0.25644 -0.175032,-0.59836 0,-0.26459 0.07327,-0.47625 0.07734,-0.21167 0.195385,-0.346 0.122115,-0.13432 0.280865,-0.22388 0.16282,-0.0936 0.32564,-0.13025 0.162821,-0.0366 0.333782,-0.0366 0.215737,0 0.415192,0.0733 0.203526,0.0692 0.366346,0.2076 0.166891,0.1384 0.264583,0.37041 0.101763,0.22795 0.101763,0.51289 z m -1.644486,-0.28494 h 0.964711 q 0,-0.17503 -0.134327,-0.289 -0.130256,-0.11805 -0.301218,-0.11805 -0.08955,0 -0.179102,0.0244 -0.08548,0.0203 -0.199455,0.11804 -0.109904,0.0977 -0.150609,0.26458 z"
         style="font-style:normal;font-variant:normal;font-weight:normal;font-stretch:normal;font-size:4.23333px;font-family:RubberNippleFactory;-inkscape-font-specification:RubberNippleFactory;stroke-width:0.264583"
         id="path8073" />
      <path
         d="m 43.331514,109.74001 q -0.08955,0 -0.150609,0.0692 -0.06106,0.0651 -0.06106,0.14654 v 0.40705 h 0.40298 v 0.51696 h -0.40298 v 1.63227 H 42.34238 v -1.63227 h -0.289006 v -0.51696 h 0.289006 v -0.45589 q 0,-0.10584 0.02442,-0.2076 0.02442,-0.10583 0.09362,-0.22795 0.0692,-0.12211 0.175032,-0.21167 0.109904,-0.0896 0.297147,-0.1506 0.187244,-0.0611 0.427404,-0.0611 h 0.170961 v 0.69198 z"
         style="font-style:normal;font-variant:normal;font-weight:normal;font-stretch:normal;font-size:4.23333px;font-family:RubberNippleFactory;-inkscape-font-specification:RubberNippleFactory;stroke-width:0.264583"
         id="path8075" />
      <path
         d="m 45.309775,110.33024 v 0.46811 h -0.553589 v 1.71368 H 43.98686 v -1.71368 h -0.354135 v -0.46811 h 0.354135 v -0.76119 h 0.769326 v 0.76119 z"
         style="font-style:normal;font-variant:normal;font-weight:normal;font-stretch:normal;font-size:4.23333px;font-family:RubberNippleFactory;-inkscape-font-specification:RubberNippleFactory;stroke-width:0.264583"
         id="path8077" />
    </g>
    <g
       aria-label="Right"
       id="text8019"
       style="font-style:normal;font-variant:normal;font-weight:normal;font-stretch:normal;font-size:4.23333px;line-height:1.25;font-family:RubberNippleFactory;-inkscape-font-specification:RubberNippleFactory;stroke-width:0.264583">
      <path
         d="m 67.029012,112.51203 -1.164165,-1.37176 v 1.37176 h -0.87923 v -3.41923 h 1.424678 q 0.451826,0 0.773397,0.32157 0.32157,0.3175 0.32157,0.76933 0,0.28901 -0.142468,0.53731 -0.142468,0.24423 -0.390769,0.39484 l -0.02442,0.0163 1.221153,1.3799 z m -1.164165,-1.9742 h 0.427403 q 0.146538,0 0.248301,-0.10176 0.101763,-0.10583 0.101763,-0.25237 0,-0.14654 -0.101763,-0.2483 -0.101763,-0.10176 -0.248301,-0.10176 h -0.427403 z"
         style="font-style:normal;font-variant:normal;font-weight:normal;font-stretch:normal;font-size:4.23333px;font-family:RubberNippleFactory;-inkscape-font-specification:RubberNippleFactory;stroke-width:0.264583"
         id="path8080" />
      <path
         d="m 68.437405,112.51203 v -2.18179 h 0.757114 v 2.18179 z m 0.126185,-2.78016 q -0.101762,-0.10583 -0.101762,-0.25237 0,-0.14654 0.101762,-0.25237 0.105834,-0.10583 0.252372,-0.10583 0.146538,0 0.252372,0.10583 0.105833,0.10583 0.105833,0.25237 0,0.14654 -0.105833,0.25237 -0.105834,0.10177 -0.252372,0.10177 -0.146538,0 -0.252372,-0.10177 z"
         style="font-style:normal;font-variant:normal;font-weight:normal;font-stretch:normal;font-size:4.23333px;font-family:RubberNippleFactory;-inkscape-font-specification:RubberNippleFactory;stroke-width:0.264583"
         id="path8082" />
      <path
         d="m 71.351888,111.02223 q -0.170961,-0.20353 -0.48439,-0.20353 -0.248301,0 -0.411122,0.16282 -0.16282,0.15875 -0.16282,0.41519 0,0.25644 0.16282,0.41112 0.162821,0.15468 0.411122,0.15468 0.305288,0 0.48439,-0.2198 z m 0,1.32698 v -0.0488 q -0.358205,0.22387 -0.655352,0.22387 -0.472179,0 -0.785608,-0.3175 -0.313429,-0.3175 -0.313429,-0.81003 0,-0.49253 0.309358,-0.79782 0.309359,-0.30936 0.789679,-0.30936 0.366346,0 0.655352,0.22795 v -0.18724 h 0.700128 v 1.77474 q 0,0.58208 -0.309359,0.89958 -0.305288,0.32157 -0.907723,0.32157 -0.435545,0 -0.968782,-0.14653 l 0.150609,-0.50882 q 0.345994,0.16282 0.71641,0.16282 0.268654,0 0.439615,-0.12211 0.175032,-0.11805 0.179102,-0.36228 z"
         style="font-style:normal;font-variant:normal;font-weight:normal;font-stretch:normal;font-size:4.23333px;font-family:RubberNippleFactory;-inkscape-font-specification:RubberNippleFactory;stroke-width:0.264583"
         id="path8084" />
      <path
         d="m 73.350505,110.70065 q 0.402981,-0.41112 0.850737,-0.41112 0.317499,0 0.541377,0.17504 0.227949,0.17503 0.227949,0.48439 v 0.008 1.55493 h -0.761185 v -1.24964 q 0,-0.48032 -0.402981,-0.48032 -0.199455,0 -0.329711,0.1791 -0.130256,0.1791 -0.130256,0.3867 v 1.16416 H 72.58932 v -3.41923 h 0.761185 z"
         style="font-style:normal;font-variant:normal;font-weight:normal;font-stretch:normal;font-size:4.23333px;font-family:RubberNippleFactory;-inkscape-font-specification:RubberNippleFactory;stroke-width:0.264583"
         id="path8086" />
      <path
         d="m 76.91627,110.33024 v 0.46811 h -0.55359 v 1.71368 h -0.769326 v -1.71368 H 75.23922 v -0.46811 h 0.354134 v -0.76119 h 0.769326 v 0.76119 z"
         style="font-style:normal;font-variant:normal;font-weight:normal;font-stretch:normal;font-size:4.23333px;font-family:RubberNippleFactory;-inkscape-font-specification:RubberNippleFactory;stroke-width:0.264583"
         id="path8088" />
    </g>
    <g
       aria-label="SENSOR CHOOSER"
       id="text8023"
       style="font-size:5.64444px;line-height:1.25;font-family:'Poiret One';-inkscape-font-specification:'Poiret One';stroke-width:0.264583">
      <path
         d="m 6.4108626,81.045022 -0.4830338,0.900939 q -0.26594,-0.249657 -0.5644441,-0.249657 -0.1628203,0 -0.2713673,0.07598 -0.1031196,0.07056 -0.1031196,0.18453 0,0.211667 0.1953845,0.36906 0.1953845,0.157393 0.7923926,0.477606 0.2008118,0.108547 0.3364954,0.211667 0.1356837,0.103119 0.2550853,0.255085 0.124829,0.146538 0.1845298,0.352777 0.059701,0.20624 0.059701,0.47218 0,0.130256 -0.037991,0.287649 -0.037991,0.157393 -0.1519657,0.363632 -0.1139743,0.200812 -0.2876494,0.363632 -0.173675,0.162821 -0.4830338,0.276795 -0.3093587,0.113974 -0.6947003,0.113974 -0.8195293,0 -1.5630758,-0.553589 l 0.5970081,-0.852093 q 0.4287604,0.42876 0.9280763,0.42876 0.2225212,0 0.3582048,-0.113974 0.1356837,-0.119402 0.1356837,-0.309359 0,-0.04885 -0.010855,-0.08684 -0.00543,-0.04342 -0.027137,-0.08141 -0.021709,-0.04342 -0.043419,-0.07055 -0.016282,-0.03256 -0.065128,-0.07056 -0.048846,-0.03799 -0.075983,-0.0597 -0.027137,-0.02171 -0.097692,-0.0597 -0.065128,-0.03799 -0.1031195,-0.0597 -0.032564,-0.02171 -0.124829,-0.07056 Q 4.9726158,83.492755 4.929197,83.471046 4.6958211,83.340789 4.5221461,83.221388 4.348471,83.096559 4.1693686,82.917456 3.9956935,82.732927 3.8980012,82.494123 3.8057363,82.25532 3.8057363,81.973098 q 0,-0.499316 0.3853416,-0.846666 0.3853416,-0.352777 1.080042,-0.352777 0.3419228,0 0.6567089,0.08141 0.3202134,0.07598 0.4830338,0.189957 z"
         style="font-style:normal;font-variant:normal;font-weight:normal;font-stretch:normal;font-size:5.64444px;font-family:RubberNippleFactory;-inkscape-font-specification:RubberNippleFactory;stroke-width:0.264583"
         id="path8033" />
      <path
         d="m 8.5492358,84.415404 h 1.5088022 v 0.976922 H 7.3986384 V 80.833355 H 10.058038 V 81.80485 H 8.5492358 v 0.759829 h 1.5088022 v 0.976922 H 8.5492358 Z"
         style="font-style:normal;font-variant:normal;font-weight:normal;font-stretch:normal;font-size:5.64444px;font-family:RubberNippleFactory;-inkscape-font-specification:RubberNippleFactory;stroke-width:0.264583"
         id="path8035" />
      <path
         d="m 10.872132,85.392326 v -4.618671 h 0.16282 l 2.941622,2.344613 v -2.203502 h 1.161452 v 4.651235 h -0.124829 l -2.947049,-2.577989 v 2.404314 z"
         style="font-style:normal;font-variant:normal;font-weight:normal;font-stretch:normal;font-size:5.64444px;font-family:RubberNippleFactory;-inkscape-font-specification:RubberNippleFactory;stroke-width:0.264583"
         id="path8037" />
      <path
         d="m 18.497552,81.045022 -0.483034,0.900939 q -0.26594,-0.249657 -0.564444,-0.249657 -0.162821,0 -0.271368,0.07598 -0.103119,0.07056 -0.103119,0.18453 0,0.211667 0.195384,0.36906 0.195385,0.157393 0.792393,0.477606 0.200812,0.108547 0.336495,0.211667 0.135684,0.103119 0.255086,0.255085 0.124829,0.146538 0.184529,0.352777 0.0597,0.20624 0.0597,0.47218 0,0.130256 -0.03799,0.287649 -0.03799,0.157393 -0.151966,0.363632 -0.113974,0.200812 -0.287649,0.363632 -0.173675,0.162821 -0.483034,0.276795 -0.309359,0.113974 -0.6947,0.113974 -0.81953,0 -1.563076,-0.553589 l 0.597008,-0.852093 q 0.42876,0.42876 0.928076,0.42876 0.222521,0 0.358205,-0.113974 0.135684,-0.119402 0.135684,-0.309359 0,-0.04885 -0.01085,-0.08684 -0.0054,-0.04342 -0.02714,-0.08141 -0.02171,-0.04342 -0.04342,-0.07055 -0.01628,-0.03256 -0.06513,-0.07056 -0.04885,-0.03799 -0.07598,-0.0597 -0.02714,-0.02171 -0.09769,-0.0597 -0.06513,-0.03799 -0.103119,-0.0597 -0.03256,-0.02171 -0.124829,-0.07056 -0.09227,-0.04885 -0.135684,-0.07055 -0.233376,-0.130257 -0.407051,-0.249658 -0.173675,-0.124829 -0.352777,-0.303932 -0.173676,-0.184529 -0.271368,-0.423333 -0.09227,-0.238803 -0.09227,-0.521025 0,-0.499316 0.385342,-0.846666 0.385342,-0.352777 1.080042,-0.352777 0.341923,0 0.656709,0.08141 0.320213,0.07598 0.483034,0.189957 z"
         style="font-style:normal;font-variant:normal;font-weight:normal;font-stretch:normal;font-size:5.64444px;font-family:RubberNippleFactory;-inkscape-font-specification:RubberNippleFactory;stroke-width:0.264583"
         id="path8039" />
      <path
         d="m 23.051094,83.129123 q 0,-0.53188 -0.36906,-0.895512 -0.369059,-0.363632 -0.928076,-0.363632 -0.53188,0 -0.895512,0.369059 -0.363632,0.36906 -0.363632,0.890085 0,0.521025 0.374487,0.895512 0.379914,0.374487 0.911794,0.374487 0.53188,0 0.900939,-0.36906 0.36906,-0.374486 0.36906,-0.900939 z m -1.215726,-2.355468 q 1.014914,0 1.687905,0.700127 0.672991,0.700128 0.672991,1.671623 0,0.976922 -0.721837,1.666195 -0.71641,0.689273 -1.725896,0.689273 -0.998632,0 -1.69876,-0.700127 -0.700127,-0.700128 -0.700127,-1.682478 0,-0.461324 0.179102,-0.884657 0.179103,-0.423333 0.493889,-0.748974 0.320213,-0.325641 0.792392,-0.515598 0.472179,-0.195384 1.020341,-0.195384 z"
         style="font-style:normal;font-variant:normal;font-weight:normal;font-stretch:normal;font-size:5.64444px;font-family:RubberNippleFactory;-inkscape-font-specification:RubberNippleFactory;stroke-width:0.264583"
         id="path8041" />
      <path
         d="m 27.599208,85.392326 -1.552221,-1.829015 v 1.829015 H 24.87468 v -4.558971 h 1.899571 q 0.602436,0 1.031196,0.428761 0.428761,0.423333 0.428761,1.025768 0,0.385342 -0.189958,0.71641 -0.189957,0.325641 -0.521025,0.526453 l -0.03256,0.02171 1.628204,1.83987 z m -1.552221,-2.632263 h 0.569871 q 0.195385,0 0.331068,-0.135683 0.135684,-0.141111 0.135684,-0.336496 0,-0.195384 -0.135684,-0.331068 -0.135683,-0.135684 -0.331068,-0.135684 h -0.569871 z"
         style="font-style:normal;font-variant:normal;font-weight:normal;font-stretch:normal;font-size:5.64444px;font-family:RubberNippleFactory;-inkscape-font-specification:RubberNippleFactory;stroke-width:0.264583"
         id="path8043" />
      <path
         d="m 34.947819,85.234933 q -0.466751,0.26594 -1.438246,0.26594 -0.656709,0 -1.188589,-0.32564 -0.53188,-0.325641 -0.830384,-0.868376 -0.293077,-0.542735 -0.293077,-1.188589 0,-0.282222 0.07598,-0.580726 0.08141,-0.298504 0.271367,-0.618717 0.189957,-0.325641 0.472179,-0.575299 0.282222,-0.249658 0.732692,-0.412478 0.45047,-0.162821 1.004059,-0.162821 0.803247,0 1.204871,0.276795 v 1.221153 q -0.200812,-0.206239 -0.526452,-0.336496 -0.325641,-0.130256 -0.71641,-0.130256 -0.55359,0 -0.966068,0.396196 -0.407051,0.390769 -0.407051,0.933504 0,0.542735 0.390769,0.933504 0.396196,0.390768 0.944358,0.390768 0.754402,0 1.275427,-0.374486 z"
         style="font-style:normal;font-variant:normal;font-weight:normal;font-stretch:normal;font-size:5.64444px;font-family:RubberNippleFactory;-inkscape-font-specification:RubberNippleFactory;stroke-width:0.264583"
         id="path8045" />
      <path
         d="m 38.573279,80.833355 h 1.14517 v 4.558971 h -1.14517 v -1.953844 h -1.660768 v 1.953844 h -1.139742 v -4.558971 h 1.139742 v 1.622777 h 1.660768 z"
         style="font-style:normal;font-variant:normal;font-weight:normal;font-stretch:normal;font-size:5.64444px;font-family:RubberNippleFactory;-inkscape-font-specification:RubberNippleFactory;stroke-width:0.264583"
         id="path8047" />
      <path
         d="m 44.098307,83.129123 q 0,-0.53188 -0.36906,-0.895512 -0.36906,-0.363632 -0.928076,-0.363632 -0.53188,0 -0.895512,0.369059 -0.363633,0.36906 -0.363633,0.890085 0,0.521025 0.374487,0.895512 0.379915,0.374487 0.911794,0.374487 0.53188,0 0.90094,-0.36906 0.36906,-0.374486 0.36906,-0.900939 z m -1.215726,-2.355468 q 1.014914,0 1.687905,0.700127 0.672991,0.700128 0.672991,1.671623 0,0.976922 -0.721837,1.666195 -0.71641,0.689273 -1.725897,0.689273 -0.998631,0 -1.698759,-0.700127 -0.700128,-0.700128 -0.700128,-1.682478 0,-0.461324 0.179103,-0.884657 0.179102,-0.423333 0.493888,-0.748974 0.320214,-0.325641 0.792393,-0.515598 0.472179,-0.195384 1.020341,-0.195384 z"
         style="font-style:normal;font-variant:normal;font-weight:normal;font-stretch:normal;font-size:5.64444px;font-family:RubberNippleFactory;-inkscape-font-specification:RubberNippleFactory;stroke-width:0.264583"
         id="path8049" />
      <path
         d="m 49.487661,83.129123 q 0,-0.53188 -0.369059,-0.895512 -0.36906,-0.363632 -0.928077,-0.363632 -0.53188,0 -0.895512,0.369059 -0.363632,0.36906 -0.363632,0.890085 0,0.521025 0.374487,0.895512 0.379914,0.374487 0.911794,0.374487 0.53188,0 0.90094,-0.36906 0.369059,-0.374486 0.369059,-0.900939 z m -1.215725,-2.355468 q 1.014913,0 1.687904,0.700127 0.672991,0.700128 0.672991,1.671623 0,0.976922 -0.721837,1.666195 -0.716409,0.689273 -1.725896,0.689273 -0.998632,0 -1.698759,-0.700127 -0.700128,-0.700128 -0.700128,-1.682478 0,-0.461324 0.179102,-0.884657 0.179103,-0.423333 0.493889,-0.748974 0.320213,-0.325641 0.792393,-0.515598 0.472179,-0.195384 1.020341,-0.195384 z"
         style="font-style:normal;font-variant:normal;font-weight:normal;font-stretch:normal;font-size:5.64444px;font-family:RubberNippleFactory;-inkscape-font-specification:RubberNippleFactory;stroke-width:0.264583"
         id="path8051" />
      <path
         d="m 53.856671,81.045022 -0.483034,0.900939 q -0.26594,-0.249657 -0.564444,-0.249657 -0.16282,0 -0.271367,0.07598 -0.10312,0.07056 -0.10312,0.18453 0,0.211667 0.195385,0.36906 0.195384,0.157393 0.792392,0.477606 0.200812,0.108547 0.336496,0.211667 0.135683,0.103119 0.255085,0.255085 0.124829,0.146538 0.18453,0.352777 0.0597,0.20624 0.0597,0.47218 0,0.130256 -0.03799,0.287649 -0.03799,0.157393 -0.151966,0.363632 -0.113974,0.200812 -0.287649,0.363632 -0.173675,0.162821 -0.483034,0.276795 -0.309358,0.113974 -0.6947,0.113974 -0.819529,0 -1.563076,-0.553589 l 0.597008,-0.852093 q 0.428761,0.42876 0.928077,0.42876 0.222521,0 0.358204,-0.113974 0.135684,-0.119402 0.135684,-0.309359 0,-0.04885 -0.01085,-0.08684 -0.0054,-0.04342 -0.02714,-0.08141 -0.02171,-0.04342 -0.04342,-0.07055 -0.01628,-0.03256 -0.06513,-0.07056 -0.04885,-0.03799 -0.07598,-0.0597 -0.02714,-0.02171 -0.09769,-0.0597 -0.06513,-0.03799 -0.10312,-0.0597 -0.03256,-0.02171 -0.124829,-0.07056 -0.09226,-0.04885 -0.135684,-0.07055 -0.233375,-0.130257 -0.407051,-0.249658 -0.173675,-0.124829 -0.352777,-0.303932 -0.173675,-0.184529 -0.271367,-0.423333 -0.09226,-0.238803 -0.09226,-0.521025 0,-0.499316 0.385341,-0.846666 0.385342,-0.352777 1.080042,-0.352777 0.341923,0 0.656709,0.08141 0.320214,0.07598 0.483034,0.189957 z"
         style="font-style:normal;font-variant:normal;font-weight:normal;font-stretch:normal;font-size:5.64444px;font-family:RubberNippleFactory;-inkscape-font-specification:RubberNippleFactory;stroke-width:0.264583"
         id="path8053" />
      <path
         d="m 55.995046,84.415404 h 1.508802 v 0.976922 h -2.659399 v -4.558971 h 2.659399 v 0.971495 h -1.508802 v 0.759829 h 1.508802 v 0.976922 h -1.508802 z"
         style="font-style:normal;font-variant:normal;font-weight:normal;font-stretch:normal;font-size:5.64444px;font-family:RubberNippleFactory;-inkscape-font-specification:RubberNippleFactory;stroke-width:0.264583"
         id="path8055" />
      <path
         d="m 61.042468,85.392326 -1.552221,-1.829015 v 1.829015 H 58.31794 v -4.558971 h 1.899572 q 0.602435,0 1.031195,0.428761 0.428761,0.423333 0.428761,1.025768 0,0.385342 -0.189957,0.71641 -0.189958,0.325641 -0.521026,0.526453 l -0.03256,0.02171 1.628204,1.83987 z m -1.552221,-2.632263 h 0.569872 q 0.195384,0 0.331068,-0.135683 0.135683,-0.141111 0.135683,-0.336496 0,-0.195384 -0.135683,-0.331068 -0.135684,-0.135684 -0.331068,-0.135684 h -0.569872 z"
         style="font-style:normal;font-variant:normal;font-weight:normal;font-stretch:normal;font-size:5.64444px;font-family:RubberNippleFactory;-inkscape-font-specification:RubberNippleFactory;stroke-width:0.264583"
         id="path8057" />
    </g>
    <path
       style="opacity:0.999;fill:none;stroke:#000000;stroke-width:0.449792;stroke-opacity:1"
       d="M 56.126599,87.744582 33.67596,103.83421"
       id="path8029" />
    <path
       style="opacity:0.999;fill:none;stroke:#000000;stroke-width:0.449792;stroke-opacity:1"
       d="M 55.752422,87.744582 78.203061,103.83421"
       id="path8031" />
  </g>
</svg>
