<?xml version="1.0" encoding="UTF-8" standalone="no"?>
<svg
   xmlns:dc="http://purl.org/dc/elements/1.1/"
   xmlns:cc="http://creativecommons.org/ns#"
   xmlns:rdf="http://www.w3.org/1999/02/22-rdf-syntax-ns#"
   xmlns:svg="http://www.w3.org/2000/svg"
   xmlns="http://www.w3.org/2000/svg"
   xmlns:sodipodi="http://sodipodi.sourceforge.net/DTD/sodipodi-0.dtd"
   xmlns:inkscape="http://www.inkscape.org/namespaces/inkscape"
   width="420"
   height="280"
   viewBox="0 0 111.125 74.083336"
   version="1.1"
   id="svg8"
   inkscape:version="1.0.1 (3bc2e813f5, 2020-09-07)"
   sodipodi:docname="front_sensor.svg">
  <defs
     id="defs2" />
  <sodipodi:namedview
     id="base"
     pagecolor="#ffffff"
     bordercolor="#666666"
     borderopacity="1.0"
     inkscape:pageopacity="0.0"
     inkscape:pageshadow="2"
     inkscape:zoom="2.0000001"
     inkscape:cx="230.27991"
     inkscape:cy="156.76456"
     inkscape:document-units="px"
     inkscape:current-layer="layer1"
     inkscape:document-rotation="0"
     showgrid="false"
     units="px"
     inkscape:window-width="1620"
     inkscape:window-height="1018"
     inkscape:window-x="-6"
     inkscape:window-y="-6"
     inkscape:window-maximized="1"
     inkscape:snap-global="false" />
  <metadata
     id="metadata5">
    <rdf:RDF>
      <cc:Work
         rdf:about="">
        <dc:format>image/svg+xml</dc:format>
        <dc:type
           rdf:resource="http://purl.org/dc/dcmitype/StillImage" />
        <dc:title />
      </cc:Work>
    </rdf:RDF>
  </metadata>
  <g
     inkscape:label="Layer 1"
     inkscape:groupmode="layer"
     id="layer1">
    <rect
       style="opacity:0.999;fill:#000000;fill-opacity:1;stroke-width:0.0495843"
       id="rect5718"
       width="19.276785"
       height="0.5291667"
       x="-25.135416"
       y="46.037376" />
    <rect
       style="opacity:0.999;fill:#000000;fill-opacity:1;stroke-width:0.0495843"
       id="rect5720"
       width="19.276785"
       height="0.5291667"
       x="-25.135416"
       y="64.558212" />
    <rect
       style="opacity:0.999;fill:#000000;fill-opacity:1;stroke-width:0.0495843"
       id="rect5722"
       width="19.276785"
       height="0.5291667"
       x="-25.135416"
       y="83.079048" />
    <rect
       style="opacity:0.999;fill:#000000;fill-opacity:1;stroke-width:0.0495843"
       id="rect5716"
       width="19.276785"
       height="0.5291667"
       x="-25.135416"
       y="27.516544" />
    <text
       xml:space="preserve"
       style="font-size:10.5833px;line-height:1.25;font-family:Cutive;-inkscape-font-specification:Cutive;stroke-width:0.264583"
       x="6.0135646"
       y="10.022607"
       id="text839"><tspan
         sodipodi:role="line"
         id="tspan837"
         x="6.0135646"
         y="10.022607"
         style="stroke-width:0.264583" /></text>
    <text
       xml:space="preserve"
       style="font-size:10.5833px;line-height:1.25;font-family:Cutive;-inkscape-font-specification:Cutive;stroke-width:0.264583"
       x="1.8040689"
       y="10.757601"
       id="text843"><tspan
         sodipodi:role="line"
         id="tspan841"
         x="1.8040689"
         y="10.757601"
         style="stroke-width:0.264583" /></text>
    <rect
       style="opacity:0.999;fill:#9164d4;fill-opacity:1;stroke-width:0.192446"
       id="rect900"
       width="110.06667"
       height="73.025002"
       x="0.5291667"
       y="0.5291667"
       ry="2.3124845" />
    <path
       id="rect5705"
       style="opacity:0.999;fill:#aa87de;fill-opacity:1;stroke-width:0.244461"
       d="m 2.8176241,0.52916667 c -1.2678556,0 -2.28845742,1.28085163 -2.28845742,2.87200413 l 0,68.7195412 H 106.88298 c 1.26126,0 2.27654,-1.274181 2.27654,-2.857056 V 0.52916667 Z"
       sodipodi:nodetypes="sscsscs" />
    <circle
       style="opacity:0.999;fill:#4d4d4d;stroke-width:0.12015"
       id="path5070"
       cx="2.7119792"
       cy="2.7119792"
       r="1.1244792" />
    <rect
       style="opacity:0.999;fill:#333333;stroke-width:0.183696"
       id="rect5074"
       width="0.1889881"
       height="1.3281524"
       x="2.6103981"
       y="2.0263865" />
    <rect
       style="opacity:0.999;fill:#333333;stroke-width:0.183696"
       id="rect5076"
       width="0.1889881"
       height="1.3281524"
       x="2.5959685"
       y="-3.3689682"
       transform="rotate(90)" />
    <circle
       style="opacity:0.999;fill:#4d4d4d;stroke-width:0.12015"
       id="circle5078"
       cx="2.7119792"
       cy="71.371353"
       r="1.1244792" />
    <rect
       style="opacity:0.999;fill:#333333;stroke-width:0.183696"
       id="rect5080"
       width="0.1889881"
       height="1.3281524"
       x="2.6103981"
       y="70.68576" />
    <rect
       style="opacity:0.999;fill:#333333;stroke-width:0.183696"
       id="rect5082"
       width="0.1889881"
       height="1.3281524"
       x="71.255348"
       y="-3.3689682"
       transform="rotate(90)" />
    <circle
       style="opacity:0.999;fill:#4d4d4d;stroke-width:0.12015"
       id="circle5693"
       cx="108.41302"
       cy="2.7119792"
       r="1.1244792" />
    <rect
       style="opacity:0.999;fill:#333333;stroke-width:0.183696"
       id="rect5695"
       width="0.1889881"
       height="1.3281524"
       x="108.31144"
       y="2.0263865" />
    <rect
       style="opacity:0.999;fill:#333333;stroke-width:0.183696"
       id="rect5697"
       width="0.1889881"
       height="1.3281524"
       x="2.5959685"
       y="-109.07001"
       transform="rotate(90)" />
    <circle
       style="opacity:0.999;fill:#4d4d4d;stroke-width:0.12015"
       id="circle5699"
       cx="108.41302"
       cy="71.371353"
       r="1.1244792" />
    <rect
       style="opacity:0.999;fill:#333333;stroke-width:0.183696"
       id="rect5701"
       width="0.1889881"
       height="1.3281524"
       x="108.31144"
       y="70.68576" />
    <rect
       style="opacity:0.999;fill:#333333;stroke-width:0.183696"
       id="rect5703"
       width="0.1889881"
       height="1.3281524"
       x="71.255348"
       y="-109.07001"
       transform="rotate(90)" />
    <rect
       style="opacity:0.999;fill:#000000;fill-opacity:1;stroke-width:0.019329"
       id="rect2324"
       width="2.9293149"
       height="0.5291667"
       x="-32.735271"
       y="46.037376" />
    <rect
       style="opacity:0.999;fill:#000000;fill-opacity:1;stroke-width:0.019329"
       id="rect2326"
       width="2.9293149"
       height="0.5291667"
       x="-32.735271"
       y="64.558212" />
    <rect
       style="opacity:0.999;fill:#000000;fill-opacity:1;stroke-width:0.019329"
       id="rect2328"
       width="2.9293149"
       height="0.5291667"
       x="-32.735271"
       y="83.079048" />
    <rect
       style="opacity:0.999;fill:#000000;fill-opacity:1;stroke-width:0.019329"
       id="rect2330"
       width="2.9293149"
       height="0.5291667"
       x="-32.735271"
       y="27.516544" />
    <g
       aria-label="FRONT SENSOR"
       id="text11383"
       style="font-size:10.5833px;line-height:1.25;font-family:'Poiret One';-inkscape-font-specification:'Poiret One';stroke-width:0.264583"
       transform="translate(0,-1.8520833)">
      <path
         d="m 22.668212,9.8070741 h 2.825741 V 10.11399 H 23.01746 v 4.296819 h 2.063744 v 0.306916 H 23.01746 v 3.026824 h -0.349248 z"
         style="font-size:10.5833px;stroke-width:0.264583"
         id="path11435" />
      <path
         d="m 26.552268,9.8070741 h 0.455082 q 1.02658,0 1.799161,0.7619979 0.783164,0.751414 0.783164,1.777994 0,1.015997 -0.793747,1.767411 -0.793748,0.751414 -1.703911,0.751414 h -0.07408 l 2.730492,2.878658 h -0.455082 l -2.402409,-2.518826 v 2.518826 h -0.338666 z m 0.338666,4.7519019 h 0.190499 q 0.857248,0 1.513412,-0.656165 0.656165,-0.656165 0.656165,-1.555745 0,-0.89958 -0.677331,-1.566328 -0.677332,-0.666748 -1.545162,-0.666748 h -0.137583 z"
         style="font-size:10.5833px;stroke-width:0.264583"
         id="path11437" />
      <path
         d="m 34.584989,17.882132 q -1.640412,0 -2.846908,-1.238246 -1.195913,-1.238246 -1.195913,-2.889241 0,-1.661578 1.21708,-2.868074 1.217079,-1.2170798 2.920991,-1.2170798 1.703911,0 2.910407,1.2064958 1.206496,1.206496 1.206496,2.878658 0,1.661578 -1.195913,2.899824 -1.195913,1.227663 -2.857491,1.227663 z m 3.862904,-4.106321 q 0,-1.566328 -1.111246,-2.677574 -1.100663,-1.1218301 -2.666992,-1.1218301 -1.555745,0 -2.666991,1.1218301 -1.111247,1.111246 -1.111247,2.677574 0,1.555745 1.111247,2.677575 1.111246,1.12183 2.666991,1.12183 1.555745,0 2.666992,-1.12183 1.111246,-1.12183 1.111246,-2.677575 z"
         style="font-size:10.5833px;stroke-width:0.264583"
         id="path11439" />
      <path
         d="m 45.909107,9.8070741 h 0.306916 v 8.0538909 l -5.841981,-7.18606 v 7.069644 H 40.067126 V 9.6906578 l 5.841981,7.1754772 z"
         style="font-size:10.5833px;stroke-width:0.264583"
         id="path11441" />
      <path
         d="M 51.21133,9.8070741 V 10.11399 h -1.809744 v 7.630559 H 49.052337 V 10.11399 H 47.221426 V 9.8070741 Z"
         style="font-size:10.5833px;stroke-width:0.264583"
         id="path11443" />
      <path
         d="M 59.117038,10.928904 Q 58.873622,10.484405 58.45029,10.230406 58.037542,9.9764069 57.51896,9.9764069 q -0.518582,0 -0.888997,0.3280821 -0.359832,0.317499 -0.359832,0.878414 v 0.05292 q 0,0.666747 0.740831,1.217079 0.317499,0.232833 0.709081,0.465665 0.402165,0.222249 0.793747,0.486832 0.402166,0.253999 0.719665,0.550332 0.328082,0.285749 0.529165,0.709081 0.211666,0.423332 0.211666,0.93133 v 0.105833 q 0,1.005413 -0.687915,1.598078 -0.677331,0.592665 -1.682745,0.592665 -1.322912,0 -2.05316,-1.09008 V 16.23114 q 0.275166,0.603248 0.804331,0.984247 0.539748,0.370415 1.333496,0.370415 0.793747,0 1.375829,-0.507998 0.582081,-0.507998 0.582081,-1.354662 v -0.0635 q 0,-0.529165 -0.275166,-0.96308 -0.275165,-0.444499 -0.687914,-0.719665 -0.412749,-0.285749 -0.89958,-0.592665 -0.486832,-0.306915 -0.899581,-0.571498 -0.412749,-0.264582 -0.687914,-0.666748 -0.275166,-0.402165 -0.275166,-0.878414 v -0.07408 q 0,-0.740831 0.476248,-1.132413 0.476249,-0.3915818 1.174747,-0.3915818 0.973663,0 1.545161,0.7196648 z"
         style="font-size:10.5833px;stroke-width:0.264583"
         id="path11445" />
      <path
         d="m 61.191355,9.8070741 h 2.846908 V 10.11399 h -2.497659 v 4.317986 h 2.08491 v 0.306916 h -2.08491 v 2.698741 h 2.497659 v 0.306916 h -2.846908 z"
         style="font-size:10.5833px;stroke-width:0.264583"
         id="path11447" />
      <path
         d="m 70.938568,9.8070741 h 0.306916 v 8.0538909 l -5.841982,-7.18606 v 7.069644 H 65.096587 V 9.6906578 l 5.841981,7.1754772 z"
         style="font-size:10.5833px;stroke-width:0.264583"
         id="path11449" />
      <path
         d="m 76.029125,10.928904 q -0.243416,-0.444499 -0.666748,-0.698498 -0.412749,-0.2539991 -0.93133,-0.2539991 -0.518582,0 -0.888998,0.3280821 -0.359832,0.317499 -0.359832,0.878414 v 0.05292 q 0,0.666747 0.740831,1.217079 0.317499,0.232833 0.709081,0.465665 0.402166,0.222249 0.793748,0.486832 0.402165,0.253999 0.719664,0.550332 0.328082,0.285749 0.529165,0.709081 0.211666,0.423332 0.211666,0.93133 v 0.105833 q 0,1.005413 -0.687914,1.598078 -0.677332,0.592665 -1.682745,0.592665 -1.322913,0 -2.05316,-1.09008 V 16.23114 q 0.275166,0.603248 0.804331,0.984247 0.539748,0.370415 1.333495,0.370415 0.793748,0 1.375829,-0.507998 0.582082,-0.507998 0.582082,-1.354662 v -0.0635 q 0,-0.529165 -0.275166,-0.96308 -0.275166,-0.444499 -0.687915,-0.719665 -0.412748,-0.285749 -0.89958,-0.592665 -0.486832,-0.306915 -0.89958,-0.571498 -0.412749,-0.264582 -0.687915,-0.666748 -0.275166,-0.402165 -0.275166,-0.878414 v -0.07408 q 0,-0.740831 0.476249,-1.132413 0.476248,-0.3915818 1.174746,-0.3915818 0.973664,0 1.545162,0.7196648 z"
         style="font-size:10.5833px;stroke-width:0.264583"
         id="path11451" />
      <path
         d="m 81.828767,17.882132 q -1.640411,0 -2.846908,-1.238246 -1.195912,-1.238246 -1.195912,-2.889241 0,-1.661578 1.217079,-2.868074 1.21708,-1.2170798 2.920991,-1.2170798 1.703911,0 2.910407,1.2064958 1.206496,1.206496 1.206496,2.878658 0,1.661578 -1.195913,2.899824 -1.195912,1.227663 -2.85749,1.227663 z m 3.862904,-4.106321 q 0,-1.566328 -1.111246,-2.677574 -1.100663,-1.1218301 -2.666992,-1.1218301 -1.555745,0 -2.666991,1.1218301 -1.111247,1.111246 -1.111247,2.677574 0,1.555745 1.111247,2.677575 1.111246,1.12183 2.666991,1.12183 1.555745,0 2.666992,-1.12183 1.111246,-1.12183 1.111246,-2.677575 z"
         style="font-size:10.5833px;stroke-width:0.264583"
         id="path11453" />
      <path
         d="m 87.310904,9.8070741 h 0.455082 q 1.02658,0 1.799161,0.7619979 0.783164,0.751414 0.783164,1.777994 0,1.015997 -0.793747,1.767411 -0.793748,0.751414 -1.703912,0.751414 h -0.07408 l 2.730492,2.878658 H 90.051979 L 87.64957,15.225723 v 2.518826 h -0.338666 z m 0.338666,4.7519019 h 0.190499 q 0.857247,0 1.513412,-0.656165 0.656164,-0.656165 0.656164,-1.555745 0,-0.89958 -0.677331,-1.566328 Q 88.654983,10.11399 87.787153,10.11399 H 87.64957 Z"
         style="font-size:10.5833px;stroke-width:0.264583"
         id="path11455" />
    </g>
    <g
       aria-label="OUT"
       id="text1104"
       style="font-size:5.64444px;line-height:1.25;font-family:'Poiret One';-inkscape-font-specification:'Poiret One';stroke-width:0.264583"
       transform="translate(-75.147354,-9.6260788)">
      <path
         d="m 170.46192,46.251102 q 0,-0.53188 -0.36906,-0.895512 -0.36906,-0.363633 -0.92807,-0.363633 -0.53188,0 -0.89552,0.36906 -0.36363,0.369059 -0.36363,0.890085 0,0.521025 0.37449,0.895512 0.37991,0.374487 0.91179,0.374487 0.53188,0 0.90094,-0.36906 0.36906,-0.374487 0.36906,-0.900939 z m -1.21572,-2.355469 q 1.01491,0 1.6879,0.700128 0.67299,0.700128 0.67299,1.671623 0,0.976922 -0.72183,1.666195 -0.71641,0.689273 -1.7259,0.689273 -0.99863,0 -1.69876,-0.700128 -0.70013,-0.700127 -0.70013,-1.682477 0,-0.461324 0.1791,-0.884657 0.17911,-0.423333 0.49389,-0.748974 0.32022,-0.325641 0.7924,-0.515598 0.47218,-0.195385 1.02034,-0.195385 z"
         style="font-style:normal;font-variant:normal;font-weight:normal;font-stretch:normal;font-size:5.64444px;font-family:RubberNippleFactory;-inkscape-font-specification:RubberNippleFactory;stroke-width:0.264583"
         id="path1137" />
      <path
         d="m 174.91777,43.955334 h 1.16145 v 2.767947 q 0,0.835811 -0.53188,1.367691 -0.53188,0.53188 -1.36769,0.53188 -0.83581,0 -1.36769,-0.526453 -0.52645,-0.531879 -0.52645,-1.367691 v -2.773374 h 1.16145 v 2.82222 q 0,0.303932 0.21167,0.521026 0.21709,0.217093 0.52102,0.217093 0.30393,0 0.52103,-0.211666 0.21709,-0.217094 0.21709,-0.521025 z"
         style="font-style:normal;font-variant:normal;font-weight:normal;font-stretch:normal;font-size:5.64444px;font-family:RubberNippleFactory;-inkscape-font-specification:RubberNippleFactory;stroke-width:0.264583"
         id="path1139" />
      <path
         d="m 180.1443,43.955334 v 1.036623 h -1.16145 v 3.522348 h -1.2103 v -3.53863 h -1.1506 v -1.020341 h 1.1506 1.2103 z"
         style="font-style:normal;font-variant:normal;font-weight:normal;font-stretch:normal;font-size:5.64444px;font-family:RubberNippleFactory;-inkscape-font-specification:RubberNippleFactory;stroke-width:0.264583"
         id="path1141" />
    </g>
    <path
       style="opacity:0.999;fill:none;stroke:#000000;stroke-width:0.449792;stroke-miterlimit:4;stroke-dasharray:none"
       d="m 109.08745,5.3152038 h -2.74033 V 67.775771 h 3.1183"
       id="path2393"
       sodipodi:nodetypes="cccc" />
    <g
       aria-label="SENSE ROVERS"
       id="text6076"
       style="font-size:5.64444px;line-height:1.25;font-family:'Poiret One';-inkscape-font-specification:'Poiret One';stroke-width:0.264583">
      <path
         d="m 6.7889351,25.153737 -0.4830338,0.900939 q -0.26594,-0.249657 -0.5644441,-0.249657 -0.1628203,0 -0.2713673,0.07598 -0.1031196,0.07056 -0.1031196,0.18453 0,0.211667 0.1953845,0.36906 0.1953845,0.157393 0.7923926,0.477606 0.2008118,0.108547 0.3364954,0.211667 0.1356837,0.103119 0.2550853,0.255085 0.124829,0.146538 0.1845298,0.352778 0.059701,0.206239 0.059701,0.472179 0,0.130256 -0.037991,0.287649 -0.037991,0.157393 -0.1519657,0.363632 -0.1139743,0.200812 -0.2876494,0.363632 -0.173675,0.162821 -0.4830338,0.276795 -0.3093587,0.113974 -0.6947003,0.113974 -0.8195293,0 -1.5630758,-0.553589 l 0.5970081,-0.852093 q 0.4287604,0.42876 0.9280763,0.42876 0.2225212,0 0.3582048,-0.113974 0.1356837,-0.119402 0.1356837,-0.309359 0,-0.04885 -0.010855,-0.08684 -0.00543,-0.04342 -0.027137,-0.08141 -0.021709,-0.04342 -0.043419,-0.07055 -0.016282,-0.03256 -0.065128,-0.07056 -0.048846,-0.03799 -0.075983,-0.0597 -0.027137,-0.02171 -0.097692,-0.0597 -0.065128,-0.03799 -0.1031195,-0.0597 -0.032564,-0.02171 -0.124829,-0.07056 Q 5.3506883,27.60147 5.3072695,27.579761 5.0738936,27.449505 4.9002186,27.330103 4.7265435,27.205274 4.5474411,27.026171 4.373766,26.841642 4.2760737,26.602838 q -0.092265,-0.238803 -0.092265,-0.521025 0,-0.499316 0.3853416,-0.846666 0.3853416,-0.352777 1.080042,-0.352777 0.3419228,0 0.6567089,0.08141 0.3202134,0.07598 0.4830338,0.189957 z"
         style="font-style:normal;font-variant:normal;font-weight:normal;font-stretch:normal;font-family:RubberNippleFactory;-inkscape-font-specification:RubberNippleFactory;stroke-width:0.264583"
         id="path6134" />
      <path
         d="m 8.9273083,28.524119 h 1.5088027 v 0.976922 H 7.7767109 v -4.55897 h 2.6594001 v 0.971494 H 8.9273083 v 0.759829 h 1.5088027 v 0.976922 H 8.9273083 Z"
         style="font-style:normal;font-variant:normal;font-weight:normal;font-stretch:normal;font-family:RubberNippleFactory;-inkscape-font-specification:RubberNippleFactory;stroke-width:0.264583"
         id="path6136" />
      <path
         d="M 11.250204,29.501041 V 24.88237 h 0.162821 l 2.941622,2.344613 v -2.203502 h 1.161452 v 4.651235 H 15.39127 l -2.947049,-2.577989 v 2.404314 z"
         style="font-style:normal;font-variant:normal;font-weight:normal;font-stretch:normal;font-family:RubberNippleFactory;-inkscape-font-specification:RubberNippleFactory;stroke-width:0.264583"
         id="path6138" />
      <path
         d="m 18.875624,25.153737 -0.483034,0.900939 q -0.26594,-0.249657 -0.564444,-0.249657 -0.16282,0 -0.271367,0.07598 -0.10312,0.07056 -0.10312,0.18453 0,0.211667 0.195385,0.36906 0.195384,0.157393 0.792392,0.477606 0.200812,0.108547 0.336496,0.211667 0.135684,0.103119 0.255085,0.255085 0.124829,0.146538 0.18453,0.352778 0.0597,0.206239 0.0597,0.472179 0,0.130256 -0.03799,0.287649 -0.03799,0.157393 -0.151965,0.363632 -0.113975,0.200812 -0.28765,0.363632 -0.173675,0.162821 -0.483034,0.276795 -0.309358,0.113974 -0.6947,0.113974 -0.819529,0 -1.563076,-0.553589 l 0.597008,-0.852093 q 0.428761,0.42876 0.928077,0.42876 0.222521,0 0.358205,-0.113974 0.135683,-0.119402 0.135683,-0.309359 0,-0.04885 -0.01085,-0.08684 -0.0054,-0.04342 -0.02714,-0.08141 -0.02171,-0.04342 -0.04342,-0.07055 -0.01628,-0.03256 -0.06513,-0.07056 -0.04885,-0.03799 -0.07598,-0.0597 -0.02714,-0.02171 -0.09769,-0.0597 -0.06513,-0.03799 -0.10312,-0.0597 -0.03256,-0.02171 -0.124829,-0.07056 -0.09226,-0.04885 -0.135683,-0.07055 -0.233376,-0.130256 -0.407051,-0.249658 -0.173676,-0.124829 -0.352778,-0.303932 -0.173675,-0.184529 -0.271367,-0.423333 -0.09227,-0.238803 -0.09227,-0.521025 0,-0.499316 0.385341,-0.846666 0.385342,-0.352777 1.080042,-0.352777 0.341923,0 0.656709,0.08141 0.320214,0.07598 0.483034,0.189957 z"
         style="font-style:normal;font-variant:normal;font-weight:normal;font-stretch:normal;font-family:RubberNippleFactory;-inkscape-font-specification:RubberNippleFactory;stroke-width:0.264583"
         id="path6140" />
      <path
         d="M 21.013997,28.524119 H 22.5228 v 0.976922 h -2.6594 v -4.55897 h 2.6594 v 0.971494 h -1.508803 v 0.759829 H 22.5228 v 0.976922 h -1.508803 z"
         style="font-style:normal;font-variant:normal;font-weight:normal;font-stretch:normal;font-family:RubberNippleFactory;-inkscape-font-specification:RubberNippleFactory;stroke-width:0.264583"
         id="path6142" />
      <path
         d="m 27.868716,29.501041 -1.552221,-1.829015 v 1.829015 h -1.172307 v -4.55897 h 1.899572 q 0.602435,0 1.031195,0.42876 0.428761,0.423333 0.428761,1.025768 0,0.385342 -0.189957,0.71641 -0.189958,0.325641 -0.521026,0.526453 l -0.03256,0.02171 1.628204,1.83987 z m -1.552221,-2.632263 h 0.569871 q 0.195385,0 0.331069,-0.135683 0.135683,-0.141111 0.135683,-0.336496 0,-0.195384 -0.135683,-0.331068 -0.135684,-0.135683 -0.331069,-0.135683 h -0.569871 z"
         style="font-style:normal;font-variant:normal;font-weight:normal;font-stretch:normal;font-family:RubberNippleFactory;-inkscape-font-specification:RubberNippleFactory;stroke-width:0.264583"
         id="path6144" />
      <path
         d="m 33.361187,27.237838 q 0,-0.53188 -0.36906,-0.895512 -0.36906,-0.363632 -0.928076,-0.363632 -0.53188,0 -0.895512,0.369059 -0.363633,0.36906 -0.363633,0.890085 0,0.521025 0.374487,0.895512 0.379915,0.374487 0.911795,0.374487 0.531879,0 0.900939,-0.36906 0.36906,-0.374486 0.36906,-0.900939 z M 32.145461,24.88237 q 1.014914,0 1.687905,0.700127 0.672991,0.700128 0.672991,1.671623 0,0.976922 -0.721837,1.666195 -0.71641,0.689273 -1.725897,0.689273 -0.998631,0 -1.698759,-0.700127 -0.700128,-0.700128 -0.700128,-1.682478 0,-0.461324 0.179103,-0.884657 0.179102,-0.423333 0.493888,-0.748974 0.320214,-0.325641 0.792393,-0.515598 0.472179,-0.195384 1.020341,-0.195384 z"
         style="font-style:normal;font-variant:normal;font-weight:normal;font-stretch:normal;font-family:RubberNippleFactory;-inkscape-font-specification:RubberNippleFactory;stroke-width:0.264583"
         id="path6146" />
      <path
         d="m 37.122335,27.297539 q 0.260513,-0.672991 0.347351,-0.873803 0,0 0.705555,-1.481665 h 1.210298 L 37.2146,29.609588 h -0.189957 l -2.246921,-4.667517 h 1.286281 q 0.645854,1.351409 0.79782,1.682477 0.06513,0.146538 0.130256,0.314786 0.06513,0.168248 0.09769,0.260513 z"
         style="font-style:normal;font-variant:normal;font-weight:normal;font-stretch:normal;font-family:RubberNippleFactory;-inkscape-font-specification:RubberNippleFactory;stroke-width:0.264583"
         id="path6148" />
      <path
         d="m 40.943183,28.524119 h 1.508802 v 0.976922 h -2.659399 v -4.55897 h 2.659399 v 0.971494 h -1.508802 v 0.759829 h 1.508802 v 0.976922 h -1.508802 z"
         style="font-style:normal;font-variant:normal;font-weight:normal;font-stretch:normal;font-family:RubberNippleFactory;-inkscape-font-specification:RubberNippleFactory;stroke-width:0.264583"
         id="path6150" />
      <path
         d="m 45.990605,29.501041 -1.552221,-1.829015 v 1.829015 h -1.172307 v -4.55897 h 1.899572 q 0.602435,0 1.031195,0.42876 0.428761,0.423333 0.428761,1.025768 0,0.385342 -0.189957,0.71641 -0.189957,0.325641 -0.521026,0.526453 l -0.03256,0.02171 1.628204,1.83987 z m -1.552221,-2.632263 h 0.569872 q 0.195384,0 0.331068,-0.135683 0.135683,-0.141111 0.135683,-0.336496 0,-0.195384 -0.135683,-0.331068 -0.135684,-0.135683 -0.331068,-0.135683 h -0.569872 z"
         style="font-style:normal;font-variant:normal;font-weight:normal;font-stretch:normal;font-family:RubberNippleFactory;-inkscape-font-specification:RubberNippleFactory;stroke-width:0.264583"
         id="path6152" />
      <path
         d="m 50.462733,25.153737 -0.483034,0.900939 q -0.26594,-0.249657 -0.564444,-0.249657 -0.162821,0 -0.271367,0.07598 -0.10312,0.07056 -0.10312,0.18453 0,0.211667 0.195384,0.36906 0.195385,0.157393 0.792393,0.477606 0.200812,0.108547 0.336495,0.211667 0.135684,0.103119 0.255086,0.255085 0.124829,0.146538 0.18453,0.352778 0.0597,0.206239 0.0597,0.472179 0,0.130256 -0.03799,0.287649 -0.03799,0.157393 -0.151966,0.363632 -0.113974,0.200812 -0.287649,0.363632 -0.173675,0.162821 -0.483034,0.276795 -0.309359,0.113974 -0.6947,0.113974 -0.81953,0 -1.563076,-0.553589 l 0.597008,-0.852093 q 0.42876,0.42876 0.928076,0.42876 0.222521,0 0.358205,-0.113974 0.135684,-0.119402 0.135684,-0.309359 0,-0.04885 -0.01085,-0.08684 -0.0054,-0.04342 -0.02714,-0.08141 -0.02171,-0.04342 -0.04342,-0.07055 -0.01628,-0.03256 -0.06513,-0.07056 -0.04885,-0.03799 -0.07598,-0.0597 -0.02714,-0.02171 -0.09769,-0.0597 -0.06513,-0.03799 -0.103119,-0.0597 -0.03256,-0.02171 -0.124829,-0.07056 -0.09226,-0.04885 -0.135684,-0.07055 -0.233376,-0.130256 -0.407051,-0.249658 -0.173675,-0.124829 -0.352777,-0.303932 -0.173675,-0.184529 -0.271368,-0.423333 -0.09227,-0.238803 -0.09227,-0.521025 0,-0.499316 0.385342,-0.846666 0.385342,-0.352777 1.080042,-0.352777 0.341923,0 0.656709,0.08141 0.320213,0.07598 0.483034,0.189957 z"
         style="font-style:normal;font-variant:normal;font-weight:normal;font-stretch:normal;font-family:RubberNippleFactory;-inkscape-font-specification:RubberNippleFactory;stroke-width:0.264583"
         id="path6154" />
    </g>
    <g
       aria-label="SENSE ROCKS"
       id="text6080"
       style="font-size:5.64444px;line-height:1.25;font-family:'Poiret One';-inkscape-font-specification:'Poiret One';stroke-width:0.264583">
      <path
         d="m 6.7889351,43.674546 -0.4830338,0.90094 q -0.26594,-0.249658 -0.5644441,-0.249658 -0.1628203,0 -0.2713673,0.07598 -0.1031196,0.07055 -0.1031196,0.184529 0,0.211667 0.1953845,0.36906 0.1953845,0.157393 0.7923926,0.477606 0.2008118,0.108547 0.3364954,0.211667 0.1356837,0.103119 0.2550853,0.255085 0.124829,0.146539 0.1845298,0.352778 0.059701,0.206239 0.059701,0.472179 0,0.130256 -0.037991,0.287649 -0.037991,0.157393 -0.1519657,0.363632 -0.1139743,0.200812 -0.2876494,0.363633 -0.173675,0.16282 -0.4830338,0.276794 -0.3093587,0.113975 -0.6947003,0.113975 -0.8195293,0 -1.5630758,-0.55359 l 0.5970081,-0.852093 q 0.4287604,0.42876 0.9280763,0.42876 0.2225212,0 0.3582048,-0.113974 0.1356837,-0.119402 0.1356837,-0.309359 0,-0.04885 -0.010855,-0.08684 -0.00543,-0.04342 -0.027137,-0.08141 -0.021709,-0.04342 -0.043419,-0.07055 -0.016282,-0.03256 -0.065128,-0.07056 -0.048846,-0.03799 -0.075983,-0.0597 -0.027137,-0.02171 -0.097692,-0.0597 -0.065128,-0.03799 -0.1031195,-0.0597 -0.032564,-0.02171 -0.124829,-0.07056 Q 5.3506883,46.122279 5.3072695,46.10057 5.0738936,45.970314 4.9002186,45.850912 4.7265435,45.726083 4.5474411,45.546981 4.373766,45.362451 4.2760737,45.123648 q -0.092265,-0.238804 -0.092265,-0.521026 0,-0.499315 0.3853416,-0.846666 0.3853416,-0.352777 1.080042,-0.352777 0.3419228,0 0.6567089,0.08141 0.3202134,0.07598 0.4830338,0.189957 z"
         style="font-style:normal;font-variant:normal;font-weight:normal;font-stretch:normal;font-family:RubberNippleFactory;-inkscape-font-specification:RubberNippleFactory;stroke-width:0.264583"
         id="path6157" />
      <path
         d="m 8.9273083,47.044928 h 1.5088027 v 0.976923 H 7.7767109 V 43.46288 h 2.6594001 v 0.971495 H 8.9273083 v 0.759828 h 1.5088027 v 0.976922 H 8.9273083 Z"
         style="font-style:normal;font-variant:normal;font-weight:normal;font-stretch:normal;font-family:RubberNippleFactory;-inkscape-font-specification:RubberNippleFactory;stroke-width:0.264583"
         id="path6159" />
      <path
         d="m 11.250204,48.021851 v -4.618672 h 0.162821 l 2.941622,2.344613 V 43.54429 h 1.161452 v 4.651236 H 15.39127 l -2.947049,-2.57799 v 2.404315 z"
         style="font-style:normal;font-variant:normal;font-weight:normal;font-stretch:normal;font-family:RubberNippleFactory;-inkscape-font-specification:RubberNippleFactory;stroke-width:0.264583"
         id="path6161" />
      <path
         d="m 18.875624,43.674546 -0.483034,0.90094 q -0.26594,-0.249658 -0.564444,-0.249658 -0.16282,0 -0.271367,0.07598 -0.10312,0.07055 -0.10312,0.184529 0,0.211667 0.195385,0.36906 0.195384,0.157393 0.792392,0.477606 0.200812,0.108547 0.336496,0.211667 0.135684,0.103119 0.255085,0.255085 0.124829,0.146539 0.18453,0.352778 0.0597,0.206239 0.0597,0.472179 0,0.130256 -0.03799,0.287649 -0.03799,0.157393 -0.151965,0.363632 -0.113975,0.200812 -0.28765,0.363633 -0.173675,0.16282 -0.483034,0.276794 -0.309358,0.113975 -0.6947,0.113975 -0.819529,0 -1.563076,-0.55359 l 0.597008,-0.852093 q 0.428761,0.42876 0.928077,0.42876 0.222521,0 0.358205,-0.113974 0.135683,-0.119402 0.135683,-0.309359 0,-0.04885 -0.01085,-0.08684 -0.0054,-0.04342 -0.02714,-0.08141 -0.02171,-0.04342 -0.04342,-0.07055 -0.01628,-0.03256 -0.06513,-0.07056 -0.04885,-0.03799 -0.07598,-0.0597 -0.02714,-0.02171 -0.09769,-0.0597 -0.06513,-0.03799 -0.10312,-0.0597 -0.03256,-0.02171 -0.124829,-0.07056 -0.09226,-0.04885 -0.135683,-0.07056 -0.233376,-0.130256 -0.407051,-0.249658 -0.173676,-0.124829 -0.352778,-0.303931 -0.173675,-0.18453 -0.271367,-0.423333 -0.09227,-0.238804 -0.09227,-0.521026 0,-0.499315 0.385341,-0.846666 0.385342,-0.352777 1.080042,-0.352777 0.341923,0 0.656709,0.08141 0.320214,0.07598 0.483034,0.189957 z"
         style="font-style:normal;font-variant:normal;font-weight:normal;font-stretch:normal;font-family:RubberNippleFactory;-inkscape-font-specification:RubberNippleFactory;stroke-width:0.264583"
         id="path6163" />
      <path
         d="M 21.013997,47.044928 H 22.5228 v 0.976923 H 19.8634 V 43.46288 h 2.6594 v 0.971495 h -1.508803 v 0.759828 H 22.5228 v 0.976922 h -1.508803 z"
         style="font-style:normal;font-variant:normal;font-weight:normal;font-stretch:normal;font-family:RubberNippleFactory;-inkscape-font-specification:RubberNippleFactory;stroke-width:0.264583"
         id="path6165" />
      <path
         d="m 27.868716,48.021851 -1.552221,-1.829016 v 1.829016 H 25.144188 V 43.46288 h 1.899572 q 0.602435,0 1.031195,0.42876 0.428761,0.423333 0.428761,1.025768 0,0.385342 -0.189957,0.71641 -0.189958,0.325641 -0.521026,0.526453 l -0.03256,0.02171 1.628204,1.839871 z m -1.552221,-2.632263 h 0.569871 q 0.195385,0 0.331069,-0.135684 0.135683,-0.141111 0.135683,-0.336496 0,-0.195384 -0.135683,-0.331068 -0.135684,-0.135683 -0.331069,-0.135683 h -0.569871 z"
         style="font-style:normal;font-variant:normal;font-weight:normal;font-stretch:normal;font-family:RubberNippleFactory;-inkscape-font-specification:RubberNippleFactory;stroke-width:0.264583"
         id="path6167" />
      <path
         d="m 33.361187,45.758647 q 0,-0.53188 -0.36906,-0.895512 -0.36906,-0.363632 -0.928076,-0.363632 -0.53188,0 -0.895512,0.369059 -0.363633,0.36906 -0.363633,0.890085 0,0.521025 0.374487,0.895512 0.379915,0.374487 0.911795,0.374487 0.531879,0 0.900939,-0.369059 0.36906,-0.374487 0.36906,-0.90094 z m -1.215726,-2.355468 q 1.014914,0 1.687905,0.700128 0.672991,0.700127 0.672991,1.671622 0,0.976923 -0.721837,1.666196 -0.71641,0.689273 -1.725897,0.689273 -0.998631,0 -1.698759,-0.700128 -0.700128,-0.700128 -0.700128,-1.682478 0,-0.461324 0.179103,-0.884657 0.179102,-0.423333 0.493888,-0.748974 0.320214,-0.325641 0.792393,-0.515598 0.472179,-0.195384 1.020341,-0.195384 z"
         style="font-style:normal;font-variant:normal;font-weight:normal;font-stretch:normal;font-family:RubberNippleFactory;-inkscape-font-specification:RubberNippleFactory;stroke-width:0.264583"
         id="path6169" />
      <path
         d="m 38.799386,47.864458 q -0.466752,0.26594 -1.438247,0.26594 -0.656709,0 -1.188589,-0.325641 -0.53188,-0.325641 -0.830384,-0.868376 -0.293077,-0.542734 -0.293077,-1.188589 0,-0.282222 0.07598,-0.580726 0.08141,-0.298504 0.271367,-0.618717 0.189957,-0.325641 0.472179,-0.575299 0.282223,-0.249658 0.732692,-0.412478 0.45047,-0.16282 1.004059,-0.16282 0.803248,0 1.204871,0.276794 v 1.221153 q -0.200812,-0.206239 -0.526452,-0.336495 -0.325641,-0.130257 -0.71641,-0.130257 -0.553589,0 -0.966068,0.396197 -0.407051,0.390769 -0.407051,0.933503 0,0.542735 0.390769,0.933504 0.396196,0.390769 0.944358,0.390769 0.754402,0 1.275427,-0.374487 z"
         style="font-style:normal;font-variant:normal;font-weight:normal;font-stretch:normal;font-family:RubberNippleFactory;-inkscape-font-specification:RubberNippleFactory;stroke-width:0.264583"
         id="path6171" />
      <path
         d="m 44.063904,48.021851 h -1.617349 l -1.617349,-1.888717 v 1.888717 H 39.624335 V 43.46288 h 1.204871 v 1.405682 l 1.487092,-1.405682 h 1.682478 l -2.192648,2.073246 z"
         style="font-style:normal;font-variant:normal;font-weight:normal;font-stretch:normal;font-family:RubberNippleFactory;-inkscape-font-specification:RubberNippleFactory;stroke-width:0.264583"
         id="path6173" />
      <path
         d="m 47.016371,43.674546 -0.483034,0.90094 q -0.26594,-0.249658 -0.564444,-0.249658 -0.16282,0 -0.271367,0.07598 -0.10312,0.07055 -0.10312,0.184529 0,0.211667 0.195385,0.36906 0.195384,0.157393 0.792392,0.477606 0.200812,0.108547 0.336496,0.211667 0.135684,0.103119 0.255085,0.255085 0.124829,0.146539 0.18453,0.352778 0.0597,0.206239 0.0597,0.472179 0,0.130256 -0.03799,0.287649 -0.03799,0.157393 -0.151965,0.363632 -0.113975,0.200812 -0.28765,0.363633 -0.173675,0.16282 -0.483034,0.276794 -0.309358,0.113975 -0.6947,0.113975 -0.819529,0 -1.563076,-0.55359 l 0.597009,-0.852093 q 0.42876,0.42876 0.928076,0.42876 0.222521,0 0.358205,-0.113974 0.135683,-0.119402 0.135683,-0.309359 0,-0.04885 -0.01085,-0.08684 -0.0054,-0.04342 -0.02714,-0.08141 -0.02171,-0.04342 -0.04342,-0.07055 -0.01628,-0.03256 -0.06513,-0.07056 -0.04885,-0.03799 -0.07598,-0.0597 -0.02714,-0.02171 -0.09769,-0.0597 -0.06513,-0.03799 -0.10312,-0.0597 -0.03256,-0.02171 -0.124829,-0.07056 -0.09226,-0.04885 -0.135683,-0.07056 -0.233376,-0.130256 -0.407051,-0.249658 -0.173675,-0.124829 -0.352778,-0.303931 -0.173675,-0.18453 -0.271367,-0.423333 -0.09226,-0.238804 -0.09226,-0.521026 0,-0.499315 0.385342,-0.846666 0.385341,-0.352777 1.080041,-0.352777 0.341923,0 0.656709,0.08141 0.320214,0.07598 0.483034,0.189957 z"
         style="font-style:normal;font-variant:normal;font-weight:normal;font-stretch:normal;font-family:RubberNippleFactory;-inkscape-font-specification:RubberNippleFactory;stroke-width:0.264583"
         id="path6175" />
    </g>
  </g>
</svg>
