<?xml version="1.0" encoding="UTF-8" standalone="no"?>
<svg
   xmlns:dc="http://purl.org/dc/elements/1.1/"
   xmlns:cc="http://creativecommons.org/ns#"
   xmlns:rdf="http://www.w3.org/1999/02/22-rdf-syntax-ns#"
   xmlns:svg="http://www.w3.org/2000/svg"
   xmlns="http://www.w3.org/2000/svg"
   xmlns:sodipodi="http://sodipodi.sourceforge.net/DTD/sodipodi-0.dtd"
   xmlns:inkscape="http://www.inkscape.org/namespaces/inkscape"
   width="420"
   height="280"
   viewBox="0 0 111.125 74.083336"
   version="1.1"
   id="svg8"
   inkscape:version="1.0.1 (3bc2e813f5, 2020-09-07)"
   sodipodi:docname="front_sensor.svg">
  <defs
     id="defs2" />
  <sodipodi:namedview
     id="base"
     pagecolor="#ffffff"
     bordercolor="#666666"
     borderopacity="1.0"
     inkscape:pageopacity="0.0"
     inkscape:pageshadow="2"
     inkscape:zoom="0.7071068"
     inkscape:cx="-131.0499"
     inkscape:cy="282.66784"
     inkscape:document-units="px"
     inkscape:current-layer="layer1"
     inkscape:document-rotation="0"
     showgrid="false"
     units="px"
     inkscape:window-width="1620"
     inkscape:window-height="1018"
     inkscape:window-x="-6"
     inkscape:window-y="-6"
     inkscape:window-maximized="1"
     inkscape:snap-global="false" />
  <metadata
     id="metadata5">
    <rdf:RDF>
      <cc:Work
         rdf:about="">
        <dc:format>image/svg+xml</dc:format>
        <dc:type
           rdf:resource="http://purl.org/dc/dcmitype/StillImage" />
        <dc:title></dc:title>
      </cc:Work>
    </rdf:RDF>
  </metadata>
  <g
     inkscape:label="Layer 1"
     inkscape:groupmode="layer"
     id="layer1">
    <rect
       style="opacity:0.999;fill:#000000;fill-opacity:1;stroke-width:0.0495843"
       id="rect5718"
       width="19.276785"
       height="0.5291667"
       x="-25.135416"
       y="46.037376" />
    <rect
       style="opacity:0.999;fill:#000000;fill-opacity:1;stroke-width:0.0495843"
       id="rect5720"
       width="19.276785"
       height="0.5291667"
       x="-25.135416"
       y="64.558212" />
    <rect
       style="opacity:0.999;fill:#000000;fill-opacity:1;stroke-width:0.0495843"
       id="rect5722"
       width="19.276785"
       height="0.5291667"
       x="-25.135416"
       y="83.079048" />
    <rect
       style="opacity:0.999;fill:#000000;fill-opacity:1;stroke-width:0.0495843"
       id="rect5716"
       width="19.276785"
       height="0.5291667"
       x="-25.135416"
       y="27.516544" />
    <text
       xml:space="preserve"
       style="font-size:10.5833px;line-height:1.25;font-family:Cutive;-inkscape-font-specification:Cutive;stroke-width:0.264583"
       x="6.0135646"
       y="10.022607"
       id="text839"><tspan
         sodipodi:role="line"
         id="tspan837"
         x="6.0135646"
         y="10.022607"
         style="stroke-width:0.264583" /></text>
    <text
       xml:space="preserve"
       style="font-size:10.5833px;line-height:1.25;font-family:Cutive;-inkscape-font-specification:Cutive;stroke-width:0.264583"
       x="1.8040689"
       y="10.757601"
       id="text843"><tspan
         sodipodi:role="line"
         id="tspan841"
         x="1.8040689"
         y="10.757601"
         style="stroke-width:0.264583" /></text>
    <rect
       style="opacity:0.999;fill:#9164d4;fill-opacity:1;stroke-width:0.192446"
       id="rect900"
       width="110.06667"
       height="73.025002"
       x="0.5291667"
       y="0.5291667"
       ry="2.3124845" />
    <path
       id="rect5705"
       style="opacity:0.999;fill:#aa87de;fill-opacity:1;stroke-width:0.244461"
       d="m 2.8176241,0.52916667 c -1.2678556,0 -2.28845742,1.28085163 -2.28845742,2.87200413 l 0,68.7195412 H 106.88298 c 1.26126,0 2.27654,-1.274181 2.27654,-2.857056 V 0.52916667 Z"
       sodipodi:nodetypes="sscsscs" />
    <circle
       style="opacity:0.999;fill:#4d4d4d;stroke-width:0.12015"
       id="path5070"
       cx="2.7119792"
       cy="2.7119792"
       r="1.1244792" />
    <rect
       style="opacity:0.999;fill:#333333;stroke-width:0.183696"
       id="rect5074"
       width="0.1889881"
       height="1.3281524"
       x="2.6103981"
       y="2.0263865" />
    <rect
       style="opacity:0.999;fill:#333333;stroke-width:0.183696"
       id="rect5076"
       width="0.1889881"
       height="1.3281524"
       x="2.5959685"
       y="-3.3689682"
       transform="rotate(90)" />
    <circle
       style="opacity:0.999;fill:#4d4d4d;stroke-width:0.12015"
       id="circle5078"
       cx="2.7119792"
       cy="71.371353"
       r="1.1244792" />
    <rect
       style="opacity:0.999;fill:#333333;stroke-width:0.183696"
       id="rect5080"
       width="0.1889881"
       height="1.3281524"
       x="2.6103981"
       y="70.68576" />
    <rect
       style="opacity:0.999;fill:#333333;stroke-width:0.183696"
       id="rect5082"
       width="0.1889881"
       height="1.3281524"
       x="71.255348"
       y="-3.3689682"
       transform="rotate(90)" />
    <circle
       style="opacity:0.999;fill:#4d4d4d;stroke-width:0.12015"
       id="circle5693"
       cx="108.41302"
       cy="2.7119792"
       r="1.1244792" />
    <rect
       style="opacity:0.999;fill:#333333;stroke-width:0.183696"
       id="rect5695"
       width="0.1889881"
       height="1.3281524"
       x="108.31144"
       y="2.0263865" />
    <rect
       style="opacity:0.999;fill:#333333;stroke-width:0.183696"
       id="rect5697"
       width="0.1889881"
       height="1.3281524"
       x="2.5959685"
       y="-109.07001"
       transform="rotate(90)" />
    <circle
       style="opacity:0.999;fill:#4d4d4d;stroke-width:0.12015"
       id="circle5699"
       cx="108.41302"
       cy="71.371353"
       r="1.1244792" />
    <rect
       style="opacity:0.999;fill:#333333;stroke-width:0.183696"
       id="rect5701"
       width="0.1889881"
       height="1.3281524"
       x="108.31144"
       y="70.68576" />
    <rect
       style="opacity:0.999;fill:#333333;stroke-width:0.183696"
       id="rect5703"
       width="0.1889881"
       height="1.3281524"
       x="71.255348"
       y="-109.07001"
       transform="rotate(90)" />
    <rect
       style="opacity:0.999;fill:#000000;fill-opacity:1;stroke-width:0.019329"
       id="rect2324"
       width="2.9293149"
       height="0.5291667"
       x="-32.735271"
       y="46.037376" />
    <rect
       style="opacity:0.999;fill:#000000;fill-opacity:1;stroke-width:0.019329"
       id="rect2326"
       width="2.9293149"
       height="0.5291667"
       x="-32.735271"
       y="64.558212" />
    <rect
       style="opacity:0.999;fill:#000000;fill-opacity:1;stroke-width:0.019329"
       id="rect2328"
       width="2.9293149"
       height="0.5291667"
       x="-32.735271"
       y="83.079048" />
    <rect
       style="opacity:0.999;fill:#000000;fill-opacity:1;stroke-width:0.019329"
       id="rect2330"
       width="2.9293149"
       height="0.5291667"
       x="-32.735271"
       y="27.516544" />
    <g
       aria-label="FRONT SENSOR"
       id="text11383"
       style="font-size:10.5833px;line-height:1.25;font-family:'Poiret One';-inkscape-font-specification:'Poiret One';stroke-width:0.264583">
      <path
         d="m 22.668212,9.8070741 h 2.825741 V 10.11399 H 23.01746 v 4.296819 h 2.063744 v 0.306916 H 23.01746 v 3.026824 h -0.349248 z"
         style="font-size:10.5833px;stroke-width:0.264583"
         id="path11435" />
      <path
         d="m 26.552268,9.8070741 h 0.455082 q 1.02658,0 1.799161,0.7619979 0.783164,0.751414 0.783164,1.777994 0,1.015997 -0.793747,1.767411 -0.793748,0.751414 -1.703911,0.751414 h -0.07408 l 2.730492,2.878658 h -0.455082 l -2.402409,-2.518826 v 2.518826 h -0.338666 z m 0.338666,4.7519019 h 0.190499 q 0.857248,0 1.513412,-0.656165 0.656165,-0.656165 0.656165,-1.555745 0,-0.89958 -0.677331,-1.566328 -0.677332,-0.666748 -1.545162,-0.666748 h -0.137583 z"
         style="font-size:10.5833px;stroke-width:0.264583"
         id="path11437" />
      <path
         d="m 34.584989,17.882132 q -1.640412,0 -2.846908,-1.238246 -1.195913,-1.238246 -1.195913,-2.889241 0,-1.661578 1.21708,-2.868074 1.217079,-1.2170798 2.920991,-1.2170798 1.703911,0 2.910407,1.2064958 1.206496,1.206496 1.206496,2.878658 0,1.661578 -1.195913,2.899824 -1.195913,1.227663 -2.857491,1.227663 z m 3.862904,-4.106321 q 0,-1.566328 -1.111246,-2.677574 -1.100663,-1.1218301 -2.666992,-1.1218301 -1.555745,0 -2.666991,1.1218301 -1.111247,1.111246 -1.111247,2.677574 0,1.555745 1.111247,2.677575 1.111246,1.12183 2.666991,1.12183 1.555745,0 2.666992,-1.12183 1.111246,-1.12183 1.111246,-2.677575 z"
         style="font-size:10.5833px;stroke-width:0.264583"
         id="path11439" />
      <path
         d="m 45.909107,9.8070741 h 0.306916 v 8.0538909 l -5.841981,-7.18606 v 7.069644 H 40.067126 V 9.6906578 l 5.841981,7.1754772 z"
         style="font-size:10.5833px;stroke-width:0.264583"
         id="path11441" />
      <path
         d="M 51.21133,9.8070741 V 10.11399 h -1.809744 v 7.630559 H 49.052337 V 10.11399 H 47.221426 V 9.8070741 Z"
         style="font-size:10.5833px;stroke-width:0.264583"
         id="path11443" />
      <path
         d="M 59.117038,10.928904 Q 58.873622,10.484405 58.45029,10.230406 58.037542,9.9764069 57.51896,9.9764069 q -0.518582,0 -0.888997,0.3280821 -0.359832,0.317499 -0.359832,0.878414 v 0.05292 q 0,0.666747 0.740831,1.217079 0.317499,0.232833 0.709081,0.465665 0.402165,0.222249 0.793747,0.486832 0.402166,0.253999 0.719665,0.550332 0.328082,0.285749 0.529165,0.709081 0.211666,0.423332 0.211666,0.93133 v 0.105833 q 0,1.005413 -0.687915,1.598078 -0.677331,0.592665 -1.682745,0.592665 -1.322912,0 -2.05316,-1.09008 v -0.571498 q 0.275166,0.603248 0.804331,0.984247 0.539748,0.370415 1.333496,0.370415 0.793747,0 1.375829,-0.507998 0.582081,-0.507998 0.582081,-1.354662 v -0.0635 q 0,-0.529165 -0.275166,-0.96308 -0.275165,-0.444499 -0.687914,-0.719665 -0.412749,-0.285749 -0.89958,-0.592665 -0.486832,-0.306915 -0.899581,-0.571498 -0.412749,-0.264582 -0.687914,-0.666748 -0.275166,-0.402165 -0.275166,-0.878414 v -0.07408 q 0,-0.740831 0.476248,-1.132413 0.476249,-0.3915818 1.174747,-0.3915818 0.973663,0 1.545161,0.7196648 z"
         style="font-size:10.5833px;stroke-width:0.264583"
         id="path11445" />
      <path
         d="m 61.191355,9.8070741 h 2.846908 V 10.11399 h -2.497659 v 4.317986 h 2.08491 v 0.306916 h -2.08491 v 2.698741 h 2.497659 v 0.306916 h -2.846908 z"
         style="font-size:10.5833px;stroke-width:0.264583"
         id="path11447" />
      <path
         d="m 70.938568,9.8070741 h 0.306916 v 8.0538909 l -5.841982,-7.18606 v 7.069644 H 65.096587 V 9.6906578 l 5.841981,7.1754772 z"
         style="font-size:10.5833px;stroke-width:0.264583"
         id="path11449" />
      <path
         d="m 76.029125,10.928904 q -0.243416,-0.444499 -0.666748,-0.698498 -0.412749,-0.2539991 -0.93133,-0.2539991 -0.518582,0 -0.888998,0.3280821 -0.359832,0.317499 -0.359832,0.878414 v 0.05292 q 0,0.666747 0.740831,1.217079 0.317499,0.232833 0.709081,0.465665 0.402166,0.222249 0.793748,0.486832 0.402165,0.253999 0.719664,0.550332 0.328082,0.285749 0.529165,0.709081 0.211666,0.423332 0.211666,0.93133 v 0.105833 q 0,1.005413 -0.687914,1.598078 -0.677332,0.592665 -1.682745,0.592665 -1.322913,0 -2.05316,-1.09008 v -0.571498 q 0.275166,0.603248 0.804331,0.984247 0.539748,0.370415 1.333495,0.370415 0.793748,0 1.375829,-0.507998 0.582082,-0.507998 0.582082,-1.354662 v -0.0635 q 0,-0.529165 -0.275166,-0.96308 -0.275166,-0.444499 -0.687915,-0.719665 -0.412748,-0.285749 -0.89958,-0.592665 -0.486832,-0.306915 -0.89958,-0.571498 -0.412749,-0.264582 -0.687915,-0.666748 -0.275166,-0.402165 -0.275166,-0.878414 v -0.07408 q 0,-0.740831 0.476249,-1.132413 0.476248,-0.3915818 1.174746,-0.3915818 0.973664,0 1.545162,0.7196648 z"
         style="font-size:10.5833px;stroke-width:0.264583"
         id="path11451" />
      <path
         d="m 81.828767,17.882132 q -1.640411,0 -2.846908,-1.238246 -1.195912,-1.238246 -1.195912,-2.889241 0,-1.661578 1.217079,-2.868074 1.21708,-1.2170798 2.920991,-1.2170798 1.703911,0 2.910407,1.2064958 1.206496,1.206496 1.206496,2.878658 0,1.661578 -1.195913,2.899824 -1.195912,1.227663 -2.85749,1.227663 z m 3.862904,-4.106321 q 0,-1.566328 -1.111246,-2.677574 -1.100663,-1.1218301 -2.666992,-1.1218301 -1.555745,0 -2.666991,1.1218301 -1.111247,1.111246 -1.111247,2.677574 0,1.555745 1.111247,2.677575 1.111246,1.12183 2.666991,1.12183 1.555745,0 2.666992,-1.12183 1.111246,-1.12183 1.111246,-2.677575 z"
         style="font-size:10.5833px;stroke-width:0.264583"
         id="path11453" />
      <path
         d="m 87.310904,9.8070741 h 0.455082 q 1.02658,0 1.799161,0.7619979 0.783164,0.751414 0.783164,1.777994 0,1.015997 -0.793747,1.767411 -0.793748,0.751414 -1.703912,0.751414 h -0.07408 l 2.730492,2.878658 H 90.051979 L 87.64957,15.225723 v 2.518826 h -0.338666 z m 0.338666,4.7519019 h 0.190499 q 0.857247,0 1.513412,-0.656165 0.656164,-0.656165 0.656164,-1.555745 0,-0.89958 -0.677331,-1.566328 Q 88.654983,10.11399 87.787153,10.11399 H 87.64957 Z"
         style="font-size:10.5833px;stroke-width:0.264583"
         id="path11455" />
    </g>
    <g
       aria-label="OUT"
       id="text1104"
       style="font-size:5.64444px;line-height:1.25;font-family:'Poiret One';-inkscape-font-specification:'Poiret One';stroke-width:0.264583"
       transform="translate(-75.147354,-9.6260788)">
      <path
         d="m 170.46192,46.251102 q 0,-0.53188 -0.36906,-0.895512 -0.36906,-0.363633 -0.92807,-0.363633 -0.53188,0 -0.89552,0.36906 -0.36363,0.369059 -0.36363,0.890085 0,0.521025 0.37449,0.895512 0.37991,0.374487 0.91179,0.374487 0.53188,0 0.90094,-0.36906 0.36906,-0.374487 0.36906,-0.900939 z m -1.21572,-2.355469 q 1.01491,0 1.6879,0.700128 0.67299,0.700128 0.67299,1.671623 0,0.976922 -0.72183,1.666195 -0.71641,0.689273 -1.7259,0.689273 -0.99863,0 -1.69876,-0.700128 -0.70013,-0.700127 -0.70013,-1.682477 0,-0.461324 0.1791,-0.884657 0.17911,-0.423333 0.49389,-0.748974 0.32022,-0.325641 0.7924,-0.515598 0.47218,-0.195385 1.02034,-0.195385 z"
         style="font-style:normal;font-variant:normal;font-weight:normal;font-stretch:normal;font-size:5.64444px;font-family:RubberNippleFactory;-inkscape-font-specification:RubberNippleFactory;stroke-width:0.264583"
         id="path1137" />
      <path
         d="m 174.91777,43.955334 h 1.16145 v 2.767947 q 0,0.835811 -0.53188,1.367691 -0.53188,0.53188 -1.36769,0.53188 -0.83581,0 -1.36769,-0.526453 -0.52645,-0.531879 -0.52645,-1.367691 v -2.773374 h 1.16145 v 2.82222 q 0,0.303932 0.21167,0.521026 0.21709,0.217093 0.52102,0.217093 0.30393,0 0.52103,-0.211666 0.21709,-0.217094 0.21709,-0.521025 z"
         style="font-style:normal;font-variant:normal;font-weight:normal;font-stretch:normal;font-size:5.64444px;font-family:RubberNippleFactory;-inkscape-font-specification:RubberNippleFactory;stroke-width:0.264583"
         id="path1139" />
      <path
         d="m 180.1443,43.955334 v 1.036623 h -1.16145 v 3.522348 h -1.2103 v -3.53863 h -1.1506 v -1.020341 h 1.1506 1.2103 z"
         style="font-style:normal;font-variant:normal;font-weight:normal;font-stretch:normal;font-size:5.64444px;font-family:RubberNippleFactory;-inkscape-font-specification:RubberNippleFactory;stroke-width:0.264583"
         id="path1141" />
    </g>
    <path
       style="opacity:0.999;fill:none;stroke:#000000;stroke-width:0.449792;stroke-miterlimit:4;stroke-dasharray:none"
       d="m 109.08745,5.3152038 h -2.74033 V 67.775771 h 3.1183"
       id="path2393"
       sodipodi:nodetypes="cccc" />
  </g>
</svg>
