<?xml version="1.0" encoding="UTF-8" standalone="no"?>
<svg
   xmlns:dc="http://purl.org/dc/elements/1.1/"
   xmlns:cc="http://creativecommons.org/ns#"
   xmlns:rdf="http://www.w3.org/1999/02/22-rdf-syntax-ns#"
   xmlns:svg="http://www.w3.org/2000/svg"
   xmlns="http://www.w3.org/2000/svg"
   xmlns:sodipodi="http://sodipodi.sourceforge.net/DTD/sodipodi-0.dtd"
   xmlns:inkscape="http://www.inkscape.org/namespaces/inkscape"
   width="420"
   height="350"
   viewBox="0 0 111.125 92.60417"
   version="1.1"
   id="svg8"
   inkscape:version="1.0.1 (3bc2e813f5, 2020-09-07)"
   sodipodi:docname="motor_output.svg">
  <defs
     id="defs2" />
  <sodipodi:namedview
     id="base"
     pagecolor="#ffffff"
     bordercolor="#666666"
     borderopacity="1.0"
     inkscape:pageopacity="0.0"
     inkscape:pageshadow="2"
     inkscape:zoom="1.4142136"
     inkscape:cx="225.84235"
     inkscape:cy="235.92637"
     inkscape:document-units="px"
     inkscape:current-layer="layer1"
     inkscape:document-rotation="0"
     showgrid="false"
     units="px"
     inkscape:window-width="1620"
     inkscape:window-height="1018"
     inkscape:window-x="-6"
     inkscape:window-y="-6"
     inkscape:window-maximized="1"
     inkscape:snap-global="false" />
  <metadata
     id="metadata5">
    <rdf:RDF>
      <cc:Work
         rdf:about="">
        <dc:format>image/svg+xml</dc:format>
        <dc:type
           rdf:resource="http://purl.org/dc/dcmitype/StillImage" />
        <dc:title></dc:title>
      </cc:Work>
    </rdf:RDF>
  </metadata>
  <g
     inkscape:label="Layer 1"
     inkscape:groupmode="layer"
     id="layer1">
    <rect
       style="opacity:0.999;fill:#000000;fill-opacity:1;stroke-width:0.0495843"
       id="rect5718"
       width="19.276785"
       height="0.5291667"
       x="-25.135416"
       y="46.037376" />
    <rect
       style="opacity:0.999;fill:#000000;fill-opacity:1;stroke-width:0.0495843"
       id="rect5720"
       width="19.276785"
       height="0.5291667"
       x="-25.135416"
       y="64.558212" />
    <rect
       style="opacity:0.999;fill:#000000;fill-opacity:1;stroke-width:0.0495843"
       id="rect5722"
       width="19.276785"
       height="0.5291667"
       x="-25.135416"
       y="83.079048" />
    <rect
       style="opacity:0.999;fill:#000000;fill-opacity:1;stroke-width:0.0495843"
       id="rect5716"
       width="19.276785"
       height="0.5291667"
       x="-25.135416"
       y="27.516544" />
    <text
       xml:space="preserve"
       style="font-size:10.5833px;line-height:1.25;font-family:Cutive;-inkscape-font-specification:Cutive;stroke-width:0.264583"
       x="6.0135646"
       y="10.022607"
       id="text839"><tspan
         sodipodi:role="line"
         id="tspan837"
         x="6.0135646"
         y="10.022607"
         style="stroke-width:0.264583" /></text>
    <text
       xml:space="preserve"
       style="font-size:10.5833px;line-height:1.25;font-family:Cutive;-inkscape-font-specification:Cutive;stroke-width:0.264583"
       x="1.8040689"
       y="10.757601"
       id="text843"><tspan
         sodipodi:role="line"
         id="tspan841"
         x="1.8040689"
         y="10.757601"
         style="stroke-width:0.264583" /></text>
    <rect
       style="opacity:0.999;fill:#9164d4;fill-opacity:1;stroke-width:0.215473"
       id="rect900"
       width="110.06667"
       height="91.545837"
       x="0.5291667"
       y="0.5291667"
       ry="1.9608293" />
    <path
       id="rect5705"
       style="opacity:0.999;fill:#aa87de;fill-opacity:1;stroke-width:0.244461"
       d="m 2.8176241,0.52916667 c -1.2678556,0 -2.28845742,1.28085163 -2.28845742,2.87200413 V 91.016667 H 106.88298 c 1.26126,0 2.27654,-1.274181 2.27654,-2.857056 V 0.52916667 Z"
       sodipodi:nodetypes="sscsscs" />
    <circle
       style="opacity:0.999;fill:#4d4d4d;stroke-width:0.12015"
       id="path5070"
       cx="2.7119792"
       cy="2.7119792"
       r="1.1244792" />
    <rect
       style="opacity:0.999;fill:#333333;stroke-width:0.183696"
       id="rect5074"
       width="0.1889881"
       height="1.3281524"
       x="2.6103981"
       y="2.0263865" />
    <rect
       style="opacity:0.999;fill:#333333;stroke-width:0.183696"
       id="rect5076"
       width="0.1889881"
       height="1.3281524"
       x="2.5959685"
       y="-3.3689682"
       transform="rotate(90)" />
    <circle
       style="opacity:0.999;fill:#4d4d4d;stroke-width:0.12015"
       id="circle5078"
       cx="2.7119792"
       cy="89.892067"
       r="1.1244792" />
    <rect
       style="opacity:0.999;fill:#333333;stroke-width:0.183696"
       id="rect5080"
       width="0.1889881"
       height="1.3281524"
       x="2.6103981"
       y="89.206474" />
    <rect
       style="opacity:0.999;fill:#333333;stroke-width:0.183696"
       id="rect5082"
       width="0.1889881"
       height="1.3281524"
       x="89.776062"
       y="-3.3689682"
       transform="rotate(90)" />
    <circle
       style="opacity:0.999;fill:#4d4d4d;stroke-width:0.12015"
       id="circle5693"
       cx="108.41302"
       cy="2.7119792"
       r="1.1244792" />
    <rect
       style="opacity:0.999;fill:#333333;stroke-width:0.183696"
       id="rect5695"
       width="0.1889881"
       height="1.3281524"
       x="108.31144"
       y="2.0263865" />
    <rect
       style="opacity:0.999;fill:#333333;stroke-width:0.183696"
       id="rect5697"
       width="0.1889881"
       height="1.3281524"
       x="2.5959685"
       y="-109.07001"
       transform="rotate(90)" />
    <circle
       style="opacity:0.999;fill:#4d4d4d;stroke-width:0.12015"
       id="circle5699"
       cx="108.41302"
       cy="89.892067"
       r="1.1244792" />
    <rect
       style="opacity:0.999;fill:#333333;stroke-width:0.183696"
       id="rect5701"
       width="0.1889881"
       height="1.3281524"
       x="108.31144"
       y="89.206474" />
    <rect
       style="opacity:0.999;fill:#333333;stroke-width:0.183696"
       id="rect5703"
       width="0.1889881"
       height="1.3281524"
       x="89.776062"
       y="-109.07001"
       transform="rotate(90)" />
    <rect
       style="opacity:0.999;fill:#000000;fill-opacity:1;stroke-width:0.019329"
       id="rect2324"
       width="2.9293149"
       height="0.5291667"
       x="-32.735271"
       y="46.037376" />
    <rect
       style="opacity:0.999;fill:#000000;fill-opacity:1;stroke-width:0.019329"
       id="rect2326"
       width="2.9293149"
       height="0.5291667"
       x="-32.735271"
       y="64.558212" />
    <rect
       style="opacity:0.999;fill:#000000;fill-opacity:1;stroke-width:0.019329"
       id="rect2328"
       width="2.9293149"
       height="0.5291667"
       x="-32.735271"
       y="83.079048" />
    <rect
       style="opacity:0.999;fill:#000000;fill-opacity:1;stroke-width:0.019329"
       id="rect2330"
       width="2.9293149"
       height="0.5291667"
       x="-32.735271"
       y="27.516544" />
    <g
       aria-label="SPEED"
       id="text3629"
       style="font-size:5.64444px;line-height:1.25;font-family:RubberNippleFactory;-inkscape-font-specification:RubberNippleFactory;stroke-width:0.264583">
      <path
         d="m 5.7272095,25.671245 -0.4830339,0.900939 q -0.2659399,-0.249658 -0.564444,-0.249658 -0.1628204,0 -0.2713673,0.07598 -0.1031196,0.07055 -0.1031196,0.18453 0,0.211666 0.1953845,0.369059 0.1953845,0.157393 0.7923926,0.477607 0.2008118,0.108547 0.3364954,0.211666 0.1356837,0.10312 0.2550853,0.255086 0.124829,0.146538 0.1845298,0.352777 0.059701,0.206239 0.059701,0.472179 0,0.130257 -0.037991,0.28765 -0.037992,0.157393 -0.1519657,0.363632 -0.1139743,0.200812 -0.2876494,0.363632 -0.1736751,0.16282 -0.4830338,0.276795 -0.3093587,0.113974 -0.6947003,0.113974 -0.8195293,0 -1.5630758,-0.553589 l 0.5970081,-0.852094 q 0.4287604,0.428761 0.9280762,0.428761 0.2225212,0 0.3582049,-0.113975 0.1356837,-0.119401 0.1356837,-0.309358 0,-0.04885 -0.010855,-0.08684 -0.00543,-0.04342 -0.027137,-0.08141 -0.021709,-0.04342 -0.043419,-0.07056 -0.016282,-0.03256 -0.065128,-0.07055 -0.048846,-0.03799 -0.075983,-0.0597 -0.027137,-0.02171 -0.097692,-0.0597 -0.065128,-0.03799 -0.1031196,-0.0597 -0.032564,-0.02171 -0.1248289,-0.07055 -0.092265,-0.04885 -0.1356837,-0.07056 -0.2333759,-0.130256 -0.407051,-0.249658 -0.173675,-0.124829 -0.3527775,-0.303931 -0.173675,-0.18453 -0.2713673,-0.423333 -0.092265,-0.238803 -0.092265,-0.521025 0,-0.499316 0.3853416,-0.846666 0.3853416,-0.352778 1.0800419,-0.352778 0.3419229,0 0.6567089,0.08141 0.3202135,0.07598 0.4830339,0.189958 z"
         style="font-size:5.64444px;stroke-width:0.264583"
         id="path3686" />
      <path
         d="m 8.6362659,25.459578 q 0.6675636,0 1.112606,0.499316 0.4504701,0.493888 0.4558971,1.101751 0,0.407051 -0.151966,0.738119 Q 9.9008375,28.124405 9.6511796,28.325217 9.406949,28.526029 9.108445,28.634576 8.8153683,28.737695 8.5114369,28.737695 H 7.8981468 v 1.280854 H 6.7149853 v -4.558971 h 1.1777341 z m -0.2985041,2.274058 q 0.26594,0 0.4721791,-0.195384 0.2062392,-0.200812 0.2062392,-0.461325 0,-0.217094 -0.124829,-0.363632 Q 8.7665222,26.561329 8.6254112,26.512483 8.4897275,26.45821 8.3594712,26.45821 H 7.8927194 v 1.275426 z"
         style="font-size:5.64444px;stroke-width:0.264583"
         id="path3688" />
      <path
         d="m 12.033779,29.041627 h 1.508802 v 0.976922 h -2.6594 v -4.558971 h 2.6594 v 0.971495 h -1.508802 v 0.759829 h 1.508802 v 0.976922 h -1.508802 z"
         style="font-size:5.64444px;stroke-width:0.264583"
         id="path3690" />
      <path
         d="m 15.507272,29.041627 h 1.508802 v 0.976922 h -2.659399 v -4.558971 h 2.659399 v 0.971495 h -1.508802 v 0.759829 h 1.508802 v 0.976922 h -1.508802 z"
         style="font-size:5.64444px;stroke-width:0.264583"
         id="path3692" />
      <path
         d="m 17.830168,30.023976 v -4.558971 h 1.525084 q 0.564444,0 1.014914,0.135684 0.45047,0.130256 0.738119,0.352778 0.293077,0.217093 0.488461,0.521025 0.195385,0.303931 0.276795,0.624145 0.08684,0.320213 0.08684,0.672991 0,0.971495 -0.678419,1.611921 -0.672991,0.635 -1.687904,0.635 z m 1.14517,-0.982349 v 0.0054 h 0.417906 q 0.569871,0 0.987777,-0.34735 0.423333,-0.352778 0.423333,-0.96064 0,-0.569872 -0.407051,-0.933504 -0.401624,-0.36906 -1.004059,-0.36906 h -0.417906 z"
         style="font-size:5.64444px;stroke-width:0.264583"
         id="path3694" />
    </g>
    <g
       aria-label="REVERSE"
       id="text3633"
       style="font-size:5.64444px;line-height:1.25;font-family:RubberNippleFactory;-inkscape-font-specification:RubberNippleFactory;stroke-width:0.264583">
      <path
         d="M 5.6349446,48.539383 4.0827235,46.710367 v 1.829016 H 2.9104167 v -4.558971 h 1.8995712 q 0.6024355,0 1.0311958,0.42876 0.4287604,0.423333 0.4287604,1.025769 0,0.385341 -0.1899571,0.71641 -0.1899571,0.32564 -0.5210253,0.526452 l -0.032564,0.02171 1.6282039,1.83987 z M 4.0827235,45.90712 h 0.5698714 q 0.1953845,0 0.3310681,-0.135684 0.1356837,-0.141111 0.1356837,-0.336495 0,-0.195385 -0.1356837,-0.331068 Q 4.8479794,44.968189 4.6525949,44.968189 H 4.0827235 Z"
         style="font-size:5.64444px;stroke-width:0.264583"
         id="path3697" />
      <path
         d="m 8.712245,47.562461 h 1.508802 v 0.976922 H 7.5616475 v -4.558971 h 2.6593995 v 0.971495 H 8.712245 v 0.759829 h 1.508802 v 0.976922 H 8.712245 Z"
         style="font-size:5.64444px;stroke-width:0.264583"
         id="path3699" />
      <path
         d="m 12.972704,46.33588 q 0.260512,-0.672991 0.34735,-0.873802 0,0 0.705555,-1.481666 h 1.210298 L 13.064969,48.64793 H 12.875012 L 10.62809,43.980412 h 1.286281 q 0.645854,1.351409 0.79782,1.682477 0.06513,0.146539 0.130256,0.314786 0.06513,0.168248 0.09769,0.260513 z"
         style="font-size:5.64444px;stroke-width:0.264583"
         id="path3701" />
      <path
         d="m 16.79355,47.562461 h 1.508803 v 0.976922 h -2.6594 v -4.558971 h 2.6594 v 0.971495 H 16.79355 v 0.759829 h 1.508803 v 0.976922 H 16.79355 Z"
         style="font-size:5.64444px;stroke-width:0.264583"
         id="path3703" />
      <path
         d="m 21.840974,48.539383 -1.552221,-1.829016 v 1.829016 h -1.172306 v -4.558971 h 1.899571 q 0.602435,0 1.031196,0.42876 0.42876,0.423333 0.42876,1.025769 0,0.385341 -0.189957,0.71641 -0.189957,0.32564 -0.521025,0.526452 l -0.03256,0.02171 1.628203,1.83987 z M 20.288753,45.90712 h 0.569872 q 0.195384,0 0.331068,-0.135684 0.135684,-0.141111 0.135684,-0.336495 0,-0.195385 -0.135684,-0.331068 -0.135684,-0.135684 -0.331068,-0.135684 h -0.569872 z"
         style="font-size:5.64444px;stroke-width:0.264583"
         id="path3705" />
      <path
         d="m 26.313102,44.192079 -0.483034,0.900939 q -0.26594,-0.249658 -0.564444,-0.249658 -0.16282,0 -0.271367,0.07598 -0.10312,0.07055 -0.10312,0.18453 0,0.211666 0.195385,0.369059 0.195384,0.157393 0.792392,0.477607 0.200812,0.108547 0.336496,0.211666 0.135683,0.10312 0.255085,0.255086 0.124829,0.146538 0.18453,0.352777 0.0597,0.206239 0.0597,0.472179 0,0.130256 -0.03799,0.28765 -0.03799,0.157393 -0.151966,0.363632 -0.113974,0.200812 -0.287649,0.363632 -0.173675,0.16282 -0.483034,0.276795 -0.309359,0.113974 -0.6947,0.113974 -0.819529,0 -1.563076,-0.553589 l 0.597008,-0.852094 q 0.428761,0.428761 0.928076,0.428761 0.222522,0 0.358205,-0.113975 0.135684,-0.119401 0.135684,-0.309358 0,-0.04885 -0.01085,-0.08684 -0.0054,-0.04342 -0.02714,-0.08141 -0.02171,-0.04342 -0.04342,-0.07056 -0.01628,-0.03256 -0.06513,-0.07055 -0.04885,-0.03799 -0.07598,-0.0597 -0.02714,-0.02171 -0.09769,-0.0597 -0.06513,-0.03799 -0.10312,-0.0597 -0.03256,-0.02171 -0.124829,-0.07056 -0.09227,-0.04885 -0.135684,-0.07056 -0.233376,-0.130256 -0.407051,-0.249658 -0.173675,-0.124829 -0.352777,-0.303931 -0.173675,-0.18453 -0.271367,-0.423333 -0.09227,-0.238803 -0.09227,-0.521025 0,-0.499316 0.385341,-0.846666 0.385342,-0.352778 1.080042,-0.352778 0.341923,0 0.656709,0.08141 0.320214,0.07598 0.483034,0.189958 z"
         style="font-size:5.64444px;stroke-width:0.264583"
         id="path3707" />
      <path
         d="m 28.451475,47.562461 h 1.508802 v 0.976922 h -2.659399 v -4.558971 h 2.659399 v 0.971495 h -1.508802 v 0.759829 h 1.508802 v 0.976922 h -1.508802 z"
         style="font-size:5.64444px;stroke-width:0.264583"
         id="path3709" />
    </g>
    <g
       aria-label="MOTOR CONTROL"
       id="text3625"
       style="font-size:10.5833px;line-height:1.25;font-family:'Poiret One';-inkscape-font-specification:'Poiret One';stroke-width:0.264583">
      <path
         d="M 22.432674,9.7207913 V 17.658266 H 22.083425 V 10.13354 l -3.746488,7.672892 -3.725321,-7.672892 v 7.524726 H 14.294117 V 9.7207913 h 0.507998 l 3.566572,7.3236437 3.577155,-7.3236437 z"
         style="stroke-width:0.264583"
         id="path3661" />
      <path
         d="m 27.745477,17.795849 q -1.640411,0 -2.846908,-1.238246 -1.195913,-1.238246 -1.195913,-2.889241 0,-1.661578 1.21708,-2.868074 1.217079,-1.2170796 2.920991,-1.2170796 1.703911,0 2.910407,1.2064966 1.206496,1.206496 1.206496,2.878657 0,1.661578 -1.195913,2.899824 -1.195913,1.227663 -2.857491,1.227663 z m 3.862904,-4.10632 q 0,-1.566329 -1.111246,-2.677575 -1.100663,-1.1218299 -2.666992,-1.1218299 -1.555745,0 -2.666991,1.1218299 -1.111247,1.111246 -1.111247,2.677575 0,1.555745 1.111247,2.677575 1.111246,1.121829 2.666991,1.121829 1.555745,0 2.666992,-1.121829 1.111246,-1.12183 1.111246,-2.677575 z"
         style="stroke-width:0.264583"
         id="path3663" />
      <path
         d="M 35.746424,9.7207913 V 10.027707 H 33.93668 v 7.630559 H 33.587431 V 10.027707 H 31.75652 V 9.7207913 Z"
         style="stroke-width:0.264583"
         id="path3665" />
      <path
         d="m 39.630474,17.795849 q -1.640411,0 -2.846907,-1.238246 -1.195913,-1.238246 -1.195913,-2.889241 0,-1.661578 1.217079,-2.868074 1.21708,-1.2170796 2.920991,-1.2170796 1.703911,0 2.910407,1.2064966 1.206497,1.206496 1.206497,2.878657 0,1.661578 -1.195913,2.899824 -1.195913,1.227663 -2.857491,1.227663 z m 3.862905,-4.10632 q 0,-1.566329 -1.111247,-2.677575 -1.100663,-1.1218299 -2.666991,-1.1218299 -1.555745,0 -2.666992,1.1218299 -1.111246,1.111246 -1.111246,2.677575 0,1.555745 1.111246,2.677575 1.111247,1.121829 2.666992,1.121829 1.555745,0 2.666991,-1.121829 1.111247,-1.12183 1.111247,-2.677575 z"
         style="stroke-width:0.264583"
         id="path3667" />
      <path
         d="m 45.112611,9.7207913 h 0.455082 q 1.02658,0 1.799161,0.7619977 0.783164,0.751414 0.783164,1.777994 0,1.015997 -0.793747,1.767411 -0.793748,0.751415 -1.703911,0.751415 h -0.07408 l 2.730491,2.878657 h -0.455082 l -2.402409,-2.518825 v 2.518825 h -0.338666 z m 0.338666,4.7519017 h 0.190499 q 0.857248,0 1.513412,-0.656165 0.656165,-0.656164 0.656165,-1.555745 0,-0.89958 -0.677331,-1.566328 -0.677332,-0.666748 -1.545162,-0.666748 h -0.137583 z"
         style="stroke-width:0.264583"
         id="path3669" />
      <path
         d="m 56.987053,17.774682 h -0.116416 q -1.09008,0 -2.031994,-0.571498 -0.941913,-0.571498 -1.492245,-1.513412 -0.539748,-0.952497 -0.539748,-2.02141 0,-1.682745 1.217079,-2.889241 1.21708,-1.2170792 2.910408,-1.2170792 1.132413,0 2.14841,0.5926652 v 0.391582 q -0.994831,-0.6773315 -2.14841,-0.6773315 -1.555745,0 -2.666992,1.1218295 -1.111246,1.111247 -1.111246,2.677575 0,1.555745 1.111246,2.677575 1.111247,1.12183 2.666992,1.12183 1.153579,0 2.14841,-0.677332 v 0.391583 q -0.963081,0.592664 -2.095494,0.592664 z"
         style="stroke-width:0.264583"
         id="path3671" />
      <path
         d="m 64.236613,17.795849 q -1.640412,0 -2.846908,-1.238246 -1.195913,-1.238246 -1.195913,-2.889241 0,-1.661578 1.21708,-2.868074 1.217079,-1.2170796 2.92099,-1.2170796 1.703911,0 2.910408,1.2064966 1.206496,1.206496 1.206496,2.878657 0,1.661578 -1.195913,2.899824 -1.195913,1.227663 -2.857491,1.227663 z m 3.862904,-4.10632 q 0,-1.566329 -1.111247,-2.677575 -1.100663,-1.1218299 -2.666991,-1.1218299 -1.555745,0 -2.666992,1.1218299 -1.111246,1.111246 -1.111246,2.677575 0,1.555745 1.111246,2.677575 1.111247,1.121829 2.666992,1.121829 1.555745,0 2.666991,-1.121829 1.111247,-1.12183 1.111247,-2.677575 z"
         style="stroke-width:0.264583"
         id="path3673" />
      <path
         d="m 75.560735,9.7207913 h 0.306915 v 8.0538907 l -5.841981,-7.18606 v 7.069644 H 69.718753 V 9.604375 l 5.841982,7.175477 z"
         style="stroke-width:0.264583"
         id="path3675" />
      <path
         d="m 80.862957,9.7207913 v 0.3069157 h -1.809744 v 7.630559 H 78.703964 V 10.027707 H 76.873053 V 9.7207913 Z"
         style="stroke-width:0.264583"
         id="path3677" />
      <path
         d="m 81.868366,9.7207913 h 0.455082 q 1.02658,0 1.799161,0.7619977 0.783164,0.751414 0.783164,1.777994 0,1.015997 -0.793748,1.767411 -0.793747,0.751415 -1.703911,0.751415 h -0.07408 l 2.730491,2.878657 H 84.60944 l -2.402409,-2.518825 v 2.518825 h -0.338665 z m 0.338665,4.7519017 h 0.1905 q 0.857247,0 1.513412,-0.656165 0.656164,-0.656164 0.656164,-1.555745 0,-0.89958 -0.677331,-1.566328 -0.677331,-0.666748 -1.545162,-0.666748 h -0.137583 z"
         style="stroke-width:0.264583"
         id="path3679" />
      <path
         d="m 89.901091,17.795849 q -1.640412,0 -2.846908,-1.238246 -1.195913,-1.238246 -1.195913,-2.889241 0,-1.661578 1.21708,-2.868074 1.217079,-1.2170796 2.920991,-1.2170796 1.703911,0 2.910407,1.2064966 1.206496,1.206496 1.206496,2.878657 0,1.661578 -1.195913,2.899824 -1.195913,1.227663 -2.857491,1.227663 z m 3.862904,-4.10632 q 0,-1.566329 -1.111246,-2.677575 -1.100663,-1.1218299 -2.666992,-1.1218299 -1.555745,0 -2.666991,1.1218299 -1.111247,1.111246 -1.111247,2.677575 0,1.555745 1.111247,2.677575 1.111246,1.121829 2.666991,1.121829 1.555745,0 2.666992,-1.121829 1.111246,-1.12183 1.111246,-2.677575 z"
         style="stroke-width:0.264583"
         id="path3681" />
      <path
         d="M 95.732477,9.7207913 V 17.35135 h 2.455325 v 0.306916 H 95.383228 V 9.7207913 Z"
         style="stroke-width:0.264583"
         id="path3683" />
    </g>
    <g
       aria-label="LEFT"
       id="text3639"
       style="font-size:7.05556px;line-height:1.25;font-family:RubberNippleFactory;-inkscape-font-specification:RubberNippleFactory;stroke-width:0.264583"
       transform="matrix(0.88889047,0,0,0.88889047,4.0323127,3.8084888)">
      <path
         d="m 45.552352,34.276887 h 1.431464 v 4.477567 h 2.096316 v 1.221155 h -3.52778 z"
         style="font-size:7.05556px;stroke-width:0.264583"
         id="path3712" />
      <path
         d="m 51.366399,38.754454 h 1.886006 v 1.221155 H 49.92815 v -5.698722 h 3.324255 v 1.214371 h -1.886006 v 0.949787 h 1.886006 v 1.221154 h -1.886006 z"
         style="font-size:7.05556px;stroke-width:0.264583"
         id="path3714" />
      <path
         d="m 57.594277,35.491258 h -1.892789 v 1.173665 h 1.892789 v 1.21437 h -1.892789 v 2.096316 h -1.431465 v -5.698722 h 3.324254 z"
         style="font-size:7.05556px;stroke-width:0.264583"
         id="path3716" />
      <path
         d="m 62.675626,34.276887 v 1.295781 h -1.451817 v 4.402941 h -1.512875 v -4.423294 h -1.438248 v -1.275428 h 1.438248 1.512875 z"
         style="font-size:7.05556px;stroke-width:0.264583"
         id="path3718" />
    </g>
    <path
       style="opacity:0.999;fill:none;fill-opacity:1;stroke:#000000;stroke-width:0.449792;stroke-miterlimit:4;stroke-dasharray:none"
       d="m 31.551516,46.261669 h 6.652909 V 27.715463 H 23.825932"
       id="path3641"
       sodipodi:nodetypes="cccc" />
    <g
       aria-label="SPEED"
       id="text3645"
       style="font-size:5.64444px;line-height:1.25;font-family:RubberNippleFactory;-inkscape-font-specification:RubberNippleFactory;stroke-width:0.264583">
      <path
         d="m 5.7272095,62.712914 -0.4830339,0.90094 q -0.2659399,-0.249658 -0.564444,-0.249658 -0.1628204,0 -0.2713673,0.07598 -0.1031196,0.07055 -0.1031196,0.18453 0,0.211666 0.1953845,0.369059 0.1953845,0.157393 0.7923926,0.477607 0.2008118,0.108547 0.3364954,0.211666 0.1356837,0.10312 0.2550853,0.255085 0.124829,0.146539 0.1845298,0.352778 0.059701,0.206239 0.059701,0.472179 0,0.130256 -0.037991,0.287649 -0.037992,0.157393 -0.1519657,0.363633 -0.1139743,0.200811 -0.2876494,0.363632 -0.1736751,0.16282 -0.4830338,0.276794 -0.3093587,0.113975 -0.6947003,0.113975 -0.8195293,0 -1.5630758,-0.55359 l 0.5970081,-0.852093 q 0.4287604,0.42876 0.9280762,0.42876 0.2225212,0 0.3582049,-0.113974 0.1356837,-0.119401 0.1356837,-0.309359 0,-0.04885 -0.010855,-0.08684 -0.00543,-0.04342 -0.027137,-0.08141 -0.021709,-0.04342 -0.043419,-0.07056 -0.016282,-0.03256 -0.065128,-0.07055 -0.048846,-0.03799 -0.075983,-0.0597 -0.027137,-0.02171 -0.097692,-0.0597 -0.065128,-0.03799 -0.1031196,-0.0597 -0.032564,-0.02171 -0.1248289,-0.07055 -0.092265,-0.04885 -0.1356837,-0.07056 -0.2333759,-0.130256 -0.407051,-0.249658 -0.173675,-0.124829 -0.3527775,-0.303931 -0.173675,-0.18453 -0.2713673,-0.423333 -0.092265,-0.238803 -0.092265,-0.521025 0,-0.499316 0.3853416,-0.846666 0.3853416,-0.352778 1.0800419,-0.352778 0.3419229,0 0.6567089,0.08141 0.3202135,0.07598 0.4830339,0.189957 z"
         style="font-size:5.64444px;stroke-width:0.264583"
         id="path3721" />
      <path
         d="m 8.6362659,62.501248 q 0.6675636,0 1.112606,0.499316 0.4504701,0.493888 0.4558971,1.101751 0,0.407051 -0.151966,0.738119 -0.1519655,0.325641 -0.4016234,0.526453 -0.2442306,0.200812 -0.5427346,0.309358 -0.2930767,0.10312 -0.5970081,0.10312 H 7.8981468 v 1.280854 H 6.7149853 v -4.558971 h 1.1777341 z m -0.2985041,2.274058 q 0.26594,0 0.4721791,-0.195384 0.2062392,-0.200812 0.2062392,-0.461325 0,-0.217094 -0.124829,-0.363632 Q 8.7665222,63.602999 8.6254112,63.554153 8.4897275,63.49988 8.3594712,63.49988 H 7.8927194 v 1.275426 z"
         style="font-size:5.64444px;stroke-width:0.264583"
         id="path3723" />
      <path
         d="m 12.033779,66.083296 h 1.508802 v 0.976923 h -2.6594 v -4.558971 h 2.6594 v 0.971495 h -1.508802 v 0.759828 h 1.508802 v 0.976923 h -1.508802 z"
         style="font-size:5.64444px;stroke-width:0.264583"
         id="path3725" />
      <path
         d="m 15.507272,66.083296 h 1.508802 v 0.976923 h -2.659399 v -4.558971 h 2.659399 v 0.971495 h -1.508802 v 0.759828 h 1.508802 v 0.976923 h -1.508802 z"
         style="font-size:5.64444px;stroke-width:0.264583"
         id="path3727" />
      <path
         d="m 17.830168,67.065646 v -4.558971 h 1.525084 q 0.564444,0 1.014914,0.135684 0.45047,0.130256 0.738119,0.352777 0.293077,0.217094 0.488461,0.521026 0.195385,0.303931 0.276795,0.624144 0.08684,0.320214 0.08684,0.672991 0,0.971495 -0.678419,1.611922 -0.672991,0.635 -1.687904,0.635 z m 1.14517,-0.98235 v 0.0054 h 0.417906 q 0.569871,0 0.987777,-0.34735 0.423333,-0.352778 0.423333,-0.960641 0,-0.569871 -0.407051,-0.933503 -0.401624,-0.36906 -1.004059,-0.36906 h -0.417906 z"
         style="font-size:5.64444px;stroke-width:0.264583"
         id="path3729" />
    </g>
    <g
       aria-label="REVERSE"
       id="text3649"
       style="font-size:5.64444px;line-height:1.25;font-family:RubberNippleFactory;-inkscape-font-specification:RubberNippleFactory;stroke-width:0.264583">
      <path
         d="M 5.6349458,85.581055 4.0827247,83.752039 v 1.829016 H 2.9104179 v -4.558971 h 1.8995712 q 0.6024355,0 1.0311958,0.42876 0.4287604,0.423333 0.4287604,1.025769 0,0.385341 -0.1899571,0.716409 -0.1899571,0.325641 -0.5210253,0.526453 l -0.032564,0.02171 1.6282039,1.839871 z M 4.0827247,82.948792 h 0.5698714 q 0.1953845,0 0.3310681,-0.135684 0.1356837,-0.141111 0.1356837,-0.336495 0,-0.195385 -0.1356837,-0.331069 Q 4.8479806,82.009861 4.6525961,82.009861 H 4.0827247 Z"
         style="font-size:5.64444px;stroke-width:0.264583"
         id="path3743" />
      <path
         d="m 8.7122462,84.604132 h 1.5088018 v 0.976923 H 7.5616487 v -4.558971 h 2.6593993 v 0.971495 H 8.7122462 v 0.759828 H 10.221048 V 83.73033 H 8.7122462 Z"
         style="font-size:5.64444px;stroke-width:0.264583"
         id="path3745" />
      <path
         d="m 12.972705,83.377552 q 0.260513,-0.672991 0.34735,-0.873803 0,0 0.705555,-1.481665 h 1.210298 l -2.170938,4.667518 h -0.189957 l -2.246922,-4.667518 h 1.286281 q 0.645855,1.351409 0.79782,1.682477 0.06513,0.146538 0.130257,0.314786 0.06513,0.168248 0.09769,0.260513 z"
         style="font-size:5.64444px;stroke-width:0.264583"
         id="path3747" />
      <path
         d="m 16.793552,84.604132 h 1.508802 v 0.976923 h -2.6594 v -4.558971 h 2.6594 v 0.971495 h -1.508802 v 0.759828 h 1.508802 v 0.976923 h -1.508802 z"
         style="font-size:5.64444px;stroke-width:0.264583"
         id="path3749" />
      <path
         d="m 21.840976,85.581055 -1.552221,-1.829016 v 1.829016 h -1.172307 v -4.558971 h 1.899571 q 0.602435,0 1.031196,0.42876 0.42876,0.423333 0.42876,1.025769 0,0.385341 -0.189957,0.716409 -0.189957,0.325641 -0.521025,0.526453 l -0.03256,0.02171 1.628204,1.839871 z m -1.552221,-2.632263 h 0.569871 q 0.195384,0 0.331068,-0.135684 0.135684,-0.141111 0.135684,-0.336495 0,-0.195385 -0.135684,-0.331069 -0.135684,-0.135683 -0.331068,-0.135683 h -0.569871 z"
         style="font-size:5.64444px;stroke-width:0.264583"
         id="path3751" />
      <path
         d="m 26.313103,81.23375 -0.483034,0.90094 q -0.26594,-0.249658 -0.564444,-0.249658 -0.16282,0 -0.271367,0.07598 -0.10312,0.07055 -0.10312,0.184529 0,0.211667 0.195385,0.36906 0.195384,0.157393 0.792392,0.477606 0.200812,0.108547 0.336496,0.211667 0.135684,0.10312 0.255085,0.255085 0.124829,0.146539 0.18453,0.352778 0.0597,0.206239 0.0597,0.472179 0,0.130256 -0.03799,0.287649 -0.03799,0.157393 -0.151965,0.363632 -0.113975,0.200812 -0.28765,0.363633 -0.173675,0.16282 -0.483034,0.276794 -0.309358,0.113975 -0.6947,0.113975 -0.819529,0 -1.563076,-0.55359 l 0.597008,-0.852093 q 0.428761,0.42876 0.928077,0.42876 0.222521,0 0.358205,-0.113974 0.135683,-0.119402 0.135683,-0.309359 0,-0.04885 -0.01085,-0.08684 -0.0054,-0.04342 -0.02714,-0.08141 -0.02171,-0.04342 -0.04342,-0.07056 -0.01628,-0.03256 -0.06513,-0.07055 -0.04885,-0.03799 -0.07598,-0.0597 -0.02714,-0.02171 -0.09769,-0.0597 -0.06513,-0.03799 -0.10312,-0.0597 -0.03256,-0.02171 -0.124829,-0.07055 -0.09226,-0.04885 -0.135683,-0.07056 -0.233376,-0.130256 -0.407051,-0.249658 -0.173676,-0.124829 -0.352778,-0.303931 -0.173675,-0.18453 -0.271367,-0.423333 -0.09227,-0.238803 -0.09227,-0.521025 0,-0.499316 0.385341,-0.846667 0.385342,-0.352777 1.080042,-0.352777 0.341923,0 0.656709,0.08141 0.320214,0.07598 0.483034,0.189957 z"
         style="font-size:5.64444px;stroke-width:0.264583"
         id="path3753" />
      <path
         d="m 28.451476,84.604132 h 1.508803 v 0.976923 h -2.6594 v -4.558971 h 2.6594 v 0.971495 h -1.508803 v 0.759828 h 1.508803 v 0.976923 h -1.508803 z"
         style="font-size:5.64444px;stroke-width:0.264583"
         id="path3755" />
    </g>
    <g
       aria-label="RIGHT"
       id="text3653"
       style="font-size:7.05556px;line-height:1.25;font-family:RubberNippleFactory;-inkscape-font-specification:RubberNippleFactory;stroke-width:0.264583"
       transform="matrix(0.88889245,0,0,0.88889245,4.8978841,8.0092833)">
      <path
         d="m 47.488034,77.017281 -1.940279,-2.286273 v 2.286273 h -1.465386 v -5.698722 h 2.374468 q 0.753045,0 1.288996,0.535951 0.535952,0.529167 0.535952,1.282213 0,0.481677 -0.237447,0.895513 -0.237447,0.407051 -0.651283,0.658067 l -0.0407,0.02714 2.035258,2.299842 z m -1.940279,-3.290334 h 0.71234 q 0.244231,0 0.413836,-0.169605 0.169605,-0.176389 0.169605,-0.420619 0,-0.244231 -0.169605,-0.413836 -0.169605,-0.169605 -0.413836,-0.169605 h -0.71234 z"
         style="font-size:7.05556px;stroke-width:0.264583"
         id="path3732" />
      <path
         d="m 49.896416,77.017281 v -5.698722 h 1.519659 v 5.698722 z"
         style="font-size:7.05556px;stroke-width:0.264583"
         id="path3734" />
      <path
         d="m 56.090383,74.547835 h 1.383975 v 2.062394 q -0.97014,0.542735 -2.191294,0.542735 -0.583441,0 -1.112608,-0.189957 -0.529167,-0.196742 -0.963355,-0.563088 -0.427404,-0.373131 -0.685203,-0.970139 -0.2578,-0.597009 -0.2578,-1.343271 0,-0.814103 0.474894,-1.492522 0.474893,-0.685203 1.207586,-1.024413 0.705556,-0.325641 1.607854,-0.325641 1.194017,0 2.075962,0.739477 l -0.881945,1.153313 q -0.644498,-0.556304 -1.383975,-0.556304 -0.637714,0 -1.153313,0.461325 -0.508814,0.454541 -0.508814,1.166881 0,0.624146 0.454541,1.105823 0.454541,0.474894 1.173665,0.474894 0.379915,0 0.75983,-0.142468 z"
         style="font-size:7.05556px;stroke-width:0.264583"
         id="path3736" />
      <path
         d="m 61.992618,71.318559 h 1.431464 v 5.698722 h -1.431464 v -2.44231 h -2.075963 v 2.44231 h -1.424681 v -5.698722 h 1.424681 v 2.028473 h 2.075963 z"
         style="font-size:7.05556px;stroke-width:0.264583"
         id="path3738" />
      <path
         d="m 68.50543,71.318559 v 1.295781 h -1.451817 v 4.402941 h -1.512875 v -4.423294 h -1.438249 v -1.275428 h 1.438249 1.512875 z"
         style="font-size:7.05556px;stroke-width:0.264583"
         id="path3740" />
    </g>
    <path
       style="opacity:0.999;fill:none;fill-opacity:1;stroke:#000000;stroke-width:0.449792;stroke-miterlimit:4;stroke-dasharray:none"
       d="m 31.551516,83.303337 h 6.652909 V 64.757131 H 23.825932"
       id="path3655"
       sodipodi:nodetypes="cccc" />
    <path
       style="opacity:0.999;fill:none;fill-opacity:1;stroke:#000000;stroke-width:0.449792;stroke-miterlimit:4;stroke-dasharray:none"
       d="m 38.270091,37.136161 h 4.630208"
       id="path3657" />
    <path
       style="opacity:0.999;fill:none;fill-opacity:1;stroke:#000000;stroke-width:0.449792;stroke-miterlimit:4;stroke-dasharray:none"
       d="m 38.270091,74.17779 h 4.630208"
       id="path3659" />
    <g
       aria-label="0"
       id="text6126"
       style="font-size:4.23333px;line-height:1.25;font-family:RubberNippleFactory;-inkscape-font-specification:RubberNippleFactory;stroke-width:0.264583">
      <path
         d="m 74.970781,53.587076 q 0,-0.455897 -0.154679,-0.712339 -0.150609,-0.260513 -0.390769,-0.260513 -0.24016,0 -0.402981,0.260513 -0.158749,0.256442 -0.158749,0.712339 0,0.427403 0.16282,0.700127 0.16282,0.268654 0.39891,0.268654 0.236089,0 0.390769,-0.268654 0.154679,-0.268653 0.154679,-0.700127 z m -0.533237,-1.786954 q 0.626859,0 1.029839,0.472179 0.402981,0.472179 0.402981,1.290352 v 0.01221 q 0,0.842596 -0.39891,1.310704 -0.39891,0.464038 -1.03391,0.464038 -0.63907,0 -1.058332,-0.468108 -0.419263,-0.468109 -0.419263,-1.306634 0,-0.818172 0.419263,-1.294422 0.423333,-0.48032 1.058332,-0.48032 z"
         style="font-size:4.23333px;stroke-width:0.264583"
         id="path6181" />
    </g>
    <g
       aria-label="1"
       id="text6130"
       style="font-size:4.23333px;line-height:1.25;font-family:RubberNippleFactory;-inkscape-font-specification:RubberNippleFactory;stroke-width:0.264583">
      <path
         d="m 78.134222,46.371582 h -0.842595 v -2.674325 l -0.541378,0.199455 0.0081,-0.488461 1.290352,-0.500672 h 0.08548 z"
         style="font-size:4.23333px;stroke-width:0.264583"
         id="path6184" />
    </g>
    <g
       aria-label="2"
       id="text6134"
       style="font-size:4.23333px;line-height:1.25;font-family:RubberNippleFactory;-inkscape-font-specification:RubberNippleFactory;stroke-width:0.264583">
      <path
         d="m 84.940124,40.791927 -0.472179,-0.545449 q 0.175032,-0.170961 0.297147,-0.252371 0.122115,-0.08548 0.32157,-0.138398 0.203526,-0.05699 0.488461,-0.05699 0.529167,0 0.858878,0.329712 0.329711,0.32564 0.329711,0.704198 0,0.333781 -0.223878,0.740832 -0.223878,0.402981 -0.630929,0.9525 l 1.343268,-0.01221 v 0.748974 h -2.829004 q 0.887371,-1.192659 1.282211,-1.8358 0.211666,-0.345993 0.211666,-0.545448 0,-0.138397 -0.122115,-0.276795 -0.118045,-0.138397 -0.32157,-0.138397 -0.191314,0 -0.309359,0.08141 -0.118045,0.08141 -0.223878,0.244231 z"
         style="font-size:4.23333px;stroke-width:0.264583"
         id="path6187" />
    </g>
    <g
       aria-label="3"
       id="text6138"
       style="font-size:4.23333px;line-height:1.25;font-family:RubberNippleFactory;-inkscape-font-specification:RubberNippleFactory;stroke-width:0.264583">
      <path
         d="m 95.013115,44.862442 q 0.31343,0.04478 0.48032,0.276795 0.166891,0.232019 0.166891,0.521025 0,0.525096 -0.411121,0.826313 -0.411122,0.297148 -0.976922,0.297148 -0.578013,0 -0.9525,-0.289007 l 0.24016,-0.753044 q 0.402981,0.301218 0.744904,0.301218 0.236089,0 0.378557,-0.130256 0.142468,-0.134327 0.142468,-0.309359 0,-0.170961 -0.130256,-0.284936 -0.126186,-0.118044 -0.402981,-0.118044 v -0.582083 q 0.187244,0 0.284936,-0.08955 0.101763,-0.09362 0.101763,-0.219807 0,-0.138397 -0.118045,-0.244231 -0.113975,-0.109903 -0.309359,-0.109903 -0.305288,0 -0.598365,0.215737 l -0.333782,-0.667564 q 0.268654,-0.150609 0.496603,-0.207596 0.232019,-0.05699 0.553589,-0.05699 0.455897,0 0.777467,0.264583 0.325641,0.260513 0.325641,0.626859 0,0.236089 -0.126186,0.431474 -0.126186,0.195384 -0.333782,0.301217 z"
         style="font-size:4.23333px;stroke-width:0.264583"
         id="path6190" />
    </g>
    <g
       aria-label="4"
       id="text6142"
       style="font-size:4.23333px;line-height:1.25;font-family:RubberNippleFactory;-inkscape-font-specification:RubberNippleFactory;stroke-width:0.264583">
      <path
         d="m 95.833333,54.405753 v -0.687916 l 1.347339,-2.100383 h 1.033909 v 2.063748 h 0.525096 v 0.724551 h -0.525096 v 0.630929 h -0.79782 v -0.630929 z m 1.583428,-2.08003 -0.862948,1.351409 h 0.862948 z"
         style="font-size:4.23333px;stroke-width:0.264583"
         id="path6193" />
    </g>
    <g
       aria-label="SPEED
MULTIPLY"
       id="text6146"
       style="font-size:4.23333px;line-height:1.25;font-family:RubberNippleFactory;-inkscape-font-specification:RubberNippleFactory;stroke-width:0.264583">
      <path
         d="m 80.074617,73.903722 -0.362275,0.675704 q -0.199455,-0.187243 -0.423333,-0.187243 -0.122115,0 -0.203526,0.05699 -0.07734,0.05292 -0.07734,0.138397 0,0.15875 0.146538,0.276795 0.146538,0.118045 0.594294,0.358205 0.150609,0.08141 0.252372,0.15875 0.101763,0.07734 0.191314,0.191314 0.09362,0.109903 0.138397,0.264583 0.04478,0.154679 0.04478,0.354134 0,0.09769 -0.02849,0.215737 -0.02849,0.118045 -0.113974,0.272724 -0.08548,0.150609 -0.215737,0.272724 -0.130256,0.122116 -0.362275,0.207596 -0.232019,0.08548 -0.521026,0.08548 -0.614646,0 -1.172306,-0.415192 l 0.447756,-0.63907 q 0.32157,0.32157 0.696057,0.32157 0.166891,0 0.268654,-0.08548 0.101762,-0.08955 0.101762,-0.232019 0,-0.03664 -0.0081,-0.06513 -0.0041,-0.03256 -0.02035,-0.06106 -0.01628,-0.03256 -0.03256,-0.05292 -0.01221,-0.02442 -0.04885,-0.05292 -0.03663,-0.02849 -0.05699,-0.04478 -0.02035,-0.01628 -0.07327,-0.04478 -0.04885,-0.02849 -0.07734,-0.04478 -0.02442,-0.01628 -0.09362,-0.05292 -0.0692,-0.03663 -0.101763,-0.05292 -0.175032,-0.09769 -0.305288,-0.187244 -0.130256,-0.09362 -0.264583,-0.227948 -0.130257,-0.138398 -0.203526,-0.3175 -0.0692,-0.179103 -0.0692,-0.390769 0,-0.374487 0.289006,-0.635 0.289006,-0.264583 0.810031,-0.264583 0.256442,0 0.492532,0.06106 0.24016,0.05699 0.362275,0.142468 z"
         style="font-size:4.23333px;text-align:center;text-anchor:middle;stroke-width:0.264583"
         id="path6154" />
      <path
         d="m 82.256409,73.744972 q 0.500673,0 0.834455,0.374487 0.337852,0.370416 0.341922,0.826313 0,0.305288 -0.113974,0.553589 -0.113974,0.244231 -0.301218,0.39484 -0.183172,0.150609 -0.40705,0.232019 -0.219808,0.07734 -0.447756,0.07734 H 81.70282 v 0.96064 h -0.887371 v -3.419228 h 0.8833 z m -0.223878,1.705543 q 0.199455,0 0.354135,-0.146538 0.154679,-0.150609 0.154679,-0.345993 0,-0.162821 -0.09362,-0.272724 -0.09362,-0.113975 -0.199455,-0.150609 -0.101763,-0.04071 -0.199455,-0.04071 h -0.350064 v 0.956569 z"
         style="font-size:4.23333px;text-align:center;text-anchor:middle;stroke-width:0.264583"
         id="path6156" />
      <path
         d="m 84.804544,76.431508 h 1.131602 V 77.1642 h -1.99455 v -3.419228 h 1.99455 v 0.728621 h -1.131602 v 0.569871 h 1.131602 v 0.732692 h -1.131602 z"
         style="font-size:4.23333px;text-align:center;text-anchor:middle;stroke-width:0.264583"
         id="path6158" />
      <path
         d="m 87.409664,76.431508 h 1.131601 V 77.1642 h -1.994549 v -3.419228 h 1.994549 v 0.728621 h -1.131601 v 0.569871 h 1.131601 v 0.732692 h -1.131601 z"
         style="font-size:4.23333px;text-align:center;text-anchor:middle;stroke-width:0.264583"
         id="path6160" />
      <path
         d="m 89.151835,77.16827 v -3.419228 h 1.143813 q 0.423333,0 0.761186,0.101763 0.337852,0.09769 0.553589,0.264583 0.219808,0.162821 0.366346,0.390769 0.146538,0.227949 0.207596,0.468109 0.06513,0.24016 0.06513,0.504743 0,0.728621 -0.508814,1.208941 -0.504743,0.47625 -1.265928,0.47625 z m 0.858878,-0.736762 v 0.0041 h 0.313429 q 0.427404,0 0.740833,-0.260513 0.317499,-0.264583 0.317499,-0.72048 0,-0.427404 -0.305288,-0.700128 -0.301217,-0.276794 -0.753044,-0.276794 h -0.313429 z"
         style="font-size:4.23333px;text-align:center;text-anchor:middle;stroke-width:0.264583"
         id="path6162" />
      <path
         d="m 73.146615,82.455862 0.663493,-3.464003 h 0.130256 l 1.428749,2.059677 1.424678,-2.059677 H 76.9444 l 0.626859,3.464003 h -0.887371 l -0.23609,-1.550864 -1.107179,1.550864 -1.054262,-1.587499 -0.256442,1.587499 z"
         style="font-size:4.23333px;text-align:center;text-anchor:middle;stroke-width:0.264583"
         id="path6164" />
      <path
         d="m 79.985064,79.036634 h 0.871089 v 2.07596 q 0,0.626858 -0.39891,1.025768 -0.39891,0.39891 -1.025769,0.39891 -0.626858,0 -1.025768,-0.394839 -0.39484,-0.39891 -0.39484,-1.025769 v -2.08003 h 0.871089 v 2.116665 q 0,0.227949 0.15875,0.390769 0.162821,0.16282 0.390769,0.16282 0.227949,0 0.390769,-0.15875 0.162821,-0.16282 0.162821,-0.390768 z"
         style="font-size:4.23333px;text-align:center;text-anchor:middle;stroke-width:0.264583"
         id="path6166" />
      <path
         d="m 81.466725,79.036634 h 0.858878 v 2.686536 h 1.257787 v 0.732692 h -2.116665 z"
         style="font-size:4.23333px;text-align:center;text-anchor:middle;stroke-width:0.264583"
         id="path6168" />
      <path
         d="m 86.530435,79.036634 v 0.777467 h -0.871089 v 2.641761 H 84.751623 V 79.80189 h -0.862948 v -0.765256 h 0.862948 0.907723 z"
         style="font-size:4.23333px;text-align:center;text-anchor:middle;stroke-width:0.264583"
         id="path6170" />
      <path
         d="m 86.937486,82.455862 v -3.419228 h 0.911795 v 3.419228 z"
         style="font-size:4.23333px;text-align:center;text-anchor:middle;stroke-width:0.264583"
         id="path6172" />
      <path
         d="m 89.900817,79.036634 q 0.500673,0 0.834455,0.374487 0.337852,0.370416 0.341922,0.826313 0,0.305289 -0.113974,0.55359 -0.113974,0.24423 -0.301218,0.394839 -0.183173,0.150609 -0.407051,0.232019 -0.219807,0.07734 -0.447756,0.07734 h -0.459967 v 0.96064 h -0.887371 v -3.419228 h 0.8833 z m -0.223878,1.705544 q 0.199455,0 0.354134,-0.146539 0.15468,-0.150609 0.15468,-0.345993 0,-0.16282 -0.09362,-0.272724 -0.09362,-0.113974 -0.199455,-0.150609 -0.101763,-0.04071 -0.199455,-0.04071 h -0.350064 v 0.95657 z"
         style="font-size:4.23333px;text-align:center;text-anchor:middle;stroke-width:0.264583"
         id="path6174" />
      <path
         d="m 91.586003,79.036634 h 0.858878 v 2.686536 h 1.257787 v 0.732692 h -2.116665 z"
         style="font-size:4.23333px;text-align:center;text-anchor:middle;stroke-width:0.264583"
         id="path6176" />
      <path
         d="m 97.300995,79.036634 -1.229294,1.990479 v 1.428749 H 95.135484 V 81.027113 L 93.90619,79.036634 h 1.062403 l 0.634999,1.139743 0.635,-1.139743 z"
         style="font-size:4.23333px;text-align:center;text-anchor:middle;stroke-width:0.264583"
         id="path6178" />
    </g>
    <path
       style="opacity:0.999;fill:none;fill-opacity:1;stroke:#000000;stroke-width:0.449792;stroke-miterlimit:4;stroke-dasharray:none"
       d="M 85.780157,72.777495 V 63.703694"
       id="path6150" />
    <path
       style="opacity:0.999;fill:none;fill-opacity:1;stroke:#000000;stroke-width:0.449792;stroke-miterlimit:4;stroke-dasharray:none"
       d="m 85.873701,83.535093 v 5.986839"
       id="path6152" />
  </g>
</svg>
