<?xml version="1.0" encoding="UTF-8" standalone="no"?>
<svg
   xmlns:dc="http://purl.org/dc/elements/1.1/"
   xmlns:cc="http://creativecommons.org/ns#"
   xmlns:rdf="http://www.w3.org/1999/02/22-rdf-syntax-ns#"
   xmlns:svg="http://www.w3.org/2000/svg"
   xmlns="http://www.w3.org/2000/svg"
   xmlns:sodipodi="http://sodipodi.sourceforge.net/DTD/sodipodi-0.dtd"
   xmlns:inkscape="http://www.inkscape.org/namespaces/inkscape"
   width="350"
   height="280"
   viewBox="0 0 92.604167 74.083336"
   version="1.1"
   id="svg8"
   inkscape:version="1.0.1 (3bc2e813f5, 2020-09-07)"
   sodipodi:docname="notgate.svg">
  <defs
     id="defs2" />
  <sodipodi:namedview
     id="base"
     pagecolor="#ffffff"
     bordercolor="#666666"
     borderopacity="1.0"
     inkscape:pageopacity="0.0"
     inkscape:pageshadow="2"
     inkscape:zoom="0.98994949"
     inkscape:cx="175.1494"
     inkscape:cy="211.11455"
     inkscape:document-units="px"
     inkscape:current-layer="layer1"
     inkscape:document-rotation="0"
     showgrid="false"
     units="px"
     inkscape:window-width="1620"
     inkscape:window-height="1018"
     inkscape:window-x="-6"
     inkscape:window-y="-6"
     inkscape:window-maximized="1"
     inkscape:snap-global="false" />
  <metadata
     id="metadata5">
    <rdf:RDF>
      <cc:Work
         rdf:about="">
        <dc:format>image/svg+xml</dc:format>
        <dc:type
           rdf:resource="http://purl.org/dc/dcmitype/StillImage" />
        <dc:title></dc:title>
      </cc:Work>
    </rdf:RDF>
  </metadata>
  <g
     inkscape:label="Layer 1"
     inkscape:groupmode="layer"
     id="layer1">
    <rect
       style="opacity:0.999;fill:#000000;fill-opacity:1;stroke-width:0.0495843"
       id="rect5718"
       width="19.276785"
       height="0.5291667"
       x="-25.135416"
       y="27.516666" />
    <rect
       style="opacity:0.999;fill:#000000;fill-opacity:1;stroke-width:0.0495843"
       id="rect5720"
       width="19.276785"
       height="0.5291667"
       x="-25.135416"
       y="46.037502" />
    <rect
       style="opacity:0.999;fill:#000000;fill-opacity:1;stroke-width:0.0495843"
       id="rect5722"
       width="19.276785"
       height="0.5291667"
       x="-25.135416"
       y="64.558334" />
    <rect
       style="opacity:0.999;fill:#000000;fill-opacity:1;stroke-width:0.0495843"
       id="rect5716"
       width="19.276785"
       height="0.5291667"
       x="-25.135416"
       y="8.9958334" />
    <text
       xml:space="preserve"
       style="font-size:10.5833px;line-height:1.25;font-family:Cutive;-inkscape-font-specification:Cutive;stroke-width:0.264583"
       x="6.0135646"
       y="10.022607"
       id="text839"><tspan
         sodipodi:role="line"
         id="tspan837"
         x="6.0135646"
         y="10.022607"
         style="stroke-width:0.264583" /></text>
    <text
       xml:space="preserve"
       style="font-size:10.5833px;line-height:1.25;font-family:Cutive;-inkscape-font-specification:Cutive;stroke-width:0.264583"
       x="1.8040689"
       y="10.757601"
       id="text843"><tspan
         sodipodi:role="line"
         id="tspan841"
         x="1.8040689"
         y="10.757601"
         style="stroke-width:0.264583" /></text>
    <rect
       style="opacity:0.999;fill:#f2f2f2;fill-opacity:1;stroke-width:0.175509"
       id="rect900"
       width="91.545837"
       height="73.025002"
       x="0.5291667"
       y="0.5291667"
       ry="2.2255881" />
    <path
       id="rect5705"
       style="opacity:0.999;fill:#f9f9f9;fill-opacity:1;stroke-width:0.823"
       d="M 10.630859,2 C 5.8491739,2 2,5.8491739 2,10.630859 V 266.20977 l 328.20098,0 c 4.75681,0 8.58594,-3.82913 8.58594,-8.58594 V 2 Z"
       sodipodi:nodetypes="sscsscs"
       transform="scale(0.26458334)" />
    <circle
       style="opacity:0.999;fill:#4d4d4d;stroke-width:0.12015"
       id="path5070"
       cx="2.7119792"
       cy="2.7119792"
       r="1.1244792" />
    <rect
       style="opacity:0.999;fill:#333333;stroke-width:0.183696"
       id="rect5074"
       width="0.1889881"
       height="1.3281524"
       x="2.6103981"
       y="2.0263865" />
    <rect
       style="opacity:0.999;fill:#333333;stroke-width:0.183696"
       id="rect5076"
       width="0.1889881"
       height="1.3281524"
       x="2.5959687"
       y="-3.3689682"
       transform="rotate(90)" />
    <circle
       style="opacity:0.999;fill:#4d4d4d;stroke-width:0.12015"
       id="circle5078"
       cx="2.7119792"
       cy="71.371353"
       r="1.1244792" />
    <rect
       style="opacity:0.999;fill:#333333;stroke-width:0.183696"
       id="rect5080"
       width="0.1889881"
       height="1.3281524"
       x="2.6103981"
       y="70.68576" />
    <rect
       style="opacity:0.999;fill:#333333;stroke-width:0.183696"
       id="rect5082"
       width="0.1889881"
       height="1.3281524"
       x="71.255348"
       y="-3.3689682"
       transform="rotate(90)" />
    <circle
       style="opacity:0.999;fill:#4d4d4d;stroke-width:0.12015"
       id="circle5693"
       cx="89.892189"
       cy="2.7119792"
       r="1.1244792" />
    <rect
       style="opacity:0.999;fill:#333333;stroke-width:0.183696"
       id="rect5695"
       width="0.1889881"
       height="1.3281524"
       x="89.790619"
       y="2.0263865" />
    <rect
       style="opacity:0.999;fill:#333333;stroke-width:0.183696"
       id="rect5697"
       width="0.1889881"
       height="1.3281524"
       x="2.5959687"
       y="-90.549179"
       transform="rotate(90)" />
    <circle
       style="opacity:0.999;fill:#4d4d4d;stroke-width:0.12015"
       id="circle5699"
       cx="89.892189"
       cy="71.371353"
       r="1.1244792" />
    <rect
       style="opacity:0.999;fill:#333333;stroke-width:0.183696"
       id="rect5701"
       width="0.1889881"
       height="1.3281524"
       x="89.790619"
       y="70.68576" />
    <rect
       style="opacity:0.999;fill:#333333;stroke-width:0.183696"
       id="rect5703"
       width="0.1889881"
       height="1.3281524"
       x="71.255348"
       y="-90.549179"
       transform="rotate(90)" />
    <rect
       style="opacity:0.999;fill:#000000;fill-opacity:1;stroke-width:0.019329"
       id="rect2324"
       width="2.9293149"
       height="0.5291667"
       x="-32.735271"
       y="27.516666" />
    <rect
       style="opacity:0.999;fill:#000000;fill-opacity:1;stroke-width:0.019329"
       id="rect2326"
       width="2.9293149"
       height="0.5291667"
       x="-32.735271"
       y="46.037502" />
    <rect
       style="opacity:0.999;fill:#000000;fill-opacity:1;stroke-width:0.019329"
       id="rect2328"
       width="2.9293149"
       height="0.5291667"
       x="-32.735271"
       y="64.558334" />
    <rect
       style="opacity:0.999;fill:#000000;fill-opacity:1;stroke-width:0.019329"
       id="rect2330"
       width="2.9293149"
       height="0.5291667"
       x="-32.735271"
       y="8.9958334" />
    <g
       aria-label="OUT"
       id="text2407"
       style="font-style:normal;font-variant:normal;font-weight:normal;font-stretch:normal;font-size:5.64444px;line-height:1.25;font-family:RubberNippleFactory;-inkscape-font-specification:RubberNippleFactory;stroke-width:0.264583"
       transform="translate(52.395559,-8.4586081)">
      <path
         d="m 24.027473,46.276302 q 0,-0.53188 -0.36906,-0.895513 -0.36906,-0.363632 -0.928076,-0.363632 -0.53188,0 -0.895512,0.36906 -0.363633,0.369059 -0.363633,0.890085 0,0.521025 0.374487,0.895512 0.379915,0.374487 0.911795,0.374487 0.531879,0 0.900939,-0.36906 0.36906,-0.374487 0.36906,-0.900939 z m -1.215726,-2.355469 q 1.014914,0 1.687905,0.700128 0.672991,0.700128 0.672991,1.671623 0,0.976922 -0.721837,1.666195 -0.71641,0.689273 -1.725897,0.689273 -0.998631,0 -1.698759,-0.700128 -0.700128,-0.700127 -0.700128,-1.682477 0,-0.461325 0.179103,-0.884658 0.179102,-0.423333 0.493888,-0.748973 0.320214,-0.325641 0.792393,-0.515598 0.472179,-0.195385 1.020341,-0.195385 z"
         style="font-style:normal;font-variant:normal;font-weight:normal;font-stretch:normal;font-size:5.64444px;font-family:RubberNippleFactory;-inkscape-font-specification:RubberNippleFactory;stroke-width:0.264583"
         id="path2447" />
      <path
         d="m 28.483322,43.980534 h 1.161452 v 2.767947 q 0,0.835811 -0.53188,1.367691 -0.53188,0.53188 -1.367691,0.53188 -0.835812,0 -1.367692,-0.526453 -0.526452,-0.53188 -0.526452,-1.367691 v -2.773374 h 1.161452 v 2.82222 q 0,0.303932 0.211666,0.521025 0.217094,0.217094 0.521026,0.217094 0.303931,0 0.521025,-0.211666 0.217094,-0.217094 0.217094,-0.521025 z"
         style="font-style:normal;font-variant:normal;font-weight:normal;font-stretch:normal;font-size:5.64444px;font-family:RubberNippleFactory;-inkscape-font-specification:RubberNippleFactory;stroke-width:0.264583"
         id="path2449" />
      <path
         d="m 33.709851,43.980534 v 1.036623 h -1.161452 v 3.522348 h -1.210298 v -3.53863 h -1.150598 v -1.020341 h 1.150598 1.210298 z"
         style="font-style:normal;font-variant:normal;font-weight:normal;font-stretch:normal;font-size:5.64444px;font-family:RubberNippleFactory;-inkscape-font-specification:RubberNippleFactory;stroke-width:0.264583"
         id="path2451" />
    </g>
    <path
       style="opacity:0.999;fill:none;stroke:#000000;stroke-width:0.449792;stroke-miterlimit:4;stroke-dasharray:none"
       d="m 90.819701,5.8039119 h -2.74033 V 68.264474 h 3.1183"
       id="path2393"
       sodipodi:nodetypes="cccc" />
    <g
       aria-label="NOT"
       id="text4214"
       style="font-size:21.1667px;line-height:1.25;font-family:'Poiret One';-inkscape-font-specification:'Poiret One';stroke-width:0.264583">
      <path
         d="m 20.086897,9.114675 h 0.613834 V 25.222534 L 9.0167126,10.850344 V 24.9897 H 8.4028783 V 8.8818413 L 20.086897,23.232864 Z"
         style="font-size:21.1667px;stroke-width:0.264583"
         id="path4220" />
      <path
         d="m 31.326393,25.264867 q -3.280838,0 -5.693842,-2.476504 -2.391837,-2.476503 -2.391837,-5.778509 0,-3.323172 2.43417,-5.736176 2.434171,-2.4341701 5.84201,-2.4341701 3.407838,0 5.820842,2.4130041 2.413004,2.413004 2.413004,5.757342 0,3.323172 -2.391837,5.799676 -2.391837,2.455337 -5.715009,2.455337 z m 7.725846,-8.212679 q 0,-3.132672 -2.222504,-5.355176 -2.201336,-2.2436697 -5.334008,-2.2436697 -3.111505,0 -5.334009,2.2436697 -2.222503,2.222504 -2.222503,5.355176 0,3.111505 2.222503,5.355175 2.222504,2.24367 5.334009,2.24367 3.111505,0 5.334008,-2.24367 2.222504,-2.24367 2.222504,-5.355175 z"
         style="font-size:21.1667px;stroke-width:0.264583"
         id="path4222" />
      <path
         d="M 47.328362,9.114675 V 9.7285094 H 43.708856 V 24.9897 H 43.010355 V 9.7285094 H 39.348516 V 9.114675 Z"
         style="font-size:21.1667px;stroke-width:0.264583"
         id="path4224" />
    </g>
    <g
       aria-label="INPUT"
       id="text4218"
       style="font-size:5.64444px;line-height:1.25;font-family:'Poiret One';-inkscape-font-specification:'Poiret One';stroke-width:0.264583">
      <path
         d="M 3.0797468,67.18866 V 62.629689 H 4.2954724 V 67.18866 Z"
         style="font-style:normal;font-variant:normal;font-weight:normal;font-stretch:normal;font-family:RubberNippleFactory;-inkscape-font-specification:RubberNippleFactory;stroke-width:0.264583"
         id="path4227" />
      <path
         d="m 5.109574,67.18866 v -4.618672 h 0.1628204 l 2.9416217,2.344614 v -2.203503 h 1.1614521 v 4.651236 h -0.124829 l -2.947049,-2.57799 v 2.404315 z"
         style="font-style:normal;font-variant:normal;font-weight:normal;font-stretch:normal;font-family:RubberNippleFactory;-inkscape-font-specification:RubberNippleFactory;stroke-width:0.264583"
         id="path4229" />
      <path
         d="m 12.110849,62.629689 q 0.667563,0 1.112606,0.499316 0.45047,0.493888 0.455897,1.101751 0,0.407051 -0.151966,0.738119 -0.151966,0.325641 -0.401623,0.526453 -0.244231,0.200811 -0.542735,0.309358 -0.293077,0.10312 -0.597008,0.10312 h -0.61329 v 1.280854 h -1.183162 v -4.558971 h 1.177734 z m -0.298504,2.274058 q 0.26594,0 0.472179,-0.195385 0.206239,-0.200811 0.206239,-0.461324 0,-0.217094 -0.124829,-0.363632 -0.124829,-0.151966 -0.26594,-0.200812 -0.135684,-0.05427 -0.26594,-0.05427 h -0.466752 v 1.275427 z"
         style="font-style:normal;font-variant:normal;font-weight:normal;font-stretch:normal;font-family:RubberNippleFactory;-inkscape-font-specification:RubberNippleFactory;stroke-width:0.264583"
         id="path4231" />
      <path
         d="m 16.990027,62.629689 h 1.161452 v 2.767946 q 0,0.835812 -0.53188,1.367692 -0.53188,0.53188 -1.367691,0.53188 -0.835812,0 -1.367692,-0.526453 -0.526452,-0.53188 -0.526452,-1.367691 v -2.773374 h 1.161452 v 2.82222 q 0,0.303931 0.211667,0.521025 0.217093,0.217094 0.521025,0.217094 0.303931,0 0.521025,-0.211667 0.217094,-0.217093 0.217094,-0.521025 z"
         style="font-style:normal;font-variant:normal;font-weight:normal;font-stretch:normal;font-family:RubberNippleFactory;-inkscape-font-specification:RubberNippleFactory;stroke-width:0.264583"
         id="path4233" />
      <path
         d="m 22.216557,62.629689 v 1.036623 h -1.161452 v 3.522348 h -1.210298 v -3.53863 h -1.150598 v -1.020341 h 1.150598 1.210298 z"
         style="font-style:normal;font-variant:normal;font-weight:normal;font-stretch:normal;font-family:RubberNippleFactory;-inkscape-font-specification:RubberNippleFactory;stroke-width:0.264583"
         id="path4235" />
    </g>
  </g>
</svg>
