<?xml version="1.0" encoding="UTF-8" standalone="no"?>
<svg
   xmlns:dc="http://purl.org/dc/elements/1.1/"
   xmlns:cc="http://creativecommons.org/ns#"
   xmlns:rdf="http://www.w3.org/1999/02/22-rdf-syntax-ns#"
   xmlns:svg="http://www.w3.org/2000/svg"
   xmlns="http://www.w3.org/2000/svg"
   xmlns:sodipodi="http://sodipodi.sourceforge.net/DTD/sodipodi-0.dtd"
   xmlns:inkscape="http://www.inkscape.org/namespaces/inkscape"
   width="420"
   height="280"
   viewBox="0 0 111.125 74.083336"
   version="1.1"
   id="svg8"
   inkscape:version="1.0.1 (3bc2e813f5, 2020-09-07)"
   sodipodi:docname="orgate_2.svg">
  <defs
     id="defs2" />
  <sodipodi:namedview
     id="base"
     pagecolor="#ffffff"
     bordercolor="#666666"
     borderopacity="1.0"
     inkscape:pageopacity="0.0"
     inkscape:pageshadow="2"
     inkscape:zoom="1.4"
     inkscape:cx="119.10309"
     inkscape:cy="169.9798"
     inkscape:document-units="px"
     inkscape:current-layer="layer1"
     inkscape:document-rotation="0"
     showgrid="false"
     units="px"
     inkscape:window-width="1620"
     inkscape:window-height="1018"
     inkscape:window-x="-6"
     inkscape:window-y="-6"
     inkscape:window-maximized="1"
     inkscape:snap-global="false" />
  <metadata
     id="metadata5">
    <rdf:RDF>
      <cc:Work
         rdf:about="">
        <dc:format>image/svg+xml</dc:format>
        <dc:type
           rdf:resource="http://purl.org/dc/dcmitype/StillImage" />
        <dc:title></dc:title>
      </cc:Work>
    </rdf:RDF>
  </metadata>
  <g
     inkscape:label="Layer 1"
     inkscape:groupmode="layer"
     id="layer1">
    <rect
       style="opacity:0.999;fill:#000000;fill-opacity:1;stroke-width:0.0495843"
       id="rect5718"
       width="19.276785"
       height="0.5291667"
       x="-25.135416"
       y="27.516666" />
    <rect
       style="opacity:0.999;fill:#000000;fill-opacity:1;stroke-width:0.0495843"
       id="rect5720"
       width="19.276785"
       height="0.5291667"
       x="-25.135416"
       y="46.037502" />
    <rect
       style="opacity:0.999;fill:#000000;fill-opacity:1;stroke-width:0.0495843"
       id="rect5722"
       width="19.276785"
       height="0.5291667"
       x="-25.135416"
       y="64.558334" />
    <rect
       style="opacity:0.999;fill:#000000;fill-opacity:1;stroke-width:0.0495843"
       id="rect5716"
       width="19.276785"
       height="0.5291667"
       x="-25.135416"
       y="8.9958334" />
    <text
       xml:space="preserve"
       style="font-size:10.5833px;line-height:1.25;font-family:Cutive;-inkscape-font-specification:Cutive;stroke-width:0.264583"
       x="6.0135646"
       y="10.022607"
       id="text839"><tspan
         sodipodi:role="line"
         id="tspan837"
         x="6.0135646"
         y="10.022607"
         style="stroke-width:0.264583" /></text>
    <text
       xml:space="preserve"
       style="font-size:10.5833px;line-height:1.25;font-family:Cutive;-inkscape-font-specification:Cutive;stroke-width:0.264583"
       x="1.8040689"
       y="10.757601"
       id="text843"><tspan
         sodipodi:role="line"
         id="tspan841"
         x="1.8040689"
         y="10.757601"
         style="stroke-width:0.264583" /></text>
    <rect
       style="opacity:0.999;fill:#f2f2f2;fill-opacity:1;stroke-width:0.192446"
       id="rect900"
       width="110.06667"
       height="73.025002"
       x="0.5291667"
       y="0.5291667"
       ry="2.2255881" />
    <path
       id="rect5705"
       style="opacity:0.999;fill:#f9f9f9;fill-opacity:1;stroke-width:0.823"
       d="M 10.630859,2 C 5.8491739,2 2,5.8491739 2,10.630859 V 266.20977 h 397.90151 c 4.75681,0 8.58594,-3.82913 8.58594,-8.58594 V 2 Z"
       sodipodi:nodetypes="sscsscs"
       transform="scale(0.26458334)" />
    <circle
       style="opacity:0.999;fill:#4d4d4d;stroke-width:0.12015"
       id="path5070"
       cx="2.7119792"
       cy="2.7119792"
       r="1.1244792" />
    <rect
       style="opacity:0.999;fill:#333333;stroke-width:0.183696"
       id="rect5074"
       width="0.1889881"
       height="1.3281524"
       x="2.6103981"
       y="2.0263865" />
    <rect
       style="opacity:0.999;fill:#333333;stroke-width:0.183696"
       id="rect5076"
       width="0.1889881"
       height="1.3281524"
       x="2.5959687"
       y="-3.3689682"
       transform="rotate(90)" />
    <circle
       style="opacity:0.999;fill:#4d4d4d;stroke-width:0.12015"
       id="circle5078"
       cx="2.7119792"
       cy="71.371353"
       r="1.1244792" />
    <rect
       style="opacity:0.999;fill:#333333;stroke-width:0.183696"
       id="rect5080"
       width="0.1889881"
       height="1.3281524"
       x="2.6103981"
       y="70.68576" />
    <rect
       style="opacity:0.999;fill:#333333;stroke-width:0.183696"
       id="rect5082"
       width="0.1889881"
       height="1.3281524"
       x="71.255348"
       y="-3.3689682"
       transform="rotate(90)" />
    <circle
       style="opacity:0.999;fill:#4d4d4d;stroke-width:0.12015"
       id="circle5693"
       cx="108.41302"
       cy="2.7119792"
       r="1.1244792" />
    <rect
       style="opacity:0.999;fill:#333333;stroke-width:0.183696"
       id="rect5695"
       width="0.1889881"
       height="1.3281524"
       x="108.31145"
       y="2.0263865" />
    <rect
       style="opacity:0.999;fill:#333333;stroke-width:0.183696"
       id="rect5697"
       width="0.1889881"
       height="1.3281524"
       x="2.5959687"
       y="-109.07001"
       transform="rotate(90)" />
    <circle
       style="opacity:0.999;fill:#4d4d4d;stroke-width:0.12015"
       id="circle5699"
       cx="108.41302"
       cy="71.371353"
       r="1.1244792" />
    <rect
       style="opacity:0.999;fill:#333333;stroke-width:0.183696"
       id="rect5701"
       width="0.1889881"
       height="1.3281524"
       x="108.31145"
       y="70.68576" />
    <rect
       style="opacity:0.999;fill:#333333;stroke-width:0.183696"
       id="rect5703"
       width="0.1889881"
       height="1.3281524"
       x="71.255348"
       y="-109.07001"
       transform="rotate(90)" />
    <rect
       style="opacity:0.999;fill:#000000;fill-opacity:1;stroke-width:0.019329"
       id="rect2324"
       width="2.9293149"
       height="0.5291667"
       x="-32.735271"
       y="27.516666" />
    <rect
       style="opacity:0.999;fill:#000000;fill-opacity:1;stroke-width:0.019329"
       id="rect2326"
       width="2.9293149"
       height="0.5291667"
       x="-32.735271"
       y="46.037502" />
    <rect
       style="opacity:0.999;fill:#000000;fill-opacity:1;stroke-width:0.019329"
       id="rect2328"
       width="2.9293149"
       height="0.5291667"
       x="-32.735271"
       y="64.558334" />
    <rect
       style="opacity:0.999;fill:#000000;fill-opacity:1;stroke-width:0.019329"
       id="rect2330"
       width="2.9293149"
       height="0.5291667"
       x="-32.735271"
       y="8.9958334" />
    <g
       aria-label="OUT"
       id="text2407"
       style="font-style:normal;font-variant:normal;font-weight:normal;font-stretch:normal;font-size:5.64444px;line-height:1.25;font-family:RubberNippleFactory;-inkscape-font-specification:RubberNippleFactory;stroke-width:0.264583"
       transform="translate(70.349428,-8.4586081)">
      <path
         d="m 24.027473,46.276302 q 0,-0.53188 -0.36906,-0.895513 -0.36906,-0.363632 -0.928076,-0.363632 -0.53188,0 -0.895512,0.36906 -0.363633,0.369059 -0.363633,0.890085 0,0.521025 0.374487,0.895512 0.379915,0.374487 0.911795,0.374487 0.531879,0 0.900939,-0.36906 0.36906,-0.374487 0.36906,-0.900939 z m -1.215726,-2.355469 q 1.014914,0 1.687905,0.700128 0.672991,0.700128 0.672991,1.671623 0,0.976922 -0.721837,1.666195 -0.71641,0.689273 -1.725897,0.689273 -0.998631,0 -1.698759,-0.700128 -0.700128,-0.700127 -0.700128,-1.682477 0,-0.461325 0.179103,-0.884658 0.179102,-0.423333 0.493888,-0.748973 0.320214,-0.325641 0.792393,-0.515598 0.472179,-0.195385 1.020341,-0.195385 z"
         style="font-style:normal;font-variant:normal;font-weight:normal;font-stretch:normal;font-size:5.64444px;font-family:RubberNippleFactory;-inkscape-font-specification:RubberNippleFactory;stroke-width:0.264583"
         id="path2447" />
      <path
         d="m 28.483322,43.980534 h 1.161452 v 2.767947 q 0,0.835811 -0.53188,1.367691 -0.53188,0.53188 -1.367691,0.53188 -0.835812,0 -1.367692,-0.526453 -0.526452,-0.53188 -0.526452,-1.367691 v -2.773374 h 1.161452 v 2.82222 q 0,0.303932 0.211666,0.521025 0.217094,0.217094 0.521026,0.217094 0.303931,0 0.521025,-0.211666 0.217094,-0.217094 0.217094,-0.521025 z"
         style="font-style:normal;font-variant:normal;font-weight:normal;font-stretch:normal;font-size:5.64444px;font-family:RubberNippleFactory;-inkscape-font-specification:RubberNippleFactory;stroke-width:0.264583"
         id="path2449" />
      <path
         d="m 33.709851,43.980534 v 1.036623 h -1.161452 v 3.522348 h -1.210298 v -3.53863 h -1.150598 v -1.020341 h 1.150598 1.210298 z"
         style="font-style:normal;font-variant:normal;font-weight:normal;font-stretch:normal;font-size:5.64444px;font-family:RubberNippleFactory;-inkscape-font-specification:RubberNippleFactory;stroke-width:0.264583"
         id="path2451" />
    </g>
    <g
       aria-label="OR"
       id="text2411"
       style="font-size:10.5833px;line-height:1.25;font-family:'Poiret One';-inkscape-font-specification:'Poiret One';stroke-width:0.264583"
       transform="matrix(2.0000077,0,0,2.0000077,22.606468,-14.907305)">
      <path
         d="m 24.363832,21.719599 q -1.640412,0 -2.846908,-1.238246 -1.195913,-1.238246 -1.195913,-2.889241 0,-1.661578 1.21708,-2.868074 1.217079,-1.21708 2.92099,-1.21708 1.703912,0 2.910408,1.206497 1.206496,1.206496 1.206496,2.878657 0,1.661578 -1.195913,2.899824 -1.195913,1.227663 -2.857491,1.227663 z m 3.862904,-4.10632 q 0,-1.566329 -1.111246,-2.677575 -1.100664,-1.12183 -2.666992,-1.12183 -1.555745,0 -2.666991,1.12183 -1.111247,1.111246 -1.111247,2.677575 0,1.555745 1.111247,2.677574 1.111246,1.12183 2.666991,1.12183 1.555745,0 2.666992,-1.12183 1.111246,-1.121829 1.111246,-2.677574 z"
         style="stroke-width:0.264583"
         id="path2468" />
      <path
         d="m 29.84597,13.644541 h 0.455082 q 1.02658,0 1.799161,0.761998 0.783164,0.751414 0.783164,1.777994 0,1.015997 -0.793748,1.767411 -0.793747,0.751414 -1.703911,0.751414 h -0.07408 l 2.730491,2.878658 h -0.455082 l -2.402409,-2.518825 v 2.518825 H 29.84597 Z m 0.338665,4.751902 h 0.1905 q 0.857247,0 1.513412,-0.656165 0.656164,-0.656164 0.656164,-1.555745 0,-0.89958 -0.677331,-1.566328 -0.677331,-0.666748 -1.545162,-0.666748 h -0.137583 z"
         style="stroke-width:0.264583"
         id="path2470" />
    </g>
    <g
       aria-label="IN 1"
       id="text2415"
       style="font-size:5.64444px;line-height:1.25;font-family:'Poiret One';-inkscape-font-specification:'Poiret One';stroke-width:0.264583">
      <path
         d="M 2.9104167,11.497838 V 6.9388671 h 1.2157256 v 4.5589709 z"
         style="font-style:normal;font-variant:normal;font-weight:normal;font-stretch:normal;font-size:5.64444px;font-family:RubberNippleFactory;-inkscape-font-specification:RubberNippleFactory;stroke-width:0.264583"
         id="path2433" />
      <path
         d="M 4.9402438,11.497838 V 6.8791663 H 5.1030642 L 8.0446859,9.2237799 V 7.0202773 H 9.2061381 V 11.671513 H 9.0813091 L 6.13426,9.0935236 v 2.4043144 z"
         style="font-style:normal;font-variant:normal;font-weight:normal;font-stretch:normal;font-size:5.64444px;font-family:RubberNippleFactory;-inkscape-font-specification:RubberNippleFactory;stroke-width:0.264583"
         id="path2435" />
      <path
         d="m 13.292917,11.497838 h -1.12346 V 7.9320715 l -0.721837,0.26594 0.01085,-0.6512816 1.720469,-0.6675636 h 0.113974 z"
         style="font-style:normal;font-variant:normal;font-weight:normal;font-stretch:normal;font-size:5.64444px;font-family:RubberNippleFactory;-inkscape-font-specification:RubberNippleFactory;stroke-width:0.264583"
         id="path2437" />
    </g>
    <g
       aria-label="IN 2"
       id="text2419"
       style="font-size:5.64444px;line-height:1.25;font-family:'Poiret One';-inkscape-font-specification:'Poiret One';stroke-width:0.264583">
      <path
         d="M 2.9104167,30.018671 V 25.4597 h 1.2157256 v 4.558971 z"
         style="font-style:normal;font-variant:normal;font-weight:normal;font-stretch:normal;font-size:5.64444px;font-family:RubberNippleFactory;-inkscape-font-specification:RubberNippleFactory;stroke-width:0.264583"
         id="path2440" />
      <path
         d="m 4.9402438,30.018671 v -4.618672 h 0.1628204 l 2.9416217,2.344614 V 25.54111 h 1.1614522 v 4.651236 H 9.0813091 L 6.13426,27.614357 v 2.404314 z"
         style="font-style:normal;font-variant:normal;font-weight:normal;font-stretch:normal;font-size:5.64444px;font-family:RubberNippleFactory;-inkscape-font-specification:RubberNippleFactory;stroke-width:0.264583"
         id="path2442" />
      <path
         d="M 12.136893,26.724272 11.50732,25.997007 q 0.233376,-0.227948 0.396197,-0.336495 0.16282,-0.113974 0.42876,-0.18453 0.271367,-0.07598 0.651282,-0.07598 0.705555,0 1.14517,0.439615 0.439615,0.434188 0.439615,0.938931 0,0.445043 -0.298504,0.987777 -0.298504,0.537308 -0.841239,1.269999 l 1.791024,-0.01628 v 0.998632 H 11.44762 q 1.183161,-1.590212 1.709614,-2.447733 0.282222,-0.461325 0.282222,-0.727265 0,-0.184529 -0.162821,-0.369059 -0.157393,-0.18453 -0.42876,-0.18453 -0.255085,0 -0.412478,0.108547 -0.157393,0.108547 -0.298504,0.325641 z"
         style="font-style:normal;font-variant:normal;font-weight:normal;font-stretch:normal;font-size:5.64444px;font-family:RubberNippleFactory;-inkscape-font-specification:RubberNippleFactory;stroke-width:0.264583"
         id="path2444" />
    </g>
    <g
       aria-label="IN 3"
       id="text2423"
       style="font-size:5.64444px;line-height:1.25;font-family:'Poiret One';-inkscape-font-specification:'Poiret One';stroke-width:0.264583"
       transform="translate(0,-18.520835)">
      <path
         d="M 2.9104167,67.060341 V 62.50137 h 1.2157256 v 4.558971 z"
         style="font-style:normal;font-variant:normal;font-weight:normal;font-stretch:normal;font-size:5.64444px;font-family:RubberNippleFactory;-inkscape-font-specification:RubberNippleFactory;stroke-width:0.264583"
         id="path2454" />
      <path
         d="m 4.9402438,67.060341 v -4.618672 h 0.1628204 l 2.9416217,2.344614 V 62.58278 h 1.1614522 v 4.651236 H 9.0813091 L 6.13426,64.656026 v 2.404315 z"
         style="font-style:normal;font-variant:normal;font-weight:normal;font-stretch:normal;font-size:5.64444px;font-family:RubberNippleFactory;-inkscape-font-specification:RubberNippleFactory;stroke-width:0.264583"
         id="path2456" />
      <path
         d="m 13.705396,64.60718 q 0.417905,0.0597 0.640427,0.36906 0.222521,0.309359 0.222521,0.6947 0,0.700128 -0.548162,1.101752 -0.548162,0.396196 -1.302563,0.396196 -0.770684,0 -1.269999,-0.385342 l 0.320213,-1.004059 q 0.537307,0.401624 0.993204,0.401624 0.314787,0 0.504744,-0.173675 0.189957,-0.179103 0.189957,-0.412479 0,-0.227948 -0.173675,-0.379914 -0.168248,-0.157393 -0.537308,-0.157393 v -0.77611 q 0.249658,0 0.379915,-0.119402 0.135683,-0.124829 0.135683,-0.293077 0,-0.18453 -0.157393,-0.325641 -0.151965,-0.146538 -0.412478,-0.146538 -0.407051,0 -0.79782,0.287649 L 11.44762,62.794447 q 0.358204,-0.200812 0.662136,-0.276795 0.309359,-0.07598 0.738119,-0.07598 0.607863,0 1.036623,0.352778 0.434188,0.34735 0.434188,0.835811 0,0.314786 -0.168248,0.575299 -0.168248,0.260512 -0.445042,0.401623 z"
         style="font-style:normal;font-variant:normal;font-weight:normal;font-stretch:normal;font-size:5.64444px;font-family:RubberNippleFactory;-inkscape-font-specification:RubberNippleFactory;stroke-width:0.264583"
         id="path2458" />
    </g>
    <g
       aria-label="IN 4"
       id="text2427"
       style="font-size:5.64444px;line-height:1.25;font-family:'Poiret One';-inkscape-font-specification:'Poiret One';stroke-width:0.264583"
       transform="translate(0,-18.520835)">
      <path
         d="m 2.9104167,85.581169 v -4.558971 h 1.2157256 v 4.558971 z"
         style="font-style:normal;font-variant:normal;font-weight:normal;font-stretch:normal;font-size:5.64444px;font-family:RubberNippleFactory;-inkscape-font-specification:RubberNippleFactory;stroke-width:0.264583"
         id="path2461" />
      <path
         d="m 4.9402438,85.581169 v -4.618672 h 0.1628204 l 2.9416217,2.344614 v -2.203503 h 1.1614522 v 4.651236 H 9.0813091 L 6.13426,83.176855 v 2.404314 z"
         style="font-style:normal;font-variant:normal;font-weight:normal;font-stretch:normal;font-size:5.64444px;font-family:RubberNippleFactory;-inkscape-font-specification:RubberNippleFactory;stroke-width:0.264583"
         id="path2463" />
      <path
         d="m 11.44762,84.73993 v -0.917221 l 1.796451,-2.800511 h 1.378546 v 2.751665 h 0.700128 v 0.966067 h -0.700128 v 0.841239 h -1.06376 V 84.73993 Z m 2.111237,-2.773374 -1.150597,1.801879 h 1.150597 z"
         style="font-style:normal;font-variant:normal;font-weight:normal;font-stretch:normal;font-size:5.64444px;font-family:RubberNippleFactory;-inkscape-font-specification:RubberNippleFactory;stroke-width:0.264583"
         id="path2465" />
    </g>
    <path
       style="opacity:0.999;fill:none;stroke:#000000;stroke-width:0.449792;stroke-miterlimit:4;stroke-dasharray:none"
       d="m 108.77357,5.8039119 h -2.74033 V 68.264474 h 3.1183"
       id="path2393"
       sodipodi:nodetypes="cccc" />
    <g
       aria-label="INVERT"
       id="text2480"
       style="font-size:5.64444px;line-height:1.25;font-family:RubberNippleFactory;-inkscape-font-specification:RubberNippleFactory;stroke-width:0.264583">
      <path
         d="m 44.420372,40.093407 v -4.558971 h 1.215725 v 4.558971 z"
         style="stroke-width:0.264583"
         id="path2484" />
      <path
         d="m 46.450199,40.093407 v -4.618672 h 0.16282 l 2.941622,2.344614 v -2.203503 h 1.161452 v 4.651236 h -0.124829 l -2.947049,-2.57799 v 2.404315 z"
         style="stroke-width:0.264583"
         id="path2486" />
      <path
         d="m 53.467756,37.889904 q 0.260512,-0.672991 0.34735,-0.873803 0,0 0.705555,-1.481665 h 1.210298 l -2.170938,4.667518 h -0.189957 l -2.246922,-4.667518 h 1.286281 q 0.645855,1.351409 0.79782,1.682477 0.06513,0.146538 0.130257,0.314786 0.06513,0.168248 0.09769,0.260513 z"
         style="stroke-width:0.264583"
         id="path2488" />
      <path
         d="m 57.288603,39.116484 h 1.508802 v 0.976923 h -2.6594 v -4.558971 h 2.6594 v 0.971495 h -1.508802 v 0.759828 h 1.508802 v 0.976923 h -1.508802 z"
         style="stroke-width:0.264583"
         id="path2490" />
      <path
         d="m 62.336027,40.093407 -1.552221,-1.829016 v 1.829016 h -1.172307 v -4.558971 h 1.899571 q 0.602435,0 1.031196,0.42876 0.42876,0.423333 0.42876,1.025769 0,0.385341 -0.189957,0.716409 -0.189957,0.325641 -0.521025,0.526453 l -0.03256,0.02171 1.628204,1.839871 z m -1.552221,-2.632263 h 0.569871 q 0.195384,0 0.331068,-0.135684 0.135684,-0.141111 0.135684,-0.336495 0,-0.195385 -0.135684,-0.331069 -0.135684,-0.135683 -0.331068,-0.135683 h -0.569871 z"
         style="stroke-width:0.264583"
         id="path2492" />
      <path
         d="m 67.51371,35.534436 v 1.036623 h -1.161452 v 3.522348 H 65.14196 v -3.53863 h -1.150598 v -1.020341 h 1.150598 1.210298 z"
         style="stroke-width:0.264583"
         id="path2494" />
    </g>
    <path
       style="opacity:0.999;fill:none;stroke:#000000;stroke-width:0.449792;stroke-miterlimit:4;stroke-dasharray:none"
       d="m 39.851494,5.8039119 h 2.74033 V 68.264474 h -3.1183"
       id="path2482"
       sodipodi:nodetypes="cccc" />
  </g>
</svg>
