<?xml version="1.0" encoding="UTF-8" standalone="no"?>
<svg
   xmlns:dc="http://purl.org/dc/elements/1.1/"
   xmlns:cc="http://creativecommons.org/ns#"
   xmlns:rdf="http://www.w3.org/1999/02/22-rdf-syntax-ns#"
   xmlns:svg="http://www.w3.org/2000/svg"
   xmlns="http://www.w3.org/2000/svg"
   xmlns:sodipodi="http://sodipodi.sourceforge.net/DTD/sodipodi-0.dtd"
   xmlns:inkscape="http://www.inkscape.org/namespaces/inkscape"
   width="273.92859"
   height="107.91117"
   viewBox="0 0 72.476938 28.551498"
   version="1.1"
   id="svg8"
   inkscape:version="1.0.1 (3bc2e813f5, 2020-09-07)"
   sodipodi:docname="cable_box_trash.svg">
  <defs
     id="defs2" />
  <sodipodi:namedview
     id="base"
     pagecolor="#ffffff"
     bordercolor="#666666"
     borderopacity="1.0"
     inkscape:pageopacity="0.0"
     inkscape:pageshadow="2"
     inkscape:zoom="2.8"
     inkscape:cx="142.35373"
     inkscape:cy="57.782964"
     inkscape:document-units="px"
     inkscape:current-layer="layer1"
     inkscape:document-rotation="0"
     showgrid="false"
     units="px"
     inkscape:window-width="1620"
     inkscape:window-height="1018"
     inkscape:window-x="-6"
     inkscape:window-y="-6"
     inkscape:window-maximized="1"
     inkscape:snap-global="false"
     fit-margin-top="0"
     fit-margin-left="0"
     fit-margin-right="0"
     fit-margin-bottom="0" />
  <metadata
     id="metadata5">
    <rdf:RDF>
      <cc:Work
         rdf:about="">
        <dc:format>image/svg+xml</dc:format>
        <dc:type
           rdf:resource="http://purl.org/dc/dcmitype/StillImage" />
        <dc:title></dc:title>
      </cc:Work>
    </rdf:RDF>
  </metadata>
  <g
     inkscape:label="Layer 1"
     inkscape:groupmode="layer"
     id="layer1"
     transform="translate(25.536324,17.452152)">
    <rect
       style="opacity:0.999;fill:#f8f8f8;fill-opacity:1;stroke:none;stroke-width:0.201864"
       id="rect4919"
       width="72.860588"
       height="12.939167"
       x="-25.937227"
       y="-17.428745" />
    <path
       id="rect4914"
       style="opacity:0.999;fill:#000000;fill-opacity:1;stroke:none;stroke-width:0.285935"
       d="m -13.98512,9.1267824 h 12.0379173 l -0.968852,1.9725636 h -9.9665783 z"
       sodipodi:nodetypes="ccccc" />
    <path
       id="path4917"
       style="opacity:0.999;fill:#1a1a1a;fill-opacity:1;stroke:none;stroke-width:0.240222"
       d="m -13.383763,8.3917912 h 8.4965954 l -0.6838346,1.9725638 h -7.0346038 z"
       sodipodi:nodetypes="ccccc" />
    <rect
       style="opacity:0.999;fill:#f8f8f8;fill-opacity:1;stroke:none;stroke-width:0.270006"
       id="rect4910"
       width="72.476936"
       height="26.865196"
       x="-25.536324"
       y="-17.452152"
       ry="7.0826426" />
    <rect
       style="opacity:0.999;fill:#e3e3e3;fill-opacity:1;stroke:none;stroke-width:0.262621"
       id="rect4912"
       width="71.40786"
       height="25.796118"
       x="-25.536324"
       y="-17.452152"
       ry="6.8007946" />
    <rect
       style="opacity:0.999;fill:#e3e3e3;fill-opacity:1;stroke:none;stroke-width:0.201127"
       id="rect4921"
       width="71.806099"
       height="13.033661"
       x="-25.937227"
       y="-17.523239" />
    <g
       aria-label="Cable Box"
       id="text4908"
       style="font-size:14.1111px;line-height:1.25;font-family:'Poiret One';-inkscape-font-specification:'Poiret One';stroke-width:0.264583"
       transform="translate(-55.5625,42.900298)">
      <path
         d="m -12.902517,0.48849384 h -0.155222 q -1.453443,0 -2.709331,-0.76199941 -1.255888,-0.76199943 -1.989665,-2.01788733 -0.719666,-1.269999 -0.719666,-2.6952201 0,-2.243665 1.622776,-3.8523304 1.622777,-1.6227766 3.880553,-1.6227766 1.509888,0 2.864553,0.7902217 v 0.5221107 q -1.326443,-0.9031104 -2.864553,-0.9031104 -2.074332,0 -3.555997,1.4957766 -1.481666,1.4816655 -1.481666,3.5701084 0,2.0743317 1.481666,3.5701083 1.481665,1.49577664 3.555997,1.49577664 1.53811,0 2.864553,-0.90311041 v 0.5221107 q -1.28411,0.79022161 -2.793998,0.79022161 z"
         style="font-size:14.1111px;stroke-width:0.264583"
         id="path4923" />
      <path
         d="M -2.0793032,-6.0167233 V 0.33327174 H -2.5308584 V -1.2471715 q -0.3951108,0.80433273 -1.1853324,1.26999904 -0.7902217,0.4656663 -1.6933321,0.4656663 -1.3828878,0 -2.3706648,-0.97366591 -0.987777,-0.98777703 -0.987777,-2.35655373 0,-1.3687767 0.987777,-2.3424426 0.987777,-0.987777 2.3706648,-0.987777 0.9031104,0 1.7215543,0.4797774 0.8325549,0.4797774 1.1571102,1.269999 v -1.5945543 z m -6.2371063,3.1891086 q 0,1.1853324 0.8607771,2.06022063 0.8748882,0.86077711 2.0602206,0.86077711 1.1994436,0 2.0461096,-0.86077711 0.846666,-0.87488823 0.846666,-2.06022063 0,-1.1994435 -0.8607771,-2.0743317 -0.846666,-0.8748882 -2.0319985,-0.8748882 -1.1853324,0 -2.0602206,0.8889993 -0.8607771,0.8748882 -0.8607771,2.0602206 z"
         style="font-size:14.1111px;stroke-width:0.264583"
         id="path4925" />
      <path
         d="M -0.38599428,0.33327174 V -10.250053 h 0.4515552 v 5.7855507 q 0.38099971,-0.7761105 1.18533238,-1.2417768 0.8184439,-0.4656663 1.6933321,-0.4656663 1.3969989,0 2.3706648,0.987777 0.987777,0.9736659 0.987777,2.3424426 0,1.3687767 -0.987777,2.35655373 -0.9736659,0.97366591 -2.3706648,0.97366591 -0.846666,0 -1.6509988,-0.4515552 Q 0.48889393,-0.42872767 0.06556092,-1.2048382 v 1.53810994 z m 0.423333,-3.16088644 q 0,1.1853324 0.86077712,2.06022063 0.87488816,0.86077711 2.06022066,0.86077711 1.1994435,0 2.0461095,-0.86077711 0.846666,-0.87488823 0.846666,-2.06022063 0,-1.1994435 -0.8607771,-2.0743317 -0.846666,-0.8748882 -2.0319984,-0.8748882 -1.1853325,0 -2.06022066,0.8889993 -0.86077712,0.8748882 -0.86077712,2.0602206 z"
         style="font-size:14.1111px;stroke-width:0.264583"
         id="path4927" />
      <path
         d="m 10.056196,0.06516084 v 0.3951108 q -1.0018883,0 -1.7074433,-0.66322171 -0.705555,-0.67733281 -0.705555,-1.72155423 v -8.3255487 h 0.4515552 v 8.3255487 q 0,0.8607771 0.564444,1.42522113 0.5785551,0.56444401 1.3969991,0.56444401 z"
         style="font-size:14.1111px;stroke-width:0.264583"
         id="path4929" />
      <path
         d="m 13.795618,0.50260494 h -0.127 q -1.340554,0 -2.342443,-1.00188811 -0.987777,-1.01599923 -0.987777,-2.35655373 0,-1.3405545 0.987777,-2.3142204 0.987777,-0.987777 2.441221,-0.987777 1.453443,0 2.497664,1.1571102 l -4.430885,4.37444103 q 0.917222,0.73377721 1.763888,0.73377721 0.846666,0 1.509887,-0.38099971 0.677333,-0.3951108 1.114777,-1.04422143 v 0.71966613 Q 15.220839,0.50260494 13.795618,0.50260494 Z M 13.640396,-5.7627235 q -1.114777,0 -1.989665,0.8748882 -0.860777,0.8607771 -0.860777,1.9896651 0,1.128888 0.747888,1.97555402 l 4.10633,-4.07810792 q -0.874888,-0.7619994 -2.003776,-0.7619994 z"
         style="font-size:14.1111px;stroke-width:0.264583"
         id="path4931" />
      <path
         d="m 22.756128,-10.250053 h 0.451556 q 0.917221,0 1.53811,0.5785547 0.620888,0.564444 0.620888,1.4534433 0,0.5362218 -0.352778,1.1006658 -0.338666,0.5503329 -0.804332,0.7196661 1.086554,0.268111 1.806221,1.1571103 0.719666,0.8889993 0.719666,2.2436649 0,1.3405545 -1.030111,2.34244263 -1.03011,0.98777701 -2.497664,0.98777701 h -0.451556 z m 0.451556,4.1063298 v 6.08188414 h 0.112888 q 1.213555,0 2.088443,-0.90311042 0.889,-0.90311042 0.889,-2.14488722 0,-1.2417768 -0.874889,-2.1307761 -0.874888,-0.9031104 -2.102554,-0.9031104 z m 0,-3.7112194 v 3.3302196 h 0.112888 q 0.635,0 1.114777,-0.5079996 0.493889,-0.5221107 0.493889,-1.1853324 0,-0.6773328 -0.479778,-1.1571102 -0.479777,-0.4797774 -1.128888,-0.4797774 z"
         style="font-size:14.1111px;stroke-width:0.264583"
         id="path4933" />
      <path
         d="m 30.954665,0.48849384 q -1.354666,0 -2.328331,-1.00188811 -0.973666,-1.01599923 -0.973666,-2.35655373 0,-1.3405545 0.987777,-2.3142204 0.987777,-0.987777 2.370664,-0.987777 1.396999,0 2.370665,0.987777 0.987777,0.9736659 0.987777,2.3283315 0,1.3405545 -0.959554,2.34244263 -0.959555,1.00188811 -2.328332,1.00188811 z m 2.963331,-3.31610854 q 0,-1.1994435 -0.860777,-2.0743317 -0.846666,-0.8748882 -2.031998,-0.8748882 -1.185333,0 -2.060221,0.8889993 -0.860777,0.8748882 -0.860777,2.0602206 0,1.1853324 0.860777,2.06022063 0.874888,0.86077711 2.060221,0.86077711 1.199443,0 2.046109,-0.86077711 0.846666,-0.87488823 0.846666,-2.06022063 z"
         style="font-size:14.1111px;stroke-width:0.264583"
         id="path4935" />
      <path
         d="m 38.137209,-3.5190586 2.554109,3.85233034 h -0.52211 L 37.883209,-3.1239478 35.611322,0.33327174 h -0.451555 l 2.497665,-3.80999704 -1.679221,-2.539998 h 0.52211 l 1.41111,2.1448872 1.411111,-2.1448872 h 0.451555 z"
         style="font-size:14.1111px;stroke-width:0.264583"
         id="path4937" />
    </g>
    <g
       inkscape:label="Layer 1"
       id="layer1-0"
       transform="matrix(0.92116866,0,0,0.92116866,-14.90686,-14.708461)">
      <path
         style="opacity:0.999;fill:#b2b2b2;fill-opacity:1;stroke:none;stroke-width:0.28504;stroke-opacity:1"
         d="m 16.210577,6.7151472 -0.392563,4.0934668 -0.08865,0.106974 -1.129629,8.85931 0.0072,0.937915 H 9.2281604 L 7.8918127,7.4518662 Z"
         id="path5528"
         sodipodi:nodetypes="cccccccc" />
      <path
         style="opacity:0.999;fill:#b2b2b2;fill-opacity:1;stroke:none;stroke-width:0.28504;stroke-opacity:1"
         d="m 2.5056519,6.7151472 0.3925625,4.0934668 0.088653,0.106974 1.129628,8.85931 -0.00723,0.937915 H 9.4880683 L 10.824416,7.4518662 Z"
         id="path5522"
         sodipodi:nodetypes="cccccccc" />
      <ellipse
         style="opacity:0.999;fill:#2a2a2a;fill-opacity:1;stroke:#b2b2b2;stroke-width:0.294575;stroke-opacity:1"
         id="path5520"
         cx="9.3717146"
         cy="6.5909595"
         rx="6.7108855"
         ry="3.3159189" />
      <ellipse
         style="opacity:0.999;fill:#b2b2b2;fill-opacity:1;stroke:none;stroke-width:0.307325;stroke-opacity:1"
         id="path5526"
         cx="9.3886642"
         cy="20.649641"
         rx="5.251718"
         ry="2.4057136" />
      <path
         style="opacity:0.999;fill:#c2c2c2;fill-opacity:1;stroke:none;stroke-width:0.264583;stroke-opacity:1"
         d="M 6.201172,9.3430992 6.059431,9.5911461 c 0,0 0.7123632,0.2595645 1.34654,0.3425409 0.6319293,0.082682 1.2343287,0.112212 1.2343287,0.112212 l 0.023625,-0.3012001 c 0,0 -0.8917875,-0.053153 -1.216611,-0.1122115 C 7.1224891,9.5734284 6.201172,9.3430992 6.201172,9.3430992 Z"
         id="path5530"
         sodipodi:nodetypes="ccsccsc" />
      <path
         style="opacity:0.999;fill:#c2c2c2;fill-opacity:1;stroke:none;stroke-width:0.264583;stroke-opacity:1"
         d="m 6.1303016,11.918062 c 0.2362351,0.07087 2.1261161,0.472471 2.4804686,0.4016 L 8.6343937,10.034086 6.0476191,9.5734283 Z"
         id="path5532"
         sodipodi:nodetypes="ccccc" />
      <path
         style="opacity:0.999;fill:#c2c2c2;fill-opacity:1;stroke:none;stroke-width:0.264583;stroke-opacity:1"
         d="m 6.3398929,11.929769 0.6494428,8.883846 c 0.5723298,0.4214 1.1685898,0.318633 1.8290241,0.255458 L 8.9477973,12.31397 C 7.6943742,12.27521 7.2492448,12.057837 6.3398929,11.929769 Z"
         id="path5534"
         sodipodi:nodetypes="ccccc" />
      <path
         style="opacity:0.999;fill:#c2c2c2;fill-opacity:1;stroke:none;stroke-width:0.264583;stroke-opacity:1"
         d="m 6.9689363,20.812315 -0.6496466,1.748139 c 0,0 0.584198,0.293244 1.4410341,0.389789 0.8386348,0.09449 1.3465404,0.12993 1.3465404,0.12993 L 8.8351936,21.060362"
         id="path5536"
         sodipodi:nodetypes="ccscc" />
      <g
         id="g5557"
         transform="matrix(1.0984739,0,0,1.0984739,11.253573,1.1636709)">
        <path
           style="opacity:0.999;fill:#ababab;fill-opacity:1;stroke:none;stroke-width:0.264583;stroke-opacity:1"
           d="M -2.6758844,-0.41236831 C -2.3451552,0.39083109 -4.157738,2.9765625 -6.3783482,4.5829615 -8.5989584,6.1893603 -11.717262,6.9453126 -12.331473,6.2366073 L -12.774061,5.66703 -3.1857669,-1.0815257 Z"
           id="path5538"
           sodipodi:nodetypes="cscccc" />
        <path
           style="opacity:0.999;fill:#b2b2b2;fill-opacity:1;stroke:none;stroke-width:0.264583;stroke-opacity:1"
           d="M -2.7514538,-1.7496996 C -2.1078869,-1.0049231 -3.9207581,1.0566306 -6.5934534,3.395239 -9.2661488,5.7338476 -12.691427,6.5126702 -13.109827,5.7176349 -13.557133,4.8676743 -11.783223,1.7957897 -9.2604168,0 c 2.744647,-1.9537009 5.8600017,-2.3654706 6.508963,-1.7496996 z"
           id="path5540"
           sodipodi:nodetypes="csssc" />
        <path
           style="opacity:0.999;fill:#7b7b7b;fill-opacity:1;stroke:none;stroke-width:0.264583;stroke-opacity:1"
           d="m -5.6932664,-0.59058781 -1.4646577,-1.67726929 -4.8191969,3.6616443 1.441035,1.8190105 0.425223,-0.3543527 -1.03706,-1.3580043 3.8718813,-2.941475 1.0866816,1.25204618 z"
           id="path5544"
           sodipodi:nodetypes="ccccccccc" />
        <path
           style="opacity:0.999;fill:#888888;fill-opacity:1;stroke:none;stroke-width:0.264583;stroke-opacity:1"
           d="m -11.688279,1.6913958 c 0.06682,0 4.6103995,-3.8252951 4.6103995,-3.8252951 l -0.1503391,-0.1837479 -4.7273294,3.7250691 z"
           id="path5546" />
        <path
           style="opacity:0.999;fill:#c2c2c2;fill-opacity:1;stroke:none;stroke-width:0.264583;stroke-opacity:1"
           d="m -12.206114,6.0011171 c 1.102487,-0.066817 3.3408695,-0.9020347 3.3408695,-0.9020347 0,0 0.1336348,-3.6749562 0.1336348,-3.8419996 0,-0.1670435 -2.9065563,3.5079126 -3.4745043,4.7440343 z"
           id="path5548" />
      </g>
      <path
         style="opacity:0.999;fill:#000000;fill-opacity:1;stroke:none;stroke-width:0.264583;stroke-opacity:1"
         d="M 15.591518,7.5359005 C 10.016369,3.4490327 3.9451265,7.0870537 3.3781622,7.6540182 3.827009,8.3627233 4.9845611,9.5675224 8.2682293,9.68564 11.551897,9.8037576 14.05599,9.4257816 15.591518,7.5359005 Z"
         id="path5550" />
    </g>
    <g
       aria-label="Delete
Cable"
       id="text5617"
       style="font-size:10.5833px;line-height:1.25;font-family:'Poiret One';-inkscape-font-specification:'Poiret One';stroke-width:0.264583">
      <path
         d="m 9.1807867,-15.65674 h 0.3386655 q 1.7779948,0 2.8680738,1.174747 1.09008,1.164163 1.09008,2.804574 0,1.629828 -1.09008,2.7939911 Q 11.30803,-7.719265 9.5194522,-7.719265 H 9.1807867 Z m 0.4233319,0.317499 h -0.084666 v 7.2918937 h 0.084666 q 1.5451614,0 2.5294084,-1.0689132 0.99483,-1.0689135 0.99483,-2.5611585 0,-1.502829 -0.99483,-2.582325 -0.984247,-1.079497 -2.5294084,-1.079497 z"
         style="font-size:10.5833px;stroke-width:0.264583"
         id="path5621" />
      <path
         d="m 16.970085,-7.5922654 h -0.09525 q -1.005414,0 -1.756828,-0.7514143 -0.740831,-0.7619975 -0.740831,-1.7674113 0,-1.005413 0.740831,-1.735661 0.740831,-0.740831 1.830911,-0.740831 1.09008,0 1.873244,0.867831 l -3.323156,3.2808226 q 0.687914,0.5503316 1.322912,0.5503316 0.634998,0 1.132413,-0.2857491 0.507999,-0.2963324 0.836081,-0.7831641 v 0.5397482 q -0.751414,0.8254974 -1.820328,0.8254974 z M 16.853669,-12.29125 q -0.836081,0 -1.492245,0.656164 -0.645581,0.645581 -0.645581,1.492245 0,0.8466644 0.560914,1.4816623 l 3.079741,-3.0585733 q -0.656165,-0.571498 -1.502829,-0.571498 z"
         style="font-size:10.5833px;stroke-width:0.264583"
         id="path5623" />
      <path
         d="m 21.637309,-7.9203477 v 0.2963324 q -0.751414,0 -1.280579,-0.4974151 -0.529165,-0.5079984 -0.529165,-1.2911625 V -15.65674 h 0.338665 v 6.2441471 q 0,0.6455813 0.423332,1.0689132 0.433916,0.423332 1.047747,0.423332 z"
         style="font-size:10.5833px;stroke-width:0.264583"
         id="path5625" />
      <path
         d="m 24.441868,-7.5922654 h -0.09525 q -1.005413,0 -1.756827,-0.7514143 -0.740831,-0.7619975 -0.740831,-1.7674113 0,-1.005413 0.740831,-1.735661 0.740831,-0.740831 1.830911,-0.740831 1.090079,0 1.873244,0.867831 l -3.323157,3.2808226 q 0.687915,0.5503316 1.322913,0.5503316 0.634998,0 1.132413,-0.2857491 0.507998,-0.2963324 0.836081,-0.7831641 v 0.5397482 q -0.751415,0.8254974 -1.820328,0.8254974 z M 24.325452,-12.29125 q -0.836081,0 -1.492245,0.656164 -0.645582,0.645581 -0.645582,1.492245 0,0.8466644 0.560915,1.4816623 l 3.07974,-3.0585733 q -0.656164,-0.571498 -1.502828,-0.571498 z"
         style="font-size:10.5833px;stroke-width:0.264583"
         id="path5627" />
      <path
         d="m 29.003258,-7.9520976 v 0.2963324 q -0.751414,0 -1.280579,-0.4974151 -0.529165,-0.5079984 -0.529165,-1.2911625 v -4.9529842 h 0.338665 v 1.92616 h 1.460496 v 0.296333 h -1.460496 v 2.7304912 q 0,0.6455813 0.423332,1.0689132 0.433915,0.423332 1.047747,0.423332 z"
         style="font-size:10.5833px;stroke-width:0.264583"
         id="path5629" />
      <path
         d="m 32.231157,-7.5922654 h -0.09525 q -1.005414,0 -1.756828,-0.7514143 -0.740831,-0.7619975 -0.740831,-1.7674113 0,-1.005413 0.740831,-1.735661 0.740831,-0.740831 1.830911,-0.740831 1.09008,0 1.873244,0.867831 l -3.323156,3.2808226 q 0.687914,0.5503316 1.322912,0.5503316 0.634998,0 1.132413,-0.2857491 0.507999,-0.2963324 0.836081,-0.7831641 v 0.5397482 q -0.751414,0.8254974 -1.820327,0.8254974 z M 32.11474,-12.29125 q -0.83608,0 -1.492245,0.656164 -0.645581,0.645581 -0.645581,1.492245 0,0.8466644 0.560915,1.4816623 l 3.07974,-3.0585733 Q 32.961404,-12.29125 32.11474,-12.29125 Z"
         style="font-size:10.5833px;stroke-width:0.264583"
         id="path5631" />
      <path
         d="m 13.043691,5.6262759 h -0.116416 q -1.09008,0 -2.031994,-0.5714982 Q 9.9533675,4.4832795 9.4030359,3.5413658 8.8632877,2.5888689 8.8632877,1.5199556 q 0,-1.68274464 1.2170793,-2.8892408 1.21708,-1.2170795 2.910408,-1.2170795 1.132413,0 2.148409,0.5926648 v 0.3915821 q -0.99483,-0.6773312 -2.148409,-0.6773312 -1.555746,0 -2.666992,1.1218298 -1.1112464,1.11124645 -1.1112464,2.6775748 0,1.555745 1.1112464,2.6775748 1.111246,1.1218298 2.666992,1.1218298 1.153579,0 2.148409,-0.6773312 v 0.3915821 q -0.96308,0.5926648 -2.095493,0.5926648 z"
         style="font-size:10.5833px;stroke-width:0.264583"
         id="path5633" />
      <path
         d="M 21.161081,0.74737473 V 5.5098596 H 20.822416 V 4.32453 q -0.296333,0.6032481 -0.888997,0.952497 -0.592665,0.3492489 -1.269996,0.3492489 -1.037164,0 -1.777995,-0.7302477 -0.740831,-0.740831 -0.740831,-1.7674111 0,-1.02658 0.740831,-1.7568277 0.740831,-0.74083097 1.777995,-0.74083097 0.677331,0 1.291162,0.35983219 Q 20.579,1.3506228 20.822416,1.9432876 V 0.74737473 Z M 16.483263,3.1392004 q 0,0.8889972 0.645581,1.5451618 0.656165,0.6455813 1.545162,0.6455813 0.89958,0 1.534578,-0.6455813 0.634998,-0.6561646 0.634998,-1.5451618 0,-0.8995804 -0.645581,-1.555745 -0.634998,-0.65616458 -1.523995,-0.65616458 -0.888997,0 -1.545162,0.66674788 -0.645581,0.6561646 -0.645581,1.5451617 z"
         style="font-size:10.5833px;stroke-width:0.264583"
         id="path5635" />
      <path
         d="m 22.431059,5.5098596 v -7.9374748 h 0.338666 v 4.3391529 q 0.285749,-0.5820815 0.888997,-0.93133038 0.613832,-0.34924889 1.269996,-0.34924889 1.047747,0 1.777995,0.74083097 0.740831,0.7302477 0.740831,1.7568277 0,1.0265801 -0.740831,1.7674111 -0.730248,0.7302477 -1.777995,0.7302477 -0.634998,0 -1.238246,-0.3386656 -0.603248,-0.3492489 -0.920747,-0.9313304 v 1.1535797 z m 0.317499,-2.3706592 q 0,0.8889972 0.645582,1.5451618 0.656164,0.6455813 1.545162,0.6455813 0.89958,0 1.534578,-0.6455813 0.634998,-0.6561646 0.634998,-1.5451618 0,-0.8995804 -0.645581,-1.555745 -0.634998,-0.65616458 -1.523995,-0.65616458 -0.888998,0 -1.545162,0.66674788 -0.645582,0.6561646 -0.645582,1.5451617 z"
         style="font-size:10.5833px;stroke-width:0.264583"
         id="path5637" />
      <path
         d="m 30.262684,5.3087769 v 0.2963324 q -0.751414,0 -1.280579,-0.4974151 Q 28.45294,4.5996958 28.45294,3.8165316 v -6.2441468 h 0.338665 v 6.2441468 q 0,0.6455813 0.423332,1.0689133 0.433916,0.423332 1.047747,0.423332 z"
         style="font-size:10.5833px;stroke-width:0.264583"
         id="path5639" />
      <path
         d="m 33.067243,5.6368592 h -0.09525 q -1.005413,0 -1.756828,-0.7514143 -0.740831,-0.7619976 -0.740831,-1.7674111 0,-1.0054134 0.740831,-1.7356611 0.740831,-0.74083097 1.830911,-0.74083097 1.09008,0 1.873244,0.86783057 l -3.323156,3.2808229 q 0.687915,0.5503316 1.322913,0.5503316 0.634998,0 1.132413,-0.2857491 0.507998,-0.2963324 0.83608,-0.7831642 V 4.8113618 Q 34.136156,5.6368592 33.067243,5.6368592 Z M 32.950827,0.93787412 q -0.836081,0 -1.492246,0.65616458 Q 30.813,2.23962 30.813,3.0862839 q 0,0.846664 0.560915,1.481662 l 3.07974,-3.0585736 Q 33.797491,0.93787412 32.950827,0.93787412 Z"
         style="font-size:10.5833px;stroke-width:0.264583"
         id="path5641" />
    </g>
  </g>
</svg>
