<?xml version="1.0" encoding="UTF-8" standalone="no"?>
<svg
   xmlns:dc="http://purl.org/dc/elements/1.1/"
   xmlns:cc="http://creativecommons.org/ns#"
   xmlns:rdf="http://www.w3.org/1999/02/22-rdf-syntax-ns#"
   xmlns:svg="http://www.w3.org/2000/svg"
   xmlns="http://www.w3.org/2000/svg"
   xmlns:sodipodi="http://sodipodi.sourceforge.net/DTD/sodipodi-0.dtd"
   xmlns:inkscape="http://www.inkscape.org/namespaces/inkscape"
   width="273.92859"
   height="107.91117"
   viewBox="0 0 72.476938 28.551498"
   version="1.1"
   id="svg8"
   inkscape:version="1.0.1 (3bc2e813f5, 2020-09-07)"
   sodipodi:docname="cable_box.svg">
  <defs
     id="defs2" />
  <sodipodi:namedview
     id="base"
     pagecolor="#ffffff"
     bordercolor="#666666"
     borderopacity="1.0"
     inkscape:pageopacity="0.0"
     inkscape:pageshadow="2"
     inkscape:zoom="1.4"
     inkscape:cx="144.94462"
     inkscape:cy="75.804723"
     inkscape:document-units="px"
     inkscape:current-layer="layer1"
     inkscape:document-rotation="0"
     showgrid="false"
     units="px"
     inkscape:window-width="1620"
     inkscape:window-height="1018"
     inkscape:window-x="-6"
     inkscape:window-y="-6"
     inkscape:window-maximized="1"
     inkscape:snap-global="false"
     fit-margin-top="0"
     fit-margin-left="0"
     fit-margin-right="0"
     fit-margin-bottom="0" />
  <metadata
     id="metadata5">
    <rdf:RDF>
      <cc:Work
         rdf:about="">
        <dc:format>image/svg+xml</dc:format>
        <dc:type
           rdf:resource="http://purl.org/dc/dcmitype/StillImage" />
        <dc:title></dc:title>
      </cc:Work>
    </rdf:RDF>
  </metadata>
  <g
     inkscape:label="Layer 1"
     inkscape:groupmode="layer"
     id="layer1"
     transform="translate(25.536324,17.452152)">
    <rect
       style="opacity:0.999;fill:#dddddd;fill-opacity:1;stroke:none;stroke-width:0.264583"
       id="rect4919"
       width="73.900024"
       height="21.916101"
       x="-25.937227"
       y="-26.40568" />
    <path
       id="rect4914"
       style="opacity:0.999;fill:#000000;fill-opacity:1;stroke:none;stroke-width:0.285935"
       d="m -13.98512,9.1267824 h 12.0379173 l -0.968852,1.9725636 h -9.9665783 z"
       sodipodi:nodetypes="ccccc" />
    <path
       id="path4917"
       style="opacity:0.999;fill:#1a1a1a;fill-opacity:1;stroke:none;stroke-width:0.240222"
       d="m -13.383763,8.3917912 h 8.4965954 l -0.6838346,1.9725638 h -7.0346038 z"
       sodipodi:nodetypes="ccccc" />
    <rect
       style="opacity:0.999;fill:#dddddd;fill-opacity:1;stroke:none;stroke-width:0.270006"
       id="rect4910"
       width="72.476936"
       height="26.865196"
       x="-25.536324"
       y="-17.452152"
       ry="7.0826426" />
    <rect
       style="opacity:0.999;fill:#e5e5e5;fill-opacity:1;stroke:none;stroke-width:0.262621"
       id="rect4912"
       width="71.40786"
       height="25.796118"
       x="-25.536324"
       y="-17.452152"
       ry="6.8007946" />
    <rect
       style="opacity:0.999;fill:#e5e5e5;fill-opacity:1;stroke:none;stroke-width:0.260807"
       id="rect4921"
       width="71.806099"
       height="21.916101"
       x="-25.937227"
       y="-26.40568" />
    <g
       aria-label="Cable Box"
       id="text4908"
       style="font-size:14.1111px;line-height:1.25;font-family:'Poiret One';-inkscape-font-specification:'Poiret One';stroke-width:0.264583">
      <path
         d="m -12.902517,0.48849384 h -0.155222 q -1.453443,0 -2.709331,-0.76199941 -1.255888,-0.76199943 -1.989665,-2.01788733 -0.719666,-1.269999 -0.719666,-2.6952201 0,-2.243665 1.622776,-3.8523304 1.622777,-1.6227766 3.880553,-1.6227766 1.509888,0 2.864553,0.7902217 v 0.5221107 q -1.326443,-0.9031104 -2.864553,-0.9031104 -2.074332,0 -3.555997,1.4957766 -1.481666,1.4816655 -1.481666,3.5701084 0,2.0743317 1.481666,3.5701083 1.481665,1.49577664 3.555997,1.49577664 1.53811,0 2.864553,-0.90311041 v 0.5221107 q -1.28411,0.79022161 -2.793998,0.79022161 z"
         style="font-size:14.1111px;stroke-width:0.264583"
         id="path4923" />
      <path
         d="M -2.0793032,-6.0167233 V 0.33327174 H -2.5308584 V -1.2471715 q -0.3951108,0.80433273 -1.1853324,1.26999904 -0.7902217,0.4656663 -1.6933321,0.4656663 -1.3828878,0 -2.3706648,-0.97366591 -0.987777,-0.98777703 -0.987777,-2.35655373 0,-1.3687767 0.987777,-2.3424426 0.987777,-0.987777 2.3706648,-0.987777 0.9031104,0 1.7215543,0.4797774 0.8325549,0.4797774 1.1571102,1.269999 v -1.5945543 z m -6.2371063,3.1891086 q 0,1.1853324 0.8607771,2.06022063 0.8748882,0.86077711 2.0602206,0.86077711 1.1994436,0 2.0461096,-0.86077711 0.846666,-0.87488823 0.846666,-2.06022063 0,-1.1994435 -0.8607771,-2.0743317 -0.846666,-0.8748882 -2.0319985,-0.8748882 -1.1853324,0 -2.0602206,0.8889993 -0.8607771,0.8748882 -0.8607771,2.0602206 z"
         style="font-size:14.1111px;stroke-width:0.264583"
         id="path4925" />
      <path
         d="M -0.38599428,0.33327174 V -10.250053 h 0.4515552 v 5.7855507 q 0.38099971,-0.7761105 1.18533238,-1.2417768 0.8184439,-0.4656663 1.6933321,-0.4656663 1.3969989,0 2.3706648,0.987777 0.987777,0.9736659 0.987777,2.3424426 0,1.3687767 -0.987777,2.35655373 -0.9736659,0.97366591 -2.3706648,0.97366591 -0.846666,0 -1.6509988,-0.4515552 Q 0.48889393,-0.42872767 0.06556092,-1.2048382 v 1.53810994 z m 0.423333,-3.16088644 q 0,1.1853324 0.86077712,2.06022063 0.87488816,0.86077711 2.06022066,0.86077711 1.1994435,0 2.0461095,-0.86077711 0.846666,-0.87488823 0.846666,-2.06022063 0,-1.1994435 -0.8607771,-2.0743317 -0.846666,-0.8748882 -2.0319984,-0.8748882 -1.1853325,0 -2.06022066,0.8889993 -0.86077712,0.8748882 -0.86077712,2.0602206 z"
         style="font-size:14.1111px;stroke-width:0.264583"
         id="path4927" />
      <path
         d="m 10.056196,0.06516084 v 0.3951108 q -1.0018883,0 -1.7074433,-0.66322171 -0.705555,-0.67733281 -0.705555,-1.72155423 v -8.3255487 h 0.4515552 v 8.3255487 q 0,0.8607771 0.564444,1.42522113 0.5785551,0.56444401 1.3969991,0.56444401 z"
         style="font-size:14.1111px;stroke-width:0.264583"
         id="path4929" />
      <path
         d="m 13.795618,0.50260494 h -0.127 q -1.340554,0 -2.342443,-1.00188811 -0.987777,-1.01599923 -0.987777,-2.35655373 0,-1.3405545 0.987777,-2.3142204 0.987777,-0.987777 2.441221,-0.987777 1.453443,0 2.497664,1.1571102 l -4.430885,4.37444103 q 0.917222,0.73377721 1.763888,0.73377721 0.846666,0 1.509887,-0.38099971 0.677333,-0.3951108 1.114777,-1.04422143 v 0.71966613 Q 15.220839,0.50260494 13.795618,0.50260494 Z M 13.640396,-5.7627235 q -1.114777,0 -1.989665,0.8748882 -0.860777,0.8607771 -0.860777,1.9896651 0,1.128888 0.747888,1.97555402 l 4.10633,-4.07810792 q -0.874888,-0.7619994 -2.003776,-0.7619994 z"
         style="font-size:14.1111px;stroke-width:0.264583"
         id="path4931" />
      <path
         d="m 22.756128,-10.250053 h 0.451556 q 0.917221,0 1.53811,0.5785547 0.620888,0.564444 0.620888,1.4534433 0,0.5362218 -0.352778,1.1006658 -0.338666,0.5503329 -0.804332,0.7196661 1.086554,0.268111 1.806221,1.1571103 0.719666,0.8889993 0.719666,2.2436649 0,1.3405545 -1.030111,2.34244263 -1.03011,0.98777701 -2.497664,0.98777701 h -0.451556 z m 0.451556,4.1063298 v 6.08188414 h 0.112888 q 1.213555,0 2.088443,-0.90311042 0.889,-0.90311042 0.889,-2.14488722 0,-1.2417768 -0.874889,-2.1307761 -0.874888,-0.9031104 -2.102554,-0.9031104 z m 0,-3.7112194 v 3.3302196 h 0.112888 q 0.635,0 1.114777,-0.5079996 0.493889,-0.5221107 0.493889,-1.1853324 0,-0.6773328 -0.479778,-1.1571102 -0.479777,-0.4797774 -1.128888,-0.4797774 z"
         style="font-size:14.1111px;stroke-width:0.264583"
         id="path4933" />
      <path
         d="m 30.954665,0.48849384 q -1.354666,0 -2.328331,-1.00188811 -0.973666,-1.01599923 -0.973666,-2.35655373 0,-1.3405545 0.987777,-2.3142204 0.987777,-0.987777 2.370664,-0.987777 1.396999,0 2.370665,0.987777 0.987777,0.9736659 0.987777,2.3283315 0,1.3405545 -0.959554,2.34244263 -0.959555,1.00188811 -2.328332,1.00188811 z m 2.963331,-3.31610854 q 0,-1.1994435 -0.860777,-2.0743317 -0.846666,-0.8748882 -2.031998,-0.8748882 -1.185333,0 -2.060221,0.8889993 -0.860777,0.8748882 -0.860777,2.0602206 0,1.1853324 0.860777,2.06022063 0.874888,0.86077711 2.060221,0.86077711 1.199443,0 2.046109,-0.86077711 0.846666,-0.87488823 0.846666,-2.06022063 z"
         style="font-size:14.1111px;stroke-width:0.264583"
         id="path4935" />
      <path
         d="m 38.137209,-3.5190586 2.554109,3.85233034 h -0.52211 L 37.883209,-3.1239478 35.611322,0.33327174 h -0.451555 l 2.497665,-3.80999704 -1.679221,-2.539998 h 0.52211 l 1.41111,2.1448872 1.411111,-2.1448872 h 0.451555 z"
         style="font-size:14.1111px;stroke-width:0.264583"
         id="path4937" />
    </g>
  </g>
</svg>
